<svg xmlns="http://www.w3.org/2000/svg" viewBox="0 0 776 1282.62">
  <defs>
    <style>
      .cls-1 {
        fill: none;
        stroke: #e2d7c4;
        stroke-miterlimit: 10;
        stroke-width: 30px;
      }

      .cls-2 {
        fill: #e2d7c4;
      }

      .cls-3 {
        fill: #ffb429;
      }

      .cls-4 {
        fill: #494a4c;
      }
    </style>
  </defs>
  <title>dark-themed-lightbulb</title>
  <g id="Layer_2" data-name="Layer 2">
    <g id="dark-theme-light">
      <path class="cls-1"  style="fill: var(--turn-on)" d="M760.93,402a372.36,372.36,0,0,1-18.56,109.53,5.66,5.66,0,0,0-.15.59C727.17,600,555.94,774.92,585.11,943.46c.59,3.41-4.94,4.63-7.45,2.25a26.5,26.5,0,0,0-11.09-6.29,25.63,25.63,0,0,0-7.1-1H216.53a25.91,25.91,0,0,0-4.93.47,26.27,26.27,0,0,0-11.69,5.42c-2.59,2.09-7.42.93-7.24-2.4,8-152-130.9-322.72-153.62-414.95a4.26,4.26,0,0,0-.15-.47A372.12,372.12,0,0,1,15,394.85C15,193.23,175,29,374.92,22.08,588.15,14.73,765,188.72,760.93,402Z"/>
      <g>
        <polygon class="cls-2" points="760.43 402 762.01 394.42 757.68 392.08 760.43 402"/>
        <path class="cls-2" d="M775,365l-.7-3.31-.77-3.3L772,351.85c-5.9,4.49-8.2,4-9.89,5.16s-2.67,3.89-6.51,14.17c.66,1.72,1.36,4,2.25,6.34s1.91,4.89,2.91,7.13c2.06,4.49,4.46,7.91,6.9,6.84-.31-2.59-1.71-5.76-2.86-9.21s-2.21-7.17-1.67-11c2,1.51,2.84,4.33,3.93,7.25s2.23,5.92,4.65,7.84a18.11,18.11,0,0,0,1-6.8,8.74,8.74,0,0,0-1.23-3.61,14.79,14.79,0,0,1-1.64-3.79,23.1,23.1,0,0,1-.56-7.39Z"/>
        <path class="cls-2" d="M761,350.66c2.34.93,4.64,1.94,6.38,1.54C765,351.18,761.58,345.2,761,350.66Z"/>
        <path class="cls-2" d="M758.72,343c-.77-8.19,4.62-.56,5.17-1.44-3.18-2.74-6.31-5.41-9.49-8C755.86,336.67,757.27,339.82,758.72,343Z"/>
        <path class="cls-2" d="M752.92,309.37c-.51-1.27-1-2.43-1.61-3.58C750.35,307.37,751.64,308.2,752.92,309.37Z"/>
        <path class="cls-2" d="M747.75,293.37c-1.72,4,.89,7.57,3.56,12.42a5.49,5.49,0,0,1,.37-.62c.55-2.56,2.52-3.15,4.4-2.09s3.61,3.79,3.74,7.73a10.56,10.56,0,0,1,.94,4.58,15.71,15.71,0,0,1-.55,3.1c-.46,1.83-.56,3.43,1.9,6.51,1-3.44,1.82-6.88,2.73-10.38a24.73,24.73,0,0,0-1.58-4.32,30.19,30.19,0,0,0-2.06-3.69,31.3,31.3,0,0,0-2.35-3.14c-.84-1-1.7-1.84-2.55-2.65C752.89,297.56,749.56,295.38,747.75,293.37Z"/>
        <path class="cls-2" d="M752.92,309.37a27.63,27.63,0,0,1,1.38,4.26A4,4,0,0,0,752.92,309.37Z"/>
        <polygon class="cls-2" points="755.81 326.27 757.75 330.22 759.99 328.79 755.81 326.27"/>
        <path class="cls-2" d="M738.71,267c2-.23,3.44.84,4.45,2.62a27.47,27.47,0,0,1,2.31,6.68c1.17,4.95,2.06,10,5.33,10.16a28.9,28.9,0,0,1-1.31-14.29c.76-3.8,2.6-6.23,5-5.79-1-1.86-2.21-3.69-3.33-5.52s-2.23-3.67-3.39-5.47c-2.17-1.39-4.12-.28-5.68,2.05A26.62,26.62,0,0,0,738.71,267Z"/>
        <path class="cls-2" d="M748,236.77a7.6,7.6,0,0,1-2.46-2.15C746.48,235.75,747.3,236.69,748,236.77Z"/>
        <path class="cls-2" d="M705.57,187.39c7.52,6.58,14.88,13.53,21.95,20.86-1.79-.58-3.09-.32-4.45-.59s-2.73-1.09-4.83-3.71a39.92,39.92,0,0,0,4,6.77,46.28,46.28,0,0,0,3.86,4.24,44.58,44.58,0,0,1,3.64,3.92,22.58,22.58,0,0,1,1.73,2.52,28.05,28.05,0,0,1,1.58,3.28c-2.61,3.09-4.74-1.1-6.82-4.88s-3.86-7.32-5.31-3.07c3.7,6.46,8.94,16.13,17.08,19.09.21,4.3.18,8.65.24,12.9q2.91-3.42,5.8-6.92c.1-2.7-2.32-4.34-4.35-5.86s-3.52-3-1.62-5.56c2.48-2.89,5.15,1.31,7.38,4.13a18.4,18.4,0,0,1-2.67-6.42c-.66-2.61-1.29-5.59-2-8.86-.18-.81-.36-1.64-.55-2.48s-.43-1.68-.66-2.54q-.69-2.58-1.6-5.24a49.06,49.06,0,0,0-5.12-10.49c-2.36-3.59-4.69-5.65-7-6.82a15.73,15.73,0,0,0-6.88-1.49C714.52,190.07,710.16,190.78,705.57,187.39Z"/>
        <polygon class="cls-2" points="712.3 181.51 713.88 178.16 711.1 181.66 712.3 181.51"/>
        <path class="cls-2" d="M685.11,161.88l6.61,4.42c2.21,1.48,4.35,3,6.55,4.59.41,1.72-.41,3.44-1,5.17,1.13-1.59,6.07-.05,7-1.47,1-5-2.34-8.48-6.52-11.38s-9.42-5.1-12.52-7.81c-2.73-4.71-4-7.12-4.18-8.34s.6-1.19,1.76-.94c2.33.51,6.13,2.06,6-3.43a21.26,21.26,0,0,1,3.36,5.8,33.14,33.14,0,0,0,1.49,3c.32.59.7,1.23,1.16,1.93s1,1.51,1.56,2.4a23.86,23.86,0,0,0-3.87-10.49,37.06,37.06,0,0,0-7.3-8,75.36,75.36,0,0,0-8.31-5.83c-2.68-1.63-5.15-3-7-4.18,1.18,2.32-.05,4.3,3.65,7.32-2.59-1.63-5.22-3.2-7.81-4.78a45,45,0,0,0,2.06,7.38,40.16,40.16,0,0,0,3.45,7C674.15,149,678.5,154.37,685.11,161.88Z"/>
        <path class="cls-2" d="M701,183.46c-3.65-4.26-4.39-6.29-3.83-7.26C696.44,178.55,696.33,180.88,701,183.46Z"/>
        <path class="cls-2" d="M666.43,124.12c.36,1,1.62,2,3.41,3.21A8,8,0,0,0,666.43,124.12Z"/>
        <path class="cls-2" d="M666.18,136.4c-2.24-2.74-4.47-5.49-6.81-8.16l.46,5.35C661.11,134.36,665.05,137.78,666.18,136.4Z"/>
        <path class="cls-2" d="M293.53,16.63c1.73,2.69,5.83,2.91,13.88.72-.07,2-2.77,3.43-6,4.71s-6.88,2.79-9,4.51c5.57-.12,5.78,1,5.09,2.56s-2.3,3.49-.52,5a44.08,44.08,0,0,0,7.49-2.49c2.22-.89,4.21-1.9,6.25-2.9a60,60,0,0,1,6.49-2.81,34.09,34.09,0,0,1,3.8-1.11,40.12,40.12,0,0,1,4.45-.58c-.44,1.22.07,2.91,1.92,4,3.66-1.2,8-2.64,12.65-4,4.7-1.16,9.76-2.31,14.85-3.27a74.5,74.5,0,0,1,7.62-1c2.52-.24,5-.42,7.4-.51s4.71-.13,6.89,0a52.81,52.81,0,0,1,6.11.83c3.61.25,7,.49,10.25.5s6.45,0,9.69-.18l10-.52c3.48-.24,7.15-.32,11.16-.45,26,3.42,52.36,8.07,78.46,16s51.77,19.19,75.12,34.94c3.59-.9,7.18-1.69,10.85-2.5a5,5,0,0,0,1.89,3.14,32.42,32.42,0,0,0,3.47,2.65c2.32,1.66,4.08,3.13,2,4.79-2.05-2.46-5-3.4-8.16-5.28a25.61,25.61,0,0,0,7.17,7.9,54.09,54.09,0,0,0,4.78,3.37c.84.53,1.71,1.06,2.59,1.58l2.64,1.6L610.27,91c1.78,1.09,3.55,2.19,5.26,3.32.85.56,1.69,1.13,2.51,1.72s1.58,1.21,2.33,1.83a39.41,39.41,0,0,1,4.13,3.88c-.43-2.07,1.84-8.85,6.08-7-3.11,3,.23,5.69,4,9a27,27,0,0,1,5.1,5.55,9,9,0,0,1,1.31,3.23,7.29,7.29,0,0,1-.32,3.63c4.48,5.75,5.86,4.46,7.39,3.15s3.2-2.67,8.24,3.11c2.35-1.24.13-4.23-2.62-7.51s-6.14-6.67-5.89-9c3.16.11,5.48,2.82,7.37,4.93s3.3,3.71,4.88,1.54c-1-1.2-2.13-2.44-3.36-3.66s-2.57-2.44-4-3.69c-2.78-2.53-6-5-9.43-7.51a220.4,220.4,0,0,0-23.53-14.64c-8.62-4.68-17.74-9.19-26.92-13.31s-18.3-8-26.9-11.74l5.73-2.32A298.08,298.08,0,0,1,539.8,42.33c-10.92-5.26-21.19-11-27.38-17.12.51,1.36-.9,1.33-3.29.7-1.2-.31-2.65-.79-4.24-1.3s-3.32-1-5.07-1.52a48.86,48.86,0,0,0-5.2-1.25,21.78,21.78,0,0,0-4.6-.34c-2.7.16-4.48,1.22-4.44,3.9a18.67,18.67,0,0,0-5.2-3.34c-1.72-.71-3.72-1.41-7-2.56l-2.56,2.79a17.75,17.75,0,0,1-5.3-2,22.06,22.06,0,0,1-3.21-2.36c-2-1.6-4.16-3.32-9.81-4,6.56,5.56-1.81,5.51-5.53,8.6-2.95-1.72-6.09-3.3-9.3-4.93s-6.52-3.05-9.8-4.53-6.59-2.75-9.77-4.08l-9.15-3.64c.84,1.46,1.85,3.14,5.68,5.28-7.78-2-6.64,2.29-8.77,3.69-7.46,0-6.58-5.71-6.14-8.57a22,22,0,0,0-9.28.5,31.65,31.65,0,0,0-3.89,1.28c-1.23.5-2.4,1.06-3.55,1.59a35.17,35.17,0,0,1-6.68,2.61,12.91,12.91,0,0,1-7.19,0L373,16a61.59,61.59,0,0,1-10.26.5c-1.68-.05-3.35-.14-5-.25s-3.35-.09-5-.15c-3.37-.1-6.8-.18-10.36,0-.89,0-1.79.09-2.69.16l-1.36.12-1.37.21c-1.84.3-3.71.68-5.62,1.18-4.22-2.48-1.25-4.31,3.62-6,2.42-.9,5.34-1.5,8-2.2a33.8,33.8,0,0,0,6.75-2.27c-3.37-.95-10.29-.53-12.74-2.34C333.71,7,329.44,9.63,325,12.21c-2.2,1.3-4.45,2.55-6.6,3.85l-6.11,3.79c3.19-4.37-.08-5.44-4.93-5.3a64.2,64.2,0,0,0-7.75.82C297.15,15.87,294.9,16.4,293.53,16.63Z"/>
        <path class="cls-2" d="M336.93,4.93A39.12,39.12,0,0,0,341.24,2a13.67,13.67,0,0,1-5.33,1.1A1.81,1.81,0,0,0,336.93,4.93Z"/>
        <path class="cls-2" d="M293.53,16.63c-.11-.22-.4-.35-.49-.59C291.6,16.83,292.16,16.87,293.53,16.63Z"/>
        <path class="cls-2" d="M384.93,20.63c-.59-.16-1.36-.21-2-.34-.88-.09-1.63,0-2.52-.15Z"/>
        <path class="cls-2" d="M396.81,0a131.9,131.9,0,0,0,12.12,5.32C407.69,3.16,406.64,1.51,396.81,0Z"/>
        <path class="cls-2" d="M493.25,19.17c3.12,0,1.83-1.76,4.28-2.58C491.53,14.72,489.14,15.61,493.25,19.17Z"/>
        <path class="cls-2" d="M319.19,6.56c-2,.52-3.95,1.25-5.92,1.88l-5.88,2-4.16,2.1,7.94-3,4-1.5,2-.75C317.84,7,318.52,6.79,319.19,6.56Z"/>
        <path class="cls-2" d="M120.32,139.78a23.67,23.67,0,0,0,3.93-1.82,33.76,33.76,0,0,0,3.83-2.39,62.51,62.51,0,0,0,7.17-6.25c2.28-2.36,4.73-4.64,7.13-6.92a92.74,92.74,0,0,1,7.35-6.36c7.89-8.37,6.67-11.13,5.42-13.61-.62-1.24-1.22-2.4-.6-4.17a10.75,10.75,0,0,1,2-3.2,42.93,42.93,0,0,1,4.91-4.39q1.81,5.61,3.71,11.16c2.14-1.68,4.42-3.42,6.8-5.2s4.8-3.68,7.43-5.38,5.22-3.55,7.85-5.4l3.92-2.8c1.35-.88,2.68-1.78,4-2.68,5.31-3.6,10.29-7.56,15-11.28a76.78,76.78,0,0,0,6.43-6c1-1,1.9-2.11,2.81-3.12s1.76-2,2.55-3.11c2.15.48,6.36.31,1.92,4.25,13-6.72,0-18,20.18-22.54-7.38,6.89-5.23,7.77-1.65,8s8.67-.11,7.65,4.08l-2.32,1.87c1.39-.69,2.82-1.45,4.27-2.25s3-1.53,4.5-2.35c3-1.59,6.13-3.28,9.11-4.88a88.73,88.73,0,0,1,8.6-4.15,49.39,49.39,0,0,1,7.1-2.55c-.45-2.86-8.76-4.89,1.89-8.59-4.51.82-3.7-2.84-4.12-5.74a80,80,0,0,1-13.14,6.52l-1.35.59-1.27.65c-.83.44-1.64.9-2.41,1.39a21.16,21.16,0,0,0-4.31,3.64c-7.48-1.22,3.76-2.66-3.74-3.87L249,34.28c-.64.55-1.28,1.08-1.9,1.65l-1.86,1.73c-3.36.94-2.07-.64-1.21-2s1.29-2.55-3.91-.77c-.16,1.26-2,3.29-4.87,5.37a44.9,44.9,0,0,1-4.86,3.07,43.14,43.14,0,0,1-5.64,2.85l1.67-2.23c-5.24,4.16-14.33,6.46-8.68,10.68l-2.41-.54-2.38-.47-4.81-.92,3.15,3.12a56.12,56.12,0,0,1-11.41,3.38c-1.82.32-3.54.69-5.26,1.06s-3.44.72-5.17,1.16a43.23,43.23,0,0,0-10.65,4,52.69,52.69,0,0,0-11.48,9.43c5.35-2,2.42,2.66.47,5a13.81,13.81,0,0,0,8.47-6.41c.86-1.32,1.65-2.73,2.68-4.15a20.94,20.94,0,0,1,1.77-2.15,18.3,18.3,0,0,1,2.44-2c1.71,1.46-.12,5.18-.84,8.28s-.58,5.23,4.57,3.3c-6.25,1.17-10.85,4.45-15.11,6.67-1.08.54-2.09,1.08-3.12,1.51a12.86,12.86,0,0,1-3.12.88,11.43,11.43,0,0,1-7-1.38c-1.52,1-2.87,2-4.09,3a33.59,33.59,0,0,0-3.3,3c-2,2-3.58,4-5.25,6a59.31,59.31,0,0,1-5.47,5.72,50.46,50.46,0,0,1-7.61,5.9l-.71-1.45c1.31,3.51-1.43,4.9-5,7l-1.35.83c-.44.32-.89.65-1.33,1a20,20,0,0,0-2.58,2.41,15.76,15.76,0,0,0-3.68,7.38l6.6-4.32c1.73,2.32-.84,5-4.18,9-.36-1.17-.35-1.17-2.55-1a3.52,3.52,0,0,1,.35,2.05,11.9,11.9,0,0,1-.59,2.58,34.26,34.26,0,0,1-2.84,5.94c-2.3,4-5,7.73-5.09,9,2.63-2.2,4.57-5.51,6.44-9.14.92-1.84,1.86-3.71,2.81-5.58a47.31,47.31,0,0,1,3.3-5.24c-.41,2.48.38,4.24.59,5.9a4.41,4.41,0,0,1-.32,2.48A8,8,0,0,1,120.32,139.78Z"/>
        <path class="cls-2" d="M229.67,39.69c-1.11,1.37-2.18,2.84-3.26,4.25A8.77,8.77,0,0,0,229.67,39.69Z"/>
        <path class="cls-2" d="M73.38,184.4a12.7,12.7,0,0,1-1.87,1.8,2,2,0,0,1-1.14.55c-.59,0-.9-.59-1.22-1.22-.66-1.25-1.37-2.67-4.62.41-1,5,1.94,3.6,5.06,2.41s6.4-2.22,6.21,3c-2.75,1.52-4.22,4.91-5.21,8.28-.49,1.69-.87,3.37-1.24,4.83A19.22,19.22,0,0,1,68.27,208c-.6-5-7.51-6.41-9.51-5.64-.06,2-1.78,4.34-3.89,6.83L51.58,213c-.54.65-1.07,1.31-1.56,2a20.25,20.25,0,0,0-1.26,2c.66-.71,1.2-1.29,1.69-1.74a11.14,11.14,0,0,1,1.25-1c.66-.44,1-.48,1.18-.24.34.48-.23,2-.64,3.65-.89,3.27-1.77,6.67,3.23,1.79,1.53,1.36,1.41,5.45.27,9.61a27.48,27.48,0,0,1-2.41,6A14.25,14.25,0,0,1,50,239.45c-1.22-.78-1.24-2.15-.78-3.75a47.72,47.72,0,0,1,2.32-5.07c-1.76-2.54-3.47-.78-5.41,1.62-1,1.18-1.91,2.59-3,3.66a5.12,5.12,0,0,1-3.6,1.81,35,35,0,0,1-.39,7.06c-.18,1.32-.41,2.69-.68,4.12s-.47,2.92-.75,4.43c-.52,3-1.13,6.15-1.72,9.22-.29,1.54-.58,3.07-.87,4.57s-.43,3-.61,4.43c-.68,5.76-.94,10.73-.06,13.71a3.85,3.85,0,0,0,2.3,2.87c1.1.37,2.53.09,4.47-.91,3.71-3.7,2.11-8.34,3.23-13.31-3.36,6.31-4.9,5.86-5.79,3.55s-1.14-6.5-2-7.45A21.1,21.1,0,0,0,39,265.36c.63-1.7,1.13-3.46,1.61-4.94,1-3,1.8-4.83,3.38-2.9l.77,10.63c1.65-3.48,3.32-7.14,5-10.95.8-1.92,1.76-3.8,2.7-5.73l2.8-5.88,2.82-6.05q1.53-3,3.1-6c1-2.05,2.06-4.1,3.1-6.17l1.55-3.12c.53-1,1.12-2,1.68-3.08q3.38-6.15,6.72-12.41l7.17-12.18,1.77-3,1.89-2.94,3.72-5.86,3.66-5.79,3.81-5.53c-1.57,2-3.19,4-4.72,6l-4.45,6.23c-1.68-3.33,2.22-9.54,4.52-14.93l-5.52.64c-1.84.23-3.73.44-5.52.74.75-.86,1.48-1.73,2.13-2.55s1.23-1.59,1.77-2.19c1.09-1.21,2-1.75,3.05-.73.67-6.47-2.47-5.74-6.73-4.68A56.87,56.87,0,0,1,85,155.8c1.24-1.6,2.3-2.89,3.32-4.09,2-2.45,3.39-4.92,4.41-10.2a33.26,33.26,0,0,0-9,7.57A25.12,25.12,0,0,0,80.35,156a31.69,31.69,0,0,1-3.48,7.37,52.52,52.52,0,0,1-8.9,9.82Q70.63,178.84,73.38,184.4Z"/>
        <polygon class="cls-2" points="95.89 147.25 95.94 153.47 99.12 146.61 95.89 147.25"/>
        <path class="cls-2" d="M104.73,164.16c-1.52-.92-.32-3.58-1.84-4.53a20.59,20.59,0,0,0-3.34,3.63c-.56.93-.66,1.53-.37,1.86C99.76,165.79,101.76,165.27,104.73,164.16Z"/>
        <path class="cls-2" d="M34.25,248.8l-3,11.65,4.23-6.66C33.77,253.31,34.09,250.34,34.25,248.8Z"/>
        <path class="cls-2" d="M31.77,332.81c.49-3.89.65-7.29.85-10.43s.51-6,.9-8.95c.2-1.47.43-2.94.74-4.45q.23-1.14.51-2.31a19.77,19.77,0,0,1,.69-2.37,70.79,70.79,0,0,1,4.82-10.7c-1.37-4.94-4-4.71-6.74-3.77s-5.62,2.55-7.38,0c-1.79,4.27-.47,6.73,1.2,9.26a24.61,24.61,0,0,1,2.41,4.13A12.89,12.89,0,0,1,30.84,309c-2.56,1.15-3.07,4.54-3.3,8.66s.06,9-1.24,13.25A4.23,4.23,0,0,1,31.77,332.81Z"/>
        <path class="cls-2" d="M9.27,386.15a35.33,35.33,0,0,0,.35,5.63c.12.93.27,1.85.41,2.77s.34,1.81.5,2.7c.64,3.56,1,6.9.05,9.9-1.43-.38-2.45-1.68-3-3.47a15,15,0,0,1-.3-6.33c-3.19,1.49-2.92,3.61-2.37,6.35s1.48,6.1-.47,10.31c.64-.76,1.65-3.76,3.11-1.52-.22,10.18,1.42,12.94,2.73,16.43A26.91,26.91,0,0,1,12,435.74c.1.78.19,1.64.27,2.6s.17,2,.23,3.15c.13,2.31.13,5.06.19,8.37,2.27,3.5,2.83,7.18,7,5.86a80.91,80.91,0,0,1-1.84,8.07c-.5,1.78-.95,2.9-1.35,4.1a26.13,26.13,0,0,0-1.11,4.68c-.29,2.16-.55,5.18-.71,9.86,2.25-1.26,6.62-8.26,11.86-9.21a61.58,61.58,0,0,0,.34,15,43.13,43.13,0,0,0,2.54,9c1.93,4.91,3.77,8.57,3.61,17-.88-1.6-2.79-3.22-3.42-7.56-6.56,4.21,5.41,12.57,7.08,21-2.12.41-4.12,1.14-6.24,1.54.07.13.18.38.18.31l.17.24.34.57-.06-.23v0l0,.05,0,.09.09.19.17.39.37.79c.25.53.5,1.08.77,1.64l1.62,3.49c.29.6.55,1.22.85,1.82s.59,1.21.9,1.83c.59,1.23,1.17,2.49,1.71,3.77s1,2.6,1.49,3.9A39.45,39.45,0,0,1,40.34,552a28,28,0,0,1,.95,7.94c-1.29-.34-2.59-.67-3.86-1C43.71,568,48.92,578.22,54,588c2.51,4.92,5,9.68,7.46,14.21s5,8.69,7.54,12.36l.88,10.34c7.84,9.73,5.5,4.08,3.33-2.57s-4.17-14.29,4.17-8.54c-4.6,3.89-2.3,6.26,1.44,9.45s8.93,7.18,10.12,14.41c-1.06,8-8.72-11.31-10.08-2.37,6.76-.09,5,5.75,10,11.45-5.78,1.26,6.55,14-1.24,13l21.46,18.06c-.91,5.21,3,11.63,6.31,16.2-6.4-12.5,9.33-.46,4.36-15.68-6.52-9.58-14.74-22.57-22.64-36.52s-15.48-28.87-20.57-42.28a5.59,5.59,0,0,1-4.94-2.29,25.37,25.37,0,0,1-3.21-5.84,43.28,43.28,0,0,0-3.08-6.21,7,7,0,0,0-4.49-3.49c2-1.67,3-4.52,5-6.19-1.18-2-2.07-3.38-2.74-4.33a4.64,4.64,0,0,0-1.51-1.55c-.7-.26-.82.86-.8,2.39,0,3.09.79,7.78-1.48,6.35a16.31,16.31,0,0,1-2.21-5.25,15.8,15.8,0,0,1-.39-4.82c.24-2.89,1.39-4.94,2.84-5.17-4.65-12.2-2.51-.48-9-5.06,1.51-3.73,3.2-7.46,4.89-11.08-.73-1.63-1.52-3.28-2.24-5L51,536.88c-.36-.87-.72-1.75-1.09-2.63s-.65-1.78-1-2.67c-.66-1.86-1.34-3.75-2-5.65-.24-.72-.49-1.37-.8-2.12l-.73-1.62L44,519c-1-2.13-1.88-4.32-2.81-6.52-.46-1.1-.93-2.21-1.39-3.32s-.88-2.24-1.33-3.37c-.89-2.26-1.78-4.54-2.59-6.86a266,266,0,0,1-8.72-28.78c-4.74-19.72-6.94-40.28-5.76-59.45-1.76,1.25-3.47,2.52-5.19,3.8,1-10.72-2.13-19.54-3.72-28.32-.42-2.18-.78-4.36-1-6.53q-.15-1.63-.18-3.27a22.5,22.5,0,0,1,.25-3.27,28.71,28.71,0,0,1,5.37-13.25c-1.42-2.29-2.66-4.59-3.92-6.92,1.09,1.91,3.21,1.18,5.43.76s4.52-.56,6,2.35a26.22,26.22,0,0,1,.31-8.78c.22-1.48.44-2.95.55-4.44a28.45,28.45,0,0,0,0-4.52c-.76,1.66-1.34,3.34-2,5l-1.92,5.07a15.7,15.7,0,0,1-1.42-5.85,12.32,12.32,0,0,1,.8-5.24c1.19-3.15,3.33-5.5,5.51-6.37-1.33-8.23-4-6.42-7-2-1.51,2.19-3.09,5-4.62,7.47-.38.62-.76,1.21-1.13,1.76s-.69,1.08-1,1.55a7.53,7.53,0,0,1-1.93,2c1.75,6,1.86,10.32,1.05,13.82-.1.43-.22.86-.35,1.27s-.23.82-.36,1.22a20.79,20.79,0,0,1-.94,2.27,37.06,37.06,0,0,1-2.44,4.16,47,47,0,0,0-5.1,8.86,19,19,0,0,0-1.31,5.82,30.9,30.9,0,0,0,.36,7.45c1.4,7,2.66,6.56,3.93,4.61S7.86,385.69,9.27,386.15Z"/>
        <path class="cls-2" d="M25.5,359.37a17.43,17.43,0,0,0-1.09-3.32A9.9,9.9,0,0,0,25.5,359.37Z"/>
        <path class="cls-2" d="M115.42,694a58.66,58.66,0,0,0,3.13,5.4C120.73,700.67,118.34,698.09,115.42,694Z"/>
        <path class="cls-2" d="M26.3,330.91a.12.12,0,0,0-.08,0s0,.09,0,.17Z"/>
        <path class="cls-2" d="M15.29,317.89l-.38,1.48-.31,1.49-.61,3,2.6-.59C16.14,321.48,15.63,319.67,15.29,317.89Z"/>
        <path class="cls-2" d="M136.81,753l2.57-1.12A2.33,2.33,0,0,0,136.81,753Z"/>
        <path class="cls-2" d="M181.6,912l-.16-3.54A6.2,6.2,0,0,0,181.6,912Z"/>
        <path class="cls-2" d="M570.58,947.73c3.38.23,6.29.33,8.52,1a13.88,13.88,0,0,1,3,1.36,5,5,0,0,0,4-.52,5.2,5.2,0,0,0,1.79-1.59,3.28,3.28,0,0,0,.52-2.42,51,51,0,0,0-1.26-5.05,50.18,50.18,0,0,0-1.73-4.87c-.68-1.63-1.37-3.14-2.09-4.51l1.55,1.44,1.48,1.42c-.47-1.74-1.31-4.41-2.27-7.12a52.51,52.51,0,0,0-2.29-5.87,15.25,15.25,0,0,0-2.5-4,2.69,2.69,0,0,0-2.62-1,5.37,5.37,0,0,0-2.66,2.14,31,31,0,0,1,2.66,2.62,23.25,23.25,0,0,1,1.14,2.95c.59,2,.6,3.2.18,3.77s-1.22.57-2.13.35-1.94-.64-2.82-.9a4.75,4.75,0,0,0-1.18-.21,1.19,1.19,0,0,0-.44.08,1.72,1.72,0,0,0-.38.26,5.19,5.19,0,0,1-.63,2.22,13,13,0,0,0-.56,1.35,3.22,3.22,0,0,1-1.29,1.94,9.48,9.48,0,0,1-4.15,1.54,22.63,22.63,0,0,1-3.14.3h-.85l-1-.06a17.16,17.16,0,0,1-2.16-.33c-5.14.35-4.34-2.52-2.82-4.65-11.8-.78-16.4,7.38-24.5,8.42-3.25-21.35-36.22,5.87-53.65-7.75-11,1.72-25.79-.13-39.85,4.07,7.48-5.32-13.23-.44-10.16-6.46-4,12.42-40.44-5.57-42.94,10.11-19.07-4.4-.77,1-22.8-2.64.06-1.76,3.73-1.76,5.2-2.08-8.72-3.25-13.4,6.69-20.62-.45-17.63-1.18-3,4.22-13.44,8.43-18.35-1.85-13.19-4-23.33-10.43-1.65,7.46-12.57,3.87-21.55,7.73,2.24.36,14.73,1.84,6.54,4.65-21.32-1.18-17,4.92-37,6.93-10.1-8.23,19.89-.23,2.37-6.76,12.62-3.82,22.19-3.44,29-9.45a279.14,279.14,0,0,0-56.1,4.34c-10.28-1.12,5.25-3.89-2.82-4.66a36,36,0,0,0-6.3-.69c-1,0-2,0-2.91.07-.47,0-.94.07-1.4.12a6.54,6.54,0,0,0-1.22.2,20.68,20.68,0,0,0-6.76,3.23,53.89,53.89,0,0,0-7.08,5.87c-.59.55-1.15,1.16-1.77,1.67a8,8,0,0,1-2,1.14,8.5,8.5,0,0,1-1.07.29,5,5,0,0,1-1,0,4.25,4.25,0,0,1-1.87-.52,2.76,2.76,0,0,1-1.26-1.39,4.75,4.75,0,0,1-.15-2c0-.7.1-1.42.19-2.18.06-.38.11-.76.16-1.15s.16-.83.26-1.25a19.58,19.58,0,0,0,4.14-1.55c-1.36-.28-1.92-2.59-2-5.82,0-.81,0-1.67,0-2.58s0-1.88,0-2.87c0-2,.07-4.08.16-6.2,0-1,.09-2.12.13-3.19,0-.53,0-1.06.07-1.6l0-1.78c-.05-2.39-.13-4.8-.28-7.19-.07-1.2-.16-2.38-.28-3.56a32.75,32.75,0,0,0-.46-3.48,53.59,53.59,0,0,0-1.64-6.55c-1.84,2.47-3.08,4-4.77,2,2.66-.28,3.45-1.85,3.21-4.32a20.37,20.37,0,0,0-1-4.32c-.59-1.62-1.34-3.4-2.14-5.3-3.08-7.66-7.39-16.94-5.72-26-3.11,1.46-6.62-1.5-9.74-5.93-.77-1.11-1.53-2.31-2.25-3.57s-1.49-2.54-2.17-3.85a67.69,67.69,0,0,1-3.43-7.63c.77-4,3.61-4.08,5.34-4.56.5,8.58,3.43,11.87,7.07,14.63s7.88,5,11.12,11.12a41.81,41.81,0,0,1-3.91-8.86c-.56-1.65-1-3.37-1.58-5.09s-1.11-3.45-1.66-5.18a88,88,0,0,0-3.6-9.86,26.7,26.7,0,0,0-5-7.51l6.25,2a18.79,18.79,0,0,0-4.2-8,31.87,31.87,0,0,0-5.35-4.17,14.84,14.84,0,0,1-4.61-4.5A13.42,13.42,0,0,1,164.6,798a26.11,26.11,0,0,1-.85-5.3l4.2.1c-6-15.13-11.56-32-18.07-47.64a188.51,188.51,0,0,0-10.67-22,84.15,84.15,0,0,0-13.14-17.52c-3.89-.54-4.75,14.49-6.72,16.19a92.76,92.76,0,0,0,6.89,8.27c2.24,2.45,4.44,4.63,6.61,6.71s4.3,4.07,6.32,6.15a80.65,80.65,0,0,1,5.85,6.63l-5.64,2.38c5,.64,13,12.69,12.79,4.14,3.39,3.8,2.89,6,2.51,8.39a9,9,0,0,0,0,3.86,13.05,13.05,0,0,0,3.06,5.43c-6.25,1.61-9.38-4.17-14.36-2.14,2.24,2.5,4.39,5,6.59,7.57-3.45-1.83.19,6.09-3.23,4.34a29.11,29.11,0,0,1,6.93,9.64,35.75,35.75,0,0,1,2.51,9.3c.88,6.29,1.45,12.69,5.83,20.72l-1-4.94c-.34-1.66-.69-3.31-1.11-4.94,1.68-.55,3,.55,4,2.3s2.05,4.1,3.22,6a14.79,14.79,0,0,0-1.9,7.93c0,2.62.53,5.65.8,10.37a35.43,35.43,0,0,0,4.05,4.51c1.39,1.38,2.83,2.69,4.2,4.12a28,28,0,0,1,3.84,4.84,22.78,22.78,0,0,1,1.57,3,24.35,24.35,0,0,1,1.08,3.66c-3.53-.36-3.44,4.23-3.11,9.27a42.54,42.54,0,0,1,0,7.39c-.22,2.2-.8,4-2.11,4.68,1.75.27,3,1.65,4,3.6a29,29,0,0,1,1.93,7c.46,2.5.83,5,1.34,6.92s1,3.31,2,3.58a23.74,23.74,0,0,1,1.16,8.89c-.16,2.38-1.29,5.61-3,5.75-.11-.57-.34-1.45-.58-2.51,0-.14-.07-.27-.1-.41a1.62,1.62,0,0,0-.1-.36c-.07-.2-.14-.4-.22-.6-.14-.41-.27-.84-.39-1.28l.06,1.41c0,.25,0,.43,0,.74l0,1-.07,4.21c-.78-.66-1.35-.26-1.5-1.25,0,3.91,1.19,5.56,2,7.43a8.08,8.08,0,0,1,.74,3.4,14.58,14.58,0,0,1-.23,2.59c-.09.51-.2,1.06-.34,1.67a16.56,16.56,0,0,0-.41,1.9.94.94,0,0,1-.64.11.7.7,0,0,1-.53-.38,6.5,6.5,0,0,1-.64-2.07c-.34-1.8-.54-4.24-.91-6.4a58.28,58.28,0,0,0,.2,7.68c.06.6.12,1.19.19,1.76l.6,1.39c.4.91.82,1.79,1.24,2.63,1.7,3.38,3.43,6.23,4.79,8.94l.5,1,.24.51.32.36a7.74,7.74,0,0,0,2,1.51,12.32,12.32,0,0,0,5,1.34,7.61,7.61,0,0,0,2-.17,5.82,5.82,0,0,1,5,.59c1.13-1.11,3.33-2.16,6.23-3.5,1.44-.67,3-1.42,4.61-2.26a45.2,45.2,0,0,0,4.43-2.69,5.4,5.4,0,0,1,.85-.45l.39-.16.23-.14c.4-.18.79-.38,1.15-.58a6.64,6.64,0,0,0,1.76-1.39,3.36,3.36,0,0,0,.33-4c4.37,2.5,2.69,8.19,14.51,7.18,6.8-6,13.2,2.23,22.19-1.64-11.93,6.3-.05,1.75-10.49,7.78,8,2.51,20-5.61,34-4.46,1.44,1.42,1.38,3.21,2.83,4.63,5.21-2.12,11.2-7,16.26-2l-.64-4.27c9.51,2.18,22.8.83,33,5.51l12-8.13c16,8.61,37.55.92,50.23-6.5,5.88.38,14.67,1.84,14.64,3.63-1.35.64-3.67,1.89-6.36,3,8.63.31,19.17,5,24.06-1.84,8.85-2.05,6.48,4.67,13.09,5.78,17.92-9.53,52.91,7,58.35-7.52-7.33,0-21.25-3-35.26-2.32,3.7-1.76.8-4.62,6-4.94,14-.66,21.22,4.72,35.26,2.3l-1.65,9.26c12,4.69,23.53,1.54,34.36-1.12,5.42-1.33,10.67-2.53,15.75-2.58a29.57,29.57,0,0,1,3.77.2c.62.07,1.25.17,1.86.29s1.2.26,1.92.44a9.49,9.49,0,0,1,2.16,1c.75.45,1.53.94,2.34,1.49C567,945,568.73,946.3,570.58,947.73Z"/>
        <path class="cls-2" d="M388.31,944.62l10.2,4.68-1.07-4A14.2,14.2,0,0,1,388.31,944.62Z"/>
        <path class="cls-2" d="M397.44,945.31a31,31,0,0,0,5.94-1.88,14.41,14.41,0,0,0-6.23.88Z"/>
        <path class="cls-2" d="M589.44,928.21a47.56,47.56,0,0,0,0-5.56c0-.6-.08-1.21-.14-1.85s-.1-1.28-.17-1.95a34.53,34.53,0,0,0-.7-4,22.32,22.32,0,0,0-.57,6.72A18.27,18.27,0,0,0,589.44,928.21Z"/>
        <path class="cls-2" d="M585.54,914c-.4,1.85-.79,3.61-1.2,5.26l1.14,1Z"/>
        <path class="cls-2" d="M677.51,634.63l3.43-16.93c3.93-1,10.23-18.7,11.49-11.07-.47-5.87,3.33-12.54,5.66-17.51s3.23-8.21-2.88-7.18c-10.07,21.38-25.3,45.5-40.07,71.22s-29.07,53.23-37.29,80.55c.13-3.27.27-6.55.46-9.82-3,14.85-9,23.07-13.85,31.24a60,60,0,0,0-3.27,6.18,34.64,34.64,0,0,0-2.33,6.7,37.61,37.61,0,0,0,.21,17.1q-3.14-2.85-6.19-5.72a24,24,0,0,0-2.82,9.66c-.3,3.41-.25,6.89-.3,10.33a39.47,39.47,0,0,1-1.17,10.06,19.58,19.58,0,0,1-2,4.71,20,20,0,0,1-3.49,4.45l3.45-.44a15.08,15.08,0,0,1-1.91,4.12,16.07,16.07,0,0,0-1.88,4.2l1.77-1.1c.58,10.34-1.12,16-5.08,25.23-2.58.2-.22-4.71-.21-7.82a6.61,6.61,0,0,0-1.44,3.73,27.26,27.26,0,0,0,.16,5c.31,3.57,1.07,7.57.44,11.31-1.5,2.79-2.37,2.66-3,1.68s-1-2.78-1.45-3.27c0,11.67-1.85,19.9-2.5,27.49a35.16,35.16,0,0,0,.62,11.08,29.47,29.47,0,0,0,5.57,11.35c1.07.74,2-.76,2.87-1.4s1.52-.44,2.19,3.6c.34-1.85.69-3.65.86-5.41s.23-3.47.29-5.16a72,72,0,0,0-.6-9.9c-.19-1.63-.44-3.26-.72-4.89s-.51-3.27-.79-4.92c-.61-3.31-1.08-6.66-1.52-10.13l-.39,3.75c-5.1-6-4.13-8.06-2.33-10.72a21.71,21.71,0,0,0,2.85-5.11c.82-2.28,1.21-5.33.85-9.83a14.35,14.35,0,0,1,1.93,4.29,33.13,33.13,0,0,1,.91,4.47c.2,1.45.35,2.85.57,4.08a9.42,9.42,0,0,0,1.09,3.13,40.29,40.29,0,0,0,3.22-6.45,34.69,34.69,0,0,0,1.57-5.79,34.09,34.09,0,0,0,.48-5.29c.06-1.7.06-3.33,0-4.91a26.46,26.46,0,0,1,1-8.9c.9-2.8,2.78-5.39,6.26-7.79l0,1.46c1.76-2.49,1.14-8,1.38-12.55-1.83,1-3.69,5-5.54,7.57.2-4.61-4-8.23-5.54-10.31,3.15-1.75,3.06-3.53,2.79-5.81s-.65-5,1.79-8.49c5.31-1.27,1.88,7.78,3.39,11.4-.08-3.4,0-6.79,0-10.22,2.6-8.57,7.62-6.66,11.46-9.88-.73-8.26-3.85,3.25-6.42-4.16,4.33-3.48,9.73-14.79,15-27.48,2.6-6.36,5.22-13.06,7.42-19.41a178.73,178.73,0,0,0,5.28-17.12c-2.37,6.28,3.37,4.31-.84,11.21,2.21-2.15,4.65-12.5,1.54-14.18,3.24-13.45,13.33-27.49,22.24-36.77l-4.88,1.43c-.09-6,4.12-11.33,9.14-17.26s10.84-12.53,14-21.4l-.28.29c2.35-5.53-2.56-14.33,4.51-22.81C676.79,628.11,673.51,633,677.51,634.63Z"/>
        <path class="cls-2" d="M702.65,574.51l1.47,7.59c4.17-5.23,2.4-15.41-1.11-15.67-1.12,4.34-5.79,8.29-3.67,10.34C700.31,576.48,701.83,577.41,702.65,574.51Z"/>
        <path class="cls-2" d="M741.12,462.29c-.71-2.49-2.66-2.2-3.86-3.43-1.22,7.81-2.7,16.18-4.51,24.21-.89,4-1.89,7.95-2.93,11.68-.54,1.86-1.06,3.68-1.61,5.43s-1.25,3.72-1.83,5.48A7,7,0,0,0,726,507c-.12.44-.24.88-.35,1.32s-.22.78-.37,1.53l-.15.58c-.2.77-.36,1.5-.59,2.23-.5,1.47-.9,2.8-1.47,4.07a22.27,22.27,0,0,1-3.42,5.85,8.84,8.84,0,0,0-1.29,4.7,17.2,17.2,0,0,0,.74,4.53c.79,3.16,1.78,6.81.43,12-2.2.77-4.39,1.51-6.56,2.24.12,1.62-.6,3.68-1.55,5.83s-2.23,4.37-3.2,6.33c-1.92,3.91-2.66,6.79,2.45,5.87.94-.26-1.1-6.29,2.37-10.06l2.19,2c1.41-3.58,2.76-7.16,4-10.74l1.68,4.8a18.87,18.87,0,0,0,3-4.15,9.51,9.51,0,0,0,1-3.5,13.75,13.75,0,0,0-1.28-6,19.16,19.16,0,0,1-1.55-6.62c0-2.55.66-5.54,2.75-9.48l6.8,2.18c.41-1.29.77-2.52,1.09-3.7s.52-2.29.74-3.36.36-2.1.51-3.08c0-.25.07-.5.11-.74l.11-.62.11-.56q.1-.56.24-1.11a6.82,6.82,0,0,1,.27-1.08c.22-.72.44-1.42.65-2.13s.41-1.24.63-1.86c.45-1.22.94-2.44,1.49-3.67a44.17,44.17,0,0,1,4.59-7.7s-3.43-1.06-2.65,1.45c-.91,2-4.49,3.77-6.09,1.78,0-10,.72-9,2.39-7s4.16,5,7.33-1.23a313.31,313.31,0,0,1,1.18-31.93c.94-11,2.47-21,5.75-25.25-2.55,3.66-4.65,2.45-6-.71a29.09,29.09,0,0,1-1.45-12.84c2.78-4,4,3.13,6.08,4.81.52-2.11,1.28-4,1.82-5.95a13,13,0,0,0,.35-6c-2.1,2.71-4.43,3.05-6.48,1.5a10.4,10.4,0,0,1-2.83-3.66,25.92,25.92,0,0,1-2.12-6.17c-2.43,10.6-.88,20.11.73,30S743.55,451.6,741.12,462.29Z"/>
        <path class="cls-2" d="M736.33,454.91c-.16,2.2.29,3.3.93,3.95.23-1.44.45-2.89.67-4.32s.42-2.83.62-4.19Z"/>
      </g>
      <g>
        <path class="cls-3" d="M426.51,805.91l.05.73C426.66,806.58,426.66,806.38,426.51,805.91Z"/>
        <path class="cls-3" d="M427.92,805.26s0,0,0-.06S427.88,805.23,427.92,805.26Z"/>
        <path class="cls-3" d="M350.39,863.69a1.18,1.18,0,0,0-.58-.57C350,863.5,350.18,863.66,350.39,863.69Z"/>
        <path class="cls-3" d="M388.08,899.36l-.39.1A.45.45,0,0,0,388.08,899.36Z"/>
        <path class="cls-3" d="M427.05,814.49l.11-.33C426.82,814.09,426.84,814.41,427.05,814.49Z"/>
        <path class="cls-3" d="M350,851.85a2.23,2.23,0,0,0-.39,0A1.91,1.91,0,0,0,350,851.85Z"/>
        <path class="cls-3" d="M419.5,840.64a1,1,0,0,1,.13.32A.34.34,0,0,0,419.5,840.64Z"/>
        <path class="cls-3" d="M364.06,917.62a.92.92,0,0,0,.55.12A.48.48,0,0,0,364.06,917.62Z"/>
        <path class="cls-3" d="M367.75,916.33c-1.93-1.83-1.91,1.3-3.14,1.41.54.5.85,1.88,1.44.93-1.73,2.11,2.73,3.09,1.56,5.13.24,0,.63-1.1,1.56-.45.83,1.23-.24,1.6-.43,2.35.8.12,2.23,1.94,1.83,1.89.95.62,1.65-2,3.17-1.2,1.85.1,1.17,1.81,2.09,2.57-.36,1.69-1.32-.79-2-1,.77,1,1.58,2,2.4,3-.16,1.38-1.63.33-2-.75a2.63,2.63,0,0,0,3,2.81c.26,1,.75,1.25.81,2.32-1.13-.38-3,.88-4.14-.19-1.1-2.15,1.94-.16,1.22-2.07l-1.27.54c.25-1.14-1-1.23-1.51-2,.06-.62.48-.14.82.07-.89-1.41-.81-2.88-2.76-3.27-.17,2.54,3,4.71,2.14,6.35q2,1.53,4.09,3c.53-.36.52-2.25,2-1.68a3.27,3.27,0,0,0-.58,1,3.39,3.39,0,0,0-.13.55,1.48,1.48,0,0,0,0,.65,10.08,10.08,0,0,0,1.47,3.36c.35-1,1.3-.4,2.16.12s1.69.94,1.76,0c-1.38-.21-.68-1.73-.66-1.93.74.88,1.1.61,1.34.29s.43-.74.85-.33c1.15,1.62,1,1.82.73,2s-.5.43.74,2.13a12.17,12.17,0,0,1-2.57-.23,10.21,10.21,0,0,1-3.4-1.46c-.48.73,1.73,1.86,1.87,3.35-.4-1.84,1.77-.52,1.21-1.73a21.46,21.46,0,0,0,2.35,1.35c.84.39,1.71.73,2.57,1.08,1.76.63,3.49,1.21,5.19,1.88a1.8,1.8,0,0,1-1.58.78,10,10,0,0,1-2.16-.32c-1.43-.34-2.78-.62-3,1.17,1.95,1,2.47-.25,3.79.81.28,1.12,1.38,1.76,2.69,2.2s2.85.62,4.17.95a13.76,13.76,0,0,1-1-1.13c1.08-.28,2.8.65,4,1l-.33.29a8.86,8.86,0,0,0,1.19-.34c.18.09.22.17.21.27a7.94,7.94,0,0,1,3.06-.26,9.88,9.88,0,0,0,3.88-.6c-.2-1.21-2.35.41-3.56.27-.35-.2-2.55-.87-1.5-1.69a7.7,7.7,0,0,0,3.77-1c.58-.27,1.14-.64,1.75-.92a16.81,16.81,0,0,1,1.95-.9,8.61,8.61,0,0,1-1,0c.69-1.15,1.95-1.27,3.17-2,1.27-.27,1.06.37.68,1.12s-.95,1.45-.07,1.4a2.53,2.53,0,0,1-1.59,1.39c-.6.3-1.09.59-1,1.4a24.18,24.18,0,0,0,2.26,1,3,3,0,0,1,2.14-1.24,4.71,4.71,0,0,0,2-.68l-1.37-.08c-.36-1.4,1-1,1.55-1.2-.53-.44-1-.89-1.54-1.36a4.41,4.41,0,0,0-1.68,1.55c-.48.52-1,1-1.7.66a5.16,5.16,0,0,0,1.82-2.55,5.76,5.76,0,0,1,2-2.57c.5.6-.37.65-.38,1.39.59-.12,1-.7,1.34-1.39a4,4,0,0,1,1.65-1.83c-.42,1.21-1.44,3.07.26,3,0-.67,0-1.35-.08-2,.77-.45.86.3,1.16.07,1.08-.73-1.13-1,.43-2.26.39,0,1.06-.26,1.09.23.81-.9.85-1.27.87-1.64a5.1,5.1,0,0,1,.29-2c-1.16,1.63-2.77-.06-1.91-1.72a13.75,13.75,0,0,0,1.62-3,3.49,3.49,0,0,1,2.24-2,11.23,11.23,0,0,0-.38-1.47c1,1.15,1-1,1.47-1.51.77.21.45.92.21,1.72a4.49,4.49,0,0,0-.22,1.35,1.37,1.37,0,0,0,.78,1.23c1.08-1.65,1.42-.58,1.73.35.41-1.1,0-1.34-.47-1.64a3.43,3.43,0,0,1-1.43-1c.6.26,1.22-2.27,2.12-.91.58-1.16-.8-2-.2-2.72a7,7,0,0,0,2,1c-.45-.3.59-1.19.72-1.4-.36.1-1.08-.88-1.07.31-1-.69.86-2.43-.13-2.72,1.38.36,1-2.09,1.93-3-3.18-.93.54,2.38-2.16,1.86-.58-1.76,1.44-4.75.64-7.39,1.14-1.75,1.23.34,2.52.28,0,2-1.07,2.13-1,3.87,1.1-1.55,1.56-4.49.89-6,.34-1.87,3.75-1.24,3.49-3.71-1.11,0-1.34-.06-1.9.55-.22-.69.32-1.3.46-1.94-.57-.55-1,.81-1.4-.22.27-.3.59-1,1.26-.71l.07.18c-.48-2.35,2.87-1,1.26-3.28-.55,0,0,.58-.41,1-.88.17-1.77-1.21-1.94-2.12.68.3.29-.71.64-1.25,1.29-.15,0,1.55.79,2l.53-1.6-.26.3-.8-2c.15,1.31-1.6.29-1.64-.27.47-1.17.94-2.36,2.26-2-1.32-.4-1-1.91-1.09-3-.69,1.09-1.18-.05-1.56-.47l1.65-1.53c.07,1.93,1.27-.18,2.12.41,1.3.77.39,1.79,0,2.75,2.84-1.5-.87-3,.59-4.42.63.1,1.33.37,1.07,1.08.47-.22-1-1.73-.06-2.75-.48.24-1.83.67-2.19-.53l1.77-1.24c.6-1.68-1.56-.84-2.07-2.36l-1.2.76c-1.34-.34.28-1.9-1.22-2.16-.17.87.92,1.53.35,2.38-1.5.13-.61-1.28-1.31-1.92.91-1.8.89-1.4,2.25-2.66,2.28.26,2.49,2.74,5.48,2.85-.12-1.93-.49-4.74.53-5.86-.47-1.76-2.29-1.82-3.63-1.74a1.36,1.36,0,0,1,.47-1.43l.64.87c-.48-2.15-1.13-3.41-.84-5.56-.26-1.26-1.68-.91-2.77-.74l-.11-1.34L434,871c-1.43-.44-.82-1.55-.68-2.42.63.06.72.61,1.11.6a2.1,2.1,0,0,0,0-2.59c.63.06,2,.73,1.46,1.61-.15.08-.38,0-.55.09L436,870c-.59-1.87,1.11-2.79,2.62-2.6-.6-1.88-1.7,1.32-2.07-.88,3.23-2.56-.34-5.44,4-6.64-.77-1.4-2.11-3.08-2-5.13-1.27-.1-.39-1.41-2-1.32-1.79,1.82,2.17,3.83-.29,5.21.51.92,1.6.72,2.25,1.17,0,.78-.17,1.51-1,1.54-.63-1.87-3-.75-2.88-3-1.1.2-.86,2.08-1.22,2.87a1.62,1.62,0,0,0-1.8.38c-1-.67-1.74-2-2.57-2.78.57.28.95-.12,1.28.1l-1.62-2.5a2.05,2.05,0,0,1,2.43-.34c.49-1.28-1.05-3.62.85-3.49-.18-1.71-1.17.46-1.71.56l-.09-.15,0,1.79c-2.21,0,.68-2-1.4-2.42-4-.57,1.45-2.41.9-3.71l2.77,1.64-.54-1.3c1.07.8,3,.93,4.07,2.12.21-1.74,1.24-4.17.78-5.32a4.57,4.57,0,0,1,2.9-.26c-1.71-1.87,1.09-2.69,1.22-4.2-1-1.67-1.55,1.53-2.91.28.76-.44.22-1.35-.05-1.81.51.52-.55,2.17-1.11,3.31.11-.87-1.32-.85-1.89-1.13l-.38,1.44c-1.74-.19,0-1.8-.89-2.52,1.54.51,1.61.28,3.14.8a4.07,4.07,0,0,1,.56-4.22c.67-.6.76.57,1.18.94,1.09-.24-.57-1.3.76-1.48,1,.24.06.78.33,1.24l.66-3.69c.63,0,.79,1,.51,1.54.79-1.1.48-1.94-1.61-3.35.69-1.24,1.66-2.67,2.58-2.2-.37-.6-1-.23-1.61-.25.41-1.71-1.83-2-1.85-3l-1.19.73c1.27-1.61-1.95-.45-1-1.87a10.74,10.74,0,0,0,4,0c-1.21-.28-.11-1.17-.09-1.81-1.23.36-1.08-1.39-2.33-.41-.94-1.49.73-2.12-.8-3.23-.41.67-1.24-1.29-2.14-.73a2.08,2.08,0,0,1,2.74-1.94c-.11.49-.66,1.26.36,1.23l-.19-2.58c.65-.63,1-1.45,2.37-1.52-1.6-.86,1.17-2.43-.74-3.09,1.22.89-.45,1.56-.66,1.89l-.26-.4a.53.53,0,0,1-.07.2l-2.43-1.15c-1,1.06,1.61.22,1.53,1.73-2.31,1.27-3.41-3-4.86-1.67-.75,1.09,1.46.93,2.27,1.87l.06-.24.94,2.1a2,2,0,0,1-1.41-.56c-.05,2.52-1.28,2.88-1.64,5.58.31-.18,2.71-.66,3.07.57.56.89-.85,1-1,1.67-.27-.45-1.58-.87-.69-1.43h-1.66c-1.95-2.08-3.58-1.06-4.11-3.81-1.22-.15-1.81-2.14-1.42-3.62l-1.11.7c-2.08-1.57,1.71-.26,0-2.25,2.22-.78,4.81-2.25,6.62-1.12.55-1.39-.62-1.89-.61-3.15,1.81-.75,1.95.41,3.76.28-.19-.93-1-2.1-2-1.42l.74-1.74c.39,0,.38.58.34.82.39-.67-.48-2-1.17-2.37.1.14.39.58.1.77-.49-.73-1.37-2-1.86-2.12.93,1.06-1.13,1.15,0,2.26-.49-.1-1.47-.29-1.22-.87-1.08.92-.89,1.83-2.11,2.21.92-.77-.4-1.27-.59-1.43a2.61,2.61,0,0,0,.49,2.53c-2.05.09.32,2.69-1.77,1.76.73.15.77,1.16.27,1.69-.88-.06-1.35-1.41-2.37-2-1-2.68,1.51.06,2.15-.56l-.13-2.05c-.3.21-1.43-.82-1.32.51-1.27-.63-2.15-1.91-1.17-3-.59-.24-.49.53-.54.76-.58-.24-2.74-1.52-3.08.14.1-.48,1,.81,1.66,0,.25.66-.64,2.46-1.76,1.74.34.81,1.16,2.34,1.4,3-.94.18-.39-.58-.83-.92l.52,2.34,1-.65c-.75,1.7,1.68,2.83,2.39,4.23-1.61-.22-1.74-1.37-2.56-2.29-2,.84,1,.59.7,2a1.58,1.58,0,0,1-1.17.12l1.4,1.17a.38.38,0,0,1-.64,0c1.72,2,2.3,0,3,2.64.86-1.57-1.1-1.37-.92-2.7,1.19-.75,2.07,1.57,2.74,2-.42,1.28-2.85,1.37-1.58,3-.75-1.17-1.51-.09-1.53-1.71-.81-.93-.74.46-1.67.63.28.43,1.72-.25,1.44.94l-.24-.05,1.71,2c-.93,1.79,1.83,4.18-.12,5.36l1.72-.22a18.71,18.71,0,0,0,.41,3.61c-1-.23-1-1-1.35-1.82a6.37,6.37,0,0,0,1.88,5.36,10.31,10.31,0,0,0,2-2c2.34,1.46-1.53,1.53-.44,3.32-1.66,0-1.39-.6-3-.24,1.1.77.79,2,1.73,2.82a2.29,2.29,0,0,1-3-2.26c1.48-1.27-.94-2.87.47-3.91l-1.06.63c-.43-1.37-.1-2.16-.84-3.34l.25.06-1.64-.64,0,.62a6.56,6.56,0,0,1-2.41-2.18c.17,1.91,2.81,2.15,4.24,3.11-.18,1.72-3.12,2.26-1.76,3.47-.79.06-1.66,1-2.36.18-.4-1,.66-1.59-.47-1.73,0,1-.65.58-.52,2.11a9.07,9.07,0,0,1,3.93,2.71,3.66,3.66,0,0,1,.1,3.55,2.45,2.45,0,0,0-2.52-2.14c1.48.74-1.34,2.16.78,1.94-.22,1.32-.3,3.56-2.11,3.6-.6-1.3.57-2.45.24-3.53a.68.68,0,0,1-.94.35l.28-1.55c-1,1.13-1.52.87-1.41,2.39.15-.09.46-.26.54-.11,0,.38-.09.85-.06,1.23l-1.66,0c.71,1.18-1.52,3.22-.44,5.36l-.33-.21c-.45,1.62,2.81,2,3.07,3.81a2.94,2.94,0,0,0-2.23-.35c.77,1-.63,1.33-1.14,2.19,1.05-1,1.7.83,2.29.12,1.67.08,1.53,1.93,1.25,2.85-2.18.39-.94-3-3.24-1.77-.26.92.93,1.25,1.38.63-.34,1.15-.73,2.92-2.12,3.65,1.49,1.54.56,2,2.57,3.11,0-.76-1.53-.94-.62-1.81l1.46,1.17c0,1.38-1.48,2.33-1.77,3.25l-.59-1.05.24.07c-.64-.44-.14-1.67-1.32-1.64,1.38,1-.1,1.6.81,2.86l-.24-.07c1,2.18-2.74,3.3.14,4.92,0-.38,1.23-1,1.79-.71-.77.4-.67,1.68-1.54,1.54l-.25-.45c-.36,1.13-.59,1.82-.35,2.27,1,.44,1.9.21,2.39,1.12-.92,2-2.39-1.12-3.47.16l.89,2-1,.29c-1.32,2.69,1.6,5.28,1.16,8.28-1.65-.2-2-2.44-2-3.19-1.57.72.22,2.32-1,3.4-.41,1.11.9,2.19,1.85,2.15.37,1.51-1.12.86-1.43,1,1.7.74.79,2.42,1,3.61l-1-.12.94,2c.18-.43,1,.13,1.64.25l-.17.43c3.06-1.26-1.25-4.24,2.17-5.52.29.61.95,0,1.24.57-.17.45-.33.52-.73.5.78.41,1.39,1.27,1.49.29,2.12.39,1.27,2.27,1.76,3.74-1.54.83-1.84-1.47-2.75-2.19.06.53.9,1.11.24,1.75l-1.55-.45c.55,2,1.3.74,2.77,1.43,1.93.87-.39,1.65-.34,2.18L419,896c-.94,1.3.68,1.94.29,3.2l-1.37.36c1.9-1.3-1.83-2.4-.84-3.15-1.93,2-3.16-1.12-4.39-2.08a2,2,0,0,1-1.22,2.27c1.79,1.85-1.35,2.82.8,4.7-.45.69-1-.9-1.18-.11a7.38,7.38,0,0,0,0,4.72c-.24.77-.92.46-1.63.51-.94,1.73-.58,3.17-.25,4.67a5.91,5.91,0,0,1-.46,4.82l-.65-.84c-.44.74-.95,1.3,0,2.07-1.48,0-1.37,1-1.32,1.92s.05,2-1.56,1.89c-.28.29-.38.63-.26.75l.58.44c.48.35,1.05.81,1.13,1.13a10.89,10.89,0,0,0-1.78-1.15,2.73,2.73,0,0,1-.06,1.89,3.25,3.25,0,0,1-1.3,1.62,4,4,0,0,1,0-.66c-.39-.08-.74.67-1.3,1.14s-1.21.67-1.43-.08c-.28.32-1,.44-1.42,1.64a6.6,6.6,0,0,1-.83,2.65c-1.83.11.46-2.44-.37-2.69,1.1-2,1.16-.89,2.17-2.65a5.17,5.17,0,0,1-1.39.55c.05-.47-.2-.56-.42-.7s-.44-.35-.12-.8c-.11.27,1.3-.95.8-.22-.1,0-.19.15-.3.18.27.67,1-.4,1.6-.44a1.56,1.56,0,0,1-.91,0,.69.69,0,0,1-.28-.2l-.15-.28a2.6,2.6,0,0,1-.16-.47c-1.07,1-1.08-.48-2.05-.31l.08-.14c-.54.33-1.34-.14-1.64-.25l1.43-1.23c-.5-.38-.72.61-1.21.23-.81-.46-2.43-3.1-.76-4.18-.6-.83-1.69-.65-1.94-1.73.48-.13.76,0,1,0-.63-2.22-2.35-4.61-2.14-7.1-1.14-1.5-2-2.87-3.57-3.54.31.42.42,1.94-.91,1.46-.91-.2-.91-1-1.49-1.66,1-.15.2-2.18,1.36-.93,1.88-1.08-1.5-3,.52-3.71-.74-.13-1.07-2.35-2.41-2.8.83-.46,1,1,1.58.75l-.59-.87.6-.19c-.07-2-2.65-1.58-3.36-2.58l.24,0-.55-.66,1.91.39c-.6-1.12-2.25-1.3-3-2.56l.48-.28-.8-.65a.39.39,0,0,0,.5,0c-1.78-.32-1.66-2.26-3.18-2.63.09-.61,1.91-1.59.39-2l2-.38c.72,1.74-1.2,1,0,2.75,2.1-2.08.78-5.9-.05-8.49-1.81-1.82-.54-5.82-3.64-6.08l1.24,0,.21-3.84c-1.14-3-.86-6.32-2.92-8.37l.88-.84c-3.83-1.83-2.87-8.1-7.17-9.1.69-1.55,1.62.19,2.36.21.17-1.08-2.75-2.41-1.06-3.68.62-.09.8,1.37,1.08.66,1-.92-1.32-.91-.14-1.94-1.15.55-2.8-1-3.22-2.23,0,.24,0,.24-.15.36-.9.31-.83-.66-1.05-1.16a.62.62,0,0,1,.37.14c-2.46-6.36-4-13.92-3.34-21l1,1.22c-.76-.95-.39-2.75-.19-3.33l.11.14c1.79-2-2-2,.14-3.53l.21.27c-.16-2.23,1.83-3.62.7-5.74.68-1.72,1.67-1.55,2.52-2.73-.06-1-1.23-1.41-1.48-1.47l-.09.47c-1.12.53-.94-1-1.43-1.72-1.76.52-4.5.23-6.29,2.29.62,1.49-2.81,1.51-2.47,3.22,2.36.9-1.68,2.51.48,4-1.65-.76-.79,1.91-2.61.61-1.24.71,1.54,3.28.11,4.6-.36-.18-.74-.11-1-.39,1,1.67-1,1.26-1,2.55l1.66-.17c.57.46-.59.69-.27,1.11.17-.36.9-1.15,1.61-.81.43.56,1,1,1.06,1.64a1.27,1.27,0,0,1-1.18-.65s0,1.39-.81,1.55c-.58-.45-.62-1.09-1.59-1.46-.34,1.86-.52.18-1.76,1.18,1.92-.4.94,1.52,1.47,2.47-.77.17-.3-.67-.91-.87-3.25,2.18.83,2.78.33,5.26-.24,0-.47-.3-.58-.44.65,1.08-1.07,2.06.13,2.69-.23,1.12-2.17.43-1.94,2.11,1.94-.72-.16,2,2,1.83l-1.1,1.44c1.3,1,3.55-.73,4,1.45-.53,2.11-3.52.25-4.48,1.57l1.22.35-.69,1.1-.12-.14c.47.55.28,1.67-.35,1.76s-.59-.68-1.08-.7c1.19.83-2.36,4.33,1,4.91-.48.67-.29,1.87-1.32,1.87,1.48.32,0,2.71,1,3.36-.51,0-1.16.84-.68,1.38.4-.89,1-.47,1.88-.06-.9.86.3,2.69-1.33,3.28,1.11.93,2.24.33,3.49.35-.9.87-.3,3.06-2.29,3,.12-.64.27-2-1-1.56-.5,1.27.63.4,1,1.3-.37,0-1.07.86-1.67.78a3,3,0,0,1,.26,2.15c.64-1.4,1.5.53,2.13-.35l-1.62-.93c-.35-1.42,1-.49,1.39-1.12.85,2.44,2.73,1.58,4.09,3.75a6.83,6.83,0,0,0-.62,1.65c-.25-.77-2-.27-2.24.24,1.74,1-.48,2.55-.6,3.72.24-1,1.49-.77,2-.52,1.52,2-.48,1-1.08,2.18.93,3.44-.85,6.19,1,8.72l1.31-1.7-1.63-.09c1-1.31,3.47-.6,4.6-.26-.48.27.21,1.91-.81,1.44l1.06,1.49c.61-.41.07-1.4,1-.81-.35.66-.26,2.44-1.43,1.59.18.89,1,1.88,1.83,1.46.45,1.38-2,.35-2.76-.13.19,1.14-1.17,1.33-1.68,1.1l.59,1.52c-.51-.23-1.13-.08-1.64-.31-.3,1.19,1.58,1.48.54,2.7l1.39.06c-.28,3.13-.53,2.89.07,5.6l.82-.71c2.27,1.53-1.1,1.91.42,4.42,1,1.36,1.77,2.22,3.19,1.55.83.7,0,1.18-.43,1.75,1.07.43,3.06,1.38,2.5,2.76a9.82,9.82,0,0,1-1.73-1.65c-1.42.68.45,2.46.14,3.82,1,.56,3.66,2.47,5.47,3.39a3.83,3.83,0,0,1,4.44-.68c-1,.15-.29,2-.6,3.1-1-.09-1.35,2.76-2.45,1.08.24-.7,1.39-1.42.65-2a8.7,8.7,0,0,0-1.67,3.9,1.67,1.67,0,0,1-1.59-1C367.21,916.84,367.41,916.53,367.75,916.33Z"/>
        <path class="cls-3" d="M427.05,814.49a1.52,1.52,0,0,0-.06.2l.36-.24A.29.29,0,0,1,427.05,814.49Z"/>
        <path class="cls-3" d="M401,954.19c.16-.05.46-.26.47-.45A1,1,0,0,0,401,954.19Z"/>
        <path class="cls-3" d="M431.05,928.8c-.14,0-.27-.07-.4-.1A.64.64,0,0,0,431.05,928.8Z"/>
        <path class="cls-3" d="M438.13,813l.31.48C438.45,813.27,438.28,813.19,438.13,813Z"/>
      </g>
      <g>
        <rect class="cls-4" x="308.26" y="1226.67" width="171.47" height="42.43" rx="21.21"/>
        <path class="cls-2" d="M458.52,1270.6a120.49,120.49,0,0,0-24.45,2.29c-2,.38-4.08.85-6.12,1.29s-4.07,1-6.11,1.47l-12.23,3a133.81,133.81,0,0,1-48.9,2.95c-8.15-.93-16.31-2.69-24.46-4.24-2-.4-4.07-.81-6.11-1.15l-1.81-.32c-.67-.13-1.33-.22-2-.39a26.11,26.11,0,0,1-3.82-1.21,33.13,33.13,0,0,1-3.57-1.65,32.35,32.35,0,0,1-6.18-4.53,31.69,31.69,0,0,1-2.54-2.78,26.67,26.67,0,0,1-3.93-6.3,31,31,0,0,1-1.36-3.46,32,32,0,0,1-.84-3.61,28.3,28.3,0,0,1,1.4-14.72,29.32,29.32,0,0,1,9-12.42l1.59-1.22c.55-.39,1.13-.72,1.7-1.08l.87-.53.91-.47c.61-.3,1.21-.64,1.85-.89a31.41,31.41,0,0,1,8.09-2.19c8.16-1.38,16.31-2.86,24.46-3.86s16.3-1.53,24.45-2.1,16.3-1.15,24.46-1.56,16.3-.53,24.45-.3,16.3.68,24.45,1.49c2,.22,4.08.5,6.12.79l.83.13,1.24.17c.83.13,1.66.22,2.47.42a31.53,31.53,0,0,1,4.75,1.47,32.65,32.65,0,0,1,4.41,2.14,30.29,30.29,0,0,1,3.9,2.79,31.47,31.47,0,0,1,3.38,3.24,34.07,34.07,0,0,1,2.74,3.68,30.13,30.13,0,0,1,2.14,3.94,32.93,32.93,0,0,1,1.46,4.14,31.22,31.22,0,0,1,.84,4.2,29.47,29.47,0,0,1,.17,4.18,27.5,27.5,0,0,1-1.35,7.87,27.17,27.17,0,0,1-3.26,6.82A27.52,27.52,0,0,1,458.52,1270.6Zm0-3a17.92,17.92,0,0,0,5.54-1,16.77,16.77,0,0,0,4.81-2.77,16.23,16.23,0,0,0,3.52-4.12,15.17,15.17,0,0,0,1.82-4.87,13.65,13.65,0,0,0-1.52-9.21,14.43,14.43,0,0,0-1.2-1.77,13.34,13.34,0,0,0-1.45-1.46,13.79,13.79,0,0,0-1.56-1.17,15.23,15.23,0,0,0-1.67-.83,11,11,0,0,0-1.64-.57,12.44,12.44,0,0,0-1.62-.27c-.5-.09-1.05,0-1.5,0a13.74,13.74,0,0,0-1.39.19,11.42,11.42,0,0,0-1.25.31c-.19.06-.39.17-.58.23l-.27.09-.32.06-.38.06c-2,.29-4.08.57-6.12.78-8.15.82-16.3,1.25-24.45,1.5s-16.3.07-24.45-.3-16.31-1-24.46-1.56-16.3-1-24.45-2.1-16.3-2.48-24.46-3.86a13.57,13.57,0,0,0-4-.41,13,13,0,0,0-4.12,1,7.58,7.58,0,0,0-1,.47,6.1,6.1,0,0,0-1,.55c-.31.21-.64.4-.94.62l-.89.72c-.3.23-.53.54-.81.8a6.88,6.88,0,0,0-.76.86c-.23.31-.5.6-.72.92l-.61,1a14.27,14.27,0,0,0-1.68,9.18,14.5,14.5,0,0,0,2.73,6.57,14.93,14.93,0,0,0,1.62,1.75,14.38,14.38,0,0,0,1.85,1.47,14.36,14.36,0,0,0,4.22,1.82,13.12,13.12,0,0,0,2.22.29,14.21,14.21,0,0,0,2.17,0,9,9,0,0,0,1.06-.19l1.25-.23c2-.34,4.07-.75,6.11-1.15,8.15-1.55,16.31-3.31,24.46-4.24a134.4,134.4,0,0,1,48.9,3l12.23,3c2,.52,4.08,1,6.11,1.47s4.08.91,6.12,1.29A120.49,120.49,0,0,0,458.52,1267.6Z"/>
      </g>
      <g>
        <rect class="cls-4" x="222.52" y="1126.05" width="342.95" height="108.72" rx="54.36" transform="translate(-48.84 17.44) rotate(-2.39)"/>
        <path class="cls-2" d="M513.34,1231.34q-25.29.95-50.47,4.41c-8.39,1.13-16.78,2.43-25.16,3.8l-25.16,4.07c-16.78,2.6-33.57,4.72-50.41,5.84s-33.7,1.62-50.59,1.32c-4.22,0-8.45-.21-12.68-.3s-8.45-.3-12.68-.53l-6.35-.32-3.71-.31-1.86-.16a16.55,16.55,0,0,1-1.84-.24l-3.66-.7-1.82-.36c-.59-.15-1.18-.34-1.78-.51l-3.53-1.07a13.06,13.06,0,0,1-1.72-.62l-1.7-.69a63.74,63.74,0,0,1-23.29-16.34l-2.31-2.65c-.78-.87-1.41-1.87-2.11-2.79s-1.41-1.86-2-2.86l-1.79-3-.9-1.48-.76-1.56-1.51-3.12c-.51-1-.84-2.15-1.26-3.23s-.86-2.13-1.17-3.24a65.11,65.11,0,0,1-2.45-27.13l.18-1.7.35-1.68.7-3.36c.21-1.13.62-2.2.92-3.3s.63-2.21,1-3.28l1.3-3.18.66-1.59c.24-.52.52-1,.77-1.54l1.58-3.07a12.27,12.27,0,0,1,.88-1.48l.93-1.46a62.84,62.84,0,0,1,19.55-19.6l3-1.86c1-.6,2.11-1.07,3.17-1.61s2.12-1.1,3.23-1.53l3.36-1.27,1.69-.64c.57-.17,1.15-.32,1.73-.48l3.5-.93.88-.23.89-.15,1.79-.3,3.6-.57c8.4-1,16.79-2.12,25.19-3.1l12.6-1.5c4.21-.45,8.41-1,12.61-1.36,16.81-1.76,33.64-2.94,50.47-4.21,33.67-2.54,67.32-5.15,101.05-6.07q12.65-.37,25.31-.52l6.32-.07c1.26,0,2.68.07,4,.12l2,.08a17,17,0,0,1,2,.15l4,.55,2,.31c.66.13,1.31.3,2,.46,1.3.32,2.61.64,3.91,1a16.4,16.4,0,0,1,1.92.6l1.89.69c1.25.47,2.52.9,3.74,1.44l3.6,1.75,1.78.89c.59.31,1.14.69,1.71,1l3.36,2.11.83.54.78.61,1.56,1.22c1,.82,2.09,1.6,3.07,2.47l2.84,2.7,1.41,1.36c.44.48.85,1,1.28,1.48l2.51,3c.84,1,1.52,2.1,2.27,3.14s1.5,2.1,2.13,3.22l1.85,3.38.91,1.69.76,1.76c.51,1.17,1,2.34,1.48,3.51s.78,2.42,1.17,3.62.77,2.39,1,3.62a63.29,63.29,0,0,1-.12,29.14,61.44,61.44,0,0,1-12.43,24.76A62.7,62.7,0,0,1,513.34,1231.34Zm-.13-3a48.43,48.43,0,0,0,23.1-7.29l1.3-.79,1.22-.91,2.4-1.83c.81-.6,1.5-1.35,2.24-2s1.49-1.34,2.15-2.1l2-2.28,1-1.13.85-1.23,1.67-2.44c.55-.83,1-1.73,1.46-2.58l.71-1.28a8.87,8.87,0,0,0,.65-1.31l1.11-2.71c.18-.45.39-.88.54-1.34l.42-1.39.83-2.76c.24-.92.36-1.88.55-2.81l.26-1.4a9.26,9.26,0,0,0,.2-1.4l.21-2.81.11-1.39-.05-1.4a45.7,45.7,0,0,0-35.17-44.14,44.45,44.45,0,0,0-9.08-1.22,6.2,6.2,0,0,0-1.14,0l-1.14,0-2.32.08-6.31.46q-12.63.88-25.26,1.58c-33.69,1.9-67.45,2.1-101.2,2.37-16.88.13-33.76.35-50.65,0-4.23,0-8.45-.2-12.68-.3l-12.68-.44c-8.45-.28-16.91-.67-25.37-1a46,46,0,0,0-21.36,4.19l-1.28.57c-.42.22-.82.46-1.22.69l-2.44,1.41c-.83.46-1.55,1.08-2.33,1.61s-1.58,1.06-2.28,1.69l-2.13,1.9-1.06,1-1,1-2,2.1c-.63.72-1.15,1.53-1.74,2.29a44.8,44.8,0,0,0-8.65,21.14,46.12,46.12,0,0,0,2.57,22.75c.32.9.78,1.75,1.17,2.63s.77,1.75,1.27,2.57l1.48,2.46.73,1.22.86,1.15,1.73,2.26c.58.75,1.29,1.4,1.92,2.11s1.24,1.42,2,2l2.14,1.85a43.71,43.71,0,0,0,19.74,9.38,45.47,45.47,0,0,0,10.56.86,8.3,8.3,0,0,0,1.31-.08l1.3-.14,2.62-.27,6.29-.84c4.2-.59,8.4-1.06,12.6-1.59s8.4-1,12.61-1.35c16.81-1.71,33.65-2.64,50.52-2.9s33.79.43,50.72,1.62l25.41,2c8.47.67,16.94,1.27,25.4,1.7Q487.94,1229.52,513.21,1228.35Z"/>
      </g>
      <g>
        <rect class="cls-4" x="339.64" y="947.95" width="108.72" height="362.39" rx="54.36" transform="translate(-763.72 1428.97) rotate(-85.28)"/>
        <path class="cls-2" d="M515.81,1195.25q-26.41-2.3-53-2.08c-8.88,0-17.76.28-26.66.57l-26.67.83c-17.78.43-35.52.39-53.17-.64s-35.25-2.7-52.79-5.15c-4.39-.57-8.77-1.28-13.15-1.92s-8.75-1.37-13.13-2.14l-13.11-2.26-1.64-.28-1.9-.39-3.79-.81a13.88,13.88,0,0,1-1.86-.51l-1.84-.59c-1.21-.42-2.45-.74-3.63-1.24A65.32,65.32,0,0,1,225,1161.56a69.44,69.44,0,0,1-4.54-5.78c-.69-1-1.39-2-2.06-3l-1.79-3.18-.9-1.58c-.29-.54-.52-1.1-.78-1.65l-1.49-3.3c-.48-1.11-.81-2.28-1.22-3.42a35.13,35.13,0,0,1-1.11-3.43,64.77,64.77,0,0,1-1.35-28.5l.81-3.5.41-1.75c.14-.58.37-1.14.55-1.71l1.14-3.42a11.36,11.36,0,0,1,.66-1.67l.73-1.65a60.94,60.94,0,0,1,17.33-22.9,59,59,0,0,1,5.87-4.39,33.31,33.31,0,0,1,3.15-1.9c1.08-.58,2.13-1.26,3.24-1.79l3.38-1.54c.57-.24,1.13-.52,1.7-.75l1.77-.6,3.54-1.22c1.2-.34,2.42-.61,3.65-.91a56.27,56.27,0,0,1,7.45-1.27,30,30,0,0,1,3.79-.26l3.82-.11c8.86,0,17.73,0,26.59.13l13.3.12c4.42.09,8.86.13,13.28.26,17.71.41,35.36,1.38,53,2.27,35.33,1.77,70.67,3.47,105.87,6.87q13.2,1.24,26.38,2.71l13.18,1.5,1.65.19,2.07.32,4.16.7a16.16,16.16,0,0,1,2.06.47l2,.55c1.35.4,2.72.72,4,1.21a65,65,0,0,1,27.24,18.43,67.91,67.91,0,0,1,4.92,6.49c.74,1.13,1.48,2.26,2.18,3.4l1.85,3.59.91,1.78c.28.61.51,1.24.77,1.86.5,1.24,1,2.47,1.46,3.71s.76,2.55,1.13,3.81a36.34,36.34,0,0,1,1,3.83,63.33,63.33,0,0,1-1.3,30.47,64.3,64.3,0,0,1-14.61,25.08,65.46,65.46,0,0,1-23.19,15.37A63.13,63.13,0,0,1,515.81,1195.25Zm.25-3a49.47,49.47,0,0,0,24.91-4.8A48.58,48.58,0,0,0,559.6,1171a47.12,47.12,0,0,0,7.48-22.56,46.49,46.49,0,0,0-4.32-22,47,47,0,0,0-13.06-16.43,7.21,7.21,0,0,0-1-.76l-1-.74-1-.74-.51-.38-.55-.31a37.61,37.61,0,0,0-4.41-2.38c-.75-.35-1.48-.73-2.23-1.06s-1.56-.54-2.32-.83l-1.14-.44c-.39-.12-.79-.21-1.18-.31-.79-.2-1.57-.41-2.34-.64s-1.6-.28-2.38-.43l-1.19-.22a6.69,6.69,0,0,0-1.19-.17l-2.4-.18-1.22-.11-1.66-.09-13.25-.68q-13.25-.72-26.47-1.65c-35.28-2.41-70.42-6.52-105.56-10.56-17.57-2-35.15-4-52.69-6.46-4.38-.6-8.76-1.29-13.14-1.92L297.64,1077c-8.75-1.36-17.5-2.82-26.26-4.23a46.89,46.89,0,0,0-22.71,1.9,47.69,47.69,0,0,0-19.5,13.26,47,47,0,0,0-6.6,10.07,45.53,45.53,0,0,0,11.09,54.9c.72.67,1.56,1.2,2.33,1.81l1.17.88.58.44.63.39a40.7,40.7,0,0,0,5.08,2.82c.87.4,1.73.84,2.6,1.21l2.72.94,1.34.47c.46.13.93.22,1.39.33l2.75.65c.91.21,1.86.26,2.78.4l1.39.18a7.87,7.87,0,0,0,1.38.13l2.79.07,1.39,0h1.66l13.31-.07c4.44,0,8.87,0,13.3,0s8.86.11,13.29.27q26.55.67,52.92,3.57c17.58,1.87,35.09,4.74,52.55,8.08l26.18,5.19c8.72,1.74,17.46,3.42,26.2,4.93Q489.63,1190.2,516.06,1192.26Z"/>
      </g>
      <g>
        <rect class="cls-4" x="197.78" y="1012.92" width="392.44" height="108.72" rx="54.36" transform="translate(-44.12 17.34) rotate(-2.39)"/>
        <path class="cls-2" d="M538.07,1117.18q-28.38,1.07-56.65,4.66c-4.72.56-9.43,1.24-14.14,1.87l-14.12,2.08L424.91,1130c-18.83,2.68-37.69,4.88-56.58,6.1s-37.83,1.74-56.78,1.57-37.91-1.11-57-1.87l-4.08-.33-2-.18-2-.36-4-.74c-1.31-.34-2.6-.72-3.89-1.09l-1.93-.56c-.63-.21-1.25-.48-1.88-.72l-3.72-1.47c-1.2-.56-2.38-1.18-3.56-1.77l-1.77-.9c-.57-.34-1.12-.7-1.68-1.05l-3.34-2.1-3.13-2.38c-.52-.4-1.05-.78-1.55-1.19l-1.45-1.33-2.86-2.65-2.64-2.87c-.42-.48-.89-.94-1.28-1.45l-1.18-1.55c-.77-1-1.59-2-2.3-3.11l-2.07-3.27a33.63,33.63,0,0,1-1.86-3.38c-.57-1.16-1.21-2.27-1.7-3.46a62.68,62.68,0,0,1-2.64-7.24,64.52,64.52,0,0,1-2.64-15.11,62.44,62.44,0,0,1,6.32-29.9l1.8-3.44c.66-1.11,1.37-2.2,2.06-3.3l1.05-1.64,1.18-1.55,2.41-3.08,2.65-2.88c.45-.48.88-1,1.35-1.43l1.46-1.32c1-.86,1.94-1.77,3-2.6l3.17-2.37c.54-.39,1-.82,1.62-1.16l1.69-1c1.14-.67,2.26-1.41,3.44-2a63.33,63.33,0,0,1,7.31-3.31c1.26-.46,2.52-1,3.81-1.37l3.92-1c.66-.16,1.31-.36,2-.48l2-.32,4-.61c9.43-1.08,18.86-2.21,28.29-3.24l14.14-1.56c4.72-.47,9.44-1,14.15-1.42,18.88-1.85,37.77-3.11,56.66-4.47,37.78-2.73,75.56-5.48,113.41-6.59q14.19-.43,28.4-.65l14.2-.18,7.1,0h3.55l3.62,0a64.4,64.4,0,0,1,33.84,9.63l3.67,2.39,3.42,2.69c.56.46,1.13.9,1.68,1.37l1.55,1.51c1,1,2.07,2,3.06,3l2.77,3.28c.44.56.93,1.08,1.34,1.66l1.21,1.76c.79,1.18,1.62,2.33,2.34,3.54l2,3.71a31.28,31.28,0,0,1,1.78,3.8c.53,1.3,1.13,2.56,1.56,3.88a64.44,64.44,0,0,1,3.46,24.17l-.42,4-.21,2c-.11.66-.26,1.31-.38,1.95l-.81,3.87c-.34,1.27-.77,2.52-1.15,3.77l-.58,1.86c-.2.62-.49,1.21-.73,1.81l-1.5,3.58c-.56,1.16-1.21,2.28-1.8,3.41l-.91,1.69c-.31.56-.69,1.08-1,1.62l-2.09,3.18c-.77,1-1.58,2-2.37,3l-1.17,1.48-1.29,1.37-2.59,2.72-2.82,2.46c-.48.41-.93.83-1.42,1.21l-1.5,1.11c-1,.73-2,1.48-3,2.17l-3.17,1.92c-.53.31-1,.67-1.59.93l-1.66.81c-1.11.53-2.19,1.12-3.32,1.59a63.68,63.68,0,0,1-6.92,2.41c-1.19.31-2.34.7-3.53,1l-3.6.65c-.6.09-1.2.24-1.8.31l-1.82.15Zm-.13-3a51.1,51.1,0,0,0,13.49-2.62l1.63-.54c.54-.17,1.05-.46,1.58-.67l3.12-1.42c1-.52,2-1.14,3-1.7l1.47-.87c.49-.29.92-.66,1.39-1l2.74-2c.86-.73,1.68-1.53,2.52-2.28l1.25-1.14c.4-.4.75-.84,1.13-1.26l2.23-2.53,2-2.72,1-1.35.83-1.45c.54-1,1.11-1.93,1.63-2.9l1.34-3c.22-.5.47-1,.66-1.51l.5-1.56c.32-1,.69-2.08,1-3.12l.67-3.18c.1-.53.25-1,.31-1.58l.17-1.61c.09-1.07.23-2.13.29-3.19l0-3.19c0-.52,0-1,0-1.57l-.18-1.58-.36-3.11a46.75,46.75,0,0,0-3.65-11.7,45.09,45.09,0,0,0-2.83-5.27c-.51-.85-1.15-1.62-1.71-2.42a20.17,20.17,0,0,0-1.79-2.32l-1.91-2.19c-.66-.71-1.41-1.34-2.09-2l-1-1c-.35-.33-.75-.6-1.12-.9l-2.22-1.77c-.78-.53-1.59-1-2.37-1.54l-1.17-.77-1.23-.66-2.44-1.31-2.55-1.05c-.42-.17-.83-.36-1.26-.53s-.87-.27-1.3-.4l-2.56-.84-2.63-.56c-.44-.09-.86-.21-1.3-.28l-1.33-.15-2.61-.34c-.89,0-1.76,0-2.63-.07l-1.31-.07-1.31.1c-.87.06-1.74.11-2.6.14l-7,.58-7.08.54-14.17,1q-14.17,1-28.35,1.72c-37.81,2-75.69,2.45-113.57,2.88-18.94.22-37.87.52-56.83.26-4.74,0-9.48-.16-14.22-.24l-14.23-.38c-9.48-.24-19-.58-28.45-.87l-3,0-1.53,0c-.5,0-1,.11-1.51.16l-3,.34c-1,.16-2,.43-3,.63l-1.51.33a13.24,13.24,0,0,0-1.48.45l-3,1c-1,.37-1.9.85-2.86,1.26l-1.43.64c-.48.21-.91.51-1.37.76l-2.73,1.58c-.88.58-1.71,1.23-2.57,1.84L220,1037c-.41.33-.79.69-1.2,1l-2.39,2.11-2.16,2.36-1.08,1.18-1,1.28-1.93,2.58-1.65,2.76c-.27.47-.57.91-.81,1.39l-.69,1.46c-.44,1-.94,1.94-1.36,2.93l-1.06,3.06c-.16.51-.38,1-.5,1.53l-.37,1.58c-.24,1-.52,2.1-.73,3.16l-.41,3.22c-.06.54-.14,1.07-.19,1.61l0,1.63-.05,3.25a47.19,47.19,0,0,0,2.27,12.76,46.68,46.68,0,0,0,2.39,6c.46,1,1.05,1.89,1.56,2.84a23,23,0,0,0,1.72,2.75l1.88,2.63c.66.84,1.43,1.61,2.13,2.43l1.06,1.2c.36.4.79.74,1.17,1.11l2.35,2.18c.84.68,1.72,1.28,2.57,1.93l1.28,1,1.37.82,2.72,1.64,2.87,1.33c.48.22,1,.45,1.43.66l1.49.51,3,1,3,.71c.5.11,1,.24,1.51.33l1.54.19,3.05.38,3.07,0,1.52,0,1.53-.14,3-.27c18.78-2.29,37.67-4.89,56.54-6.58s37.77-2.84,56.71-3.16,37.9.27,56.9,1.37l28.49,1.81,14.25.9c4.75.24,9.5.52,14.24.69Q509.57,1115.49,537.94,1114.18Z"/>
      </g>
      <g>
        <path class="cls-4" d="M531.23,1038.23,252.78,1030a67.74,67.74,0,0,1-65.51-69.51h0a41.29,41.29,0,0,1,42.37-39.94l331.16,9.8a41.3,41.3,0,0,1,39.94,42.38h0A67.74,67.74,0,0,1,531.23,1038.23Z"/>
        <path class="cls-2" d="M531.19,1039.73q-14.85-.49-29.73-.37-7.43.06-14.88.31l-7.44.25-7.44.34c-5,.22-9.93.56-14.89.85l-14.9,1-29.8,2.12c-19.87,1.31-39.72,2.14-59.54,2s-39.62-1-59.4-2.55c-4.94-.35-9.89-.85-14.83-1.27s-9.88-.94-14.82-1.5l-7.41-.8-3.72-.4c-1.41-.18-2.82-.33-4.22-.55a75.62,75.62,0,0,1-16.24-4.44,78.5,78.5,0,0,1-14.65-7.75,80.25,80.25,0,0,1-12.47-10.5,76.49,76.49,0,0,1-10-12.65,79,79,0,0,1-7.14-14.27,75,75,0,0,1-4.05-15.35c-.37-2.62-.7-5.24-.81-7.88-.06-1.33-.13-2.64-.1-4v-2l.15-2a31.36,31.36,0,0,1,.46-4.1l.37-2,.18-1,.28-1c.39-1.32.68-2.68,1.16-4s1-2.59,1.51-3.85l1.86-3.71,2.19-3.52c.78-1.14,1.65-2.22,2.48-3.33s1.84-2.07,2.77-3.1A48.41,48.41,0,0,1,226,914.29c1.4-.1,2.91-.22,4.24-.28l3.72-.1,7.44-.27,14.89-.53c9.92-.4,19.85-.84,29.77-1.18l14.88-.53c5-.13,9.93-.31,14.88-.39,19.84-.47,39.66-.36,59.49-.35,39.65,0,79.3,0,118.9,1.67q14.85.58,29.7,1.44c9.89.56,19.79,1.05,29.68,1.81,2.47.16,4.94.4,7.42.6l1.15.12,1.24.14,2.47.31a18.52,18.52,0,0,1,2.45.45l2.43.55a53.09,53.09,0,0,1,17.71,8.33,51.34,51.34,0,0,1,20.26,31.12c.33,1.5.49,3,.71,4.56,0,.39.11.76.14,1.14l.05,1.15.08,2.29a34.33,34.33,0,0,1-.14,4.54c-.06.75-.1,1.52-.17,2.24L609,975.2a75.45,75.45,0,0,1-4.31,16A77.4,77.4,0,0,1,587,1017.85a75.9,75.9,0,0,1-5.9,5.18c-1,.8-2,1.63-3.11,2.36l-1.58,1.14-1.63,1.06a77.24,77.24,0,0,1-13.73,7A75.58,75.58,0,0,1,531.19,1039.73Zm.09-3a60.47,60.47,0,0,0,28-6.13,57.49,57.49,0,0,0,12-7.83l1.36-1.15,1.3-1.21c.87-.79,1.7-1.63,2.51-2.49a70.24,70.24,0,0,0,4.51-5.41,58,58,0,0,0,11.31-38.3l-.11-1.63c-.06-.52-.16-1-.23-1.48a19.65,19.65,0,0,0-.55-2.87l-.37-1.4-.18-.69c-.07-.23-.17-.45-.25-.68-.37-.89-.63-1.79-1-2.65a31.16,31.16,0,0,0-14.76-15.32,28.91,28.91,0,0,0-9.65-2.81l-1.22-.13a6.3,6.3,0,0,0-1.23-.07h-2.54c-2.48,0-5,.14-7.44.16-9.92.17-19.83.08-29.74.05s-19.82-.13-29.73-.32c-39.63-.7-79.21-3-118.79-5.36-19.79-1.16-39.58-2.23-59.36-3.87-4.95-.38-9.89-.85-14.83-1.27l-14.83-1.41c-9.88-.93-19.77-2-29.65-2.94l-14.83-1.41-7.41-.71-3.71-.32c-1.15-.07-2.11-.09-3.19-.15a33.93,33.93,0,0,0-12.43,2.23A34.86,34.86,0,0,0,191.93,959l-.14,1.65,0,1.74c0,1.15,0,2.31.08,3.46a57,57,0,0,0,4.82,20.07,59.51,59.51,0,0,0,7,11.82,58.3,58.3,0,0,0,20.82,16.94A56.43,56.43,0,0,0,237,1019a58.83,58.83,0,0,0,12.84,1.38c1.07,0,2.14-.08,3.2-.1l3.71-.18,7.44-.37c5-.26,9.93-.41,14.89-.62s9.92-.33,14.88-.38c19.84-.37,39.66-.1,59.45,1s39.56,3,59.31,5.5l29.62,3.87,14.82,1.93c4.93.58,9.87,1.21,14.81,1.72l7.41.79,7.42.68c4.94.46,9.89.87,14.83,1.19Q516.42,1036.35,531.28,1036.73Z"/>
      </g>
      <g>
        <path class="cls-3" d="M500.31,373.18c-.48,1.15-.81,2.24-1.16,3.33a5,5,0,0,0,.39-.95C499.71,375,499.92,374.29,500.31,373.18Z"/>
        <path class="cls-3" d="M503.06,370.73l.18-.28C503.16,370.46,503.11,370.55,503.06,370.73Z"/>
        <path class="cls-3" d="M309.68,431a9.46,9.46,0,0,0,.37,2.5A5.44,5.44,0,0,0,309.68,431Z"/>
        <path class="cls-3" d="M342.07,441.5c-.13.19-.23.35-.33.51A1.17,1.17,0,0,0,342.07,441.5Z"/>
        <path class="cls-3" d="M495,408.65c.06-.44.12-.9.19-1.32C494.9,407,494.85,408.31,495,408.65Z"/>
        <path class="cls-3" d="M298.83,497.51a5.89,5.89,0,0,0,.06.93A4.68,4.68,0,0,0,298.83,497.51Z"/>
        <path class="cls-3" d="M483,451a.75.75,0,0,1-.17.3C482.92,451.36,483,451.31,483,451Z"/>
        <path class="cls-3" d="M339.35,512.87a1,1,0,0,0,.8-.23C339.66,512.55,339.34,512.54,339.35,512.87Z"/>
        <path class="cls-3" d="M340.11,508c-2.7-1.34-2.5-.27-1.74,1.14s2.27,3,1.78,3.5l3.18.85c1.05.26,1.67.23.63-.59a6.43,6.43,0,0,0,4.26,1.65,14.88,14.88,0,0,0,6-1,22.79,22.79,0,0,0,4.25-2.26,10.4,10.4,0,0,1,1.56-.86,2.61,2.61,0,0,1,1.35-.28c0-.21-.43-.24-.66-.52s-.2-.73.64-2c1.36-1.48,2-1.9,2.53-1.91s.9.31,1.54.06a47.17,47.17,0,0,1,2.11-4.92c.42-1,.81-1.92,1.1-2.49s.44-.93.41-.6c.55-2.16-.22-2.23-.9-2.56s-1.29-.92-.76-4.1a26.52,26.52,0,0,1,.39-3.92c.24-1.13.5-2.31.82-3.38a36,36,0,0,0,1.56-7.52c.51-1.14.7-1.38.78-.82a17.6,17.6,0,0,1-.23,3.19c-.09.72-.19,1.53-.31,2.3s-.26,1.53-.39,2.25c-.23,1.51-.47,2.7-.52,3.48a136.78,136.78,0,0,0,2.4-19.18c.67-2.52,1-1.49,1,1.05,0,1.24-.08,2.84-.22,4.5s-.38,3.22-.63,4.62a48,48,0,0,0,1.74-12.48c.12-4.46-.19-8.37-.76-10.07.31-2.55.43-4.61.56-6.62s.28-3.95.67-6.45c.48,5.31,2.79,5.93,2.63,15.11-.56,7.24-.92,5.44-1.23,3.56s-.67-4-1.26,1.62l1.21,2.25a22.84,22.84,0,0,0-.6,3.32c-.12,1.13-.16,2.35-.22,3.53-.1,2.39-.1,5.05-.46,7.56-.71,2.31-.33-1.27-.24-3.33-.16,1.1-.31,2.18-.47,3.23-.08.52-.15,1-.25,1.52s-.18.93-.28,1.39c-.18.92-.36,1.81-.54,2.69s-.38,1.62-.57,2.41a74.67,74.67,0,0,0-1.7,9.57,18.55,18.55,0,0,0,1.44-2.77c.22-.59.45-1.2.67-1.83l.33-.95.29-1.1c.38-1.49.78-3,1.07-4.7.15-.84.3-1.68.46-2.51s.25-1.76.38-2.62.25-1.72.36-2.55.21-1.72.31-2.55c.2-1.65.4-3.2.57-4.62s.37-2.7.58-3.75a12.88,12.88,0,0,1,.65-2.55c.08-4.93,0-9.88,0-14.67l-.13-7.12-.1-3.31,0-1.62,0-.81v-.4l0-.23c-.08,0-.17.07-.27.2a6.67,6.67,0,0,0-.32.87c-.23.7-.49,1.54-.74,2.15-.5,1.23-1,1.46-1.32-1.93A9.22,9.22,0,0,0,375,436a7.28,7.28,0,0,0,.52-1,15.39,15.39,0,0,0,.87-2.57c.13-.5.25-1,.36-1.58l.15-.85,0-.22a1.55,1.55,0,0,1,0-.16l.06-.11c.15-.28.26-.7.34-.8a1.74,1.74,0,0,1-1.56-1.25c-.33-.65-.59-1.48-1.3-1.54.41.69.26.85,0,1s-.69.07-.76.11c0-1-.39-1.3-.79-1.48s-.8-.2-.81-.91c.3-2.16.57-1.8.86-1.48s.62.61,1-.76c.35.83.92,2.14,1.49,3.26s1.16,2.06,1.5,2.63c.39.13.37-.05.37-.28s0-.51.44-.25a3.21,3.21,0,0,1-1.18-1c-.33-.41-.59-.85-.8-.71-.3-1.23-.84-3.1-1.27-5.56a38.39,38.39,0,0,1-.65-7.86,74.12,74.12,0,0,1,1.69,7.94,16.06,16.06,0,0,0,.79,2.82,20.15,20.15,0,0,0,1.55,3c-.32-1.15-1.43-3.75-1.18-4.1.71,1.37.78,1.19.74.29a15.79,15.79,0,0,1,0-3.21c-.23-.67-.46-1.29-.7-1.86-.16-1.25-.07-1.82.12-2s.47-.09.69-.1l.09,1.36c0-.75.05-1.52.14-2.28a2.23,2.23,0,0,1,.19.81c.05-1,.31-1.59.71-1.73s.84.17,1.16.59c.45.59.75,1.23,1.06,1.17.17-1.86.05-2.41-.19-2.52s-.57.29-.85.15a.37.37,0,0,1-.18-.19,16.75,16.75,0,0,0-.82-2.76,7,7,0,0,1-.33-4.07,9.06,9.06,0,0,0,1.45.09,8.65,8.65,0,0,1,1.78-.2c.53.11,1.05.65,1.47,2.13,0-.74-.12-1.5-.2-2.28.39-.69.69-.21.93.62s.43,2,.68,2.93c.15,2.79-.3,3-.71,3.32s-.82.56-.84,2.23c-.44.87-.57.2-.74-.28s-.34-.68-.73,1.56q-.19,3.13-.56,5.84c.37-1.1.41-.3.34.56s-.23,1.83-.11,1.78c.14-.67.27-1.38.4-2.14.44-1.44.54-1.42.51-1s-.18,1.27-.22,1.58c.42-1.41.84-2.9,1.24-4.46,0-1-.39-.85-.65-.72s-.43.15-.24-1.82c.46.28.91-.54,1.35-1s.89-.56,1.3,1.37c-.52,1.56-.35-.23-.83.53-.06,1.09.23,1.16.56,1.47s.69.86.61,2.31c-.29-.28-.68-.56-1-.33s-.72,1-1,2.27a8.49,8.49,0,0,1,1.34-1.29c-.05,1.14-.59,1.53-.57,1.89,0,.68.28.18.6-.23s.64-.7.64.49c-.2.59-.4,1.46-.74,1.49.13,1,.28,1.13.52,1.22s.56.11,1.08,1.06c-.29-1.81,1.73-3.73,2.43-.93,0,.48.12,1,.2,1.5s.23,1.22.34,1.8c.28,1.51.58,2.91.81,4.26a28.26,28.26,0,0,1,.44,3.89,17.27,17.27,0,0,1,0,1.9c0,.31-.07.63-.11.95l0,.24,0,.34-.06.68,1.65,4.24c-.91-1.22-.77.45-.36,2.89s1.1,5.53,1.28,7.24c-.59,1.16-1.27-2.83-2.05-7a55.55,55.55,0,0,0-1.27-5.68c-.47-1.5-1-2.57-1.63-2.42.43,3.59.35,4.77,0,4.67s-.9-1.41-1.43-2.58c1.54,8.3,2.23,2.56,3.76,5.66-.3.14.2,3.52.54,6.41s.54,5.31-.48,3.45a22.79,22.79,0,0,0,1.91,6.56,15.32,15.32,0,0,1,1.56,4.95,2,2,0,0,0-2,1.56c.28,0,.64,1.75,1,3.7s.71,3.94.82,4.6c-.06-1.53,1.48.33-.19-4.58.32-.06.67.7,1,1.86s.77,2.57,1.15,4,.79,2.67,1.1,3.54.59,1.16.72.69a6.49,6.49,0,0,0,.24,2.85,27,27,0,0,0,1.36,3.71c1.13,2.55,2.54,4.88,3.39,6.95a6,6,0,0,0-.19-3.18,4.07,4.07,0,0,0-.57-1c-.23-.3-.47-.6-.73-.88a6.81,6.81,0,0,1-1.45-2.06,6.44,6.44,0,0,1-.34-3.5c1.38,1.9,3.21,6.16,5.43,9.64s4.75,6.65,7.73,8c1.29,1.19,2.12,1.73,2.45,2s.17.44-.17.52a6.7,6.7,0,0,0-1.09.18c-.29.09-.44.31-.15.82a15,15,0,0,1-3-1.79,14.71,14.71,0,0,1-1.9-1.88c-1.11-1.27-2.05-2.58-3.57-4.12a19.2,19.2,0,0,0,6.39,6.9,24,24,0,0,0,2.2,1.18,10.61,10.61,0,0,0,2.56.69,9.33,9.33,0,0,0,5-.55l1.29-.38,1.06-.37c.3-.12.59-.22.88-.31s.49-.18.73-.24a10.93,10.93,0,0,1,1.26-.31c.38-.09.73-.14,1.11-.2s.7-.14,1.08-.25a5.16,5.16,0,0,0,1.13-.53,7.72,7.72,0,0,0,2.54-3c-.92-.83-.9-1.28-2.25-.13.94-2,2.17-3.27,3.16-5.14.14-1.12-.32-.7-.68-.44s-.61.33-.1-1.45c.58-.72,1.66-2.89,1.85-1.25l-.16.64c1.23-4.24,2-4.8,2.85-5.29a2.88,2.88,0,0,0,1.07-1.55,12.21,12.21,0,0,0,.41-2.08,28.72,28.72,0,0,0,.25-3.56c-.54-.06-.48,2.79-1.24,4.24-.5,0-.59-1.56-.57-3.82s.18-5.1.38-7.38c.48,1.82.7-3.4,1.26-6.23.67-.28.49,1.8.21,4.31-.16,1.21-.36,2.48-.49,3.64a12.78,12.78,0,0,0-.12,2.78c.14-.64.29-1.24.42-1.92l.37-2c.27-1.33.48-2.8.71-4.24l-.42,1.61c0-1.87.09-3.68.08-5.58s0-3.72-.07-5.58c-.1,3.69-.57,4-.92,3.08a15,15,0,0,1-.64-4.54c.75-6.17,1.32-12.87,2.61-11.34-.64-.82-.83-3.34-.89-6.38,0-.75,0-1.55,0-2.36s0-1.58,0-2.38,0-1.58,0-2.35l0-1.62a9,9,0,0,1-.48,2.07c-.16.33-.29.17-.42-.23-.26-.71-.49-2-.68-2.64l.82-3.36.11-.42a2.26,2.26,0,0,1,.1-.35l.19-.54.39-1a4.1,4.1,0,0,0,.29,1.82c.07.11.15.08.24-.05a2,2,0,0,0,.28-.36c.4-.61.88-1.45,1.32-.92a2.41,2.41,0,0,1,.66,1.05,2.86,2.86,0,0,1,.07.28c0,.16,0,.4,0,.6,0,.42,0,.86,0,1.31-.05.9-.16,1.86-.27,2.82l-.18,1.45-.09.95L441,439.4c.09-.34.18-.68.27-1l.11-.5.06-.24,0-.16c.13-.42.23-.83.32-1.23a14.41,14.41,0,0,0,.3-2.24,14.93,14.93,0,0,0-.05-2l0-.49a1.15,1.15,0,0,0-.06-.37l-.16-.45-.35-.94a8.41,8.41,0,0,1-.28-.9,2.43,2.43,0,0,1,.22-1.8,1.88,1.88,0,0,1,1.14,1.89c.22-.12-.06-.72-.29-1.59s-.4-2,0-2.5a2,2,0,0,1-1.08-.29,3,3,0,0,1-1.05-2.26,3.75,3.75,0,0,1,1.64-.83,4.62,4.62,0,0,0-.6-3.09,12.24,12.24,0,0,1-1.31-4.5,3.24,3.24,0,0,0-1.14.31,6.89,6.89,0,0,1-.44-3.75,8.23,8.23,0,0,0-.48-4.08,19.54,19.54,0,0,0,.15,4,9,9,0,0,1-.06,3.4c-1.43-1.26-.49-4.43-1-7.45.54-2.22.82-2.89,1.13-3.25s.66-.37,1.4-.68a72,72,0,0,1,1.85,9,34.47,34.47,0,0,0,2.55,8.48,44.39,44.39,0,0,1,.08-5.49c.16-1.76.6-3.05,1.18-2.28a54.38,54.38,0,0,0,.15-7.58,49.32,49.32,0,0,0-1.08-7.73c.89-2,1.89-1.45,2.83-.07a14.79,14.79,0,0,0-1.33,3,5.11,5.11,0,0,1,1.85-1.6,3.17,3.17,0,0,1,1.53-.37,2.66,2.66,0,0,1,2,1,9.44,9.44,0,0,1,1.59,3.26c.51.71.83-.07,1.08-1.55s.39-3.68.5-5.62c.42,1,.82,2,1.19,3.05v-1.33c.5-1.49.94-.94,1.32.33s.67,3.22.95,4.66c-.41,1.31-.86,0-1.08,1,.18,3.43.91,6.26,1.74,7.15-.24.52-.7,1-1.1.92s-.76-.52-.86-2.14c.05-.55.24-.89.29-1.45a25.79,25.79,0,0,0-1.45-2.33,12.5,12.5,0,0,1,1,6A14.74,14.74,0,0,1,455,416c.64,1.2.81-.09.93-1.45s.23-2.7,1-.47a36.43,36.43,0,0,0-.08,6.46c.14,1.62.42,2.95.66,4.28a14.69,14.69,0,0,1,.32,3.81,8.66,8.66,0,0,1-.13.91c0,.15-.07.29-.12.43s-.07.43-.12.63a9.86,9.86,0,0,1-.86,2.59c.82,2.43,1.82,5.08,2.78,8.1l.18.57.09.29.11.41q.21.81.42,1.65c.28,1.11.55,2.23.83,3.43.54,2.38,1.06,4.87,1.53,7.55,1.13-.87,1.65,6.65,2.81,4.15a35.5,35.5,0,0,0-.85-7c-.46-2.1-1.06-4.08-1.65-6.12-.29-1-.57-2-.83-3-.11-.5-.23-1-.35-1.48s-.17-.78-.24-1.17a12,12,0,0,1,0-4.7c-1.09-3.24-2-1.95-2.88-3.34-.14-.74-.26-1.46-.36-2.15-.05-.39-.07-.56-.08-.76s0-.39,0-.58a1.92,1.92,0,0,1,.51-1.55,5.39,5.39,0,0,0,1.15,2.06c.19.17.4.43.6.58s.4.3.59.45c.78.59,1.5,1.43,2.2,5.79.44-.64.3-2.71,0-5-.15-1.1-.3-2.26-.45-3.33s-.24-1.92-.28-2.63c.68.58,1.22-.45,1.35-2.72a20.74,20.74,0,0,1,2.15,4.35c.77,1.94,1.48,3.7,2.12,4.95-.72-.83-.8.9-1.26.2l3.18,8.76c-.41,2.47-1.17,3.65-2.05,2.4a63.4,63.4,0,0,0,1.57,8.11c.54,2.48.83,4.49,0,5.57.68,3.07.82,2.15.84.46a32,32,0,0,1,.17-4.62l.16.41-1.13-6c1-.93,1.1.76,1.27,2.73s.4,4.28,1.36,3.56c1.76-1.7,1.74.12,1.55,3.34-.09,1.61-.22,3.57-.23,5.39a12.88,12.88,0,0,0,.4,4.14,4.54,4.54,0,0,1-3,0c.44,1.32.91,2.56,1.37,3.71a1.55,1.55,0,0,0-1,0c-.32.1-.64.29-1,.42-.69.27-1.46.28-2.41-1.35.78,3.92,1.72,8.83,2.81,12.94a41.67,41.67,0,0,0,3.13,8.86c.31,3.07.41,5.1-.16,6.06,1.63,1.24,2.68,3.58,3.89,5.88.32.57.63,1.14.94,1.71s.67,1.11,1.06,1.62a11.09,11.09,0,0,0,2.76,2.7l.23.13c1.32.38,1.75.23,1.5-.06s-1-.84-1.71-1.52c-1.38-1.38-2.48-3.18-1-2.57a5.61,5.61,0,0,0,1,1.2,5.62,5.62,0,0,0,4.07,1.29l.66,0,.58-.13a2.51,2.51,0,0,1-1,.14l-.64,0a4.89,4.89,0,0,1-.7-.15,7.44,7.44,0,0,1-3-1.66,20.77,20.77,0,0,1-4.37-6.17c.81,1.33,1.26,1.44,1.53,1.26s.39-.7.67-.69a31.44,31.44,0,0,1-2.64-5.05c.21-1,.82.32,1.71,2s2.14,3.65,3.17,4.24a1.54,1.54,0,0,0,.31.16c-.21.1-.38.21-.32.48-.73.35-.48.89-1.44,1.43.38.33.84.67,1.4,1.07a8.73,8.73,0,0,0,3.28,1.4,7.33,7.33,0,0,0,4-.38,9.87,9.87,0,0,0,2.9-1.91c.39-.33.68-.67,1-.95a8.26,8.26,0,0,1,.81-.78c.62-.57.46.09,0,1a25.61,25.61,0,0,1-1.72,2.78c.24.12.55-.06.86-.41a7.1,7.1,0,0,0,1-1.35c.61-1,1.1-2,1.47-1.52-.07,1.8-1.38,2.28-2.39,3.75a22.19,22.19,0,0,0,3.6-4.73,53.13,53.13,0,0,0,2.69-5.27c.3,1-.89,4.14-1.89,5.42a9.93,9.93,0,0,0,2.3-4.38,35.24,35.24,0,0,0,1-9c.8-1.87,1.71-3.9,2.42-5.32s1.3-1.92,1.48-.15c.2-3.37-.61-2.4-1.1-3.38a29.1,29.1,0,0,0,.42-9.34,41.16,41.16,0,0,1-.48-7.2c-.45.85-.92,1.59-1.36,2.3a9.88,9.88,0,0,0,.49-3.34,3.78,3.78,0,0,0-.51-1.64c-.47-.89-1-1.59-.34-4.41,1.1,2.1,2.45,3,3.79,2.78a8.34,8.34,0,0,1-.27-4.37c.22-1.7.58-3.65.67-5.34-.66.78-.84-1.14-1.06-2.55s-.46-2.34-1.17-.05a37,37,0,0,1-.13-4.67q0-1,.12-1.89c0-.5.09-1,.13-1.46a12.76,12.76,0,0,0-.42-5.66c-.5,2.6-1.06-4.92-2-2.7.14-5.46,1.79-9.14,3-7.59-.19,1.87-.86,4.86.17,4.7l.25-9.92c.76-2.41,1.25-5.53,2.69-5.83-1.42-3.27,1.81-9.12.16-11.65.89,3.4-1,5.84-1.26,7.11l-.15-1.54a5,5,0,0,1-.14.78c-.69-1.47-1.4-3-2.07-4.44-1.32,4,1.51.86,1,6.62-1.31,2.43-2-.46-2.52-3.35s-.89-5.76-1.85-3.19c-1.1,4.26,1.16,3.68,1.73,7.29l.11-.93c.14,2.71.29,5.4.47,8.1-.8.34-1.3-2.14-1.3-2.14-.54,9.76-1.8,11.22-2.55,21.73.33-.75,2.81-2.72,3,2a7.25,7.25,0,0,1,0,2.07,7.16,7.16,0,0,1-.39,1.58,10.62,10.62,0,0,0-.91,3.2c-.2-1.95-1.46-3.6-.48-5.8l-1.67.12c-1.67-8-3.47-3.89-3.58-14.65-1.2-.54-1.47-8.38-.71-14.26l-1.28,2.79c-1.69-6.24,1.74-1,.58-9,2.45-3.11,5.65-8.72,7-4.2,1.11-5.39.17-7.39,1-12.33,1.16-1.35,1.58-.87,1.93-.11s.69,1.8,1.62,1.68c.35-3.5.7-8-.92-5.68a44.49,44.49,0,0,1,2.67-6.25c.41,0-.43,2.18-.71,3.08.55-1.18,1-3,1.59-4.63a38.37,38.37,0,0,1,1.58-3.94,24.53,24.53,0,0,1-1.8,2.49,9.16,9.16,0,0,1,3.25-4.44,10.69,10.69,0,0,1,1.36-.67l1.26-.33a5.57,5.57,0,0,0,1.44-.24,13.38,13.38,0,0,0-3.42.3,6.85,6.85,0,0,0-1.27.35,7.19,7.19,0,0,0-1.13.45,6.08,6.08,0,0,0-3.37,4.21,2.82,2.82,0,0,1-.19-1.42,3.11,3.11,0,0,1,.43-1.18,4.76,4.76,0,0,1,.47-.7,9.27,9.27,0,0,1,.77-.76,14.66,14.66,0,0,0-4.35,4.88,12.53,12.53,0,0,1-2.45,3.44,10.22,10.22,0,0,0,1.06-2.12,10.1,10.1,0,0,0,.55-1.87c.28-1.16.31-2.07.48-2.51a19.81,19.81,0,0,0-2.64,6,20.43,20.43,0,0,0-.76,5.09c-1.05,0-1.59,2.8-1.86,5s-.45,3.95-1.22,1.95c.61.71.11,4.78-.6,6.85-.87-.28-.71-5.77-1.3-8.34,1.12-11.53,1.41.5,2.53-2.05a71.9,71.9,0,0,1,1.94-8.73c-.28.41-.35-.6-.52-1s-.63-.09-1.41,2.89a14.73,14.73,0,0,1,.74-6.62,19,19,0,0,1,.87-2.18,22.49,22.49,0,0,1,1.34-2.34c.31-.42.62-.83.95-1.23l.49-.59c.2-.21.42-.43.63-.63.43-.41.85-.8,1.32-1.18a18.92,18.92,0,0,1,1.65-1.1c.82-.94-.35-.34-1.88.89a24.15,24.15,0,0,0-1.87,1.91c-.48.6-.89,1.16-1.16,1.52.07-.22.2-.56.35-1a12.15,12.15,0,0,1,.61-1.39c.57-1.06,1.13-2.13,1.63-2.92s.36-1.11-.82-.49a15.51,15.51,0,0,0-4.94,5c.47-.73.64-.8.52-.45s-.29.94-.44,1.51c-.28,1.14-.31,1.92,1.51-.47-2.8,4.47-5.59,12.56-5.76,8.86-1,4.17-1.27,10.91-1.4,13.75-1,.68-.05-2.48-.21-4-.41,3.42-.65,6.73-.84,10l1.35-2.67c-1.59,7.06.55,11.7.9,17.28-1.56-.87-1.4-5.48-1.89-9.25-2.25,3.36.79,2.42.1,8.17-.35.76-.75.93-1.21.52l1.13,4.67c-.27,1.32-.57.55-.63,0,1.34,7.91,2.27,0,2.5,10.41,1.13-6.22-.87-5.37-.43-10.67,1.34-3,1.75,6.18,2.38,7.72-.63,5.07-3.09,5.55-2,12-.59-4.55-1.51-.25-1.28-6.66-.67-3.63-.81,1.86-1.77,2.57.22,1.7,1.75-1.05,1.31,3.64l-.23-.19.71,3.88.36,1.94c.13.42.26.75.39,1.16-.06.25-.11.5-.15.76s-.06.46-.08.7a12.41,12.41,0,0,0,0,1.49c.07,1,.23,2.19.35,3.35.25,2.3.33,4.78-.64,4.76.54.59,1.09,1.15,1.64,1.66,0,3-.33,7.12-.27,9.93-.79-2.59-.68-4.57-.85-7a45,45,0,0,0-.32,7.47c.11,3.89.21,7.41.29,10.47.76.45,1.13.36,1.45.17s.61-.55,1.17-1a18.39,18.39,0,0,1,.23,4.78c-.14.78-.44.88-.78.86s-.71-.16-1,.23-.58,1.3-.78,3.53a51.44,51.44,0,0,1-.87-5.47,21,21,0,0,0-1.09-4.56c.23,5.29-1,7.74-2.74,12.47a17.65,17.65,0,0,1-.29-8.21,68.31,68.31,0,0,1,1.75-7.07c1,1,1.21-1.53,1.29-3.72s.05-4.19.78-3.68a11.14,11.14,0,0,1-1-1.24c0-1.92.08-3,.12-4.16a21.12,21.12,0,0,0-.25-4l.22.53c-.47-1.36-.94-2.65-1.42-3.87l-.08.86c-.39-1.18-.89-2.8-1.32-4s-.76-2.12-.78-2.31c.14,1.76,2.49,6.72,3.62,11.37-.21,1.5-1,.8-1.57.13s-1-1.21-.58,1.62c-.31-1.07-.69-1.9-1-2.92a19.33,19.33,0,0,1-.81-3.6c-.07-1.07.09-1,.19-1.09s.1-.35-.36-1.83c-.09.93-.55-1.24-.62.31a67,67,0,0,1,1.22,7.61,48.77,48.77,0,0,1,.18,8.56c-.25,1.65-.85,3-1.72,3.33s-1.68-.17-2.18-1a7,7,0,0,1-.74-1.83.52.52,0,0,0,.77,0,5.59,5.59,0,0,0,1.3-3.15,17.31,17.31,0,0,0,.05-5c-.22,2.81-.93,1.52-1.22.33s-.47-2.31-.54,1.69c-1-1.87-1.78-4.64-.89-9.56.3-.43.39.28.51,1.19s.31,2,.59,1.68a13.59,13.59,0,0,1,0-3.46,6.94,6.94,0,0,0,.43,1.15,2.27,2.27,0,0,0,.19.34,10.16,10.16,0,0,1-.17-1.44c-.24-2.81-.09-4.15-.35-4,0,.5-.09,1.54-.14,1.78-.1,0-.15-.53-.23-.55l.68-5c-.19,1.09-.1-.07.05-.77s.33-1-.12,0l.24-.6a13.22,13.22,0,0,1-1.09,1.9c-.68,1-1.49,1.77-1.78,1.22.73-.37,1.28-1.31,1.95-2.07-.38.28-.29,0,0-.3a3.34,3.34,0,0,1,.86-.73,6.35,6.35,0,0,1-1.23.64c-.37.12-.71.1-.93.43a1.48,1.48,0,0,1-.93.23.74.74,0,0,1-.32-.16,1.44,1.44,0,0,1-.25-.41,1.86,1.86,0,0,1-.1-.25l0-.13a.86.86,0,0,1-.05-.23c-.12-.6-.22-1.21-.31-1.81-.18-1.19-.32-2.35-.42-3.29.9-1.27,1.63,1.57,2.3,4,.09.3.17.59.25.87s.06.11.09.17l.07.07a.61.61,0,0,0,.34.14c.26,0,.59-.14,1.1-.42a.25.25,0,0,0,0-.08c0-.2-.07-.39-.1-.57a7.63,7.63,0,0,0-.24-1,2.4,2.4,0,0,0-.58-1.07c-.38-.32-.71.16-.71,1.49a184.61,184.61,0,0,1-1.16-19.3c-1.64-5.18-2.43-8.7-3.22-11.73a36.21,36.21,0,0,0-1.26-4.09,13.46,13.46,0,0,0-1.79-3.36,23.38,23.38,0,0,0,1.71,4.92,20.25,20.25,0,0,1,1.25,6.81c-.91-2.17-1.79-4.24-2.68-6.12-.23-1.15-.43-2.29-.62-3.43s-.37-2.21-.54-3.31c-.31-2.23-.62-4.35-.91-6.37s-.6-4-.9-5.83-.68-3.42-1.06-4.93c.72,1.68,1.5,3.26,2.21,5.17l-.26,0c1.2,1.36,2.85,10.88,3.57,8.61a18.34,18.34,0,0,1-.85-1.92c-.25-.63-.48-1.29-.68-2-.41-1.36-.73-2.85-1.1-4.3s-.72-3.09-1.21-4.54c-.24-.74-.5-1.48-.79-2.22a13.92,13.92,0,0,0-1-2l.25-.12c-2.38-5-4-9.86-5.68-13.33s-3.4-5.38-5.28-4.51a7.07,7.07,0,0,1,1.37,2.64c.36,1.11.49,2.26.15,2.38a13,13,0,0,0-2.11-3.69c-.79-1.09-1.47-1.94-1.34-2.54l1,.44a19.23,19.23,0,0,0-3.45-3,7.23,7.23,0,0,0-1.32-.74,3.13,3.13,0,0,0-1.07-.32c-.51.44-.52,1-.74,1.41s-.57.62-2,.26l-.19-.11c-1.72-.8-2.68-1.13-2.79-1.45s.41-.54,1-.77,1.24-.43,1.37-.72-.11-.7-1.57-1.17a17.55,17.55,0,0,0-8.73,2c-.6-.16-1.08-.31-1.63-.49a12.77,12.77,0,0,0-5.44,3.33,20.87,20.87,0,0,0-3.77,5.79c-.28.56-.55,1.19-.81,1.85s-.53,1.26-.77,2-.49,1.43-.74,2.16-.47,1.58-.71,2.38-.45,1.71-.69,2.56c-.11.44-.23.88-.34,1.32s-.22.95-.33,1.42c-.21,1-.46,1.87-.67,2.9s-.44,2.09-.67,3.13A7.37,7.37,0,0,1,422,379c0-.8.07-1.78.19-2.69s.27-1.86.44-2.82.39-1.88.62-2.75c.11-.43.23-.86.34-1.28l.18-.62.19-.54a24.9,24.9,0,0,1,1.33-3.28c-.68.15-1.25,1-1.8,2a12.49,12.49,0,0,0-.77,1.93c-.23.75-.48,1.44-.69,2.32-.43,1.75-.88,3.48-1.29,5.44l-.34,1.38c-.12.44-.25.89-.36,1.38a26.06,26.06,0,0,1-.8,2.66,26.25,26.25,0,0,0-.49,2.82c-.13,1-.23,1.9-.31,2.82a50.52,50.52,0,0,0-.08,5.14,19.9,19.9,0,0,0,.39,3.54c.2.82.43,1.24.67,1.16-.22,5.36-.53,7-.94,7.47s-.8-.36-1,.21c.74,2.51.74,6.88.61,11.82-.09,2.44-.18,5.05-.27,7.59,0,1.2-.07,2.37-.1,3.51,0,.56,0,1.12,0,1.66v.58l0,.45-1,.17.48,3.68.24,1.83c.1.17.2.35.29.54.13-.53,1,0,1.66.15l-.12.65a2,2,0,0,0,.76-.92c0-.1.07-.19.1-.29a6.45,6.45,0,0,0,.09-.69c.05-.48.09-1,.11-1.46,0-1,0-2,0-3,0-.54,0-1.09-.08-1.64l-.06-2.45c-.16-6.58-.15-14.49,1.78-19.16,0,2,.3,1.82.54,1.7s.48-.22.56,1.68c-.27,2.84-.44,3.35-.85,3.43.71,2.34,1.21,7.15,1.46,1.16,1,.79,1.27,3.91,1.33,7.76v7.25c0,.38,0,.75,0,1.12,0,.74.07,1.47.13,2.15-.78,2.13-1.24,1-1.63-1-.2-1-.37-2.16-.56-3.28a33.65,33.65,0,0,0-.55-3.93c0,.78.06,1.53.13,2.28,0,.37.07.74.11,1.12,0,.19,0,.37.05.57s0,.26.05.39a10.29,10.29,0,0,1-.14,3.74l-1.58-.81c.07.94.15,1.68.22,2.26,0,.29.08.53.12.75a1,1,0,0,0,.14.29c.19.29.38.36.6.32.44-.05,1-.57,1.75,0a2.34,2.34,0,0,1,.62,2.8c-.3.94-.84,1.63-.79,2.23l-.33-1.42a6.61,6.61,0,0,0,.07,3.59,12,12,0,0,1,.43,4,4.13,4.13,0,0,1-1.28-.27,1.81,1.81,0,0,0,.45-1.7,8.07,8.07,0,0,0-.64-2.21c-.59-1.43-1.3-2.47-.86-3-.83,1.52-1.61.26-2.36-.9a9.17,9.17,0,0,0-2.17-2.78c.26.7,0,1.35-.82.72a3.36,3.36,0,0,1,.74,1.41.63.63,0,0,1-.13.54c-.09.11-.15.2-.07.61s.32,1.14.84,2.69c-.16,0-.39-.73-.59-1.34s-.4-1.14-.44-1c-.27.41,0,1.59.27,5.75-.23.47-.67-2.1-1.12-4.31-.3-.47-.47,0-.8.72s-.56,1.72-.87,2.55-.65,1.43-1,1.36-.6-.82-.68-2.31a16.06,16.06,0,0,0,.64-1.53c0-1.11.1-2-.79-.16a9.07,9.07,0,0,0,.53-2.46c0-.29-.25-.28-.48-.4a.84.84,0,0,1-.49-.75,2.18,2.18,0,0,1,.81-1.64.53.53,0,0,0-.17-.63,2.67,2.67,0,0,0-.35-.31l-.22-.14-.06,0-.08-.17-.16-.33a23.58,23.58,0,0,1-2.5-6.28c.63-.1,2.08,1.59,1.88-1.63l-.75-3.73c-.4-2.17-.79-4.34-1.18-6.49-.81-4.46-1.61-8.85-2.47-13.12a230.05,230.05,0,0,0-5.72-23.75,78.83,78.83,0,0,0-3.55-9.39c-.31-.7-.63-1.4-1-2s-.64-1.26-1-1.85l-1-1.68c-.33-.57-.68-1-1-1.55a35.41,35.41,0,0,0-4.24-5.18,25.73,25.73,0,0,0-4.89-3.92c.13-.21.91,0,1.26.14a19.69,19.69,0,0,0-4.58-2.4,14.75,14.75,0,0,0-4.81-.64,12.48,12.48,0,0,0-5,1.21,13,13,0,0,0-3.42,2.37,20.61,20.61,0,0,0-2.48,2.77,46.46,46.46,0,0,0-3.78,6.24c-1.13,2.16-2.17,4.4-3.23,6.65-.15.73-.4,1.71-.61,2.95s-.47,2.5-.59,3.82a18.24,18.24,0,0,0-.15,3.22c.06.82.25,1.24.59,1,.89-3.08,2-1.18,2.54.45-.2,1.74-.39,3.07-.55,4.15a17.94,17.94,0,0,1-.47,2.44c-.31,1.14-.63,1.45-1,1.55-.67.22-1.4-.24-1.8,5-.57.15-.89-.26-1.08-1a16,16,0,0,1-.24-3.18c0-1.24,0-2.58-.06-3.78a6.62,6.62,0,0,0-.63-2.89c-.44,5.66-.6,11.67-.6,17.56a116.24,116.24,0,0,0-1,13.93c-.07,2.32-.14,4.66-.28,6.78a33.1,33.1,0,0,1-.64,5.43,1.9,1.9,0,0,0-.09-1.14c-.06-.1-.13-.26-.21-.41l-.23-.43c-.3-.62-.52-1.6,0-4.59.05.95.22.35.28,1.29.42-7.17.29-9.32.05-11.31-.12-1-.25-2-.34-3.57s-.12-3.81,0-7.26c-.21,6.1-.32,13.27-.48,20.09,0,1.62-.08,3.23-.12,4.82,0,1.11-.07,2.21-.11,3.27s-.09,1.78-.15,2.62c0,.42-.07.83-.1,1.23,0,.18,0,.44-.06.54l0,.19c.74-.19.87.28.94.94a2.78,2.78,0,0,0,.51,1.67l-.15.06c.63.25,1,2,1.15,2.62a12.75,12.75,0,0,1-1.82-1,1.06,1.06,0,0,0,.55.82,1,1,0,0,1,.54.88c.38,1.7.12,8-1.64,4a26.51,26.51,0,0,0,.36,3,6,6,0,0,1,0,2.66c-.36-1.43-.47-2.28-.66-3a33.4,33.4,0,0,1-1.31,4c-.34.64-.93,1.22-1.73.84s-1.34-1.57-1.61-3a6.18,6.18,0,0,1-1.41-.17c-.42,0-.85.21-1.43.92a6.18,6.18,0,0,1,.31,2.17,5.72,5.72,0,0,1-.56,3.11c-.32.63-.56.33-.77-.19a9.08,9.08,0,0,0-.68-1.63,11.33,11.33,0,0,0,.27-3.34c0-1,.07-1.49.56-.94.6-2.63.3-3.47,0-4.43a3.47,3.47,0,0,1,.27-3.29c-.29.22-.5-.54-.77-1.36a3.56,3.56,0,0,0-1.24-2.07c.83-.74.87,1.37,1.43.83l-.48-1.1.59-.36a2.23,2.23,0,0,0-.32-1.41,4,4,0,0,0-.43-.59,1.35,1.35,0,0,1-.27-.32c-.11-.25-.23-.48-.34-.71a23.45,23.45,0,0,1-2.44-5.52l.27.14-.82-3.11,2.26,3.45a37.36,37.36,0,0,0-2-6.3c-.47-1.48-.92-2.94-1.37-4.57s-.9-3.44-1.34-5.52l.36-1.17q-.69-2.44-1.4-4.75c.23.78.5.9.53.23-1.13-1.84-2-5.42-2.93-8.85-.45-1.71-.91-3.36-1.36-4.72a8.51,8.51,0,0,0-1.4-2.82c-.27-1.55-.2-3.75-.38-5.67a14.59,14.59,0,0,0-.43-2.68,2.86,2.86,0,0,0-1-1.6l1.36-2.63a29,29,0,0,1,1.39,4.78,16.91,16.91,0,0,1,.26,2.57c.06,1.47.2,2.69,1.72,7.8a41.09,41.09,0,0,0-.25-4.88c-.16-1.82-.47-3.66-.83-5.66a66.32,66.32,0,0,0-3.23-11.4,43.24,43.24,0,0,0-4.52-8.6,33.84,33.84,0,0,0-4.73-5.5c-.32-.19-.66-.41-1-.64s-.73-.49-1.13-.75c-.79-.52-1.68-1-2.72-1.63a12,12,0,0,0-3.73-1.34,11.86,11.86,0,0,0-4.56.08,10.61,10.61,0,0,0-3.5,1.53,9.92,9.92,0,0,0-2.22,2,9,9,0,0,0-2.05,4.61l.1-2.23a36.61,36.61,0,0,0-3.52,4.25,42.1,42.1,0,0,0-3.21,5.25A86.89,86.89,0,0,0,287,379.72a123.52,123.52,0,0,0-2.07,13.17,170.38,170.38,0,0,0-.85,27.07l-1.2,4q.11.75.24,1.56l.1.82.05.41c0,.14,0,.2.06.3.14.73.26,1.5.37,2.32s.19,1.66.27,2.55c0,.44.07.89.1,1.34,0,.24.08.48.11.72.14,1,.24,1.88.32,2.87s.13,2,.19,3.06a68.86,68.86,0,0,0,2.06,15c-.58.94-.9-.24-1.15-1.66a27.33,27.33,0,0,0-.78-4c-.24.75.15,3.31.3,5.8s.07,4.77-.86,3.37c-.47-1.74,0-4.56-.52-4.2-.59-.75-.43.45-.31,1.77s.2,2.68-.47,1.57a23.77,23.77,0,0,1,.94,7,22.64,22.64,0,0,1-1.09,8.08c.35-.35.32-.36.53-.09a5.94,5.94,0,0,1-1.71,6,5.82,5.82,0,0,1,.28-1.6,4.52,4.52,0,0,1-2.83,2,3.75,3.75,0,0,1-2.93-.62,11.43,11.43,0,0,1-3.48-4.31,38.56,38.56,0,0,1-2.38-5.7,114,114,0,0,1-3.48-13.57c-1-4.85-1.82-9.93-2.52-14.93-.36-2.74-.72-5.48-1.08-8.19q-.58-4.6-1.08-9.15l1.64,4.87c-1.27-3.8-1.86-10.78-2-13l.19.55c.7-7.6-3.16-7.9-2-13.89l.4,1.08c-.81-4.39-1-8-1.38-11.58A39.65,39.65,0,0,0,256.3,379a43.16,43.16,0,0,1-.82-6.69,18.71,18.71,0,0,0-.73-5.43,15.58,15.58,0,0,0-3.34-4.73,10.63,10.63,0,0,0-1.35-1.06,3.17,3.17,0,0,0-.71-.36,12.72,12.72,0,0,1,.81,1.14c.24.37.51.76.71,1.12.21,1.45-.57.42-2.09-1.32-.43-.43-.88-1-1.36-1.39a16.2,16.2,0,0,0-1.51-1.23,9.34,9.34,0,0,0-3.14-1.51c.77,1.28.37,2.34.59,3.85s.94,3.59,2,7.41a7.37,7.37,0,0,1,1.25,5.69,12.39,12.39,0,0,0,.62,6.35c1.63,1.44,1.82,3.81,2,6.44s.25,5.54,1.87,8.24c-2.18-2.78.48,7.12-2.23,2.36-.76,2.57,3.61,12.18,2.84,17.09-.47-.7-.82-.46-1.19-1.52,2,6.31-.4,4.6.36,9.41l1.61-.44c.82,1.78-.25,2.51.29,4.13,0-1.34.34-4.23,1.24-2.87a35.61,35.61,0,0,1,1.92,6.36c-.63.12-1.17-1.51-1.54-2.62,0,0,.65,5.25-.06,5.73-.82-1.78-1.19-4.2-2.36-5.7.57,6.93-.45.63-1.23,4.17,1.81-1,1.6,5,3,11.3-.32.44-.53-.5-.76-1.69a11.85,11.85,0,0,0-.84-3.18,27.83,27.83,0,0,0-.35,4,32.22,32.22,0,0,0,.19,3.75,38.26,38.26,0,0,0,1.38,6.58c.59,2.08,1.29,4.1,1.95,6.43a70.06,70.06,0,0,1,1.86,8.38c-.24.06-.74-1.3-1-2a34.11,34.11,0,0,1,1,4.21c.26,1.39.43,2.83.64,4.08a31.78,31.78,0,0,0,.69,3.45,5.09,5.09,0,0,0,1,2.13,13.35,13.35,0,0,1,.38,5.25,9,9,0,0,0,.16,2.43,17.07,17.07,0,0,0,.46,1.74,19.71,19.71,0,0,0,.89,2.13c0-2.65.83-.54,1.78,1.51s2.12,3.94,2.47,2.27c.31,1,.65,1.9,1,2.82s.7,1.8,1.08,2.63c1.24.49,1.24-1,1.49-2,.13-.49.31-.85.71-.71s1,.73,2.21,2a15.31,15.31,0,0,1,1.93,3,1.52,1.52,0,0,1-.15,1.44,3,3,0,0,0-.57,1.26c-.06.49.13,1.09,1,1.88.44-.15.87-.29,1.35-.42l.21-.08a11.93,11.93,0,0,0,3.81,1.82c-.22,0-.43,0-.64,0a29.51,29.51,0,0,0,4.63-.39c.74-.11,1.28-.28,1.71-.31s.64,0,.66.15a3.13,3.13,0,0,1-1.45,1.11,7.48,7.48,0,0,0-1.69.91c1.07-.42,2.58-.85,3.94-1.33a31.07,31.07,0,0,0,3.86-1.61,7.58,7.58,0,0,0,4.55-6.86,4,4,0,0,0,1.05-.89c.38-.36.76-.84,1.1-1.22.71-.72,1.27-1.26,1.43-.15a7.36,7.36,0,0,1,.23-1.53c.07-.26.15-.51.24-.77s.18-.56.29-.85c.21-.56.46-1.14.73-1.71l.82-2c.14-.34.29-.65.42-1s.27-.75.4-1.13c.26-.75.53-1.45.74-2.24a21.5,21.5,0,0,0,.73-4.58c.26,1.29,1.8-1.75,2-6.11-1.2,4.23-1.17.32-1.43-3.84a17.87,17.87,0,0,0,.95-3.9c.27-1.76.5-3.82.74-5.8s.45-3.92.72-5.42.6-2.56,1.05-2.82c-.21-4.13-.7-5.57-1.23-6.29s-1.14-.75-1.71-1.79c.62-2,1.05-6.77,1.53-10.37l.09-.68c0-.21.06-.51.09-.6.06-.26.12-.5.17-.74a6.28,6.28,0,0,1,.41-1.17c.29-.62.66-.85,1.13-.46-.08.57-.18,1.31-.27,2.09l0,.29,0,.4c0,.34,0,.68-.07,1,0,.67-.07,1.33-.08,1.95-.07,2.43.06,4.45.76,3.72.54-3.9.43-4.69.21-5.4a7.52,7.52,0,0,1-.36-1.24l0-.24,0-.17c0-.11,0-.24-.06-.38a9.26,9.26,0,0,1-.08-1.08c.35.28,1.31-2.38,1.85-1.67,0-.52-.05-1.1,0-1.72,0-.31,0-.63,0-1l0-.44v-.09a1.12,1.12,0,0,1,.09-.36c.05-.16.11-.09.2-.13a1.92,1.92,0,0,1-1.11-.28c-.32-.18-.62-.52-1-.42.22.22.45.34.68.56a7.23,7.23,0,0,0,.69.59c0,.08,0,.05,0,.42s0,.5-.05.7a4.84,4.84,0,0,1-.15.89c-.12.39-.28.42-.45.34-.33-.15-.72-.73-1,.29,0-.59,0-1.15,0-1.66l0-.75v-.23l0-.1a5,5,0,0,0-.31-.74,9.29,9.29,0,0,0-.86-1.06,7,7,0,0,1-1.69-3.79c.36-.38.93-.81,1-1,0,1.14,1.78,2.72,2.11,2.83-.69-1.39-.41-1.74.05-1.38a13,13,0,0,1,1.3,1.43,8.24,8.24,0,0,1-.94-1.64,19.6,19.6,0,0,1-.89-2.25c-.72-4.3.69.58,1.46,1.87,0-.6.18-.78.38-.64a2.94,2.94,0,0,1,.67,1c.44,1,.65,1.73,1-.24a37.08,37.08,0,0,0-.82-6.43c0,2,.1,4,.23,6a71.24,71.24,0,0,1-1-8.68,39.81,39.81,0,0,1,.47-8.51c.16,1,.78,1.4,1.14,2.11a3.72,3.72,0,0,1,.22,2.76,3.67,3.67,0,0,1,1.22-.69c.08-2.57-.84-3-.08-4.51.16,1.22.47,2.67.56,4a6.9,6.9,0,0,1-.35,3.32c.18.54.42.7.67.42a5.11,5.11,0,0,0,.68-2.42,5.66,5.66,0,0,1-.35,3.38c-.28.86-.79,2.46-1.09,3.37.28,1.27-.47,4.8-.7,5.94a.7.7,0,0,1,.29.18c-.27.93-.62,2.57-.86,3.66-.13.83,0,.1.17-.27s.24-.47-.18.95c.3-.9.6-1.75.91-2.57a12.23,12.23,0,0,1-.63,2.53c-.14.37-.2.53-.25.71a10.88,10.88,0,0,0,.85-.92c.41-.23.55-.12.52,0a1.34,1.34,0,0,1-.46.56c-.23.21-.51.33-.66.5a.56.56,0,0,0-.12.33,3.83,3.83,0,0,0,.07.52l.14.78c.1.55.22,1.13.36,1.76,1.46,5.65,2.48,9.34,3.91,8.34l.1.3c0,.1.07.31.11.46.07.32.14.63.2.92.12.59.22,1.12.29,1.6a18.65,18.65,0,0,1,.17,2.52c0,1.51-.19,2.69-.24,4.22.81,2.22,2,5.59,3,9.17a59.28,59.28,0,0,1,2.26,11.44c-1.36-4.13-2.46-7.74-3.5-12.3-.58,1.24.08,5.51,1.05,10.36s2.32,10,3,14c.22.51.52,1.07.86,1.77s.72,1.49,1.15,2.3.89,1.59,1.38,2.46,1,1.57,1.53,2.38a23.74,23.74,0,0,0,5.91,6.15c-.38-2.09-.24-3.74.29-4.59s1.4-.87,2.59.09c-.3.48.32,2.22,1.25,4.14s2.23,4,3.14,5.44c-.52.1.46,2,1.19,3.24.37.61.64,1.09.52,1.25s-.67,0-1.76-.75c-1.2-1.7-1.48-4.15-3-5.29a19,19,0,0,0,3.93,7.3,17.08,17.08,0,0,0,2.45,2.22c-.16.2-.71.25-1.45.16a5.09,5.09,0,0,1-2.34-.84C340.66,509.29,340.18,508.59,340.11,508Z"/>
        <path class="cls-3" d="M495,408.65l-.12.78.43-.93C495.2,408.81,495.11,408.8,495,408.65Z"/>
        <path class="cls-3" d="M378,417.14a14.41,14.41,0,0,0-.06-2A15.49,15.49,0,0,0,378,417.14Z"/>
        <path class="cls-3" d="M391.28,472.19a3.92,3.92,0,0,1,.26-.76C391.44,471.41,391.35,471.59,391.28,472.19Z"/>
        <path class="cls-3" d="M506.56,402.88l.17,1.82A9.11,9.11,0,0,0,506.56,402.88Z"/>
      </g>
      <g>
        <path class="cls-3" d="M507.61,379v2.43A7.2,7.2,0,0,0,507.61,379Z"/>
        <path class="cls-3" d="M509.06,376.88a1.49,1.49,0,0,1,0-.21C509,376.7,509,376.77,509.06,376.88Z"/>
        <path class="cls-3" d="M253.37,547.91a7.35,7.35,0,0,0-1-2C252.79,547.21,253.11,547.75,253.37,547.91Z"/>
        <path class="cls-3" d="M323.09,678.91a1,1,0,0,0-.41,0C322.85,679.11,323,679.13,323.09,678.91Z"/>
        <path class="cls-3" d="M507,407.58c.06-.37.11-.76.18-1.11C506.81,406.22,506.77,407.29,507,407.58Z"/>
        <path class="cls-3" d="M245.91,510.58a.9.9,0,0,0-.44-.21A1,1,0,0,0,245.91,510.58Z"/>
        <path class="cls-3" d="M490.77,494.8a9.19,9.19,0,0,1,0,1.05A2.65,2.65,0,0,0,490.77,494.8Z"/>
        <path class="cls-3" d="M306.66,716.66a2,2,0,0,0,.78.72C307.14,716.87,306.85,716.53,306.66,716.66Z"/>
        <path class="cls-3" d="M310.46,715.65c-3.82-6.57-1.5,2.33-3,1.73,1.05,1.75,2.45,5.81,2.52,3.6-.74,4.57,5.76,10.55,5.69,15.22.29.08,0-2.51,1.74,0,2,4,.81,4.12,1.09,6,1.14.94,4.31,6.9,3.75,6.44,1.74,2.45.85-3.82,3.48-.49,2.6,1.88,2.92,5.87,4.71,8.66.65,4.06-2.38-3.23-3.53-4.5q2.64,4.92,5.39,9.81c.68,3.33-2.06-.66-3.29-3.73,1,4.48,4.35,9.27,6.11,9.87,1,2.64,1.92,3.84,2.64,6.44-1.85-2-3.84-.83-6-4.37-2.87-6.19,2.66,1.43.42-3.91l-1.45.15c-.37-2.57-2.15-3.9-3.38-6.27-.32-1.49.59.09,1.19.9-2.15-4.3-3.06-8.06-6-10.71,1.47,6.42,7.21,14.51,7.07,17.74q3.69,5.4,7.54,10.73c.56-.3-.59-4.76,1.91-1.95-.74,2.08.38,5.82,2.56,10.38.62-2.47,5.32,6.25,5.31,3.35a3.56,3.56,0,0,1-1.26-3.7c2.47,4.16,1.73-.22,3.12,2,2,3.91,1.77,4,1.45,4.05s-.71.14,1.29,4a44.81,44.81,0,0,1-8.59-8.21c-.52.68,2.48,4.18,2.78,6.4-.68-3,2.45.9,1.59-1.34,4.24,5.75,10.13,11.8,15.75,18.59-1.47.25-4.08-2.48-6.33-4.8s-4.21-4.23-4.74-2.23a13.54,13.54,0,0,0,3.14,3,8.63,8.63,0,0,1,2.48,2.66c.45,3.35,6,8.55,10.52,13.2-.48-.88-.9-1.75-1.34-2.62a22.33,22.33,0,0,1,3.46,3.26c1.25,1.33,2.54,2.76,3.66,3.82l-.83-.26c.88.54,1.73,1.07,2.65,1.59.35.35.39.49.32.56a31.63,31.63,0,0,1,3.09,1.82c.66.4,1.33.83,2.11,1.28l1.45.82c.5.28,1,.52,1.53.77a24.92,24.92,0,0,0,13.61,2.68c0-.32-.56-.45-1.42-.48s-2-.08-3.34-.2a23.5,23.5,0,0,1-7.64-1.79c-.24-.19-.86-.56-1.57-1-.37-.23-.73-.47-1.14-.77s-.81-.61-1-.82c-1-1-1.48-1.68,0-1.23.44.27.91.52,1.53.86s1.11.55,1.67.8a24.89,24.89,0,0,0,3.25,1.17,23.81,23.81,0,0,0,6.5.83,28.5,28.5,0,0,0,13.47-4c-.53.24-1.07.44-1.61.63s-1.08.39-1.63.53c1.43-1.07,3.08-2,4.94-3.31a35.66,35.66,0,0,0,4.74-3.71c1.52-1.09,2-1.36,2.14-1.14s-.28.92-.79,1.67c-1,1.51-2.5,3.28-.4,2a8.35,8.35,0,0,1-1.79,2.1c-.39.34-.79.67-1.2,1l-1.43,1c-1,.69-1.95,1.22-2.67,1.77s-1.22,1-1.31,1.47a29.15,29.15,0,0,0,3.37-.76c.58-.16,1.13-.31,1.72-.52l.89-.34.76-.25A35.18,35.18,0,0,1,419,829a21.5,21.5,0,0,0,4-3.54c-.86.58-1.76,1.16-2.65,1.72-.55-1.38,2.07-2.72,3.11-3.67-.95.08-1.88.14-2.81.18a43.46,43.46,0,0,0-3.71,4.41,9.13,9.13,0,0,1-4.16,3.2,19.31,19.31,0,0,0,3.25-3.46,20.48,20.48,0,0,0,1.47-2.44A41.48,41.48,0,0,1,422,819c.86.18-.81,1.47-.94,2.54,2.36-2,2.94-5.37,6-8.79-1,2.43-3,6.44-.08,4.26l.19-2.92c1.37-1.64,1.38-.59,1.91-1.3,1.85-2.38-1.66-.26,1.15-4,.61-.44,1.71-1.6,1.65-.84,1.38-2.31,1.59-2.93,1.68-3.56a14.45,14.45,0,0,1,.95-3.6c-1,1.94-2.11,2.66-2.65,2.38s-.54-1.54.41-3.58c3.23-5.53,3.9-9.94,7.44-13.06l.27-3c.56,2.23,2.08-3.43,3.06-5.16.85,0-.08,2.17-1,4.45s-1.74,4.68-.59,5.21c2-3.69,1.91-1.72,2-.2,1.65-4.24-1-2.28-1.08-4.51.6.25,3.22-6.93,3.43-4,1.58-3.49.33-4.71,1.66-7.19.42.63,1,1.38,1.82,1.43-.35-.5,1.58-3.6,1.88-4.24-.52.51-.74-1.71-1.55,1.53-.82-1.22,2.79-7.26,1.75-7.46,1.45.19,2.77-6.52,4.47-9.57-3.22-.81-1,6.45-4,6.59.57-4.68,5.17-14.53,6.07-22,2.6-5.83,1.21.4,2.78-.45-1.35,5.75-2.75,6.83-3.87,11.83,2.41-5.07,5-13.89,5.24-18.09,1.7-5.8,5.21-5.41,6.57-12.69-1.31.63-1.49.4-2.55,2.48.21-2,1.25-4.07,1.85-6.09-.28-1.44-1.72,2.89-1.45-.09.52-1,1.36-3.33,1.92-2.67l-.05.5c1-7,3.93-4.14,3.62-10.49-.65.32-.35,1.76-1.1,3.08-1.1.86-1.19-3-.77-5.81.57.68.8-2.3,1.56-4.11,1.53-.93-1,4.79-.46,5.95l1.65-5.12-.49,1,.43-6c-.71,4-2,1.48-1.65-.28,1.31-3.84,2.59-7.7,3.79-6.88-1.19-.83.15-5.67.76-9.2-1.45,3.64-1.26.18-1.4-1L477.1,669c-1.15,6.07,1.51-.95,2,.68.93,2.07-.71,5.52-1.72,8.62,4.06-5.51.91-9,3.44-14.05.62.15,1.21.8.48,3.13.66-.84,0-5.18,1.64-8.64-.66.85-2.4,2.59-2-1.15l2.67-4.37c1.67-5.44-1.16-2.28-.78-7L481.09,649c-1.21-.78,1.47-6.14,0-6.64-.71,2.82.05,4.67-1.08,7.54-1.7.78.14-3.95-.23-5.84,2.07-6,1.82-4.73,4-9,2.28.34,1,8.21,4.14,7.92,1-6.1,2.28-15,4-18.74.52-5.54-1.36-5.43-2.82-4.92a12.61,12.61,0,0,1,1.32-4.69l.17,2.68c.72-6.81.76-10.76,2.26-17.74.42-4-1.25-2.71-2.49-2l.63-4.33-.42.59c-1.24-1.24,0-4.94.62-7.78.62.11.42,1.88.84,1.8a20.72,20.72,0,0,0,1.41-8.45c.63.12,1.68,2.13.65,5.06-.2.29-.41.09-.62.37l-.19,5.24c.4-6,2.66-9.21,4.12-8.77.38-6-2.46,4.48-1.68-2.62,4.71-8.67,2.49-17.64,7.59-22-.09-4.45-.63-9.81.42-16.53-1.25-.21.28-4.55-1.38-4.16-2.71,6.1.36,12.36-2.86,17.07.07,3,1.3,2.19,1.74,3.59-.36,2.56-.94,4.93-1.77,5.11.29-6-2.73-2.13-1.44-9.61-1.23.76-1.93,6.88-2.72,9.52-.43-.9-1.25-.22-2.05,1.44-.66-2.1-.74-6.52-1.22-8.89.44.88,1-.49,1.26.21l-.4-8.08c1.19-2.25,2.21-2.74,2.66-1.34,1.14-4.24.68-11.81,2.56-11.52.64-5.61-1.4,1.58-2,2l0-.49-.85,5.9c-2.28.28,1.67-6.59-.26-7.87-3.78-1.59,2.63-8.07,2.66-12.3l2.08,5.23,0-4.25c.73,2.56,2.61,2.86,3.17,6.71,1-5.72,3.19-13.74,3.21-17.51,1.19-1.29,2.21-1.78,3.07-1-.92-6,2.27-8.84,3-13.82-.31-5.43-2.21,5.09-3.07,1,1-1.49.79-4.46.7-5.94.31,1.67-1.45,7.15-2.51,10.92.48-2.87-1-2.76-1.44-3.64l-1,4.76c-1.69-.57.73-5.93.17-8.28,1.35,1.64,1.51.86,2.85,2.51,0-4.25.84-10.49,2.28-13.9.91-2,.54,1.86.82,3,1.2-.82-.07-4.26,1.36-4.88.88.77-.25,2.57-.16,4.06l2.09-12.15c.63.08.44,3.16-.06,5.05,1.21-3.61,1.21-6.39-.38-11,1.14-4.1,2.62-8.82,3.38-7.29-.16-2-.89-.75-1.53-.81,1-5.61-1.18-6.49-.85-9.87l-1.45,2.44c1.81-5.33-1.81-1.49-.36-6.21,1.13.92,2.57.75,4,.08-1.13-.93.26-3.89.46-6-1.34,1.18-.67-4.61-2.22-1.35-.5-4.93,1.36-7,.11-10.72-.58,2.21-.89-4.29-1.94-2.42.31-4.69,2-7.79,3.23-6.42-.22,1.62-1,4.17.06,4.07l.43-8.57c.79-2.07,1.26-4.79,2.7-5-1.42-2.85,1.64-8-.16-10.27,1.07,3-.74,5.18-1,6.28l-.19-1.34a4.48,4.48,0,0,1-.11.68L516.24,401c-1.19,3.49,1.57.72,1.21,5.75-2.55,4.19-2.86-10.05-4.55-5.61-.95,3.65,1.29,3.13,1.92,6.24l.1-.79.5,7c-.8.27-1.29-1.87-1.29-1.87-.61,8.38-1.93,9.58-3,18.54.35-.62,2.9-2.18,2.92,1.88.32,2.94-1.13,3.14-1.51,5.53-.14-1.47-1.34-2.88-.28-4.72h-1.67c-1.38-6.91-3.29-3.52-3.11-12.68-1.18-.52-1.28-7.15-.6-12.07l-1.26,2.32c-1.75-5.23,1.78-.85.43-7.49,2.37-2.58,5.21-7.44,6.82-3.66.78-4.64-.32-6.29-.15-10.48,1.9-2.5,1.91,1.36,3.73.95-.07-3.09-.74-7-1.83-4.74l.88-5.8c.4-.15.34,1.94.28,2.76a17.19,17.19,0,0,0-1-7.92,5.52,5.52,0,0,1,.06,2.57c-.44-2.43-1.31-6.77-1.8-7.08.92,3.53-1.13,3.84,0,7.54a2.58,2.58,0,0,1-1.19-2.89c-1.1,3-1,6.07-2.23,7.32a5.39,5.39,0,0,0-.5-4.75,27,27,0,0,0,.3,8.41c-2,.27,0,8.95-2,5.85.72.51.61,3.86,0,5.6-.87-.21-1.14-4.68-2.09-6.63-.65-8.92,1.51.22,2.22-1.83l.07-6.81c-.31.67-1.36-2.75-1.36,1.68a14.2,14.2,0,0,1-1-9.82c-.59-.81-.51,1.72-.57,2.51-.58-.8-2.68-5-3.08.44.12-1.58.92,2.68,1.66-.14.22,2.21-.81,8.18-1.88,5.78.27,2.68.93,7.75,1.07,10-1,.6-.31-1.91-.71-3l.19,7.78,1.13-2.17c-1,5.65,1.21,9.43,1.64,14.1-1.57-.74-1.47-4.57-2.12-7.62-2.13,2.76.91,1.95.31,6.7-.33.63-.74.76-1.2.42l1.15,3.89c-.27,1.1-.57.44-.63,0,1.26,6.65,2.32,0,2.36,8.82,1.25-5.21-.76-4.56-.29-9,1.35-2.48,1.73,5.23,2.29,6.58-.73,4.27-3.2,4.55-2.36,10.09-.45-3.89-1.49-.3-1.08-5.71-.58-3.09-.86,1.54-1.84,2.09.16,1.45,1.78-.81,1.19,3.15l-.22-.18,1.14,6.67c-1.45,6,.56,13.9-1.8,17.85l1.8-.77c-.27,3.84-.85,9.27-.85,12-.89-.74-.68-3.3-.7-6a57.14,57.14,0,0,0-.07,17.78,52.26,52.26,0,0,0,2.83-6.79c1.81,4.76-2.12,5.1-1.71,11-1.67-.06-1.17-1.94-3-.72.8,2.53,0,6.49.62,9.33-1.81,1.22-2.8-1.51-2.16-7.41,2-4.27.17-9.52,2-13l-1.3,2.11c.07-4.52.69-7.18.36-11.08l.23.18-1.43-2.1L498,458.8a24.09,24.09,0,0,1-1.68-7.25c-.47,6.37,2.08,7.14,3.19,10.33-.8,5.72-4,7.59-3.07,11.58-.82.21-2.06,3.28-2.45.65,0-3.22,1.27-5.32.19-5.77-.37,3.33-.89,2-1.34,7.07,1.33,1.14,2.24,5.12,2.9,8.92a38,38,0,0,1-1.37,11.8c.41-3.83-.46-7.83-1.66-7,1.2,2.43-2.27,7.27,0,6.45-.78,4.41-1.85,11.87-3.72,12.08,0-4.29,1.67-8.18,1.8-11.79-.18,1-.77,1.86-1.11,1.23l.94-5.2c-1.44,3.83-1.9,3-2.45,8.05.2-.3.58-.89.6-.4-.13,1.27-.46,2.84-.6,4.12l-1.67-.09c.2,3.9-3,10.85-2.9,18l-.24-.67c-1.23,5.46,1.92,6.45,1.31,12.52-.48-1.87-1.29-1.18-2.11-1,.31,3.12-1.3,4.48-2.26,7.4,1.57-3.31,1.33,2.65,2.29.22,1.68.11.61,6.28-.15,9.4-2.45,1.5.56-10-2.43-5.62-.75,3.11.31,4.11,1.09,2-.93,3.9-2.25,9.84-4.08,12.44.73,5-.5,6.71,1,10.09.39-2.54-1.08-3,.33-6l.89,3.75c-.76,4.58-2.81,8-3.61,11.05l0-3.43.22.2c-.43-1.38.76-5.55-.48-5.29.87,3.25-1,5.35-.73,9.46l-.21-.2c-.16,7.14-4.72,11.45-2.65,16.42.21-1.26,1.87-3.54,2.29-2.64-1,1.43-1.67,5.71-2.51,5.38v-1.48c-1,3.87-1.69,6.19-1.7,7.66.82,1.31,1.88.38,1.85,3.32-2.14,6.75-1.84-3.32-3.75,1.17l-.29,6.65-1.26,1.2c-3.05,9.29-1.57,17.32-4,27.43-1.65-.22-.59-7.68-.12-10.19-2.15,2.79-1.25,7.74-3.26,11.69-1.16,3.83-.46,7.1.59,6.71-.6,4.94-1.79,3.18-2.22,3.72,1.37,2-.76,7.88-1.38,11.82l-1-.07-.34,6.32c.51-1.51,1,.1,1.65.26l-.5,1.52c4.26-5.19,1.56-13.77,6.14-19.06-.09,2,1.06-.41,1,1.55-.48,1.53-.7,1.8-1.12,1.87.57,1.13.66,3.79,1.43.51,2.05.68-.11,7.09-.57,11.77-2.26,3.23-1-4.24-1.55-6.35-.3,1.74.25,3.38-.92,5.72l-1.4-1c-.76,6.4.93,2,2.08,3.84,1.54,2.21-1.56,5.55-1.88,7.29l.12-2c-1.95,4.62-.59,6.15-1.92,10.43L455.37,691c3.06-5-.34-7.22,1.29-10.09-3.59,7.47-2.74-2.56-3.42-5.37-.61,3.47-1.63,6.49-3,8.1.69,5.48-3.6,10.08-2.56,15.48-1,2.52-.42-2.59-1.26.14a88.86,88.86,0,0,0-3.7,16c-.89,2.73-1.45,2-2.34,2.6a77.08,77.08,0,0,0-4.21,16.1,67.27,67.27,0,0,1-4.88,16.84l-.07-2.36c-1.26,2.88-2.48,5.27-1.93,7.14-2,1.34-2.81,4.59-3.73,7.93s-2,6.8-4.33,8.46c-3.11,5.69-1.07,6.95-2.87,11.71-.57-.28-1-2.16-2.36,0a112.51,112.51,0,0,1-10.8,20.21,40.25,40.25,0,0,1-6.26,7.24l-1,.81a4.62,4.62,0,0,1-.68.43,3.22,3.22,0,0,1-1.64.36,1.49,1.49,0,0,1,.4-.52,8.29,8.29,0,0,1-1-.15l-.5-.11a1.72,1.72,0,0,0-.21,0,1.05,1.05,0,0,1-.4-.15,29.69,29.69,0,0,1-5.37-3.36,40,40,0,0,1-9.83-10.8c-1.38-1.18-4.89-5.39-4.89-3.39,1.17,2,.19,3-.62,3.42-3-3.29-3.15-4.53-3-5.46s.54-1.61-1.19-4c.85-2.7,3.17,2.4,4.79,1.35-1.9-2.1-3.76-4.27-5.6-6.48-1.86-4.47-5.28-8.11-6.38-12.33.68,1.77,1.7-.22,2.47,2.92-.31-.37-.28,0-.6-.39,3.32,6.36,2.78,2.94,6.37,8.16-3.29-4.48-7.43-10.94-9.34-15.61-.79,1.66-2.43-3.33-3.89-4.18v-.34c-.57.28-2.37-2.33-3-3.11l1.11-2c-1.19-1.88-.56,1-1.74-.9-1.8-2.62-6.74-12.78-5.26-14.32-1.71-3.42-3.14-4-4.51-7.72.57.09,1.13.89,1.42.92-3-7.83-7.62-17.13-9.55-25-2.88-5.86-5.18-11-7.85-14.36.76,1.58,2.2,6.51.05,3.92-1.37-1.36-2.07-4-3.35-6.42,1.12.25-1.57-6.77,1-1.93,1.5-2-4.49-10.82-2.46-11.48-1.06-1-3.33-8.35-5.37-10.69.66-.92,2,3.71,2.6,3.48l-1.46-3.2.6-.22c-1.75-6.51-4.6-6.84-6.29-10.5l.29.07-1.21-2.46,2.66,2.46c-1.65-4-3.8-5.62-5.67-10.06l.36-.63-1.48-2.56c.25.43.53.51.57.17-2.41-2.08-3.76-8.22-5.85-10.23-.37-1.9,1-4.07-1.05-6.08l2.05-.16c2.21,6-.62,2.72,2.18,8.89.89-5.52-3.65-18.68-6.55-27.51-3.49-6.79-4.94-19.23-8.67-21.47l1.39.42-2.51-12.44c-3.4-10.2-5.38-21.1-9-28.58l.43-2.43c-2.72-3.66-4.86-10.57-6.92-17.11s-4.07-12.75-6.7-15c-.2-4.89,1.85,1,2.67,1.35-.48-3.52-4.43-8.69-3.36-12.4.62-.14,1.67,4.72,1.56,2.45.58-2.76-2-3.33-1.3-6.45-.91,1.52-3.59-4-4.72-8.14a2.5,2.5,0,0,1,0,1.15c-.77.81-1.26-2.37-1.76-4.07a1.05,1.05,0,0,1,.46.55c-6.16-21.48-11.52-46.58-13.38-70l1.44,4.16c-1.13-3.24-1.41-9.2-1.38-11.12l.16.47c1.16-6.41-2.66-6.8-1-11.81l.29.93c-.78-7.48.88-12.06-.62-19.27.42-5.75,1.44-5.16,2.17-9.12-.15-3.29-1.34-4.81-1.59-5l-.07,1.58c-1.09,1.76-1-3.45-1.48-5.81-1.73,1.75-4.54.78-6.19,7.61.73,5-2.69,5-2.1,10.64,2.52,3.08-1.24,8.25,1.3,13.25-1.85-2.61-.31,6.23-2.48,1.87-1.1,2.25,2.45,10.87,1.44,15.08-.42-.62-.79-.41-1.1-1.35,1.6,5.55-.65,4-.12,8.23l1.63-.37c.74,1.54-.35,2.18.13,3.59,0-1.17.49-3.67,1.34-2.49a27.45,27.45,0,0,1,1.68,5.5c-.62.11-1.12-1.3-1.44-2.26,0,0,.48,4.54-.25,5-.75-1.54-1-3.63-2.17-4.94.34,6-.46.55-1.36,3.64,1.81-1.08,1.54,5.06,2.48,8.2-.73.45-.59-2.21-1.29-2.93-2.46,6.66,2,9.11,2.56,17.08-.26-.12-.62-1.05-.8-1.52,1.15,3.62-.18,6.5,1.35,8.71.29,3.6-2.06,1-1,6.49,1.67-2,.81,6.49,3,6.23l-.44,4.41c1.88,3.45,3.35-1.67,5,5.47.54,6.68-3.58.07-3.9,4.12l1.47,1.36-.15,3.37-.2-.47c.78,1.84,1.18,5.4.57,5.54-.55-.21-1-2.29-1.53-2.49,1.7,2.95-.16,13.22,3.74,15.85-.14,2,.75,5.87-.36,5.6,1.77,1.38,1.51,8.56,3,10.87-.55-.22-.75,2.35.08,4.16-.09-2.67.82-1.19,2,.35-.47,2.47,1.93,8.58.52,9.95,1.77,3.25,2.63,1.69,4,2.16-.44,2.47,1.56,9.52-.65,8.75-.26-2-1-6.32-2-5.2.21,3.81.92,1.45,1.87,4.39-.4-.14-.65,2.33-1.34,1.9A31.83,31.83,0,0,1,255,554.7c-.18-4.16,2,2.17,2.12-.39l-2.36-3.42c-1.28-4.56.79-1.23.82-3.08,2.47,7.94,4,5.85,6.89,13.14a47.31,47.31,0,0,0,.37,4.95c-.77-2.49-2.39-1.53-2.33,0,2.6,3.82,1.11,7.79,1.74,11.34-.4-3.11,1.16-1.85,1.89-.87,3,6.91.13,3,.21,6.37,3.34,11,3.16,18.76,7,27.29l.33-4.69-1.92-1c.2-3.63,3.56-.4,5.09,1.17-.37.63,1.56,6,.06,4.07l2.26,5.09c.42-1-.91-4.32.55-2.06.06,1.87,1.4,7.39-.54,4.26.82,2.81,2.44,6.21,3.14,5.32,1.49,4.46-2.06.14-3.29-1.69,1,3.6-.43,3.54-1.19,2.6l1.74,4.9c-.75-.95-1.36-.76-2.12-1.7.47,3.44,2.88,5.24,2.52,8.42l1.66.84c1.88,9.33,1.41,8.47,4,16.88l.47-1.71c3.79,5.77.05,5.14,3.66,13.4,2.2,4.59,3.71,7.52,5,6.38,1.51,2.56.86,3.5.75,4.93,1.58,1.85,4.75,5.9,5.06,9.6-1.29-2.13-2.32-3.83-3.33-5.9-1.24,1.16,2.34,7.48,3,11.25,1.59,2.21,6.35,9.49,9.33,13.39.42-2.44,2.45-2.34,5.16,1.13-1.16-.25,1.15,5.66,1.59,8.62-1.4-1,.31,6.92-2.36,1.32-.21-1.85.72-3.1-.63-5.2-.38,1.73,0,5.8.73,9.92-.57-.11-2-1.86-2.74-3.83C310.13,716.68,310.16,716,310.46,715.65Z"/>
        <path class="cls-3" d="M507,407.58c0,.22-.07.43-.1.65l.41-.78C507.13,407.71,507,407.7,507,407.58Z"/>
        <path class="cls-3" d="M374.78,830.37c.37.21,1.12.51,1.25.36A2.94,2.94,0,0,0,374.78,830.37Z"/>
        <path class="cls-3" d="M449.73,773.56a1.28,1.28,0,0,1-.44,0C449.35,773.65,449.47,773.68,449.73,773.56Z"/>
        <path class="cls-3" d="M518.35,402.6l.22,1.6A7.41,7.41,0,0,0,518.35,402.6Z"/>
      </g>
    </g>
  </g>
</svg>
