<svg xmlns="http://www.w3.org/2000/svg" viewBox="0 0 1142.81 1051.34">
  <defs>
    <style>
      .bigArrow-1 {
        fill: #333a4d;
      }
    </style>
  </defs>
  <title>frontpagearrow</title>
  <g id="Layer_2" data-name="Layer 2">
    <g id="Layer_4" data-name="Layer 4">
      <g>
        <path class="bigArrow-1" d="M1053.84,390.46c.4-.45.3-.84,0,0Z"/>
        <path class="bigArrow-1" d="M751.42,725.4c-.16.08-.22.16-.37.25a19.46,19.46,0,0,1,.31,2.2Z"/>
        <path class="bigArrow-1" d="M685.55,758l-.49,0C685.31,758.43,685.46,758.89,685.55,758Z"/>
        <path class="bigArrow-1" d="M879.88,616a1.38,1.38,0,0,0,.63-1.13A3.8,3.8,0,0,1,879.88,616Z"/>
        <path class="bigArrow-1" d="M1102.7,265.85l0,.32a8.67,8.67,0,0,1,.7-.59Z"/>
        <path class="bigArrow-1" d="M1103.53,267.68c-1.08,1.33-.93-.79-.86-1.51a6.44,6.44,0,0,0-2.35,4.86C1101.49,271.42,1102.4,268.14,1103.53,267.68Z"/>
        <path class="bigArrow-1" d="M1142.34,28.08l.47.75A2.53,2.53,0,0,0,1142.34,28.08Z"/>
        <path class="bigArrow-1" d="M833.42,576.4c.17-.31.41-.61.55-.91A1.25,1.25,0,0,0,833.42,576.4Z"/>
        <path class="bigArrow-1" d="M1139,66l1.91.57A4,4,0,0,0,1139,66Z"/>
        <path class="bigArrow-1" d="M751.36,727.85l-.05.93A3.8,3.8,0,0,0,751.36,727.85Z"/>
        <path class="bigArrow-1" d="M624.23,786.25a4.07,4.07,0,0,0-.93-1.22l-.18.07Z"/>
        <path class="bigArrow-1" d="M293.55,831.77a2.8,2.8,0,0,0,.21.76l1.24-1.44A2.84,2.84,0,0,0,293.55,831.77Z"/>
        <path class="bigArrow-1" d="M535.13,811c0,.24-.15.5-.09.74,1.71.19,5.67-1,10.67-2.79l-.46-2.39C541.88,808.05,538.52,809.58,535.13,811Z"/>
        <path class="bigArrow-1" d="M426.94,781.51l10,2.86c-3.56,1-6.91,1.9-10.09,2.65s-6.17,1.43-9.07,1.88c-5.78,1-11,1.67-16.15,2.38s-10.13,1.23-15.36,2.21c-2.62.48-5.29,1.07-8.09,1.73s-5.72,1.36-8.8,2.27l1.25-1.23c-1.9-.31-3,2.3-8.94,4-2.95.9-7.15,1.4-13.21,1.2-3-.1-6.54-.39-10.58-.93s-8.64-1.52-13.84-2.73l0-.48c-1.4.2-1.31,1.16-4.22.12l7.25,2.36c-4.1,1.54-7.6,4.23-13.21,4.95a2.92,2.92,0,0,1-1.88-2.2l-13.76,1.65-4.38-2.87c-4.12,1.84-1.93,8.36-13.4,5.11,4.43,4.41-5.55,2.94-4.08,5.22-.59-.54-1.92-1.34-3-2.08-6.74.64-19.47,2-22.64,4.45,0,0,6.63,2.33,14.27,5.26s16.26,6.24,20,8.57c-9.75-.89-2.55.65-.57,2.12l.6-1.16c5.87.9,6,3.79,9,4.49a3.46,3.46,0,0,0-.2-.8l-.36.4a.85.85,0,0,1,.15-1.16c-.1-.61.14-1.11,1.74-1l-.29.31a38.72,38.72,0,0,1,8.49-.27l.18,2.41c1-1.21,3.36-1.49,6.42-1.23a48.47,48.47,0,0,1,5,.74c1.81.37,3.7.78,5.61,1.19,7.65,1.71,15.62,4,18.56,3.81,6.19,2.44,13.08-2.18,20.58-1.45a29.34,29.34,0,0,1,6,.17,3.86,3.86,0,0,1,2.28,1.11c.86.94,1,2.14,4.1,2.77,7.55.52-1.86-2.59,1.07-3.14l9.25,2.14c-5.08,1-2.1,2-1,2.84,3.86-.26,8.94.11,13.28,0s7.93-.79,8.71-3.35a59.16,59.16,0,0,1,10.05,1.32,13.13,13.13,0,0,0,5.42.49c-1.64-.59-4.71-.84-4.9-1.79,4.48,1.33,1.87-.88.1-1,1.48-.8,4.34-1,7.81-1s7.59.33,11.5.39c7.84.2,15,.12,15.14-2.6l.2.94c.61-4.15-2.51-7.4,1.34-10.44l3.26,1,3.95-2.66c3.18.57,2,1.92,2.11,2.39,3.32-1.71,7.56-2.61,12.06-3.27s9.22-1.3,13.55-2.14q-5.86-4-11.63-8.08c7.67.57,21.9,2.11,22.37-1.72l5.23,2.26c16.19,2.53,9.13-5.66,15.35-5.42l8.28,1.54-7.12,2.15a98.06,98.06,0,0,1,17.38.7s0-.08,0-.12c-.44,0-.75-.13-.87-.34l1-.4c.28-2.1,3.53-4.66,8.55-6.2,3.62-.93,6.57-2.55,10.2-3.91a38.7,38.7,0,0,1,14.18-2.72l1.4-4.78c3.06-.29,6.16-.5,9.21-.87l1.14,3c-8.29,2.92-23.39,9.79-34.1,13.45l.27,1.45c3.18-1.08,6.47-2.57,9.49-3.92a70.37,70.37,0,0,1,7.9-3.27c2.24-.14,8.59,1.09,5.54,4.49l2.84-4.36,7-2.67,5.48-2.2c3.29-1.3,6-2.28,8.73-3.16,5.54-1.71,11.28-3.22,22.83-6.1l-2.51-.69a39,39,0,0,1,5.67-3.42c1.74-.77,3.25-1,4.37-.08,3.27-1.32,6.61-2.57,9.94-3.7s6.67-2.1,9.86-3.06a74.61,74.61,0,0,1,17.49-3.22l.16-4.26c2.75-1.15,9.31,1.91,8.25-3.46l4.94-4.37a24.1,24.1,0,0,0,4.57-2.93,9.8,9.8,0,0,1,5.54-2h0c.31,0,.64,0,1,0a1.29,1.29,0,0,0-.2-.25c8.94-2.9-1.67-2.94,8.68-6,4.27.73,1-5.93,5.89-7.72l7.13,2.17a15.37,15.37,0,0,0,9.29-5.26c2.35-2.45,4.88-5.61,10.67-9.07,6.55-1.67,11.7.63,10.1,6.35,2.53-7.29.66-4.13,6.09-10.35,2.1,1.08,1.62,1.89,1.11,4.38,7.22-1.73,2.69-3.88,7.23-6.6-.76-4.06-2.58-10.14-1.28-11.25l-2.36.07a40,40,0,0,1,2.88-3.37,29.77,29.77,0,0,1,3.28-3.06,24.94,24.94,0,0,1,8.29-4.37l.88,1.74,5.15-4.6,1.75,1.8,7.6-6.25-1.48.22c1.69-1.6,7.4-6.57,11.65-8.05l.67,1.21c6.17-1.88,10.48-5.46,14.62-9.65s8-9.19,13.48-13.71l.24,3.35c5.57-.79-1.59-4.19,3.83-6.66l2.36,2.51c1.15-6.75,5.73-3.4,9.55-4.31l-4.11-2.46,5.74-3.44c6.62-3.45,7.13,1.55,7.79,4.06.55-2,1-4,1.57-5.95l3.3,2.42c-.2-5.92,3.27-1.81,6.55-7.86,1.39.79.71,2.5,2.79,1.57l2.2-5.55,2.1-5.62c-1,2-2.05,4.1-3.14,6.08l-3.22-4.89c2-7.68,7.09-5.46,9.54-9.81L862,633.27c4.79-6.19,6.77-4.6,10.86-6.58-1.71.13-4.34.3-2.54-2.35,1.45-1.79,2.29.66,4.31-.35-2.25-3.2.36-8.46,5.26-10.54a2.46,2.46,0,0,1,.62,1.38c.51-1.33.3-2.5,2.56-3.35l2,4,.29-5.91c2.85-1.15,3.64-6.3,5.4-4l-.55,1.76,8.08-7.21c1.34-1.21,2.71-2.4,4-3.63l4-3.7L909,595c-1.9-4.84,9.54-7.24,4.78-10.83a7,7,0,0,0,3.72-2.26c1.16-1.19,2.26-2.64,3.3-3.86,2.08-2.46,3.92-4,5.55-.87a49.54,49.54,0,0,0,6.13-7.59c1.68-2.53,3-5.13,4.57-7.71a61.33,61.33,0,0,1,5.29-7.79c1.06-1.32,2.27-2.62,3.59-4a53.5,53.5,0,0,1,4.52-4.14c4.13-.54,8.63-4.34,13-9.09s8.42-10.51,12.14-14.69c2.88-4.68,5.41-9,7.84-13.12,1.2-2.06,2.38-4.06,3.54-6l3.33-6c2.22-4,4.45-7.93,6.85-12.09s4.77-8.65,7.54-13.47c7.12-3.24,11-10.73,14.73-18.4,1.88-3.83,3.5-7.84,5.45-11.45a32.92,32.92,0,0,1,7-9.37c-.2-1.66-.46-3.34-.69-5,4.54-2.85,7.35-8.22,10.37-14s6-12.12,11.37-16.85a31,31,0,0,1,1-6c-.41.47-1.37,1-3.26.34,3-2.74,5-10.41,8.28-8.1l-.09,1.05c1.64,1.17,2.57-1.64,3.71-5,.29-.84.59-1.72.91-2.58a24.63,24.63,0,0,1,1-2.5,6.94,6.94,0,0,1,2.94-3.43l-4.85.22,3.81-6.19-.11,2.1a85.36,85.36,0,0,1,2.52-11.05A78.27,78.27,0,0,1,1072,346a173.27,173.27,0,0,1,7.9-15.55,129.62,129.62,0,0,0,7.61-15.34,71.43,71.43,0,0,0,4.44-19.48c3,5.31-.28-6.31,4.61-4.89,4.28-2.38,5.15-5.77,5-9.31a44.53,44.53,0,0,0-.7-5.35,22.32,22.32,0,0,1-.5-5.07,1.39,1.39,0,0,1-.75-.71l4-9.87c4.07,8-2.62-8.92.71-1.69a94.72,94.72,0,0,0,4.58-9.84c1.41-3.45,2.75-7,4-10.73s2.33-7.55,3.44-11.44,2.15-7.87,3.15-11.89,1.87-8.1,2.8-12.18,1.93-8.15,2.78-12.24c1.74-8.18,3.82-16.21,5.84-24l-1.89,1.05c1-4,1.43-8.53,2.14-12.79s1.49-8.26,3.34-11.07c3.65-5.68-1.8-14-1.79-16.4-1.84-7.08,4.64-12.34,3.94-9.52a24.47,24.47,0,0,0-.55-5.53c-.19-.94-.38-1.88-.58-2.84s-.45-1.94-.64-2.94a22.41,22.41,0,0,1,.71-13c1.46-.7,2-2.78,2.23-5.5a73.49,73.49,0,0,0-.56-9.35C1136.56,72,1136,65.93,1139,66l-.51-.15c2.58-6.22,2.24-12.5,1.85-18.87-.16-3.19-.51-6.41-.44-9.68a33.81,33.81,0,0,1,1.58-10,3.69,3.69,0,0,1,.83.75c-1.47-2.39-2.89-4.77-4.41-7.13l-4.56-7.06q-4.57-7-9.14-13.89-10.31,3.92-20.62,7.63L1095.13,19c-2.82,3.76-5.82,7.48-8.73,11.16l.15,7.71c0,1.29.07,2.58.06,3.86l0,3.86-.11,15.45c-.36,10.28-.55,20.61-1.29,30.9-1,4-2,8-3.11,12l-3.39,12-1.69,6-1.85,5.91-3.68,11.79c-3.33,19.57-7.24,39.05-12,58.36s-10.28,38.43-16.5,57.36c.54,3.19,1,6.38,1.44,9.59-4,4.85-6.9,10.46-9.71,16.37s-4.94,12.34-7.41,18.71q-1.82,4.8-3.62,9.61l-.93,2.39-1,2.35c-.68,1.57-1.37,3.12-2.09,4.65-1.43,3.06-2.95,6.06-4.6,8.92a64.79,64.79,0,0,1-5.58,8.09l3.36,2.21c-2.93,6.55-4.93,5-6.32,6.3-.86,1.89-1.78,3.75-2.72,5.61l-2.77,5.6-2.75,5.62c-.91,1.88-1.82,3.76-2.8,5.61-3.85,7.41-7.54,14.93-11.6,22.25-2,3.67-4,7.38-6,11l-6.21,10.87-3.11,5.41c-1.08,1.78-2.17,3.55-3.24,5.33q-3.26,5.31-6.49,10.59c-17.68,27.89-37.33,53.67-58.68,74.88-2.81,1.4-6.91,5.56-10.87,9.63-2,2-3.95,4-5.73,5.62a14.08,14.08,0,0,1-4.72,3.06,138.17,138.17,0,0,1-8,12.74c-3,4-6.16,7.93-9.46,11.72s-6.84,7.37-10.38,10.88-7.13,6.92-10.82,10.13l.24-.82-6.19,6.84a.74.74,0,0,1-.86-.71c-2.53,4.89-7.57,9.31-13.17,13.5s-12,7.93-17.23,11.51l.28-.81L798,605l-5.34,4.33-10.58,8.69c-7.14,5.63-14.08,11.43-21.23,16.88-14.11,11.17-28.52,21.71-43.17,31.89-7.4,5-14.77,10-22.41,14.65l-5.7,3.52c-1.9,1.18-3.82,2.35-5.77,3.45q-5.82,3.34-11.7,6.64l-2.94,1.64-3,1.57-6,3.1-6,3.06-3,1.51L648,707.4q-6.19,2.85-12.46,5.6c-2.08.94-4.2,1.81-6.33,2.65l-6.42,2.51c-2.1.55-4.19,1.17-6.28,1.84l-6.28,2.09c-4.19,1.45-8.38,3.1-12.57,4.89l-3.14,1.37-3.19,1.33c-2.12.91-4.24,1.84-6.38,2.8-4.27,1.9-8.53,4-12.91,5.82l-13.22,5.75c-4.48,1.84-9,3.56-13.61,5.23-2.29.83-4.6,1.65-6.92,2.4s-4.69,1.41-7.06,2.05c-4.74,1.28-9.5,2.48-14.36,3.31-2-.41-8.17.92-16.37,3.21-4.1,1.13-8.76,2.34-13.65,3.77l-7.49,2.2-7.73,2.16-28.85,8.23c-4.08,1.25-7.65,2.16-10.38,3A46.61,46.61,0,0,0,426.94,781.51Z"/>
        <path class="bigArrow-1" d="M312,802.57l.3,0C312.13,800.86,311.72,801.52,312,802.57Z"/>
        <path class="bigArrow-1" d="M485.69,820.34l-.54.1,2.6,1.77Z"/>
        <path class="bigArrow-1" d="M377.17,843.33c5-.14,5.2-.57,4.4-1.15A9.89,9.89,0,0,0,377.17,843.33Z"/>
        <path class="bigArrow-1" d="M273.38,807.61c-2.5-.07-1.52.91,0,2,2.55-.3,4.32-.47,4.32-.47C276.26,808.79,274.83,808,273.38,807.61Z"/>
        <path class="bigArrow-1" d="M284.4,830l-.75,1.39C285.15,831,285.07,830.51,284.4,830Z"/>
      </g>
      <g>
        <path class="bigArrow-1" d="M104,893c.1.33.4.26,0,0Z"/>
        <path class="bigArrow-1" d="M120.2,687.67c.08,0,.1-.09.17-.14-.32-.75-.58-1.41-.76-1.92Z"/>
        <path class="bigArrow-1" d="M153.9,668.2h.33C153.91,667.85,153.64,667.44,153.9,668.2Z"/>
        <path class="bigArrow-1" d="M30.05,740.24c-.52.31-.6.64-.56,1A2.11,2.11,0,0,1,30.05,740.24Z"/>
        <path class="bigArrow-1" d="M166.52,944.31l-.19-.06a6,6,0,0,1,.07.67Z"/>
        <path class="bigArrow-1" d="M165,944.84c-.38-1.06.91-.72,1.34-.59a2.55,2.55,0,0,0-2.07-2.51C163.49,942.71,165.19,943.82,165,944.84Z"/>
        <path class="bigArrow-1" d="M244.46,1049.54l-.78-.16A2,2,0,0,0,244.46,1049.54Z"/>
        <path class="bigArrow-1" d="M83,779.93c.07.1.08.16.16.26S83.14,780.08,83,779.93Z"/>
        <path class="bigArrow-1" d="M231.82,1026.21l-1.87.65A6.1,6.1,0,0,0,231.82,1026.21Z"/>
        <path class="bigArrow-1" d="M119.61,685.61l-.21-.78A5.89,5.89,0,0,0,119.61,685.61Z"/>
        <path class="bigArrow-1" d="M183.92,644.81a6.56,6.56,0,0,0,1.12,1,.35.35,0,0,1,.09-.06Z"/>
        <path class="bigArrow-1" d="M365.49,569.51a6.34,6.34,0,0,0-.26-.72l-.47,1.52A1.48,1.48,0,0,0,365.49,569.51Z"/>
        <path class="bigArrow-1" d="M229.61,617a3.42,3.42,0,0,0-.31-.64c-1.12.09-3,1.54-5.31,3.58l1.42,2Z"/>
        <path class="bigArrow-1" d="M309,623.76c-1.1-.18-2.23-.3-3.36-.45s-2.27-.27-3.44-.36a43.52,43.52,0,0,1,7.68-6.58c1.18-.81,2.29-1.39,3.38-2s2.13-1.1,3.14-1.52l3-1.34c.48-.22,1-.46,1.44-.7s.95-.45,1.43-.71c.93-.55,1.91-1,2.89-1.73a38.57,38.57,0,0,0,3.12-2.28l-.23,1.17c.45.15.63-.39,1-1.18a8.74,8.74,0,0,1,.71-1.32,5.53,5.53,0,0,1,.55-.69,6.78,6.78,0,0,1,1-.69c2.89-1.77,8.68-2.7,21.67,1.34l.1.47c.79-.25.57-1.2,2.48-.28l-4.66-2c2.15-1.7,3.82-4.41,7.09-5.42a3.18,3.18,0,0,1,1.49,2.05l8.21-2.53,3.27,2.51c1.14-1.11,1.08-3.22,1.69-4.79s1.9-2.59,5.91-1.62c-1.87-1.92-1.13-2.79-.11-3.44s2.35-1.11,1.63-2.13c.5.46,1.52,1.09,2.37,1.69a66.25,66.25,0,0,0,7.78-3.46c2.66-1.42,5-3.1,5.65-4.5l-3.17-.72c-1.93-.44-4.52-1.16-7.24-2-5.45-1.69-11.35-4.06-14-6,6-.09,1.38-.89-.08-2.14l-.13,1.2c-3.66-.32-4.27-3.16-6.13-3.58a5.11,5.11,0,0,0,.27.77l.13-.43a1.26,1.26,0,0,1,.13,1.15c.17.6.11,1.11-.85,1.14l.12-.34c-1.34.71-3.88.79-5,.81l-.51-2.36c-1.58,5-18.29-3.41-21.8-2.74-4.12-2.19-7.52,2.5-12.18,2.15-3.53.54-4.63,0-5.35-.94s-1.06-2-3.24-2.45c-5.16,0,1.79,2.39,0,3.13-2.17-.54-4.36-.87-6.62-1.26,3.14-1.45.9-2.18,0-2.83a43.12,43.12,0,0,1-4.4.81c-.8.12-1.61.22-2.41.36s-1.57.32-2.3.51c-3,.72-5.15,2.07-4.73,4.54a33.53,33.53,0,0,1-7.21.68,6.83,6.83,0,0,0-3.8.66c1.34.18,3.48-.21,4,.61-3.52-.3-.85,1.15.36,1-1.28,2-7,3.14-12.07,4.67s-9.33,3.22-8,5.52l-.6-.75c1.77,3.63,5.29,5.7,4.58,9.07l-2.48-.23-1,3c-2.17.15-2.18-1.21-2.48-1.58a14,14,0,0,1-5.32,5c-2.24,1.38-4.74,2.59-6.89,4.05l11,4.77c-4.86.84-14.1,2-12.53,5.21l-4.31-1.09c-11.07.33-2.68,6.19-6.66,6.84l-5.86-.18,3.34-2.75a44.64,44.64,0,0,1-11,1.72s0,.07,0,.1a.88.88,0,0,1,.71.17l-.4.47c.87,1.83,0,4.31-2.38,6.19-3.65,2.39-4.33,6.79-12.27,8.11l1.3,4.17L210.78,637l-2.08-2.43c4-3.14,10.42-10.27,15.29-14.64l-.86-1.19c-2.95,2.53-5.37,6.46-7.52,7.88-1.36.33-5.94-.13-5.59-3.28l.23,3.93c-9.56,8.65-9.53,8.83-22.06,14.74l1.92.47c-1.41,2.44-2.83,4.85-5.07,3.35-6.46,4.77-14.09,8.56-20.65,8.74l1.54,3.62c-1.43.93-7-1.86-4.26,2.72l-1.7,3.57c-1.95,1.24-1.67,3.79-5.06,3.77h0l-.66,0,.22.22c-5.06,2,2.18,2.6-3.79,4.65-3.17-.89,1.37,5-1.42,6.19q-2.84-1.17-5.6-2.43c-2.93.35-3.7,1.69-4.47,3.52a12.87,12.87,0,0,1-4.38,6.27,7.84,7.84,0,0,1-8.52-6.93c.49,5.73.81,3.43-1.06,7.64-1.67-1.32-1.56-1.92-1.91-3.91-4.2,0-.7,2.75-2.93,4.1,1.52,3.6,4.16,9.21,3.55,9.89l1.54.42a10.73,10.73,0,0,1-2.68,4.18,7.08,7.08,0,0,1-4.64,1.75l-.89-1.72-2.52,2.64-1.44-2c-1.31,1-2.61,2.1-4,3.1l.92.26a16.3,16.3,0,0,1-2.57,2,7.16,7.16,0,0,1-3.85,1.24l-.55-1.26c-7.36-1.12-9.52,6.07-16.06,9.08l-.12-3c-3.28-1.71.94,4.27-2.44,4.05L83.33,715c-.47,2.59-1.43,2.68-2.53,2s-2.36-2.14-3.56-2.61l2.39,3.93-3.86.38c-4.49,0-4.41-4.46-4.59-6.91l-1.58,4.35-1.91-3.54c-.51,5.13-2.33,0-5.24,3.82-.86-1.28-.19-2.47-1.74-2.56a4.08,4.08,0,0,1-.28.49l-.55.58-1.07,1.17c-.71.79-1.4,1.58-2.06,2.37q-2,2.38-3.81,4.66,2.4-2.35,5-4.82.81,2.8,1.68,5.6c-2,3.27-4,3.87-6,4.25s-4,.41-5.59,2.06c.59-.92,1.21-1.85,1.85-2.8-3,2.19-4.85,2.93-6.64,3.21-.88.14-1.74.17-2.68.24-.46,0-1,.07-1.47.14a12.49,12.49,0,0,0-1.59.38,7.93,7.93,0,0,1,2.81.45c.7.36.82.89-.14,2-1.59,1.39-2.45-.89-4.7-.22a3.89,3.89,0,0,1,.88,2.45,5.34,5.34,0,0,1-.72,2.49,6.94,6.94,0,0,1-2,2.21,13.07,13.07,0,0,1-3.24,1.61,2.39,2.39,0,0,1-.87-1.17c-.37,1.13.05,2.09-2.29,2.82-.95-1.08-1.89-2.19-2.82-3.31.16,1.7.33,3.31.6,4.91a6.35,6.35,0,0,0-2.91,2.78,2.64,2.64,0,0,1-1,1c-.36.18-.81.13-1.44-.29a13.37,13.37,0,0,1,.27-1.43,20.16,20.16,0,0,0-1.9,1.66l-1.84,1.71c-.61.58-1.24,1.15-1.83,1.73l-1.62,1.82c-1.13,1.22-2,2.46-3,3.69S8,760.77,7.26,762l-3.62-.74c2,1.45.58,3.42-.42,5.36s-1.51,3.91,1.47,4.06a4.81,4.81,0,0,0-1.61,3.48c0,.36-.07.73-.08,1.1l0,1.12c0,.74.13,1.46.2,2.14.3,2.7.36,4.69-3.24,3.62a20.94,20.94,0,0,0,.9,4.4c.22.7.46,1.39.71,2.05s.6,1.3.92,1.93a48,48,0,0,0,4.56,6.88c.84,1.09,1.69,2.18,2.49,3.31s1.74,2.29,2.58,3.53c1.71,2.49,3.34,5.29,5.28,8.77-1,3.43,2.28,8.31,7.16,13.13,2.41,2.43,5.22,4.82,7.89,7.15l1,.87.9.82,1.73,1.58.41.39a3.27,3.27,0,0,1,.32.31l.19.23a5.07,5.07,0,0,1,.35.46.72.72,0,0,0,.38.08h.32s0,0,.09,0l.25.2.5.4,1,.77c1.3,1,2.56,2,3.8,2.93,2.48,1.86,4.87,3.57,7.25,5.25l15.2,10.56c.37,5.69,4.67,8.61,9.21,11.06s9.37,4.52,11.11,8.89l3.76-.94a7.44,7.44,0,0,0,.77,2.47,7.07,7.07,0,0,0,.65,1.05c.2.28.42.56.63.84a8,8,0,0,0,1.33,1.27c.5.43,1,.83,1.61,1.24,2.25,1.71,4.79,3.87,5.31,8a9.25,9.25,0,0,1,3.44.9c-.11-.34,0-1.1,1.37-2.56.31,2.4,4.51,4.46,1.36,6.91l-.68-.14c-1.58,1.22-.14,2.12,1.64,3.31s4,2.66,3.59,4.81l2.15-4c.81,1.25,1.72,2.55,2.6,3.84l-1.45-.34A45.29,45.29,0,0,1,127,912.29c.43.35.84.7,1.24,1.05l1.13,1c.63.59,1.22,1.19,1.79,1.8,1.14,1.23,2.2,2.5,3.24,3.77,4.16,5.07,8.24,10.18,17.66,12.41-4.74,2.11,4.18.31,1.12,4.36-.68,7.75,7.2,4.11,11,5a2,2,0,0,1,.78-.57l4.57,4.4c-7,2.72,6.88-1.38.77.78a53.4,53.4,0,0,0,9.31,9.71q1.35,1.13,2.79,2.22l2.78,2.09c.62.47,1.26.94,1.91,1.39l1.76,1.35a27.39,27.39,0,0,1,5.52,5.43,30.67,30.67,0,0,1,4.06,9l1.21-1.35c1.39,3.81,5.71,8.71,5.05,13.43-.32,2.38,1.6,3.93,3.75,5,1.08.55,2.15.91,3.1,1.33a6.19,6.19,0,0,1,2,1.12,5.34,5.34,0,0,1,2.78,5.29c-.16,1.66-1,2.83-1.4,1.95,1.61,1.81,4.21,2.72,6.48,3.88s4.26,2.65,4.53,5.44a2.25,2.25,0,0,0,.09,3.14,23.87,23.87,0,0,0,3.25,3,15.27,15.27,0,0,1,3.23,3.57c.64,1.14.64,2.21-.72,2.92l.49-.17c-.24,4.38,2.25,7.65,5.12,11,1.47,1.71,3,3.41,4.37,5.38a36.45,36.45,0,0,1,2,3.19c.32.58.58,1.18.87,1.81s.6,1.32.86,2a3.54,3.54,0,0,1-1,.07,64.44,64.44,0,0,0,14.85,1.79,37.7,37.7,0,0,0,13.39-3.16,86.67,86.67,0,0,1,2.75-9.77,82.77,82.77,0,0,1,3.93-9.41,17.37,17.37,0,0,1,.42-2.2c.17-.74.37-1.45.59-2.13a20.5,20.5,0,0,1,2.1-3.7c1.5-2.48,3.18-4.72,4.85-7.18l-.38-.33a2.88,2.88,0,0,1-.41-.39l-.88-.94c-.31-.34-.63-.77-1-1.15l-.49-.59-.51-.69c-1.36-1.78-2.82-4-4.4-6.51l-5.54-9c-2.34-3.73-4.76-7-6.94-9.85-2.2-5.37-3.93-9.81-4.65-13.22l-.23-1.23c-.05-.39-.08-.71-.16-1.16l-.63-3L260,959.4,255.87,951l-.58-1.19-.66-1.31c-.45-.89-.85-1.71-1.35-2.65L251.74,943c-.49-.92-1.15-2-1.72-3l-.89-1.5c-.31-.51-.67-1-1-1.55-.68-1-1.34-2.07-2.06-3.1-1.51-2.07-3-4.14-4.68-6.1s-3.38-3.84-5.14-5.66c-.87-1-1.77-1.72-2.66-2.58s-1.8-1.68-2.69-2.45l-2.7-2.23c-.9-.74-1.81-1.48-2.68-2.11l-2.67-2-1.3-.94-.88-.6q-3.53-2.4-7-4.9-7-5-14-10.29l-6.83.42c-2.82-7.54-9.09-12.42-15.71-17.33-1.65-1.22-3.33-2.44-5-3.71-.82-.63-1.64-1.27-2.44-1.92l-1.18-1c-.38-.32-.83-.71-1.05-.92a19.21,19.21,0,0,1-5.16-7.81l-3.07,2.54c-1.39-1.31-1.6-2.34-1.48-3.22s.58-1.53.51-2.13c-3.21-3.34-6.84-7.21-11-11.3A168.7,168.7,0,0,0,133.18,835l-1-.79-.49-.39-.39-.29-1.54-1.15-3.05-2.3-6-4.53c-3.93-3-7.74-6-11.37-9A159.63,159.63,0,0,1,89.94,798.1c-.71-.81-1.39-1.63-2.07-2.44l-.51-.62L86.42,794l-1-1.15-.52-.58-.46-.49-1.82-1.92-.11-.12,0,0,0-.06-.1-.12-.19-.25L82,789l-.09-.15-.16-.3a3.58,3.58,0,0,1-.47-2.31c1.2-.7,1.24-1,1.35-1.38s.36-.67,2.21-.81a10.25,10.25,0,0,1-4.11-.91c-1-.52-1.18-1-1.18-1.42.06-.87,1.07-1.61,2.13-1.93l.35.33a4.38,4.38,0,0,1,.11-1,8,8,0,0,1,.9.8c-1-1.51-.12-2,.88-1.71a4.77,4.77,0,0,1,1.51.73c0,.14.61,0,1.06,0l1.41-.17c1-.12,1.91-.24,2.81-.39l-.24.56c4.95-1.74,10.29-3.63,16-5.92,2.88-1.15,5.88-2.41,9-3.84s5.79-2.75,8.64-4.24a253.85,253.85,0,0,0,32-20c10-7.25,19.26-14.83,28.29-22,8.83-7,17.9-13.72,27.56-20,20.52-8.69,33.28-31.55,55-42.91,2.95.09,13.12-8.26,22.79-17l3.66-3.34c1.25-1.16,2.47-2.29,3.59-3.37l3.22-3.11,2.79-2.77C306.4,627,308.53,624.68,309,623.76Z"/>
        <path class="bigArrow-1" d="M359.33,599.48l-.18.06C359.5,601.18,359.65,600.5,359.33,599.48Z"/>
        <path class="bigArrow-1" d="M255,601.89l.28-.17-2.45-1Z"/>
        <path class="bigArrow-1" d="M312.71,562.25c-3.4.66-3.41,1.1-2.72,1.57A4.88,4.88,0,0,0,312.71,562.25Z"/>
        <path class="bigArrow-1" d="M382.72,591.11c1.63-.26.78-1.08-.42-1.94-1.57.59-2.68,1-2.68,1C380.6,590.3,381.7,590.94,382.72,591.11Z"/>
        <path class="bigArrow-1" d="M371.22,570.4l.16-1.43C370.58,569.5,370.72,570,371.22,570.4Z"/>
      </g>
    </g>
  </g>
</svg>
