<?xml version="1.0" encoding="utf-8"?>
<!-- Generator: Adobe Illustrator 24.1.0, SVG Export Plug-In . SVG Version: 6.00 Build 0)  -->
<svg version="1.1" id="history-svg-bg" xmlns="http://www.w3.org/2000/svg" xmlns:xlink="http://www.w3.org/1999/xlink" x="0px"
	 y="0px" viewBox="0 0 2730.2 2048" style="enable-background:new 0 0 2730.2 2048;" xml:space="preserve">
<style type="text/css">
	.st0{clip-path:url(#SVGID_2_);}
	.st1{fill:#E2D8C5;}
	.st2{clip-path:url(#SVGID_4_);}
	.st3{clip-path:url(#SVGID_6_);}
	.st4{opacity:0.58;fill:#32394D;enable-background:new    ;}
	.st5{clip-path:url(#SVGID_8_);}
	.st6{clip-path:url(#SVGID_10_);}
	.st7{clip-path:url(#SVGID_12_);}
</style>
<g id="Lag_6">
	<g>
		<defs>
			<rect id="SVGID_1_" x="-166.8" y="2867.4" width="3385.3" height="2548.1"/>
		</defs>
		<clipPath id="SVGID_2_">
			<use xlink:href="#SVGID_1_"  style="overflow:visible;"/>
		</clipPath>
		<g class="st0">
			<polygon class="st1" points="-166,5414.7 -166,319.3 3217.6,319.3 3217.6,5414.6 3217.6,5414.7 			"/>
		</g>
	</g>
</g>
<g id="Lag_7">
	<g>
		<defs>
			<rect id="SVGID_3_" x="0.7" y="0.7" width="2728.8" height="2046.6"/>
		</defs>
		<clipPath id="SVGID_4_">
			<use xlink:href="#SVGID_3_"  style="overflow:visible;"/>
		</clipPath>
		<g class="st2">
			
				<image style="overflow:visible;enable-background:new    ;" width="1024" height="768" xlink:href="A8369E5FD1CAF62D.png"  transform="matrix(2.66 0 0 2.66 0.69 0.69)">
			</image>
		</g>
	</g>
	<g>
		<defs>
			<rect id="SVGID_5_" y="0" width="2730.2" height="2048"/>
		</defs>
		<clipPath id="SVGID_6_">
			<use xlink:href="#SVGID_5_"  style="overflow:visible;"/>
		</clipPath>
		<g class="st3">
			<polygon class="st1" points="0.7,2047.3 0.7,0.7 2729.5,0.7 2729.5,2047.3 2729.5,2047.3 			"/>
		</g>
	</g>
	<rect x="-3.5" y="0" class="st4" width="2743.4" height="908"/>
	<rect x="1.3" y="269.5" class="st4" width="2727.5" height="638.5"/>
	<g>
		<defs>
			<rect id="SVGID_7_" x="0.7" y="0.7" width="1844.1" height="834.1"/>
		</defs>
		<clipPath id="SVGID_8_">
			<use xlink:href="#SVGID_7_"  style="overflow:visible;"/>
		</clipPath>
		<g class="st5">
			
				<image style="overflow:visible;enable-background:new    ;" width="692" height="313" xlink:href="A8369E5FD1CAF62F.png"  transform="matrix(2.66 0 0 2.66 0.69 0.69)">
			</image>
		</g>
	</g>
	<g>
		<defs>
			<rect id="SVGID_9_" x="0.7" y="0.7" width="1782.8" height="799.5"/>
		</defs>
		<clipPath id="SVGID_10_">
			<use xlink:href="#SVGID_9_"  style="overflow:visible;"/>
		</clipPath>
		<g class="st6">
			
				<image style="overflow:visible;enable-background:new    ;" width="669" height="300" xlink:href="A8369E5FD1CAF62A.png"  transform="matrix(2.66 0 0 2.66 0.69 0.69)">
			</image>
		</g>
	</g>
	<g>
		<defs>
			<rect id="SVGID_11_" x="70" y="0.7" width="1777.5" height="788.8"/>
		</defs>
		<clipPath id="SVGID_12_">
			<use xlink:href="#SVGID_11_"  style="overflow:visible;"/>
		</clipPath>
		<g class="st7">
			
				<image style="overflow:visible;enable-background:new    ;" width="667" height="296" xlink:href="A8369E5FD1CAF62B.png"  transform="matrix(2.66 0 0 2.66 69.98 0.69)">
			</image>
		</g>
	</g>
</g>
</svg>
