<svg xmlns="http://www.w3.org/2000/svg" viewBox="0 0 2732 2048">
  <defs>
    <style>
      .class-1 {
        fill: #e2d7c4;
      }

      .class-2 {
        fill: #3a8990;
      }

      .class-10, .class-3 {
        fill: #333a4d;
      }

      .class-4 {
        fill: #abeef4;
      }

      .class-10, .class-11, .class-12, .class-14, .class-4, .class-8 {
        stroke: #333a4d;
      }

      .class-11, .class-12, .class-14, .class-4, .class-8 {
        stroke-linecap: round;
        stroke-linejoin: round;
      }

      .class-4, .class-8 {
        stroke-width: 30px;
      }

      .class-5 {
        fill: #61e6f2;
      }

      .class-6 {
        fill: #4cb6bf;
      }

      .class-7 {
        fill: #507073;
      }

      .class-11, .class-12, .class-14, .class-15, .class-8 {
        fill: none;
      }

      .class-9 {
        fill: #ff6502;
      }

      .class-10, .class-15 {
        stroke-miterlimit: 10;
      }

      .class-10 {
        stroke-width: 10px;
      }

      .class-11 {
        stroke-width: 40px;
      }

      .class-12 {
        stroke-width: 39px;
      }

      .class-13 {
        fill: #f2f2f2;
      }

      .class-14 {
        stroke-width: 20px;
      }

      .class-15 {
        stroke: #f0cd02;
        stroke-width: 15px;
      }

      .class-16 {
        fill: #f0e289;
      }
    </style>
  </defs>
  <title>household</title>
  <g id="baggrund">
    <rect id="_rectangle_" data-name="&lt;rectangle&gt;" class="class-1" y="-0.97" width="2732" height="2048.97"/>
  </g>
  <g id="vaskemaskine_lag">
    <g id="vaskemaskine">
      <g>
        <rect class="class-2" x="273" y="1396" width="459" height="534"/>
        <path class="class-3" d="M733.06,1931.06c-36.36,2-73.73,3.69-111.5,5.28s-76.12,2.94-114.74,4.08-77.58,1.95-116.61,2.48q-29.28.38-58.6.55T273,1943.2h-.35A13,13,0,0,1,259.8,1930c.28-22.25.81-44.5,1.47-66.75s1.55-44.5,2.38-66.75,1.75-44.5,2.48-66.75,1.37-44.5,1.74-66.75c.82-44.5.78-89,.21-133.5-.25-22.25-.75-44.5-1.28-66.75s-1.32-44.5-2-66.75a8,8,0,0,1,7.7-8.2H273c38.25-1.29,76.5-2.61,114.75-3.63l28.69-.69,28.68-.56,57.38-.83,114.75-1.51,57.37-.53c19.13-.06,38.26-.21,57.38-.18h0a16.12,16.12,0,0,1,16.1,16.14q0,34.1-.38,68.2c-.21,22.73-.64,45.43-1,68.12q-1.31,68-3.36,135.41T738.68,1801C737,1845,735.1,1888.47,733.06,1931.06Zm-2.12-2.12c-2-46.41-3.89-91.94-5.62-137s-3.35-89.54-4.74-133.69-2.49-87.94-3.36-131.59c-.34-21.81-.77-43.61-1-65.38s-.36-43.53-.38-65.3L732,1412.14c-19.12,0-38.25-.12-57.38-.18l-57.37-.53-114.75-1.51-57.38-.83-28.68-.56-28.69-.69c-38.25-1-76.5-2.34-114.75-3.63l8.21-8.21c-.69,22.25-1.44,44.5-2,66.75s-1,44.5-1.28,66.75c-.57,44.5-.61,89,.21,133.5.37,22.25,1,44.5,1.74,66.75s1.65,44.5,2.48,66.75,1.71,44.5,2.38,66.75,1.19,44.5,1.47,66.75L273,1916.8q28.11-.4,56.14-.25t56.15.55c37.47.53,75,1.36,112.89,2.48s76.06,2.52,114.76,4.08S690.8,1926.91,730.94,1928.94Z"/>
      </g>
      <circle class="class-3" cx="662.5" cy="1467.5" r="35.5"/>
      <circle class="class-3" cx="571.5" cy="1468.5" r="35.5"/>
      <g>
        <rect class="class-3" x="303" y="1440" width="118.52" height="54.5"/>
        <path class="class-3" d="M422,1495c-4.27.7-8.79,1.27-13.41,1.8s-9.35,1-14.18,1.43c-9.66.86-19.66,1.52-29.82,1.92-5.09.2-10.21.36-15.36.4s-10.36-.15-15.55-.46c-10.39-.61-20.66-1.92-30.69-2.68l-.44,0a2.68,2.68,0,0,1-2.46-2.87c.34-4.54.62-9.08.71-13.63s.11-9.08,0-13.62-.29-9.08-.58-13.62-.68-9.09-1.06-13.63a3.49,3.49,0,0,1,3.16-3.77l.67-.06c9.88-.91,19.75-1.8,29.63-2.26s19.75-.76,29.63-1.09,19.75-.44,29.63-.25,19.75.58,29.63,1.16l.7,0a5.9,5.9,0,0,1,5.57,6.23c-.27,4.91-.6,9.8-1,14.63s-.89,9.58-1.4,14.22-1.08,9.16-1.67,13.52q-.4,3.29-.84,6.44Zm-1-1-1.7-14.63-1.66-13.73c-.52-4.44-1-8.77-1.4-13s-.75-8.45-1-12.62l6.28,6.27q-14.82.87-29.63,1.16c-9.88.19-19.76.06-29.63-.25s-19.75-.69-29.63-1.09-19.75-1.35-29.63-2.26l3.83-3.83c-.38,4.54-.79,9.08-1.06,13.63s-.49,9.08-.58,13.62-.11,9.08,0,13.62.37,9.09.71,13.63l-2.9-2.9c9.72-.76,19.2-2.07,28.56-2.68,4.69-.31,9.37-.46,14.09-.46s9.48.2,14.27.4c9.59.4,19.34,1.06,29.44,1.92q7.56.63,15.44,1.43C410.06,1492.74,415.42,1493.31,421,1494Z"/>
      </g>
      <g id="trumle">
        <circle class="class-4" cx="498" cy="1730" r="157"/>
        <ellipse class="class-5" cx="446.6" cy="1778.1" rx="67.1" ry="106.89" transform="translate(-1364.26 1491.97) rotate(-66.92)"/>
        <ellipse class="class-6" cx="563.14" cy="1748.27" rx="102.5" ry="80.57" transform="translate(-1249.26 1450.3) rotate(-62.81)"/>
        <ellipse class="class-7" cx="497.5" cy="1820" rx="121.5" ry="63"/>
      </g>
      <g id="lage">
        <circle class="class-8" cx="496" cy="1731" r="157"/>
        <ellipse class="class-3" cx="633.5" cy="1734" rx="18.5" ry="90"/>
      </g>
    </g>
  </g>
  <g id="stovsuger_lag">
    <g id="stovsuger">
      <g>
        <path class="class-9" d="M1364,1806.53c3.22,29.88-17.62,52.29-22,57-23.11,24.86-55.15,29.22-78,32-25.25,3.08-45.75,7.27-78.83,9.4-65.11,4.2-98.58,6.2-143.17,1.6-40.93-4.22-64.71-7-86-23a95.31,95.31,0,0,1-27-31c-9.6-18.38-9.92-35.18-10-46-.09-12.86-.27-36.4,15-58,2.09-3,11.74-16.15,35-28,26.11-13.29,50.25-13.93,79-16,18.84-1.35,77.33-4.78,156,7a423.34,423.34,0,0,1,75,18c33.22,11.31,45.1,20.14,51,25C1341.33,1763.84,1361.19,1780.17,1364,1806.53Z"/>
        <path class="class-3" d="M1365.51,1806.37a69,69,0,0,1-.59,17.46,74,74,0,0,1-4.9,16.79,98.75,98.75,0,0,1-8.25,15.49q-2.43,3.67-5.15,7.17c-1.77,2.34-3.77,4.51-5.75,6.76a93.94,93.94,0,0,1-13.43,12,99.79,99.79,0,0,1-15.47,9.47,135.68,135.68,0,0,1-16.76,6.94c-5.71,1.91-11.49,3.55-17.26,4.9-2.89.68-5.76,1.3-8.61,1.9l-8.38,1.68-16.61,3.41c-11.15,2.28-22.58,4.36-34.15,5.83-5.79.73-11.6,1.35-17.42,1.81-2.88.22-5.85.44-8.68.6l-8.53.48c-5.7.3-11.4.55-17.12.72-2.86.09-5.71.21-8.58.26l-8.59.14A563.91,563.91,0,0,1,1072,1917c-5.77-.64-11.53-1.38-17.26-2.18-2.87-.39-5.73-.82-8.58-1.26s-5.71-.86-8.52-1.32l-17-2.65c-5.69-.88-11.36-1.84-17.07-2.9-11.38-2.15-22.93-5-33.9-9.85a91.44,91.44,0,0,1-15.6-8.95,110.76,110.76,0,0,1-13.71-11.52c-1.06-1-2.11-2.12-3.12-3.23s-2-2.22-3-3.33c-2-2.29-3.83-4.64-5.59-7.1a81.47,81.47,0,0,1-5-7.71c-1.48-2.67-2.89-5.38-4.14-8.18a97.46,97.46,0,0,1-5.89-17.46,117.73,117.73,0,0,1-2.7-18.07c-.24-3-.43-5.81-.6-8.76s-.28-6-.28-9a109.61,109.61,0,0,1,1.5-18.64,91.55,91.55,0,0,1,5.18-18.6l2-4.49c.7-1.48,1.49-2.92,2.24-4.39s1.65-2.84,2.48-4.26a49.36,49.36,0,0,1,2.84-4.27,89.5,89.5,0,0,1,13.45-14.46A116.26,116.26,0,0,1,955,1713.07a135.9,135.9,0,0,1,34.55-15.44,212.83,212.83,0,0,1,36.08-6.53c5.85-.61,11.59-1.12,17.23-1.64l4.22-.39,4.37-.38c2.92-.23,5.84-.45,8.76-.63,11.68-.82,23.35-1.1,35-1.14s23.3.38,34.91,1.08,23.19,1.78,34.73,3.13c5.76.76,11.53,1.4,17.27,2.28l8.62,1.28c2.86.46,5.72,1,8.58,1.5,5.7,1,11.4,2.14,17.16,3.4s11.44,2.73,17.1,4.33,11.28,3.31,16.83,5.22,11.07,3.9,16.51,6.07q16.32,6.46,32,14.39c5.21,2.68,10.39,5.49,15.42,8.6a119,119,0,0,1,14.58,10.34c1.15,1,2.27,2,3.35,3l3.14,3c2.1,2,4.19,4,6.22,6.09a114.86,114.86,0,0,1,11.24,13.46,75.45,75.45,0,0,1,8.41,15.37A64.13,64.13,0,0,1,1365.51,1806.37Zm-3,.32a55.18,55.18,0,0,0-4.39-16,62.34,62.34,0,0,0-8.77-14,85,85,0,0,0-11.81-11.72c-2.17-1.76-4.34-3.5-6.62-5.16l-3.44-2.48c-1.13-.79-2.24-1.55-3.39-2.27-9.19-5.73-19.69-9.55-30.34-12.77s-21.62-5.76-32.56-8-21.91-4-32.88-5.56c-5.48-.75-11-1.48-16.46-2.06s-11-1.19-16.61-1.72l-8.35-.86-8.34-.78c-5.56-.59-11.14-.95-16.7-1.42-11.14-.74-22.27-1.48-33.41-1.91-22.27-.94-44.55-1.26-66.71-.58-2.77.09-5.53.2-8.3.33l-8.45.41c-5.72.27-11.35.52-16.85.85-11,.65-21.45,1.71-31.35,4A110.86,110.86,0,0,0,968.55,1736c-2.24,1.23-4.41,2.53-6.53,3.89-1.07.67-2.1,1.38-3.15,2.07s-2,1.44-3,2.19a73.9,73.9,0,0,0-10.67,9.65,29,29,0,0,0-2.13,2.67c-.7,1-1.49,1.89-2.13,2.92s-1.35,2-2,3l-1.8,3.17a70.7,70.7,0,0,0-5.6,13.77,97.37,97.37,0,0,0-3,15.18c-.33,2.63-.57,5.3-.74,8s-.34,5.63-.45,8.32a102.4,102.4,0,0,0,.52,15.91,78.66,78.66,0,0,0,1.29,7.77c.31,1.27.59,2.56,1,3.81l.54,1.9.62,1.88a71.51,71.51,0,0,0,2.93,7.37,65,65,0,0,0,3.73,7,85.63,85.63,0,0,0,9.72,12.88,84.56,84.56,0,0,0,12,10.94c1.09.78,2.16,1.6,3.27,2.36l3.39,2.19c1.17.67,2.36,1.3,3.53,2s2.42,1.19,3.63,1.79c9.8,4.57,20.65,7,31.71,8.54,1.38.19,2.76.4,4.15.57l4.19.45c2.8.3,5.61.53,8.42.79,5.64.41,11.3.8,17,1.08,11.33.6,22.54.79,33.76.43,22.43-.56,44.74-3.18,67.29-5.3l8.46-.82,8.48-.75c5.65-.51,11.32-1,17-1.41l8.52-.61,8.36-.58q8.31-.62,16.61-1.32l33.6-3.09c5.69-.48,11.44-1,17.23-1.29s11.37-.51,16.89-.89,10.9-.86,16.26-1.66a116.78,116.78,0,0,0,15.76-3.46,88,88,0,0,0,15-5.9c1.19-.62,2.39-1.25,3.58-1.9l3.43-2.15c1.18-.69,2.24-1.52,3.35-2.31l1.64-1.22a17.69,17.69,0,0,0,1.59-1.27c2-1.79,4.17-3.54,6.12-5.52s3.76-4,5.53-6.16a73.79,73.79,0,0,0,9-13.91,60.1,60.1,0,0,0,5.42-15.68A58.27,58.27,0,0,0,1362.53,1806.69Z"/>
      </g>
      <ellipse class="class-10" cx="1043.77" cy="1876.03" rx="61.25" ry="63.5"/>
      <ellipse class="class-10" cx="1234.8" cy="1886.87" rx="41.78" ry="40.66"/>
      <path class="class-11" d="M1269.74,1760.14a205.25,205.25,0,0,0,37.07-91.1,208.29,208.29,0,0,0-6.71-87.37c-19.82-66.91-60.27-78.08-61.77-111.81-1.23-27.32,23.2-67.11,142-119.54a78.14,78.14,0,0,1,38.61-.35c25.83,6.42,40.2,24.37,44.41,30"/>
      <line class="class-12" x1="1463.02" y1="1379.53" x2="1495.52" y2="1864.03"/>
      <g>
        <rect class="class-3" x="1420.77" y="1834.96" width="179.5" height="58.15"/>
        <path class="class-3" d="M1599.21,1836c-9.06,1.65-17.48,2.92-25.71,4.14s-16.11,2.27-23.83,3.22c-15.42,1.88-30,3.24-44.27,3.95a183.42,183.42,0,0,1-41.72-2.07c-6.92-1.06-13.94-2.31-21.11-3.36s-14.46-1.84-21.8-2.18l4.76-4.76a263.51,263.51,0,0,0,.33,29.07c.14,2.42.36,4.85.54,7.27s.44,4.85.74,7.27c.52,4.84,1.19,9.69,1.85,14.54l-8.22-8.22c7.48-1,15-2.14,22.44-3s15-1.62,22.44-2.07l22.44-1.3,11.21-.61,5.61-.29,5.61-.21c15-.64,29.92-.5,44.88.28s29.91,2,44.87,3.75l-11.7,11.71c.27-2.08.57-4.17.93-6.28s.68-4.25,1.1-6.42c.79-4.33,1.69-8.79,2.65-13.47s2-9.56,3-14.69S1598.23,1841.72,1599.21,1836Zm2.12-2.12c1,4,2,8.29,3,12.84s2,9.37,3,14.38,1.86,10.24,2.65,15.6c.42,2.68.75,5.4,1.1,8.13s.66,5.49.93,8.26l1,10.23-12.72,1.47c-15,1.74-29.91,2.94-44.87,3.75s-29.92.92-44.88.28l-5.61-.21-5.61-.29-11.21-.61-22.44-1.3q-11.22-.67-22.44-2.06c-7.48-.91-15-2-22.44-3l-9.15-1.28.94-6.93c.66-4.85,1.33-9.7,1.85-14.54.29-2.42.49-4.85.73-7.27s.41-4.85.55-7.27A263.51,263.51,0,0,0,1416,1835l-.21-4.53,5-.23c7.62-.35,15.28-1.15,23.08-2.18s15.73-2.31,23.76-3.36,16.16-1.89,24.21-2.23,16-.22,23.83.16c15.66.7,31,2.06,45.47,3.94,7.25,1,14.29,2,21.05,3.22S1595.43,1832.25,1601.33,1833.9Z"/>
      </g>
    </g>
  </g>
  <g id="koleskab_lag">
    <g id="koleskab">
      <g>
        <rect class="class-13" x="1895" y="1052" width="464" height="856"/>
        <path class="class-3" d="M2360.06,1909.06c-37.24,1.56-75.15,3-113.42,4.3s-76.94,2.61-115.9,3.68-78.17,2-117.5,2.72l-59.08.88-59.16.55a13.07,13.07,0,0,1-13.19-13V1908c-.15-35.67-.45-71.33-.29-107s.61-71.33,1.3-107l.58-26.75.67-26.75,1.51-53.5c1-35.67,2.11-71.33,2.93-107s1.44-71.33,1.73-107,.28-71.33.11-107c-.33-71.33-1.76-142.67-3.56-214a8,8,0,0,1,7.8-8.2h.41l116-2.85q58-1.32,116-2.07l232-2.36a15.33,15.33,0,0,1,15.49,15.17v.32q.89,108.36.18,217-.89,108.45-3.08,216.23t-5.05,213.9C2364.59,1769.86,2362.5,1840,2360.06,1909.06Zm-2.12-2.12c-2.44-73.64-4.53-146.13-6.48-218.06s-3.65-143.2-5.05-214.09-2.49-141.41-3.08-211.78-.41-140.58.18-211l15.49,15.49-232-2.36q-58-.77-116-2.07l-116-2.85,8.21-8.21c-1.8,71.33-3.23,142.67-3.56,214-.17,35.67-.24,71.33.11,107s.88,71.33,1.73,107,1.93,71.33,2.93,107l1.51,53.5.67,26.75.58,26.75q1,53.51,1.3,107c.16,35.67-.14,71.33-.29,107L1895,1894.81l56.84.55,56.92.88c38,.73,76.1,1.6,114.5,2.72s77,2.34,116.1,3.68S2317.84,1905.38,2357.94,1906.94Z"/>
      </g>
      <line class="class-14" x1="1902.02" y1="1533" x2="2346" y2="1532"/>
      <path class="class-3" d="M2196,1459a37.81,37.81,0,0,1,5.81-8.72,25.57,25.57,0,0,1,5.81-4.88,17.67,17.67,0,0,1,5.82-2.23,7.88,7.88,0,0,1,2.9-.11,7.62,7.62,0,0,1,2.91,1.24c1.94,1.24,3.87,3.62,5.81,5.66s3.88,3.91,5.82,4.61a6.77,6.77,0,0,0,2.9.41,8.84,8.84,0,0,0,2.91-.7,20.3,20.3,0,0,0,5.81-4.23,53.45,53.45,0,0,1,5.81-5.14,15,15,0,0,1,2.91-1.67c1-.4,1.94-.76,2.9-1.14a58.83,58.83,0,0,1,5.82-2.08,14,14,0,0,1,5.81-.4,20,20,0,0,1,5.81,1.91,31.68,31.68,0,0,1,5.82,3.67,41,41,0,0,1,5.81,5.52A47.52,47.52,0,0,1,2289,1459a4.15,4.15,0,0,1,0,4,47.52,47.52,0,0,1-5.81,8.28,41,41,0,0,1-5.81,5.52,31.68,31.68,0,0,1-5.82,3.67,20,20,0,0,1-5.81,1.91,14,14,0,0,1-5.81-.4,58.83,58.83,0,0,1-5.82-2.08c-1-.38-1.93-.74-2.9-1.14a15,15,0,0,1-2.91-1.67,53.45,53.45,0,0,1-5.81-5.14,20.3,20.3,0,0,0-5.81-4.23,8.84,8.84,0,0,0-2.91-.7,6.77,6.77,0,0,0-2.9.41c-1.94.7-3.88,2.46-5.82,4.61s-3.87,4.42-5.81,5.66a7.62,7.62,0,0,1-2.91,1.24,7.88,7.88,0,0,1-2.9-.11,17.67,17.67,0,0,1-5.82-2.23,25.57,25.57,0,0,1-5.81-4.88A37.81,37.81,0,0,1,2196,1463,4.57,4.57,0,0,1,2196,1459Z"/>
      <path class="class-3" d="M2193,1591a37.81,37.81,0,0,1,5.81-8.72,25.57,25.57,0,0,1,5.81-4.88,17.67,17.67,0,0,1,5.82-2.23,7.88,7.88,0,0,1,2.9-.11,7.62,7.62,0,0,1,2.91,1.24c1.94,1.24,3.87,3.62,5.81,5.66s3.88,3.91,5.82,4.61a6.77,6.77,0,0,0,2.9.41,8.84,8.84,0,0,0,2.91-.7,20.3,20.3,0,0,0,5.81-4.23,53.45,53.45,0,0,1,5.81-5.14,15,15,0,0,1,2.91-1.67c1-.4,1.94-.76,2.9-1.14a58.83,58.83,0,0,1,5.82-2.08,14,14,0,0,1,5.81-.4,20,20,0,0,1,5.81,1.91,31.68,31.68,0,0,1,5.82,3.67,41,41,0,0,1,5.81,5.52A47.52,47.52,0,0,1,2286,1591a4.15,4.15,0,0,1,0,4,47.52,47.52,0,0,1-5.81,8.28,41,41,0,0,1-5.81,5.52,31.68,31.68,0,0,1-5.82,3.67,20,20,0,0,1-5.81,1.91,14,14,0,0,1-5.81-.4,58.83,58.83,0,0,1-5.82-2.08c-1-.38-1.93-.74-2.9-1.14a15,15,0,0,1-2.91-1.67,53.45,53.45,0,0,1-5.81-5.14,20.3,20.3,0,0,0-5.81-4.23,8.84,8.84,0,0,0-2.91-.7,6.77,6.77,0,0,0-2.9.41c-1.94.7-3.88,2.46-5.82,4.61s-3.87,4.42-5.81,5.66a7.62,7.62,0,0,1-2.91,1.24,7.88,7.88,0,0,1-2.9-.11,17.67,17.67,0,0,1-5.82-2.23,25.57,25.57,0,0,1-5.81-4.88A37.81,37.81,0,0,1,2193,1595,4.57,4.57,0,0,1,2193,1591Z"/>
    </g>
  </g>
  <g id="koleskabdor_lag">
    <g id="koleskabdor">
      <line class="class-15" x1="2428" y1="1079" x2="2495" y2="1039"/>
      <line class="class-15" x1="2440.5" y1="1141.5" x2="2509.5" y2="1127.5"/>
      <line class="class-15" x1="2442.5" y1="1211.5" x2="2543.5" y2="1211.5"/>
      <line class="class-15" x1="2444.5" y1="1273.5" x2="2516.5" y2="1280.5"/>
      <line class="class-15" x1="2442.5" y1="1357.5" x2="2507.5" y2="1362.5"/>
      <rect class="class-16" x="1901.5" y="1041.5" width="464" height="479"/>
      <g>
        <polygon class="class-13" points="1901 1041 2332 1067 2337 1561 1901 1520 1901 1041"/>
        <path class="class-3" d="M1900,1039.91c34.06,0,69.16.5,104.68,1s71.61,1.33,108,2.37,73.09,2.46,109.85,4.1c18.39.91,36.78,1.78,55.18,2.81s36.79,2.24,55.13,3.68l.42,0a12.94,12.94,0,0,1,11.89,12.92c-.08,20.58-.47,41.17-.94,61.76s-1.18,41.19-1.79,61.78-1.31,41.18-1.82,61.77-.88,41.18-1,61.77c-.36,41.17.22,82.34,1.21,123.5.49,20.58,1.19,41.16,2,61.74l.61,15.43.68,15.43,1.37,30.87a8.11,8.11,0,0,1-7.74,8.46,7.48,7.48,0,0,1-.82,0l-.59,0-54.69-3.19-27.33-1.64-27.33-1.77c-36.42-2.42-72.8-5.34-109.19-8.23l-109.14-8.74c-18.18-1.54-36.37-3-54.54-4.69s-36.35-3.26-54.51-5h-.1a16.15,16.15,0,0,1-14.5-16q.08-30.68.49-61.35c.34-20.44.62-40.88,1.07-61.27q1.27-61.19,3.42-121.69t4.69-119.54C1896.28,1116.8,1898,1077.91,1900,1039.91Zm2.06,2.18c1.93,41.83,3.69,82.78,5.41,123.26s3.32,80.4,4.69,120,2.57,78.77,3.42,117.81c.45,19.53.73,39,1.07,58.48s.44,38.93.49,58.4l-14.6-16q27.26,2.46,54.49,5.21c18.16,1.75,36.31,3.68,54.46,5.56l108.86,11.76c36.28,3.94,72.57,7.85,108.81,12.27l27.17,3.35,27.17,3.49,54.31,7.06-9.15,8.42.74-30.88.37-15.44.3-15.45q.55-30.88.72-61.76c.15-41.17-.1-82.34-1.29-123.5-.56-20.58-1.37-41.16-2.27-61.73s-2-41.15-3.07-61.73-2.15-41.15-3-61.72-1.69-41.16-2.19-61.74l12.31,12.95c-17.58-.73-35.1-1.71-52.62-2.82s-35-2.43-52.57-3.69c-35.07-2.69-70.2-5.59-105.65-8.9s-71.22-6.85-107.52-10.63S1939.8,1046.37,1902,1042.09Z"/>
      </g>
      <path class="class-3" d="M2196,1494a37.81,37.81,0,0,1,5.81-8.72,25.57,25.57,0,0,1,5.81-4.88,17.67,17.67,0,0,1,5.82-2.23,7.88,7.88,0,0,1,2.9-.11,7.62,7.62,0,0,1,2.91,1.24c1.94,1.24,3.87,3.62,5.81,5.66s3.88,3.91,5.82,4.61a6.77,6.77,0,0,0,2.9.41,8.84,8.84,0,0,0,2.91-.7,20.3,20.3,0,0,0,5.81-4.23,53.45,53.45,0,0,1,5.81-5.14,15,15,0,0,1,2.91-1.67c1-.4,1.94-.76,2.9-1.14a58.83,58.83,0,0,1,5.82-2.08,14,14,0,0,1,5.81-.4,20,20,0,0,1,5.81,1.91,31.68,31.68,0,0,1,5.82,3.67,41,41,0,0,1,5.81,5.52A47.52,47.52,0,0,1,2289,1494a4.15,4.15,0,0,1,0,4,47.52,47.52,0,0,1-5.81,8.28,41,41,0,0,1-5.81,5.52,31.68,31.68,0,0,1-5.82,3.67,20,20,0,0,1-5.81,1.91,14,14,0,0,1-5.81-.4,58.83,58.83,0,0,1-5.82-2.08c-1-.38-1.93-.74-2.9-1.14a15,15,0,0,1-2.91-1.67,53.45,53.45,0,0,1-5.81-5.14,20.3,20.3,0,0,0-5.81-4.23,8.84,8.84,0,0,0-2.91-.7,6.77,6.77,0,0,0-2.9.41c-1.94.7-3.88,2.46-5.82,4.61s-3.87,4.42-5.81,5.66a7.62,7.62,0,0,1-2.91,1.24,7.88,7.88,0,0,1-2.9-.11,17.67,17.67,0,0,1-5.82-2.23,25.57,25.57,0,0,1-5.81-4.88A37.81,37.81,0,0,1,2196,1498,4.57,4.57,0,0,1,2196,1494Z"/>
    </g>
  </g>
</svg>
