<svg xmlns="http://www.w3.org/2000/svg" viewBox="0 0 2732 2048">
  <defs>
    <style>
      .class-1 {
        fill: #e2d7c4;
      }

      .class-2 {
        fill: #3a8990;
      }

      .class-10, .class-3 {
        fill: #333a4d;
      }

      .class-4 {
        fill: #abeef4;
      }

      .class-10, .class-11, .class-12, .class-14, .class-4, .class-8 {
        stroke: #333a4d;
      }

      .class-11, .class-12, .class-14, .class-4, .class-8 {
        stroke-linecap: round;
        stroke-linejoin: round;
      }

      .class-4, .class-8 {
        stroke-width: 30px;
      }

      .class-5 {
        fill: #61e6f2;
      }

      .class-6 {
        fill: #4cb6bf;
      }

      .class-7 {
        fill: #507073;
      }

      .class-11, .class-12, .class-14, .class-15, .class-8 {
        fill: none;
      }

      .class-9 {
        fill: #ff6502;
      }

      .class-10, .class-15 {
        stroke-miterlimit: 10;
      }

      .class-10 {
        stroke-width: 10px;
      }

      .class-11 {
        stroke-width: 40px;
      }

      .class-12 {
        stroke-width: 39px;
      }

      .class-13 {
        fill: #f2f2f2;
      }

      .class-14 {
        stroke-width: 20px;
      }

      .class-15 {
        stroke: #f0cd02;
        stroke-width: 15px;
      }

      .class-16 {
        fill: #f0e289;
      }
    </style>
  </defs>
  <title>household</title>
  <g id="baggrund">
    <rect class="class-1" x="4.57" y="4.61" width="2727.43" height="2036.89"/>
  </g>
  <g id="vaskemaskine_lag">
    <g id="vaskemaskine">
      <g>
        <rect class="class-2" x="277" y="1233.5" width="459" height="534"/>
        <path class="class-3" d="M737.06,1768.56c-36.36,2-73.73,3.69-111.5,5.28s-76.12,2.94-114.74,4.08-77.58,1.95-116.61,2.48q-29.28.38-58.6.55T277,1780.7h-.35a13,13,0,0,1-12.85-13.19c.28-22.25.81-44.5,1.47-66.75s1.55-44.5,2.38-66.75,1.75-44.5,2.48-66.75,1.37-44.5,1.74-66.75c.82-44.5.78-89,.21-133.5-.25-22.25-.75-44.5-1.28-66.75s-1.32-44.5-2-66.75a8,8,0,0,1,7.7-8.2H277c38.25-1.29,76.5-2.61,114.75-3.63l28.69-.69,28.68-.56,57.38-.83,114.75-1.51,57.37-.53c19.13-.06,38.26-.21,57.38-.18h0a16.12,16.12,0,0,1,16.1,16.14q0,34.1-.38,68.2c-.21,22.73-.64,45.43-1,68.12q-1.31,68-3.36,135.41t-4.74,133.31C741,1682.5,739.1,1726,737.06,1768.56Zm-2.12-2.12c-2-46.41-3.89-91.94-5.62-137s-3.35-89.54-4.74-133.69-2.49-87.94-3.36-131.59c-.34-21.81-.77-43.61-1-65.38s-.36-43.53-.38-65.3L736,1249.64c-19.12,0-38.25-.12-57.38-.18l-57.37-.53-114.75-1.51-57.38-.83-28.68-.56-28.69-.69c-38.25-1-76.5-2.34-114.75-3.63l8.21-8.21c-.69,22.25-1.44,44.5-2,66.75s-1,44.5-1.28,66.75c-.57,44.5-.61,89,.21,133.5.37,22.25,1,44.5,1.74,66.75s1.65,44.5,2.48,66.75,1.71,44.5,2.38,66.75,1.19,44.5,1.47,66.75L277,1754.3q28.11-.4,56.14-.25t56.15.55c37.47.53,75,1.36,112.89,2.48s76.06,2.52,114.76,4.08S694.8,1764.41,734.94,1766.44Z"/>
      </g>
      <circle class="class-3" cx="666.5" cy="1305" r="35.5"/>
      <circle class="class-3" cx="575.5" cy="1306" r="35.5"/>
      <g>
        <rect class="class-3" x="307" y="1277.5" width="118.52" height="54.5"/>
        <path class="class-3" d="M426,1332.49c-4.27.7-8.79,1.27-13.41,1.8s-9.35,1-14.18,1.43c-9.66.86-19.66,1.52-29.82,1.92-5.09.2-10.21.36-15.36.4s-10.36-.15-15.55-.46c-10.39-.61-20.66-1.92-30.69-2.68l-.44,0a2.68,2.68,0,0,1-2.46-2.87c.34-4.54.62-9.08.71-13.63s.11-9.08,0-13.62-.29-9.08-.58-13.62-.68-9.09-1.06-13.63a3.49,3.49,0,0,1,3.16-3.77l.67-.06c9.88-.91,19.75-1.8,29.63-2.26s19.75-.76,29.63-1.09,19.75-.44,29.63-.25,19.75.58,29.63,1.16l.7,0a5.9,5.9,0,0,1,5.57,6.23c-.27,4.91-.6,9.8-1,14.63s-.89,9.58-1.4,14.22-1.08,9.16-1.67,13.52q-.4,3.29-.84,6.44Zm-1-1-1.7-14.63-1.66-13.73c-.52-4.44-1-8.77-1.4-13s-.75-8.45-1-12.62l6.28,6.27q-14.82.87-29.63,1.16c-9.88.19-19.76.06-29.63-.25s-19.75-.69-29.63-1.09-19.75-1.35-29.63-2.26l3.83-3.83c-.38,4.54-.79,9.08-1.06,13.63s-.49,9.08-.58,13.62-.11,9.08,0,13.62.37,9.09.71,13.63l-2.9-2.9c9.72-.76,19.2-2.07,28.56-2.68,4.69-.31,9.37-.46,14.09-.46s9.48.2,14.27.4c9.59.4,19.34,1.06,29.44,1.92q7.56.63,15.44,1.43C414.06,1330.24,419.42,1330.81,425,1331.51Z"/>
      </g>
      <g id="trumle">
        <circle class="class-4" cx="502" cy="1567.5" r="157"/>
        <ellipse class="class-5" cx="450.6" cy="1615.6" rx="67.1" ry="106.89" transform="translate(-1212.34 1396.85) rotate(-66.92)"/>
        <ellipse class="class-6" cx="567.14" cy="1585.77" rx="102.5" ry="80.57" transform="translate(-1102.54 1365.61) rotate(-62.81)"/>
        <ellipse class="class-7" cx="501.5" cy="1657.5" rx="121.5" ry="63"/>
      </g>
      <g id="lage">
        <circle class="class-8" cx="500" cy="1568.5" r="157"/>
        <ellipse class="class-3" cx="637.5" cy="1571.5" rx="18.5" ry="90"/>
      </g>
    </g>
  </g>
  <g id="stovsuger_lag">
    <g id="stovsuger">
      <g>
        <path class="class-9" d="M1367,1652.5c3.22,29.88-17.62,52.29-22,57-23.11,24.86-55.15,29.21-78,32-25.25,3.08-45.76,7.26-78.84,9.4-65.11,4.2-98.57,6.2-143.16,1.6-40.93-4.22-64.71-7-86-23a95.31,95.31,0,0,1-27-31c-9.6-18.38-9.92-35.18-10-46-.1-12.86-.27-36.41,15-58,2.09-3,11.74-16.16,35-28,26.1-13.29,50.24-13.93,79-16,18.84-1.36,77.32-4.79,156,7a422.63,422.63,0,0,1,75,18c33.22,11.31,45.1,20.14,51,25C1344.31,1609.8,1364.16,1626.14,1367,1652.5Z"/>
        <path class="class-3" d="M1368.49,1652.34a69.44,69.44,0,0,1-.59,17.46,73.5,73.5,0,0,1-4.91,16.79,99.14,99.14,0,0,1-8.24,15.49c-1.62,2.45-3.35,4.84-5.16,7.16s-3.76,4.52-5.74,6.77a94.48,94.48,0,0,1-13.43,12,100.66,100.66,0,0,1-15.48,9.47,135.55,135.55,0,0,1-16.75,6.94c-5.71,1.91-11.49,3.54-17.26,4.9-2.89.68-5.76,1.3-8.61,1.9l-8.38,1.68-16.61,3.41c-11.15,2.28-22.58,4.35-34.16,5.83q-8.67,1.1-17.41,1.81c-2.89.22-5.86.44-8.68.6l-8.54.48c-5.69.3-11.39.55-17.11.72-2.86.09-5.71.21-8.58.26l-8.6.14a565.73,565.73,0,0,1-69.31-3.14c-5.78-.64-11.53-1.38-17.26-2.18-2.87-.39-5.73-.82-8.58-1.26s-5.71-.86-8.52-1.32l-17-2.65c-5.69-.88-11.37-1.84-17.08-2.91-11.38-2.14-22.92-4.94-33.89-9.84a91.44,91.44,0,0,1-15.6-9,110.17,110.17,0,0,1-13.71-11.52c-1.06-1.06-2.11-2.13-3.12-3.23s-2-2.22-3-3.34c-1.95-2.28-3.83-4.64-5.59-7.1a79,79,0,0,1-5-7.71c-1.48-2.66-2.89-5.37-4.14-8.17a97.21,97.21,0,0,1-5.89-17.46,116.52,116.52,0,0,1-2.7-18.07c-.25-3-.44-5.81-.61-8.77s-.28-6-.27-9a108.6,108.6,0,0,1,1.5-18.64,91.55,91.55,0,0,1,5.18-18.6l2-4.49c.7-1.48,1.48-2.93,2.23-4.39s1.65-2.84,2.48-4.27,1.82-2.87,2.84-4.27a89.93,89.93,0,0,1,13.46-14.45A116.26,116.26,0,0,1,958,1559a135.9,135.9,0,0,1,34.55-15.44,212.83,212.83,0,0,1,36.08-6.53c5.85-.61,11.58-1.12,17.23-1.64l4.22-.39,4.37-.38c2.92-.23,5.84-.45,8.76-.63,11.67-.82,23.34-1.1,35-1.14s23.29.38,34.91,1.08,23.19,1.78,34.73,3.13c5.76.75,11.53,1.4,17.27,2.28l8.61,1.28c2.87.46,5.72,1,8.58,1.5,5.71,1,11.41,2.14,17.17,3.4s11.44,2.73,17.1,4.33,11.28,3.31,16.83,5.22,11.06,3.9,16.5,6.06q16.33,6.48,32,14.4c5.22,2.68,10.4,5.48,15.43,8.6a118.64,118.64,0,0,1,14.58,10.34c1.15,1,2.27,2,3.35,3l3.13,3c2.1,2,4.2,4,6.23,6.1a115.5,115.5,0,0,1,11.23,13.45,75.54,75.54,0,0,1,8.42,15.37A64.69,64.69,0,0,1,1368.49,1652.34Zm-3,.32a55.33,55.33,0,0,0-4.39-16,62.18,62.18,0,0,0-8.78-14,84.88,84.88,0,0,0-11.8-11.72c-2.17-1.76-4.34-3.51-6.62-5.16l-3.44-2.48c-1.13-.79-2.25-1.56-3.39-2.28-9.19-5.72-19.7-9.54-30.34-12.76s-21.62-5.76-32.56-8-21.91-4-32.88-5.56c-5.49-.75-11-1.48-16.46-2.07s-11-1.18-16.62-1.72l-8.34-.85-8.35-.78c-5.55-.59-11.13-1-16.69-1.42-11.14-.74-22.27-1.49-33.41-1.91-22.27-.94-44.56-1.26-66.71-.58-2.77.09-5.53.2-8.3.33l-8.45.41c-5.72.27-11.35.52-16.85.85-11,.65-21.46,1.7-31.35,4A111.07,111.07,0,0,0,971.52,1582c-2.23,1.22-4.41,2.52-6.53,3.88-1.06.68-2.09,1.39-3.14,2.08s-2.05,1.43-3,2.19a73.91,73.91,0,0,0-10.67,9.64,30.45,30.45,0,0,0-2.14,2.67c-.69,1-1.49,1.9-2.12,2.92s-1.35,2-2,3.05l-1.8,3.17a70.73,70.73,0,0,0-5.61,13.77,97.13,97.13,0,0,0-3,15.18c-.33,2.63-.57,5.3-.75,8s-.33,5.63-.44,8.32a102.4,102.4,0,0,0,.52,15.91,78,78,0,0,0,1.29,7.76c.31,1.28.59,2.57,1,3.82l.54,1.9.62,1.88a73.77,73.77,0,0,0,2.92,7.37,65.14,65.14,0,0,0,3.74,7,85.55,85.55,0,0,0,9.72,12.87,84,84,0,0,0,12,11c1.09.78,2.16,1.6,3.27,2.36l3.39,2.18c1.17.67,2.35,1.31,3.53,2s2.42,1.18,3.63,1.78c9.79,4.57,20.64,7,31.7,8.55,1.39.18,2.77.4,4.16.56l4.19.45c2.79.31,5.61.54,8.42.8,5.64.41,11.29.8,17,1.08,11.34.6,22.54.78,33.77.43,22.42-.57,44.74-3.19,67.29-5.3l8.46-.82,8.47-.75c5.65-.51,11.32-1,17-1.41l8.52-.61,8.36-.58q8.31-.62,16.61-1.32l33.59-3.09c5.7-.48,11.44-1,17.24-1.29s11.37-.51,16.88-.9,10.91-.85,16.26-1.65a116.14,116.14,0,0,0,15.76-3.47,87.53,87.53,0,0,0,15-5.89c1.19-.62,2.39-1.26,3.57-1.91l3.44-2.14a40.56,40.56,0,0,0,3.34-2.32l1.64-1.21a16.52,16.52,0,0,0,1.6-1.27c2-1.79,4.17-3.55,6.11-5.53s3.77-4,5.54-6.15a74.28,74.28,0,0,0,9-13.91,60.1,60.1,0,0,0,5.42-15.68A58.64,58.64,0,0,0,1365.51,1652.66Z"/>
      </g>
      <ellipse class="class-10" cx="1046.75" cy="1722" rx="61.25" ry="63.5"/>
      <ellipse class="class-10" cx="1237.78" cy="1732.84" rx="41.78" ry="40.66"/>
      <path class="class-11" d="M1272.72,1606.11a205.42,205.42,0,0,0,37.07-91.11,208.24,208.24,0,0,0-6.71-87.36c-19.82-66.92-60.27-78.09-61.78-111.81-1.22-27.33,23.21-67.11,142-119.54a78.15,78.15,0,0,1,38.61-.35c25.83,6.42,40.21,24.36,44.41,30"/>
      <line class="class-12" x1="1466" y1="1225.5" x2="1498.5" y2="1710"/>
      <g>
        <rect class="class-3" x="1423.75" y="1680.93" width="179.5" height="58.15"/>
        <path class="class-3" d="M1602.19,1682c-9.06,1.64-17.48,2.92-25.71,4.14s-16.11,2.27-23.83,3.22c-15.42,1.88-30,3.24-44.27,4a200.18,200.18,0,0,1-21.05.15,204.82,204.82,0,0,1-20.67-2.22c-6.92-1.06-13.94-2.31-21.11-3.36s-14.46-1.84-21.8-2.19l4.76-4.75a266,266,0,0,0,.32,29.07c.14,2.42.36,4.85.55,7.27s.44,4.84.73,7.27c.53,4.84,1.19,9.69,1.85,14.53l-8.21-8.21c7.48-1,15-2.14,22.44-3s15-1.61,22.43-2.06l22.44-1.3,11.22-.61,5.61-.29,5.61-.21c15-.64,29.92-.5,44.88.28s29.91,2,44.87,3.75l-11.71,11.7q.4-3.1.93-6.28c.36-2.11.68-4.24,1.11-6.41.79-4.33,1.69-8.8,2.65-13.47s2-9.56,3-14.7S1601.21,1687.69,1602.19,1682Zm2.12-2.12c1,4,2,8.29,3,12.84s2,9.36,3,14.38,1.86,10.24,2.65,15.6c.43,2.68.75,5.4,1.11,8.13s.66,5.49.93,8.25l1,10.23-12.71,1.48c-15,1.74-29.92,2.94-44.87,3.75s-29.92.92-44.88.28l-5.61-.21-5.61-.29-11.22-.61-22.44-1.3q-11.2-.68-22.43-2.07c-7.48-.9-15-2-22.44-3l-9.16-1.28,1-6.94c.66-4.84,1.32-9.69,1.85-14.53.29-2.43.48-4.85.73-7.27s.41-4.85.55-7.27a266,266,0,0,0,.32-29.07l-.21-4.54,5-.22c7.62-.35,15.28-1.15,23.07-2.19s15.73-2.3,23.77-3.36,16.16-1.89,24.2-2.22,16-.23,23.83.16c15.67.7,31,2.06,45.48,3.94,7.24,1,14.28,2,21,3.22S1598.41,1678.22,1604.31,1679.87Z"/>
      </g>
    </g>
  </g>
  <g id="koleskab_lag">
    <g id="koleskab">
      <g>
        <rect class="class-13" x="1899" y="919.5" width="464" height="856"/>
        <path class="class-3" d="M2364.06,1776.56c-37.24,1.56-75.15,3-113.42,4.3s-76.94,2.61-115.9,3.68-78.17,2-117.5,2.72l-59.08.88-59.16.55a13.07,13.07,0,0,1-13.19-13v-.24c-.15-35.67-.45-71.33-.29-107s.61-71.33,1.3-107l.58-26.75.67-26.75,1.51-53.5c1-35.67,2.11-71.33,2.93-107s1.44-71.33,1.73-107,.28-71.33.11-107c-.33-71.33-1.76-142.67-3.56-214a8,8,0,0,1,7.8-8.2h.41l116-2.85q58-1.32,116-2.07L2363,904a15.33,15.33,0,0,1,15.49,15.17v.32q.89,108.36.18,217-.89,108.45-3.08,216.23t-5.05,213.9C2368.59,1637.36,2366.5,1707.53,2364.06,1776.56Zm-2.12-2.12c-2.44-73.64-4.53-146.13-6.48-218.06s-3.65-143.2-5.05-214.09-2.49-141.41-3.08-211.78-.41-140.58.18-211L2363,935l-232-2.36q-58-.76-116-2.07l-116-2.85,8.21-8.21c-1.8,71.33-3.23,142.67-3.56,214-.17,35.67-.24,71.33.11,107s.88,71.33,1.73,107,1.93,71.33,2.93,107l1.51,53.5.67,26.75.58,26.75q1,53.51,1.3,107c.16,35.67-.14,71.33-.29,107L1899,1762.31l56.84.55,56.92.88c38,.73,76.1,1.6,114.5,2.72s77,2.34,116.1,3.68S2321.84,1772.88,2361.94,1774.44Z"/>
      </g>
      <line class="class-14" x1="1906.02" y1="1400.5" x2="2350" y2="1399.5"/>
      <path class="class-3" d="M2200,1326.5a37.81,37.81,0,0,1,5.81-8.72,25.57,25.57,0,0,1,5.81-4.88,17.67,17.67,0,0,1,5.82-2.23,7.88,7.88,0,0,1,2.9-.11,7.62,7.62,0,0,1,2.91,1.24c1.94,1.24,3.87,3.62,5.81,5.66s3.88,3.91,5.82,4.61a6.77,6.77,0,0,0,2.9.41,8.84,8.84,0,0,0,2.91-.7,20.3,20.3,0,0,0,5.81-4.23,53.45,53.45,0,0,1,5.81-5.14,15,15,0,0,1,2.91-1.67c1-.4,1.94-.76,2.9-1.14a58.83,58.83,0,0,1,5.82-2.08,14,14,0,0,1,5.81-.4,20,20,0,0,1,5.81,1.91,31.68,31.68,0,0,1,5.82,3.67,41,41,0,0,1,5.81,5.52,47.52,47.52,0,0,1,5.81,8.28,4.15,4.15,0,0,1,0,4,47.52,47.52,0,0,1-5.81,8.28,41,41,0,0,1-5.81,5.52,31.68,31.68,0,0,1-5.82,3.67,20,20,0,0,1-5.81,1.91,14,14,0,0,1-5.81-.4,58.83,58.83,0,0,1-5.82-2.08c-1-.38-1.93-.74-2.9-1.14a15,15,0,0,1-2.91-1.67,53.45,53.45,0,0,1-5.81-5.14,20.3,20.3,0,0,0-5.81-4.23,8.84,8.84,0,0,0-2.91-.7,6.77,6.77,0,0,0-2.9.41c-1.94.7-3.88,2.46-5.82,4.61s-3.87,4.42-5.81,5.66a7.62,7.62,0,0,1-2.91,1.24,7.88,7.88,0,0,1-2.9-.11,17.67,17.67,0,0,1-5.82-2.23,25.57,25.57,0,0,1-5.81-4.88,37.81,37.81,0,0,1-5.81-8.72A4.57,4.57,0,0,1,2200,1326.5Z"/>
      <path class="class-3" d="M2197,1458.5a37.81,37.81,0,0,1,5.81-8.72,25.57,25.57,0,0,1,5.81-4.88,17.67,17.67,0,0,1,5.82-2.23,7.88,7.88,0,0,1,2.9-.11,7.62,7.62,0,0,1,2.91,1.24c1.94,1.24,3.87,3.62,5.81,5.66s3.88,3.91,5.82,4.61a6.77,6.77,0,0,0,2.9.41,8.84,8.84,0,0,0,2.91-.7,20.3,20.3,0,0,0,5.81-4.23,53.45,53.45,0,0,1,5.81-5.14,15,15,0,0,1,2.91-1.67c1-.4,1.94-.76,2.9-1.14a58.83,58.83,0,0,1,5.82-2.08,14,14,0,0,1,5.81-.4,20,20,0,0,1,5.81,1.91,31.68,31.68,0,0,1,5.82,3.67,41,41,0,0,1,5.81,5.52,47.52,47.52,0,0,1,5.81,8.28,4.15,4.15,0,0,1,0,4,47.52,47.52,0,0,1-5.81,8.28,41,41,0,0,1-5.81,5.52,31.68,31.68,0,0,1-5.82,3.67,20,20,0,0,1-5.81,1.91,14,14,0,0,1-5.81-.4,58.83,58.83,0,0,1-5.82-2.08c-1-.38-1.93-.74-2.9-1.14a15,15,0,0,1-2.91-1.67,53.45,53.45,0,0,1-5.81-5.14,20.3,20.3,0,0,0-5.81-4.23,8.84,8.84,0,0,0-2.91-.7,6.77,6.77,0,0,0-2.9.41c-1.94.7-3.88,2.46-5.82,4.61s-3.87,4.42-5.81,5.66a7.62,7.62,0,0,1-2.91,1.24,7.88,7.88,0,0,1-2.9-.11,17.67,17.67,0,0,1-5.82-2.23,25.57,25.57,0,0,1-5.81-4.88,37.81,37.81,0,0,1-5.81-8.72A4.57,4.57,0,0,1,2197,1458.5Z"/>
    </g>
  </g>
  <g id="koleskabdor_lag">
    <g id="koleskabdor">
      <line class="class-15" x1="2432" y1="957.5" x2="2499" y2="917.5"/>
      <line class="class-15" x1="2444.5" y1="1020" x2="2513.5" y2="1006"/>
      <line class="class-15" x1="2446.5" y1="1090" x2="2547.5" y2="1090"/>
      <line class="class-15" x1="2448.5" y1="1152" x2="2520.5" y2="1159"/>
      <line class="class-15" x1="2446.5" y1="1236" x2="2511.5" y2="1241"/>
      <rect class="class-16" x="1905.5" y="920" width="464" height="479"/>
      <g>
        <polygon class="class-13" points="1905 919.5 2336 945.5 2341 1439.5 1905 1398.5 1905 919.5"/>
        <path class="class-3" d="M1904,918.41c34.06.05,69.16.5,104.68,1.05s71.61,1.33,108,2.37,73.09,2.46,109.85,4.1c18.39.91,36.78,1.78,55.18,2.81s36.79,2.24,55.13,3.68l.42,0a12.94,12.94,0,0,1,11.89,12.92c-.08,20.58-.47,41.17-.94,61.76s-1.18,41.19-1.79,61.78-1.31,41.18-1.82,61.77-.88,41.18-1,61.77c-.36,41.17.22,82.34,1.21,123.5.49,20.58,1.19,41.16,2,61.74l.61,15.43.68,15.43,1.37,30.87a8.11,8.11,0,0,1-7.74,8.46,7.48,7.48,0,0,1-.82,0l-.59,0-54.69-3.19L2258.2,1443l-27.33-1.77c-36.42-2.42-72.8-5.34-109.19-8.23l-109.14-8.74c-18.18-1.54-36.37-3-54.54-4.69s-36.35-3.26-54.51-5h-.1a16.15,16.15,0,0,1-14.5-16q.08-30.68.49-61.35c.34-20.44.62-40.88,1.07-61.27q1.27-61.19,3.42-121.69t4.69-119.54C1900.28,995.3,1902,956.41,1904,918.41Zm2.06,2.18c1.93,41.83,3.69,82.78,5.41,123.26s3.32,80.4,4.69,120,2.57,78.77,3.42,117.81c.45,19.53.73,39,1.07,58.48s.44,38.93.49,58.4l-14.6-16q27.26,2.46,54.49,5.21c18.16,1.75,36.31,3.68,54.46,5.56L2124.32,1405c36.28,3.94,72.57,7.85,108.81,12.27l27.17,3.35,27.17,3.49,54.31,7.06-9.15,8.42.74-30.88.37-15.44.3-15.45q.55-30.88.72-61.76c.15-41.17-.1-82.34-1.29-123.5-.56-20.58-1.37-41.16-2.27-61.73s-2-41.15-3.07-61.73-2.15-41.15-3-61.72-1.69-41.16-2.19-61.74l12.31,13c-17.58-.73-35.1-1.71-52.62-2.82s-35-2.43-52.57-3.69c-35.07-2.69-70.2-5.59-105.65-8.9s-71.22-6.85-107.52-10.63S1943.8,924.87,1906,920.59Z"/>
      </g>
      <path class="class-3" d="M2200,1372.5a37.81,37.81,0,0,1,5.81-8.72,25.57,25.57,0,0,1,5.81-4.88,17.67,17.67,0,0,1,5.82-2.23,7.88,7.88,0,0,1,2.9-.11,7.62,7.62,0,0,1,2.91,1.24c1.94,1.24,3.87,3.62,5.81,5.66s3.88,3.91,5.82,4.61a6.77,6.77,0,0,0,2.9.41,8.84,8.84,0,0,0,2.91-.7,20.3,20.3,0,0,0,5.81-4.23,53.45,53.45,0,0,1,5.81-5.14,15,15,0,0,1,2.91-1.67c1-.4,1.94-.76,2.9-1.14a58.83,58.83,0,0,1,5.82-2.08,14,14,0,0,1,5.81-.4,20,20,0,0,1,5.81,1.91,31.68,31.68,0,0,1,5.82,3.67,41,41,0,0,1,5.81,5.52,47.52,47.52,0,0,1,5.81,8.28,4.15,4.15,0,0,1,0,4,47.52,47.52,0,0,1-5.81,8.28,41,41,0,0,1-5.81,5.52,31.68,31.68,0,0,1-5.82,3.67,20,20,0,0,1-5.81,1.91,14,14,0,0,1-5.81-.4,58.83,58.83,0,0,1-5.82-2.08c-1-.38-1.93-.74-2.9-1.14a15,15,0,0,1-2.91-1.67,53.45,53.45,0,0,1-5.81-5.14,20.3,20.3,0,0,0-5.81-4.23,8.84,8.84,0,0,0-2.91-.7,6.77,6.77,0,0,0-2.9.41c-1.94.7-3.88,2.46-5.82,4.61s-3.87,4.42-5.81,5.66a7.62,7.62,0,0,1-2.91,1.24,7.88,7.88,0,0,1-2.9-.11,17.67,17.67,0,0,1-5.82-2.23,25.57,25.57,0,0,1-5.81-4.88,37.81,37.81,0,0,1-5.81-8.72A4.57,4.57,0,0,1,2200,1372.5Z"/>
    </g>
  </g>
</svg>
