<svg id="globalLightBulb" xmlns="http://www.w3.org/2000/svg" xmlns:xlink="http://www.w3.org/1999/xlink" viewBox="0 0 790 1290">
  <defs>
    <style>
      .lightbulb-cls-1, .lightbulb-cls-5 {
        fill: #494a4c;
      }
      .lightbulb-cls-1, .lightbulb-cls-2 {
        stroke: #333a4d;
        stroke-miterlimit: 10;
        stroke-width: 30px;
      }

      .lightbulb-cls-2 {
        fill: none;
      }

      .lightbulb-cls-3 {
        fill: #333a4d;
      }

      .lightbulb-cls-4 {
        fill: #ffb429;
      }
    </style>
  </defs>
  <title>Artboard 1</title>
  <g id="Layer_1" data-name="Layer 1">
    <image width="245" height="116" transform="translate(276.81 1167.11)" xlink:href="Artboard%2011.png"/>
  </g>
  <g id="Layer_2" data-name="Layer 2">
    <rect class="lightbulb-cls-1" x="316.6" y="1217.56" width="171.47" height="42.43" rx="21.21"/>
    <rect class="lightbulb-cls-1" x="224.67" y="1130.94" width="342.95" height="108.72" rx="54.36" transform="matrix(1, -0.04, 0.04, 1, -49.04, 17.53)"/>
    <rect class="lightbulb-cls-1" x="214.95" y="1079.68" width="362.39" height="108.72" rx="54.36" transform="translate(94.58 -28.73) rotate(4.72)"/>
    <path class="lightbulb-cls-2"  style="fill: var(--turn-on)"  d="M768.19,408.92a372.28,372.28,0,0,1-18.55,109.52,3.29,3.29,0,0,0-.15.6c-15,87.86-186.29,262.77-157.12,431.31.59,3.41-4.93,4.63-7.44,2.25a26.37,26.37,0,0,0-11.1-6.29,25.61,25.61,0,0,0-7.09-1h-343a25.81,25.81,0,0,0-4.92.47,26.22,26.22,0,0,0-11.69,5.42c-2.59,2.09-7.42.93-7.25-2.4C207.88,796.83,69,626.1,46.31,533.87a4.19,4.19,0,0,0-.14-.47,372.12,372.12,0,0,1-23.9-131.66c0-201.62,160-365.88,359.91-372.77C595.41,21.62,772.22,195.6,768.19,408.92Z"/>
    <g>
      <polygon class="lightbulb-cls-3" points="766.2 408.88 767.79 401.31 763.46 398.97 766.2 408.88"/>
      <path class="lightbulb-cls-3" d="M780.81,371.92l-.7-3.31-.78-3.3-1.57-6.58c-5.9,4.5-8.2,4-9.88,5.17s-2.67,3.88-6.51,14.17c.65,1.71,1.35,4,2.25,6.34s1.91,4.89,2.91,7.13c2.05,4.48,4.45,7.91,6.89,6.84-.3-2.59-1.7-5.76-2.86-9.21s-2.21-7.17-1.67-11c2,1.5,2.85,4.33,3.93,7.24s2.24,5.92,4.66,7.84a18,18,0,0,0,1-6.79,8.6,8.6,0,0,0-1.23-3.61,14.79,14.79,0,0,1-1.64-3.79,23.19,23.19,0,0,1-.55-7.39Z"/>
      <path class="lightbulb-cls-3" d="M766.77,357.55c2.33.93,4.63,1.94,6.37,1.54C770.82,358.07,767.35,352.08,766.77,357.55Z"/>
      <path class="lightbulb-cls-3" d="M764.49,349.88c-.77-8.18,4.62-.55,5.17-1.43-3.17-2.74-6.31-5.42-9.49-8C761.63,343.56,763.05,346.71,764.49,349.88Z"/>
      <path class="lightbulb-cls-3" d="M758.7,316.26c-.51-1.27-1-2.44-1.62-3.58C756.12,314.26,757.41,315.09,758.7,316.26Z"/>
      <path class="lightbulb-cls-3" d="M753.52,300.25c-1.72,4,.9,7.57,3.56,12.43a5.49,5.49,0,0,1,.37-.62c.55-2.56,2.52-3.15,4.41-2.1s3.6,3.8,3.73,7.74a10.25,10.25,0,0,1,.94,4.58,14.91,14.91,0,0,1-.55,3.09c-.46,1.84-.55,3.43,1.91,6.52,1-3.44,1.82-6.88,2.72-10.38a23.22,23.22,0,0,0-1.58-4.32A29.46,29.46,0,0,0,767,313.5a31.08,31.08,0,0,0-2.35-3.15c-.83-1-1.69-1.83-2.55-2.65C758.67,304.45,755.33,302.27,753.52,300.25Z"/>
      <path class="lightbulb-cls-3" d="M758.7,316.26a30,30,0,0,1,1.38,4.26A4.06,4.06,0,0,0,758.7,316.26Z"/>
      <polygon class="lightbulb-cls-3" points="761.58 333.16 763.52 337.11 765.76 335.68 761.58 333.16"/>
      <path class="lightbulb-cls-3" d="M744.48,273.89c2-.23,3.45.84,4.45,2.62a27.89,27.89,0,0,1,2.32,6.68c1.17,4.95,2.06,10,5.32,10.16a28.9,28.9,0,0,1-1.3-14.29c.75-3.8,2.59-6.24,5.05-5.79-1.06-1.87-2.21-3.69-3.33-5.53s-2.23-3.66-3.39-5.46c-2.17-1.39-4.13-.29-5.68,2.05A26.62,26.62,0,0,0,744.48,273.89Z"/>
      <path class="lightbulb-cls-3" d="M753.81,243.66a7.62,7.62,0,0,1-2.46-2.15C752.25,242.63,753.07,243.58,753.81,243.66Z"/>
      <path class="lightbulb-cls-3" d="M711.34,194.27c7.53,6.59,14.89,13.53,22,20.87-1.8-.58-3.1-.32-4.45-.59s-2.74-1.09-4.84-3.71a39.88,39.88,0,0,0,4,6.77,43.57,43.57,0,0,0,3.86,4.24,44.51,44.51,0,0,1,3.63,3.92,22.58,22.58,0,0,1,1.73,2.52,28.05,28.05,0,0,1,1.58,3.28c-2.61,3.09-4.73-1.1-6.82-4.89s-3.86-7.31-5.31-3.06c3.71,6.45,8.94,16.13,17.08,19.08.21,4.31.18,8.65.24,12.91q2.93-3.42,5.81-6.92c.09-2.7-2.33-4.34-4.35-5.86s-3.53-3-1.63-5.56c2.48-2.89,5.15,1.31,7.38,4.13a18.4,18.4,0,0,1-2.67-6.42c-.66-2.61-1.29-5.6-2-8.86q-.27-1.22-.54-2.49c-.22-.83-.44-1.67-.66-2.54-.47-1.71-1-3.46-1.61-5.24a48.52,48.52,0,0,0-5.12-10.48c-2.36-3.59-4.69-5.65-7-6.82a15.55,15.55,0,0,0-6.87-1.49C720.29,197,715.93,197.67,711.34,194.27Z"/>
      <polygon class="lightbulb-cls-3" points="718.07 188.4 719.66 185.05 716.87 188.55 718.07 188.4"/>
      <path class="lightbulb-cls-3" d="M690.88,168.77l6.61,4.42c2.22,1.48,4.36,3,6.55,4.59.41,1.72-.41,3.44-1,5.16,1.13-1.58,6.07,0,7-1.46,1-5-2.35-8.48-6.52-11.39s-9.43-5.09-12.52-7.8c-2.74-4.72-4-7.12-4.19-8.34s.6-1.2,1.77-.94c2.32.51,6.13,2.06,6-3.43a21.38,21.38,0,0,1,3.36,5.8,32.78,32.78,0,0,0,1.48,3c.33.59.71,1.22,1.16,1.93s1,1.51,1.57,2.39a24.11,24.11,0,0,0-3.87-10.48,37.58,37.58,0,0,0-7.3-8,75.44,75.44,0,0,0-8.32-5.83c-2.68-1.63-5.15-3-7-4.18,1.18,2.32,0,4.3,3.65,7.32-2.59-1.63-5.22-3.2-7.81-4.79a44.72,44.72,0,0,0,2.06,7.38,41,41,0,0,0,3.46,7C679.93,155.93,684.27,161.26,690.88,168.77Z"/>
      <path class="lightbulb-cls-3" d="M706.81,190.35c-3.64-4.27-4.39-6.29-3.83-7.26C702.22,185.43,702.11,187.77,706.81,190.35Z"/>
      <path class="lightbulb-cls-3" d="M672.2,131c.37,1,1.62,2,3.41,3.21A8,8,0,0,0,672.2,131Z"/>
      <path class="lightbulb-cls-3" d="M672,143.29c-2.24-2.74-4.47-5.49-6.81-8.16l.46,5.34C666.88,141.25,670.82,144.67,672,143.29Z"/>
      <path class="lightbulb-cls-3" d="M299.31,23.52c1.72,2.69,5.82,2.91,13.88.72-.08,2.05-2.77,3.43-6,4.71s-6.87,2.79-9,4.51c5.56-.13,5.77,1,5.08,2.56s-2.29,3.48-.51,5a43.93,43.93,0,0,0,7.48-2.5c2.22-.88,4.22-1.89,6.26-2.89A60,60,0,0,1,323,32.83a32.89,32.89,0,0,1,3.8-1.11,39.5,39.5,0,0,1,4.45-.58c-.45,1.22.07,2.91,1.92,4,3.65-1.2,8-2.64,12.64-4,4.71-1.16,9.77-2.3,14.85-3.26a69.49,69.49,0,0,1,7.63-1c2.52-.24,5-.42,7.39-.51s4.71-.13,6.89,0a49,49,0,0,1,6.12.83c3.61.25,7,.49,10.24.49s6.46,0,9.69-.17l10-.52c3.49-.24,7.16-.32,11.17-.45,26,3.42,52.36,8.07,78.45,16S560,61.76,583.37,77.51c3.6-.9,7.19-1.69,10.85-2.5a5.07,5.07,0,0,0,1.89,3.14,34.55,34.55,0,0,0,3.47,2.65c2.32,1.66,4.09,3.13,2,4.79-2.06-2.46-5-3.4-8.17-5.29a25.78,25.78,0,0,0,7.17,7.91,56.27,56.27,0,0,0,4.78,3.37c.85.53,1.71,1.06,2.6,1.58l2.64,1.6,5.41,3.15c1.78,1.09,3.55,2.19,5.25,3.32.86.56,1.7,1.13,2.51,1.71s1.59,1.21,2.34,1.83a41.51,41.51,0,0,1,4.12,3.89c-.43-2.07,1.84-8.85,6.08-7-3.11,3,.24,5.7,4,9a26.92,26.92,0,0,1,5.1,5.54,9.39,9.39,0,0,1,1.32,3.23,7.4,7.4,0,0,1-.32,3.63c4.48,5.76,5.85,4.47,7.38,3.16s3.21-2.67,8.24,3.11c2.36-1.25.13-4.24-2.61-7.51s-6.14-6.67-5.89-9c3.15.11,5.48,2.82,7.37,4.92s3.29,3.71,4.87,1.54c-1-1.19-2.13-2.43-3.36-3.65s-2.56-2.44-4-3.69c-2.78-2.53-6-5-9.42-7.51A219.58,219.58,0,0,0,625.53,89.7c-8.62-4.68-17.74-9.19-26.92-13.31s-18.29-8-26.89-11.74l5.73-2.32a297.34,297.34,0,0,1-31.88-13.11c-10.92-5.26-21.19-11-27.37-17.12.51,1.36-.9,1.33-3.3.7-1.2-.32-2.65-.79-4.23-1.31s-3.33-1-5.08-1.51a48.12,48.12,0,0,0-5.19-1.25,21.18,21.18,0,0,0-4.6-.34c-2.7.16-4.49,1.22-4.44,3.9a18.81,18.81,0,0,0-5.2-3.34c-1.73-.71-3.73-1.41-7-2.56l-2.55,2.79a17.91,17.91,0,0,1-5.31-2,21.17,21.17,0,0,1-3.21-2.36c-2-1.59-4.15-3.31-9.8-4,6.56,5.56-1.82,5.5-5.53,8.6-3-1.73-6.1-3.3-9.3-4.93s-6.52-3.05-9.81-4.53-6.58-2.75-9.76-4.08l-9.16-3.64c.85,1.46,1.85,3.14,5.69,5.28-7.79-2-6.65,2.29-8.77,3.69-7.47,0-6.59-5.71-6.15-8.58a22.15,22.15,0,0,0-9.28.51,31.49,31.49,0,0,0-3.88,1.28c-1.23.5-2.41,1.06-3.55,1.59a35.7,35.7,0,0,1-6.68,2.61,12.94,12.94,0,0,1-7.2,0l3.88,4.31a62.78,62.78,0,0,1-10.26.5c-1.68-.05-3.35-.14-5-.25s-3.34-.1-5-.16c-3.38-.09-6.81-.17-10.37,0-.88,0-1.78.09-2.69.16l-1.36.11-1.37.21c-1.83.31-3.7.69-5.61,1.19-4.22-2.48-1.26-4.32,3.61-6,2.43-.9,5.35-1.5,8-2.21a33.13,33.13,0,0,0,6.76-2.26c-3.37-.95-10.3-.53-12.75-2.35-3.22,2.1-7.49,4.7-11.89,7.29-2.2,1.3-4.44,2.55-6.59,3.85l-6.11,3.79c3.18-4.38-.09-5.44-4.94-5.31a66.19,66.19,0,0,0-7.74.83C302.92,22.76,300.67,23.28,299.31,23.52Z"/>
      <path class="lightbulb-cls-3" d="M342.7,11.81a37.76,37.76,0,0,0,4.31-3A13.56,13.56,0,0,1,341.69,10,1.78,1.78,0,0,0,342.7,11.81Z"/>
      <path class="lightbulb-cls-3" d="M299.31,23.52c-.11-.22-.41-.35-.5-.6C297.37,23.72,297.93,23.75,299.31,23.52Z"/>
      <path class="lightbulb-cls-3" d="M390.71,27.52c-.59-.16-1.37-.21-2-.34-.89-.09-1.64,0-2.52-.15Z"/>
      <path class="lightbulb-cls-3" d="M402.58,6.89a131.9,131.9,0,0,0,12.12,5.32C413.47,10.05,412.41,8.4,402.58,6.89Z"/>
      <path class="lightbulb-cls-3" d="M499,26.06c3.12,0,1.82-1.76,4.28-2.59C497.31,21.61,494.91,22.5,499,26.06Z"/>
      <path class="lightbulb-cls-3" d="M325,13.45C323,14,321,14.7,319,15.33l-5.88,2L309,19.39l7.95-3,4-1.5,2-.76C323.61,13.88,324.29,13.68,325,13.45Z"/>
      <path class="lightbulb-cls-3" d="M126.09,146.67a24.15,24.15,0,0,0,3.94-1.82,32.78,32.78,0,0,0,3.82-2.39A61.78,61.78,0,0,0,141,136.2c2.28-2.35,4.74-4.63,7.14-6.92a94.57,94.57,0,0,1,7.34-6.35c7.89-8.38,6.67-11.13,5.42-13.61-.61-1.24-1.21-2.4-.6-4.17a10.61,10.61,0,0,1,2-3.2,40.32,40.32,0,0,1,4.91-4.39q1.8,5.61,3.7,11.16c2.14-1.69,4.43-3.42,6.8-5.21s4.8-3.67,7.43-5.37,5.23-3.56,7.85-5.4l3.93-2.8c1.34-.88,2.68-1.78,4-2.68,5.3-3.6,10.28-7.56,15-11.28a76.9,76.9,0,0,0,6.43-6c1-1,1.9-2.11,2.81-3.12s1.76-2,2.55-3.12c2.15.49,6.36.32,1.92,4.25,13-6.71,0-18,20.18-22.53-7.38,6.89-5.23,7.77-1.65,8s8.68-.11,7.66,4.08l-2.33,1.87c1.39-.69,2.82-1.45,4.27-2.25s3-1.53,4.5-2.35c3.05-1.59,6.13-3.28,9.12-4.89a87.63,87.63,0,0,1,8.6-4.15,50.63,50.63,0,0,1,7.1-2.55c-.46-2.85-8.77-4.88,1.88-8.58-4.5.81-3.7-2.84-4.11-5.74a80,80,0,0,1-13.15,6.52l-1.34.59-1.28.65c-.83.44-1.63.9-2.4,1.39a20.34,20.34,0,0,0-4.32,3.64c-7.47-1.22,3.76-2.66-3.74-3.87l-3.84,3.28c-.63.55-1.28,1.08-1.9,1.65L251,44.55c-3.36.94-2.07-.64-1.21-2s1.29-2.56-3.91-.77c-.15,1.25-2,3.29-4.87,5.37a44.9,44.9,0,0,1-4.86,3.07,44.29,44.29,0,0,1-5.63,2.85l1.66-2.23c-5.24,4.16-14.33,6.46-8.68,10.68L221.09,61l-2.38-.47-4.8-.91,3.14,3.11a55.82,55.82,0,0,1-11.41,3.39c-1.81.32-3.54.69-5.26,1s-3.43.73-5.16,1.17a42.75,42.75,0,0,0-10.66,4,52.66,52.66,0,0,0-11.47,9.43c5.35-2,2.41,2.66.46,5a13.79,13.79,0,0,0,8.48-6.4c.85-1.32,1.64-2.73,2.67-4.15A20,20,0,0,1,186.48,74a17.44,17.44,0,0,1,2.43-2c1.71,1.45-.12,5.18-.83,8.28s-.59,5.23,4.57,3.3c-6.26,1.17-10.86,4.45-15.12,6.67-1.08.54-2.09,1.08-3.11,1.51a13.06,13.06,0,0,1-3.13.88,11.43,11.43,0,0,1-7-1.38c-1.51,1-2.86,2-4.08,3a32.49,32.49,0,0,0-3.3,3c-2,2-3.59,4-5.26,6a58.24,58.24,0,0,1-5.47,5.73,50.84,50.84,0,0,1-7.6,5.9l-.71-1.45c1.3,3.51-1.44,4.9-5,7-.43.28-.88.55-1.35.84s-.88.64-1.33,1a21.5,21.5,0,0,0-2.58,2.42,15.67,15.67,0,0,0-3.67,7.37l6.59-4.32c1.73,2.33-.83,5-4.17,9-.36-1.17-.36-1.17-2.55-.95a3.69,3.69,0,0,1,.35,2,12.67,12.67,0,0,1-.59,2.58,34.26,34.26,0,0,1-2.84,5.94c-2.31,4-5,7.73-5.09,9,2.63-2.2,4.56-5.51,6.43-9.15.92-1.83,1.87-3.7,2.81-5.58a48.69,48.69,0,0,1,3.3-5.23c-.4,2.48.39,4.24.6,5.89a4.41,4.41,0,0,1-.33,2.48A7.89,7.89,0,0,1,126.09,146.67Z"/>
      <path class="lightbulb-cls-3" d="M235.45,46.58c-1.12,1.37-2.19,2.84-3.27,4.25A8.73,8.73,0,0,0,235.45,46.58Z"/>
      <path class="lightbulb-cls-3" d="M79.16,191.28a13.37,13.37,0,0,1-1.88,1.81,2,2,0,0,1-1.13.54c-.59,0-.9-.58-1.23-1.21-.65-1.26-1.37-2.67-4.62.41-1,5,1.94,3.6,5.06,2.41s6.41-2.22,6.21,3c-2.74,1.52-4.21,4.91-5.2,8.28-.5,1.69-.88,3.37-1.24,4.83A19.13,19.13,0,0,1,74,214.9c-.59-5-7.51-6.42-9.5-5.64-.06,2-1.78,4.34-3.89,6.83l-3.3,3.84c-.54.65-1.07,1.3-1.56,2a20.12,20.12,0,0,0-1.25,2c.65-.71,1.2-1.3,1.69-1.74a12.2,12.2,0,0,1,1.24-1c.67-.44,1-.48,1.18-.24.34.48-.22,2-.64,3.65-.88,3.27-1.77,6.67,3.24,1.79,1.52,1.35,1.4,5.44.26,9.6a27.07,27.07,0,0,1-2.41,6,14.39,14.39,0,0,1-3.36,4.34c-1.22-.78-1.24-2.15-.78-3.75a46.78,46.78,0,0,1,2.32-5.08c-1.77-2.53-3.47-.77-5.42,1.63-1,1.18-1.91,2.59-3,3.65a5.09,5.09,0,0,1-3.59,1.82,35.62,35.62,0,0,1-.39,7c-.18,1.32-.42,2.7-.68,4.12s-.47,2.93-.75,4.43c-.53,3-1.13,6.16-1.73,9.23-.29,1.54-.58,3.07-.87,4.56s-.42,3-.61,4.44c-.68,5.76-.94,10.72-.06,13.71a3.87,3.87,0,0,0,2.3,2.87c1.1.37,2.53.09,4.48-.92,3.7-3.69,2.1-8.33,3.22-13.3-3.35,6.31-4.9,5.86-5.79,3.54s-1.14-6.5-2-7.45a20.6,20.6,0,0,0,2.36-4.64c.63-1.7,1.14-3.46,1.61-4.94,1-3,1.81-4.83,3.39-2.9L50.54,275c1.66-3.49,3.32-7.15,5-11,.79-1.92,1.75-3.81,2.69-5.74L61,252.47l2.81-6,3.1-6.06c1-2,2.06-4.1,3.11-6.16.51-1,1-2.08,1.55-3.13s1.12-2,1.67-3.07c2.26-4.1,4.5-8.25,6.73-12.41l7.16-12.18,1.78-3,1.88-2.94,3.73-5.86q1.83-2.93,3.65-5.79l3.81-5.53c-1.57,2-3.19,4-4.71,6l-4.46,6.23c-1.68-3.33,2.22-9.54,4.53-14.93l-5.53.64c-1.84.23-3.72.44-5.52.74.76-.87,1.48-1.73,2.13-2.55s1.23-1.59,1.78-2.19c1.08-1.21,2-1.75,3-.73.67-6.47-2.47-5.74-6.72-4.69a56.72,56.72,0,0,1,4.17-6.13c1.25-1.6,2.3-2.89,3.32-4.09,2-2.45,3.39-4.92,4.41-10.2a32.9,32.9,0,0,0-9,7.57,25.07,25.07,0,0,0-3.34,6.87,32,32,0,0,1-3.49,7.37,52.17,52.17,0,0,1-8.9,9.82Q76.4,185.73,79.16,191.28Z"/>
      <polygon class="lightbulb-cls-3" points="101.67 154.13 101.71 160.35 104.89 153.5 101.67 154.13"/>
      <path class="lightbulb-cls-3" d="M110.5,171.05c-1.51-.93-.32-3.59-1.83-4.53a20.39,20.39,0,0,0-3.35,3.63c-.56.92-.65,1.53-.37,1.86C105.53,172.68,107.53,172.16,110.5,171.05Z"/>
      <path class="lightbulb-cls-3" d="M40,255.69l-3,11.65,4.24-6.66C39.54,260.2,39.86,257.23,40,255.69Z"/>
      <path class="lightbulb-cls-3" d="M37.54,339.7c.5-3.9.65-7.29.85-10.44s.52-6,.91-8.94c.19-1.47.42-2.94.73-4.46.15-.75.32-1.52.51-2.3a22.73,22.73,0,0,1,.7-2.38,70.58,70.58,0,0,1,4.81-10.69c-1.36-4.94-4-4.71-6.73-3.77s-5.62,2.55-7.39,0c-1.79,4.27-.46,6.73,1.21,9.26a26.4,26.4,0,0,1,2.41,4.12,12.83,12.83,0,0,1,1.06,5.77c-2.56,1.15-3.07,4.54-3.3,8.66s.06,9-1.24,13.25A4.22,4.22,0,0,1,37.54,339.7Z"/>
      <path class="lightbulb-cls-3" d="M15.05,393a34.2,34.2,0,0,0,.35,5.63c.12.93.26,1.85.4,2.76s.34,1.82.51,2.71c.64,3.56,1,6.9.05,9.89-1.44-.37-2.45-1.67-3-3.46a14.7,14.7,0,0,1-.3-6.34c-3.2,1.5-2.92,3.62-2.37,6.36s1.48,6.1-.47,10.3c.64-.75,1.65-3.75,3.1-1.52-.22,10.19,1.42,12.95,2.74,16.43a27.65,27.65,0,0,1,1.76,6.82c.11.79.2,1.65.27,2.61s.17,2,.23,3.15c.14,2.31.13,5.06.19,8.37,2.27,3.5,2.83,7.18,7,5.86a78.15,78.15,0,0,1-1.85,8.07c-.5,1.78-.94,2.9-1.35,4.1a27,27,0,0,0-1.11,4.68c-.29,2.15-.55,5.18-.71,9.86,2.26-1.26,6.62-8.26,11.87-9.21a61.58,61.58,0,0,0,.34,15,42.58,42.58,0,0,0,2.53,9c1.94,4.91,3.77,8.57,3.61,17-.87-1.6-2.79-3.22-3.42-7.57-6.56,4.21,5.41,12.58,7.08,21.05-2.12.41-4.12,1.14-6.24,1.54.07.13.18.38.18.3l.17.25.34.57-.06-.23v0l0,0,0,.1.09.19.18.39.36.79.77,1.64c.52,1.12,1.07,2.28,1.63,3.49.28.59.54,1.22.84,1.82l.9,1.83c.6,1.23,1.17,2.49,1.71,3.77s1,2.59,1.49,3.9a39.33,39.33,0,0,1,1.26,3.9,28.44,28.44,0,0,1,.94,8c-1.29-.34-2.59-.67-3.86-1.05,6.29,9.1,11.49,19.32,16.59,29.11,2.51,4.91,5,9.68,7.47,14.21s5,8.69,7.53,12.36l.88,10.34c7.85,9.73,5.51,4.08,3.34-2.57S74.84,615,83.17,620.7c-4.6,3.89-2.29,6.26,1.45,9.45s8.93,7.17,10.11,14.41c-1.06,8-8.72-11.31-10.07-2.37,6.76-.09,5,5.75,10,11.45-5.78,1.26,6.55,14-1.24,13l21.46,18.06c-.91,5.2,3.05,11.63,6.31,16.2-6.4-12.51,9.33-.46,4.37-15.68-6.53-9.58-14.74-22.57-22.65-36.52S87.43,619.82,82.35,606.4a5.54,5.54,0,0,1-4.94-2.28,25.38,25.38,0,0,1-3.22-5.84,41.9,41.9,0,0,0-3.08-6.22,7,7,0,0,0-4.49-3.48c2-1.67,3-4.52,5-6.19-1.18-2-2.06-3.38-2.73-4.33a4.53,4.53,0,0,0-1.52-1.55c-.69-.26-.82.86-.8,2.39,0,3.08.79,7.78-1.47,6.35A16.34,16.34,0,0,1,62.85,580a15.78,15.78,0,0,1-.38-4.82c.24-2.89,1.38-4.94,2.83-5.17-4.64-12.2-2.51-.48-9-5.06,1.51-3.74,3.2-7.46,4.9-11.09-.73-1.63-1.53-3.27-2.25-5s-1.4-3.4-2.12-5.13l-1.1-2.63c-.37-.88-.65-1.78-1-2.68-.67-1.85-1.34-3.74-2-5.64-.24-.72-.49-1.37-.8-2.12l-.73-1.62c-.47-1.06-1-2.12-1.43-3.19-1-2.13-1.88-4.32-2.82-6.52-.46-1.1-.92-2.21-1.39-3.32l-1.32-3.37c-.89-2.26-1.78-4.54-2.6-6.87A268.12,268.12,0,0,1,32.9,477c-4.74-19.72-6.94-40.29-5.76-59.45-1.76,1.25-3.47,2.51-5.19,3.8,1-10.72-2.13-19.55-3.72-28.32-.42-2.19-.78-4.36-1-6.54-.11-1.08-.17-2.17-.18-3.26a24,24,0,0,1,.24-3.27,28.71,28.71,0,0,1,5.37-13.25c-1.42-2.29-2.66-4.59-3.92-6.92,1.09,1.9,3.22,1.18,5.43.76s4.52-.56,6,2.35a26.54,26.54,0,0,1,.31-8.79c.22-1.47.45-2.94.56-4.43a28.45,28.45,0,0,0,0-4.52c-.76,1.65-1.33,3.34-2,5l-1.91,5.07a15.63,15.63,0,0,1-1.43-5.84,12.64,12.64,0,0,1,.8-5.24c1.19-3.15,3.33-5.5,5.51-6.37-1.32-8.23-4-6.43-7-2-1.5,2.19-3.09,5-4.62,7.47-.38.61-.76,1.21-1.13,1.76s-.69,1.08-1,1.55a7.4,7.4,0,0,1-1.94,2c1.76,6,1.87,10.31,1.05,13.81-.1.44-.21.87-.34,1.28s-.23.82-.37,1.21a20,20,0,0,1-.93,2.27,37.84,37.84,0,0,1-2.44,4.17,46.67,46.67,0,0,0-5.11,8.85A19,19,0,0,0,6.82,386a31.42,31.42,0,0,0,.36,7.45c1.4,6.95,2.67,6.56,3.93,4.61S13.64,392.58,15.05,393Z"/>
      <path class="lightbulb-cls-3" d="M31.27,366.26a17.19,17.19,0,0,0-1.09-3.32A10.12,10.12,0,0,0,31.27,366.26Z"/>
      <path class="lightbulb-cls-3" d="M121.19,700.89a60,60,0,0,0,3.13,5.4C126.5,707.55,124.11,705,121.19,700.89Z"/>
      <path class="lightbulb-cls-3" d="M32.07,337.8a.08.08,0,0,0-.08,0s0,.09,0,.17Z"/>
      <path class="lightbulb-cls-3" d="M21.06,324.77l-.38,1.48-.31,1.5-.61,3,2.6-.58C21.91,328.37,21.4,326.56,21.06,324.77Z"/>
      <path class="lightbulb-cls-3" d="M142.58,759.92l2.58-1.11A2.35,2.35,0,0,0,142.58,759.92Z"/>
      <path class="lightbulb-cls-3" d="M187.38,918.84l-.17-3.54A6.12,6.12,0,0,0,187.38,918.84Z"/>
      <path class="lightbulb-cls-3" d="M576.35,954.62c3.38.23,6.29.32,8.52,1a13.06,13.06,0,0,1,3,1.36,5,5,0,0,0,4-.52,5,5,0,0,0,1.79-1.59,3.34,3.34,0,0,0,.53-2.42,51,51,0,0,0-1.26-5.05,50.23,50.23,0,0,0-1.74-4.87c-.68-1.63-1.36-3.14-2.09-4.51l1.55,1.43,1.48,1.42c-.47-1.73-1.3-4.4-2.26-7.12a55.12,55.12,0,0,0-2.3-5.86,15.5,15.5,0,0,0-2.5-4,2.69,2.69,0,0,0-2.61-1,5.42,5.42,0,0,0-2.67,2.13,34.52,34.52,0,0,1,2.67,2.63,24,24,0,0,1,1.13,2.95c.6,2,.6,3.2.18,3.77s-1.21.57-2.13.35-1.93-.65-2.82-.9a4.33,4.33,0,0,0-1.17-.21,1.06,1.06,0,0,0-.45.08,2.36,2.36,0,0,0-.38.26,5.38,5.38,0,0,1-.62,2.22,9.63,9.63,0,0,0-.56,1.34,3.23,3.23,0,0,1-1.3,1.95,9.48,9.48,0,0,1-4.15,1.54,22.48,22.48,0,0,1-3.13.3h-.86l-1-.06A16.74,16.74,0,0,1,563,941c-5.14.35-4.34-2.52-2.83-4.65-11.79-.78-16.4,7.38-24.49,8.42-3.25-21.35-36.22,5.87-53.65-7.75-11,1.71-25.79-.14-39.85,4.07,7.48-5.32-13.24-.45-10.16-6.46-4,12.42-40.44-5.58-42.95,10.11-19.06-4.4-.77,1-22.79-2.65.05-1.75,3.73-1.75,5.19-2.07-8.72-3.25-13.39,6.68-20.61-.45-17.63-1.18-3,4.21-13.45,8.43-18.35-1.86-13.18-4-23.33-10.44-1.65,7.47-12.57,3.88-21.54,7.74,2.23.36,14.72,1.83,6.53,4.65-21.31-1.18-17,4.92-37,6.93-10.09-8.23,19.9-.23,2.37-6.76,12.63-3.82,22.2-3.44,29-9.45A279,279,0,0,0,237.31,945c-10.28-1.12,5.24-3.89-2.83-4.67a36.78,36.78,0,0,0-6.29-.68c-1,0-2,0-2.91.07-.47,0-.94.07-1.4.12a7.49,7.49,0,0,0-1.22.19,20.87,20.87,0,0,0-6.77,3.24,55.23,55.23,0,0,0-7.08,5.87c-.59.55-1.14,1.16-1.77,1.67a7.94,7.94,0,0,1-2,1.13,7.14,7.14,0,0,1-1.07.3,5,5,0,0,1-1,0,4.25,4.25,0,0,1-1.87-.52,2.73,2.73,0,0,1-1.27-1.39,4.76,4.76,0,0,1-.15-2c0-.7.11-1.42.2-2.18.05-.38.1-.76.16-1.15s.16-.83.25-1.25a19.17,19.17,0,0,0,4.15-1.56c-1.36-.28-1.92-2.58-2-5.81,0-.81,0-1.67,0-2.58s0-1.88,0-2.87c0-2,.07-4.08.15-6.2.05-1,.09-2.12.14-3.19,0-.53,0-1.07.07-1.6s0-1.19,0-1.78c0-2.39-.13-4.8-.28-7.19-.07-1.2-.16-2.39-.27-3.56a30.35,30.35,0,0,0-.47-3.48,51.82,51.82,0,0,0-1.64-6.55c-1.83,2.47-3.07,4-4.76,2,2.66-.28,3.44-1.85,3.21-4.32a21,21,0,0,0-1-4.32c-.6-1.62-1.35-3.4-2.15-5.3-3.07-7.66-7.38-16.94-5.71-26-3.12,1.45-6.63-1.5-9.74-5.93-.78-1.11-1.53-2.31-2.25-3.57s-1.5-2.54-2.18-3.85a70.39,70.39,0,0,1-3.43-7.63c.78-4,3.61-4.08,5.34-4.56.5,8.57,3.43,11.87,7.08,14.63s7.88,4.94,11.11,11.12a42.79,42.79,0,0,1-3.91-8.86c-.55-1.65-1-3.37-1.58-5.09s-1.1-3.46-1.66-5.18a88,88,0,0,0-3.6-9.86,26.33,26.33,0,0,0-4.94-7.51l6.24,2a18.79,18.79,0,0,0-4.2-8,30.92,30.92,0,0,0-5.34-4.17,14.87,14.87,0,0,1-4.62-4.5,13.25,13.25,0,0,1-1.52-3.67,25.43,25.43,0,0,1-.85-5.3l4.19.1c-6-15.13-11.55-32-18.06-47.65A187.55,187.55,0,0,0,145,730a84.11,84.11,0,0,0-13.13-17.52c-3.9-.54-4.76,14.49-6.72,16.19a91.06,91.06,0,0,0,6.88,8.27c2.24,2.44,4.44,4.63,6.61,6.71s4.3,4.06,6.32,6.14a80.6,80.6,0,0,1,5.85,6.64l-5.63,2.38c5,.64,12.94,12.69,12.79,4.14,3.38,3.8,2.89,6,2.5,8.39a9.12,9.12,0,0,0,0,3.86,13.23,13.23,0,0,0,3.06,5.43c-6.25,1.61-9.38-4.17-14.35-2.14,2.23,2.5,4.38,5,6.58,7.57-3.45-1.83.19,6.08-3.23,4.34a29,29,0,0,1,6.93,9.64,35.78,35.78,0,0,1,2.52,9.3c.88,6.28,1.44,12.68,5.83,20.72l-1.05-4.95c-.34-1.65-.69-3.3-1.1-4.93,1.67-.55,3,.55,4,2.3s2.05,4.1,3.22,6a14.77,14.77,0,0,0-1.89,7.93c0,2.62.53,5.65.79,10.37a36.91,36.91,0,0,0,4.06,4.51c1.38,1.38,2.82,2.69,4.2,4.12a28.46,28.46,0,0,1,3.83,4.84,21.66,21.66,0,0,1,1.57,3,24.55,24.55,0,0,1,1.09,3.65c-3.53-.36-3.45,4.24-3.12,9.28a43.6,43.6,0,0,1,.05,7.39c-.23,2.2-.8,4-2.12,4.68,1.76.27,3,1.65,4,3.59a28.59,28.59,0,0,1,1.93,7c.46,2.5.83,5,1.34,6.91s1,3.31,2,3.59a23.94,23.94,0,0,1,1.16,8.89c-.17,2.38-1.29,5.61-3,5.75-.11-.57-.35-1.45-.59-2.51l-.09-.41a1.73,1.73,0,0,0-.1-.37c-.08-.19-.15-.39-.22-.6a12.51,12.51,0,0,1-.39-1.27l.06,1.41c0,.25,0,.43,0,.74l0,1-.06,4.21c-.79-.66-1.36-.26-1.51-1.26,0,3.92,1.19,5.57,2,7.44a7.93,7.93,0,0,1,.74,3.4,14.58,14.58,0,0,1-.23,2.59c-.09.51-.2,1.06-.34,1.67a16.5,16.5,0,0,0-.4,1.9,1,1,0,0,1-.65.11.71.71,0,0,1-.53-.38,6.86,6.86,0,0,1-.64-2.07c-.33-1.8-.54-4.24-.9-6.4a58.34,58.34,0,0,0,.19,7.68c.06.59.12,1.19.2,1.76l.59,1.39c.4.91.82,1.78,1.24,2.63,1.7,3.37,3.43,6.23,4.8,8.94l.5,1,.24.5.32.37a7.44,7.44,0,0,0,2,1.5,12.19,12.19,0,0,0,5,1.35,7.25,7.25,0,0,0,2-.18,7.53,7.53,0,0,1,1.53-.3,6.53,6.53,0,0,1,3.44.9c1.13-1.11,3.33-2.16,6.23-3.5,1.44-.67,3-1.42,4.61-2.26a45.2,45.2,0,0,0,4.43-2.69,6,6,0,0,1,.85-.46l.39-.15.23-.14c.41-.19.79-.38,1.15-.58a6.91,6.91,0,0,0,1.77-1.39,3.37,3.37,0,0,0,.33-4c4.36,2.5,2.68,8.19,14.51,7.18,6.79-6,13.19,2.23,22.18-1.64-11.93,6.3-.05,1.74-10.49,7.78,8,2.51,20-5.61,34-4.47,1.44,1.42,1.39,3.22,2.84,4.64,5.2-2.12,11.2-7,16.25-2l-.63-4.26c9.5,2.18,22.79.83,33,5.51l11.95-8.13c16,8.61,37.56.92,50.23-6.5,5.89.37,14.67,1.83,14.65,3.63-1.36.64-3.68,1.89-6.37,3,8.63.32,19.18,5,24.06-1.83,8.86-2.05,6.49,4.67,13.09,5.78,17.92-9.53,52.92,7,58.35-7.52-7.32,0-21.25-3-35.26-2.32,3.7-1.77.8-4.62,6-4.94,14-.66,21.23,4.72,35.26,2.3L509,951c12,4.69,23.53,1.54,34.36-1.12,5.42-1.33,10.68-2.54,15.75-2.58a28,28,0,0,1,3.78.2c.62.07,1.24.17,1.86.29s1.19.26,1.92.44a9.69,9.69,0,0,1,2.16,1.05c.74.45,1.52.94,2.33,1.49C572.77,951.9,574.51,953.19,576.35,954.62Z"/>
      <path class="lightbulb-cls-3" d="M394.08,951.51l10.2,4.68-1.07-4A14.21,14.21,0,0,1,394.08,951.51Z"/>
      <path class="lightbulb-cls-3" d="M403.21,952.2a30.28,30.28,0,0,0,5.94-1.89,14.59,14.59,0,0,0-6.23.89Z"/>
      <path class="lightbulb-cls-3" d="M595.21,935.1a47.29,47.29,0,0,0,0-5.57c0-.59-.08-1.21-.15-1.84s-.09-1.29-.17-2a36.35,36.35,0,0,0-.69-4,22,22,0,0,0-.57,6.72A18.07,18.07,0,0,0,595.21,935.1Z"/>
      <path class="lightbulb-cls-3" d="M591.31,920.92c-.4,1.85-.79,3.6-1.2,5.25l1.15,1Z"/>
      <path class="lightbulb-cls-3" d="M683.28,641.52l3.44-16.93c3.92-1,10.23-18.71,11.48-11.07-.47-5.88,3.33-12.54,5.66-17.51s3.23-8.21-2.88-7.18c-10.07,21.38-25.3,45.5-40.07,71.22s-29.07,53.23-37.29,80.55c.13-3.27.27-6.55.46-9.82-3,14.85-9,23.07-13.84,31.24A58.18,58.18,0,0,0,607,768.2a35.33,35.33,0,0,0-2.33,6.7,37.75,37.75,0,0,0,.21,17.1q-3.12-2.85-6.19-5.73a24,24,0,0,0-2.81,9.67c-.3,3.41-.25,6.89-.3,10.33a39.09,39.09,0,0,1-1.18,10.06,19.54,19.54,0,0,1-2,4.71,20.4,20.4,0,0,1-3.5,4.45l3.46-.45a15.46,15.46,0,0,1-1.92,4.13,15.76,15.76,0,0,0-1.87,4.2l1.76-1.1c.58,10.34-1.11,16-5.08,25.23-2.57.2-.22-4.71-.21-7.82a6.65,6.65,0,0,0-1.44,3.72,28.28,28.28,0,0,0,.16,5c.32,3.57,1.07,7.57.44,11.3-1.5,2.8-2.37,2.67-3,1.69s-1-2.78-1.44-3.27c0,11.67-1.86,19.89-2.51,27.49a35.18,35.18,0,0,0,.63,11.08A29.44,29.44,0,0,0,583.38,918c1.07.74,2-.76,2.88-1.4s1.51-.44,2.19,3.6c.33-1.86.68-3.66.85-5.41s.23-3.47.29-5.16a73.53,73.53,0,0,0-.59-9.9c-.2-1.63-.45-3.26-.73-4.89s-.51-3.27-.79-4.92c-.61-3.31-1.08-6.66-1.51-10.13l-.4,3.74c-5.1-6-4.13-8-2.32-10.71a22.07,22.07,0,0,0,2.85-5.11c.81-2.28,1.21-5.33.84-9.83a14.1,14.1,0,0,1,1.93,4.29,31.65,31.65,0,0,1,.91,4.47c.21,1.45.36,2.84.58,4.08a9.21,9.21,0,0,0,1.09,3.13,40.18,40.18,0,0,0,3.21-6.45,33.1,33.1,0,0,0,1.57-5.79,35.54,35.54,0,0,0,.49-5.3c0-1.69,0-3.32,0-4.9a26.55,26.55,0,0,1,1-8.91c.9-2.79,2.79-5.39,6.26-7.79l0,1.47c1.75-2.5,1.13-8,1.38-12.55-1.84,1-3.7,5-5.55,7.57.2-4.61-4-8.23-5.53-10.31,3.15-1.75,3.05-3.54,2.78-5.81s-.65-5,1.8-8.49c5.3-1.27,1.87,7.78,3.39,11.4-.09-3.41,0-6.79,0-10.22,2.6-8.57,7.62-6.66,11.46-9.88-.73-8.26-3.85,3.25-6.42-4.16,4.33-3.49,9.74-14.79,15-27.48,2.61-6.36,5.22-13.06,7.43-19.41A178.39,178.39,0,0,0,635,729.72c-2.37,6.28,3.38,4.31-.84,11.21,2.21-2.15,4.66-12.51,1.55-14.19C638.93,713.3,649,699.26,657.93,690l-4.88,1.43c-.09-6,4.13-11.33,9.15-17.26s10.84-12.53,14-21.4l-.27.29c2.35-5.53-2.57-14.33,4.5-22.82C682.57,635,679.29,639.87,683.28,641.52Z"/>
      <path class="lightbulb-cls-3" d="M708.43,581.4l1.46,7.59c4.18-5.24,2.41-15.41-1.11-15.67-1.12,4.34-5.78,8.29-3.66,10.34C706.09,583.37,707.6,584.3,708.43,581.4Z"/>
      <path class="lightbulb-cls-3" d="M746.89,469.18c-.71-2.5-2.65-2.21-3.85-3.43-1.23,7.8-2.71,16.18-4.52,24.21-.89,4-1.89,8-2.93,11.68-.54,1.86-1.05,3.68-1.61,5.43l-1.83,5.48a7,7,0,0,0-.36,1.34c-.12.44-.23.88-.35,1.32s-.22.78-.37,1.53l-.14.58c-.2.76-.37,1.49-.6,2.22a39.16,39.16,0,0,1-1.47,4.07,21.91,21.91,0,0,1-3.42,5.86,8.81,8.81,0,0,0-1.28,4.69,16.81,16.81,0,0,0,.74,4.54c.78,3.16,1.78,6.81.42,12-2.2.77-4.38,1.51-6.56,2.23.12,1.63-.6,3.69-1.55,5.84s-2.22,4.37-3.2,6.32c-1.92,3.91-2.65,6.79,2.46,5.88.93-.26-1.1-6.29,2.36-10.06l2.19,2q2.12-5.37,4-10.74l1.67,4.8a19.54,19.54,0,0,0,3-4.15,9.48,9.48,0,0,0,1-3.5,13.82,13.82,0,0,0-1.28-6.06,19,19,0,0,1-1.55-6.61c0-2.55.66-5.55,2.76-9.48l6.79,2.18c.42-1.29.77-2.52,1.09-3.7s.52-2.29.75-3.36.35-2.1.51-3.09c0-.24.07-.49.11-.73l.1-.62.11-.56.24-1.11a7.75,7.75,0,0,1,.27-1.08l.66-2.13c.2-.63.41-1.24.63-1.86.45-1.22.93-2.44,1.48-3.67a44.81,44.81,0,0,1,4.59-7.7s-3.43-1.06-2.65,1.45c-.91,2-4.49,3.76-6.09,1.78,0-10,.73-9,2.4-7s4.16,5,7.32-1.24a316,316,0,0,1,1.18-31.92c1-11,2.47-21,5.75-25.25-2.54,3.66-4.65,2.45-5.95-.71A29,29,0,0,1,748.5,424c2.78-4,4.06,3.13,6.09,4.81.51-2.12,1.27-4,1.81-5.95a12.86,12.86,0,0,0,.35-6c-2.1,2.71-4.43,3-6.48,1.5a10.46,10.46,0,0,1-2.82-3.67,25.23,25.23,0,0,1-2.13-6.16c-2.43,10.6-.88,20.11.74,30S749.32,458.48,746.89,469.18Z"/>
      <path class="lightbulb-cls-3" d="M742.1,461.8c-.15,2.2.3,3.29.94,3.95.22-1.45.45-2.9.67-4.32s.41-2.83.61-4.19Z"/>
    </g>
    <rect class="lightbulb-cls-1" x="199.04" y="1017.81" width="392.44" height="108.72" rx="54.36" transform="translate(-44.32 17.4) rotate(-2.39)"/>
    <g>
      <path class="lightbulb-cls-4" d="M424.58,794.8l.05.73C424.72,795.47,424.73,795.26,424.58,794.8Z"/>
      <path class="lightbulb-cls-4" d="M426,794.15s0,0,0-.06S425.94,794.11,426,794.15Z"/>
      <path class="lightbulb-cls-4" d="M348.46,852.57a1.25,1.25,0,0,0-.59-.57C348,852.39,348.25,852.55,348.46,852.57Z"/>
      <path class="lightbulb-cls-4" d="M386.15,888.25a2.74,2.74,0,0,0-.39.1A.48.48,0,0,0,386.15,888.25Z"/>
      <path class="lightbulb-cls-4" d="M425.12,803.38c0-.11.07-.23.11-.33C424.89,803,424.91,803.29,425.12,803.38Z"/>
      <path class="lightbulb-cls-4" d="M348.06,840.74a1.43,1.43,0,0,0-.38,0A1.89,1.89,0,0,0,348.06,840.74Z"/>
      <path class="lightbulb-cls-4" d="M417.57,829.53a1,1,0,0,1,.13.32A.36.36,0,0,0,417.57,829.53Z"/>
      <path class="lightbulb-cls-4" d="M362.13,906.51a1,1,0,0,0,.55.12A.48.48,0,0,0,362.13,906.51Z"/>
      <path class="lightbulb-cls-4" d="M365.82,905.22c-1.93-1.84-1.91,1.3-3.14,1.41.54.5.85,1.87,1.44.92-1.73,2.12,2.72,3.1,1.55,5.14.25,0,.64-1.1,1.57-.45.82,1.23-.24,1.6-.43,2.35.79.11,2.23,1.94,1.83,1.88.95.63,1.65-2,3.16-1.2,1.86.1,1.18,1.82,2.1,2.58-.37,1.69-1.32-.79-2-1,.77,1,1.59,2,2.41,2.95-.17,1.38-1.63.33-2-.75a2.65,2.65,0,0,0,3,2.81c.26,1,.75,1.25.81,2.32-1.13-.38-3,.88-4.14-.19-1.1-2.15,1.93-.16,1.22-2.07l-1.28.54c.26-1.14-1-1.23-1.5-2,.06-.62.48-.14.82.06-.89-1.4-.81-2.87-2.76-3.26-.17,2.54,3,4.71,2.14,6.35,1.33,1,2.69,2,4.09,3,.52-.36.52-2.25,2-1.68a3.27,3.27,0,0,0-.58,1,2.59,2.59,0,0,0-.13.55,1.57,1.57,0,0,0,0,.64,10.15,10.15,0,0,0,1.48,3.36c.35-1,1.3-.39,2.15.13s1.7.94,1.77,0c-1.39-.21-.68-1.73-.66-1.94.74.89,1.1.62,1.34.3s.42-.74.84-.33c1.16,1.62,1,1.82.74,2s-.51.43.74,2.13a12.12,12.12,0,0,1-2.57-.23,10.12,10.12,0,0,1-3.4-1.46c-.48.73,1.73,1.86,1.87,3.35-.4-1.84,1.77-.53,1.21-1.73a23.22,23.22,0,0,0,2.35,1.35c.84.39,1.71.73,2.57,1.08,1.76.63,3.49,1.2,5.18,1.87a1.77,1.77,0,0,1-1.58.79,10.66,10.66,0,0,1-2.15-.32c-1.43-.34-2.78-.62-3,1.17,1.95,1,2.47-.25,3.78.81.29,1.12,1.38,1.76,2.7,2.19s2.84.63,4.17,1a13.76,13.76,0,0,1-1-1.13c1.08-.28,2.8.64,4,1l-.33.29a8.86,8.86,0,0,0,1.19-.34c.18.08.22.17.21.27a7.92,7.92,0,0,1,3.06-.26,10.09,10.09,0,0,0,3.88-.6c-.2-1.21-2.35.41-3.56.26-.36-.19-2.55-.86-1.5-1.68a7.84,7.84,0,0,0,3.77-1c.58-.27,1.14-.64,1.75-.92a16.07,16.07,0,0,1,1.95-.9,8.53,8.53,0,0,1-1,0c.69-1.15,1.95-1.27,3.17-2,1.26-.26,1.05.38.68,1.12s-.95,1.46-.07,1.41a2.58,2.58,0,0,1-1.59,1.39c-.6.29-1.1.59-1,1.4a24.18,24.18,0,0,0,2.26,1,3,3,0,0,1,2.14-1.25,4.57,4.57,0,0,0,2-.67l-1.38-.08c-.35-1.4,1-1,1.55-1.2-.53-.45-1-.89-1.54-1.36-.77.27-1.19,1-1.67,1.54s-1,1-1.7.66a5,5,0,0,0,1.81-2.55,6,6,0,0,1,2-2.57c.5.61-.37.65-.38,1.4.59-.12,1-.7,1.34-1.4a4,4,0,0,1,1.65-1.82c-.43,1.21-1.44,3.07.25,3,0-.67,0-1.35-.07-2,.77-.45.86.3,1.16.07,1.07-.73-1.13-1,.43-2.26.38,0,1.06-.26,1.09.23.8-.9.85-1.28.87-1.64a5.08,5.08,0,0,1,.29-2c-1.16,1.62-2.77-.06-1.91-1.72a14.18,14.18,0,0,0,1.62-3,3.44,3.44,0,0,1,2.24-2,11.23,11.23,0,0,0-.38-1.47c1,1.15,1-1,1.47-1.51.77.21.44.92.2,1.71a5,5,0,0,0-.22,1.36,1.37,1.37,0,0,0,.78,1.23c1.09-1.65,1.43-.58,1.74.35.4-1.11,0-1.34-.47-1.64a3.43,3.43,0,0,1-1.43-1c.6.26,1.22-2.28,2.12-.92.58-1.15-.81-2-.21-2.71a7.35,7.35,0,0,0,2,1c-.45-.3.59-1.19.72-1.4-.36.1-1.08-.88-1.07.31-1-.7.85-2.43-.14-2.72,1.39.36,1-2.09,1.94-3-3.19-.93.54,2.38-2.17,1.86-.57-1.76,1.45-4.75.65-7.39,1.14-1.75,1.23.34,2.51.28,0,2-1.06,2.13-1,3.87,1.1-1.56,1.56-4.49.89-6,.33-1.88,3.75-1.24,3.49-3.72-1.11.06-1.34-.05-1.9.56-.23-.69.32-1.3.46-1.94-.57-.55-1,.8-1.4-.22.27-.3.58-1,1.26-.71l.06.17c-.47-2.34,2.88-1,1.27-3.27-.55,0,0,.58-.41,1-.89.17-1.77-1.21-2-2.12.69.3.29-.71.65-1.25,1.28-.16,0,1.55.79,2l.53-1.59-.26.3-.8-2c.14,1.31-1.6.29-1.64-.27.47-1.18.94-2.36,2.26-2-1.32-.4-1-1.91-1.1-3-.68,1.09-1.17-.06-1.55-.47l1.65-1.53c.06,1.93,1.27-.19,2.11.41,1.31.77.4,1.79,0,2.74,2.83-1.49-.88-2.94.59-4.41.63.1,1.33.36,1.07,1.08.47-.23-1-1.73-.06-2.75-.49.23-1.84.67-2.19-.54l1.77-1.24c.59-1.67-1.56-.83-2.07-2.36l-1.2.77c-1.34-.34.27-1.9-1.22-2.16-.18.87.91,1.52.35,2.38-1.51.13-.61-1.28-1.31-1.92.91-1.8.89-1.4,2.25-2.66,2.28.25,2.49,2.73,5.48,2.85-.12-1.93-.5-4.74.53-5.86-.47-1.76-2.29-1.83-3.63-1.74a1.35,1.35,0,0,1,.47-1.44l.64.87c-.49-2.14-1.13-3.4-.84-5.55-.26-1.26-1.68-.91-2.78-.74l-.11-1.34-.3.17c-1.43-.45-.83-1.55-.69-2.42.63.06.73.61,1.12.6a2.1,2.1,0,0,0,0-2.59c.63,0,2,.72,1.46,1.61-.15.08-.39,0-.55.09l.67,1.64c-.59-1.88,1.11-2.79,2.62-2.6-.6-1.88-1.7,1.32-2.07-.89,3.23-2.55-.34-5.43,4-6.64-.77-1.39-2.11-3.07-2.05-5.13-1.27-.09-.39-1.4-2-1.32-1.79,1.82,2.17,3.84-.3,5.22.52.92,1.61.72,2.26,1.17,0,.78-.17,1.5-1,1.54-.63-1.87-3-.75-2.89-3-1.09.2-.85,2.07-1.22,2.87a1.61,1.61,0,0,0-1.8.38c-1-.67-1.73-2-2.56-2.78.57.28.95-.12,1.27.1l-1.61-2.5a2.07,2.07,0,0,1,2.43-.35c.49-1.27-1.06-3.61.84-3.48-.17-1.71-1.16.46-1.71.56l-.08-.15,0,1.79c-2.21,0,.68-2-1.4-2.42-4-.57,1.44-2.41.9-3.71l2.77,1.64-.54-1.3c1.07.8,3,.92,4.06,2.12.22-1.74,1.25-4.17.78-5.32a4.69,4.69,0,0,1,2.91-.27c-1.71-1.86,1.09-2.68,1.21-4.2-1-1.66-1.55,1.54-2.9.29.76-.45.22-1.36-.05-1.81.51.51-.55,2.17-1.11,3.31.1-.87-1.32-.86-1.89-1.13l-.38,1.44c-1.75-.2,0-1.8-.89-2.52,1.54.51,1.6.28,3.14.79a4,4,0,0,1,.56-4.21c.67-.61.75.57,1.18.93,1.09-.24-.58-1.29.76-1.47,1,.24.05.78.33,1.24l.66-3.69c.63,0,.78,1,.51,1.53.79-1.09.48-1.94-1.62-3.34.69-1.24,1.67-2.67,2.58-2.2-.36-.61-1-.24-1.6-.26.41-1.7-1.84-2-1.85-3l-1.2.73c1.28-1.61-1.94-.45-1-1.88a10.74,10.74,0,0,0,4,0c-1.21-.28-.11-1.17-.09-1.81-1.24.36-1.08-1.39-2.34-.41-.94-1.49.74-2.12-.79-3.23-.41.66-1.24-1.3-2.14-.73a2.08,2.08,0,0,1,2.74-1.94c-.11.49-.67,1.26.36,1.23l-.19-2.58c.65-.63.95-1.45,2.37-1.53-1.6-.85,1.17-2.42-.74-3.08,1.22.89-.45,1.56-.66,1.89l-.26-.41a.43.43,0,0,1-.08.21L434,801.39c-1,1.05,1.6.21,1.53,1.73-2.31,1.26-3.42-3-4.86-1.68-.75,1.1,1.45.94,2.27,1.87l.06-.24.94,2.11a1.93,1.93,0,0,1-1.41-.56c-.05,2.52-1.28,2.88-1.64,5.58.3-.19,2.71-.66,3.07.57.56.88-.85.94-1,1.66-.27-.44-1.59-.86-.69-1.42h-1.66c-1.95-2.08-3.59-1.06-4.11-3.81-1.22-.15-1.81-2.15-1.43-3.62l-1.11.7c-2.07-1.57,1.72-.26,0-2.25,2.21-.78,4.81-2.25,6.61-1.12.55-1.4-.61-1.89-.6-3.15,1.81-.76,1.95.41,3.76.28-.19-.93-1-2.1-2-1.42l.73-1.75c.39,0,.39.59.34.83.4-.68-.48-2-1.16-2.37.1.14.39.58.09.77-.48-.73-1.36-2-1.85-2.13.92,1.06-1.13,1.16.05,2.27-.49-.1-1.47-.29-1.23-.87-1.07.91-.88,1.83-2.1,2.21.92-.77-.41-1.27-.6-1.43a2.64,2.64,0,0,0,.5,2.53c-2.05.08.32,2.69-1.78,1.76.74.15.77,1.16.28,1.68-.88-.06-1.35-1.4-2.38-2-1-2.68,1.52.06,2.16-.56l-.13-2.05c-.3.21-1.43-.82-1.32.51-1.28-.63-2.15-1.91-1.17-3-.59-.24-.49.52-.54.76-.59-.24-2.74-1.52-3.08.14.1-.48,1,.81,1.66-.05.24.67-.64,2.47-1.77,1.75.34.81,1.16,2.33,1.41,3-.94.19-.39-.57-.83-.91l.52,2.34,1-.66c-.75,1.71,1.67,2.83,2.39,4.23-1.61-.22-1.74-1.36-2.56-2.28-2,.83,1,.58.7,2a1.56,1.56,0,0,1-1.18.13l1.4,1.17a.37.37,0,0,1-.63,0c1.72,2,2.3,0,3,2.65.86-1.57-1.1-1.37-.92-2.7,1.18-.75,2.07,1.56,2.74,2-.42,1.28-2.86,1.37-1.58,3-.75-1.17-1.52-.09-1.53-1.71-.81-.93-.74.46-1.67.62.28.44,1.72-.24,1.44,1l-.24,0,1.71,2c-.93,1.79,1.83,4.18-.12,5.36l1.72-.23a18,18,0,0,0,.4,3.62c-1-.23-1-1-1.34-1.83a6.33,6.33,0,0,0,1.88,5.36,10.29,10.29,0,0,0,2-2c2.34,1.45-1.54,1.53-.44,3.31-1.66,0-1.39-.59-3-.24,1.09.78.79,2,1.72,2.83a2.29,2.29,0,0,1-3-2.26c1.48-1.28-.94-2.87.47-3.91l-1.06.62c-.43-1.36-.1-2.15-.84-3.33l.24.06-1.64-.64,0,.62a6.56,6.56,0,0,1-2.41-2.18c.17,1.91,2.8,2.14,4.24,3.11-.18,1.72-3.13,2.26-1.76,3.47-.8.05-1.67,1-2.36.17-.4-1,.65-1.58-.47-1.73,0,1-.66.59-.53,2.12a9.1,9.1,0,0,1,3.94,2.71,3.64,3.64,0,0,1,.1,3.54,2.44,2.44,0,0,0-2.52-2.13c1.48.74-1.34,2.16.77,1.94-.21,1.32-.29,3.56-2.11,3.59-.59-1.29.58-2.44.25-3.52a.69.69,0,0,1-.95.35l.28-1.55c-.94,1.13-1.51.86-1.4,2.39.15-.09.45-.26.54-.11,0,.38-.09.84-.06,1.23l-1.66,0c.71,1.18-1.52,3.21-.44,5.36l-.33-.21c-.45,1.62,2.81,2,3.07,3.81a2.9,2.9,0,0,0-2.23-.35c.77.95-.63,1.33-1.14,2.18,1.05-1,1.7.84,2.29.13,1.66.07,1.53,1.92,1.25,2.85-2.18.39-.94-3-3.24-1.77-.27.92.93,1.25,1.37.62-.34,1.16-.72,2.93-2.11,3.66,1.49,1.54.56,2,2.57,3.1,0-.76-1.53-.94-.63-1.8l1.47,1.17c0,1.37-1.49,2.33-1.77,3.24l-.59-1.05.24.08c-.65-.44-.14-1.67-1.32-1.64,1.38,1-.1,1.6.81,2.86l-.24-.07c1,2.18-2.74,3.3.14,4.92,0-.38,1.23-1,1.79-.71-.78.39-.67,1.68-1.54,1.54l-.25-.46c-.37,1.14-.59,1.82-.35,2.28,1,.44,1.9.21,2.38,1.12-.91,2-2.38-1.13-3.46.16l.89,2-1,.3c-1.32,2.69,1.6,5.28,1.16,8.28-1.65-.2-2-2.44-2-3.19-1.58.71.21,2.32-1,3.4-.41,1.11.9,2.19,1.85,2.15.37,1.51-1.12.85-1.44,1,1.71.74.8,2.42,1,3.61l-1-.12.94,2c.18-.43,1,.13,1.64.24l-.18.44c3.07-1.26-1.24-4.24,2.18-5.52.29.61.94-.05,1.24.57-.18.45-.33.52-.73.5.78.41,1.38,1.27,1.49.29,2.12.39,1.27,2.26,1.76,3.74-1.54.83-1.84-1.47-2.75-2.19.06.53.9,1.11.24,1.75l-1.55-.46c.55,2,1.3.75,2.77,1.44,1.93.87-.4,1.65-.34,2.18l-.29-.62c-.93,1.3.68,1.94.3,3.2l-1.38.35c1.91-1.3-1.82-2.39-.83-3.15-1.94,2-3.16-1.11-4.39-2.07a2,2,0,0,1-1.22,2.27c1.79,1.85-1.35,2.82.8,4.7-.45.68-1-.9-1.18-.12a7.41,7.41,0,0,0,0,4.73c-.24.77-.92.46-1.63.51-.94,1.73-.59,3.17-.26,4.67a5.9,5.9,0,0,1-.45,4.82l-.65-.84c-.45.74-.95,1.29,0,2.07-1.49,0-1.38,1-1.32,1.92s.05,2-1.56,1.89c-.28.29-.38.62-.26.74s.34.27.58.45c.48.35,1,.81,1.12,1.13a10.87,10.87,0,0,0-1.77-1.15,2.73,2.73,0,0,1-.06,1.89,3.33,3.33,0,0,1-1.3,1.62,3.18,3.18,0,0,1,0-.67c-.39-.07-.74.68-1.3,1.15s-1.21.67-1.43-.08c-.28.32-1,.43-1.42,1.64a6.49,6.49,0,0,1-.84,2.65c-1.82.1.46-2.44-.37-2.69,1.1-2,1.17-.89,2.18-2.66a5.33,5.33,0,0,1-1.39.56c.05-.48-.2-.56-.42-.7s-.45-.35-.12-.8c-.12.27,1.29-1,.8-.22-.1,0-.19.15-.3.18.27.67,1-.4,1.6-.44a1.48,1.48,0,0,1-.91,0,.61.61,0,0,1-.28-.19l-.15-.28a2,2,0,0,1-.16-.47c-1.07,1-1.08-.48-2.06-.31l.09-.15c-.54.34-1.34-.13-1.64-.25l1.43-1.22c-.5-.38-.72.61-1.22.23-.81-.46-2.42-3.11-.75-4.18-.6-.83-1.69-.66-1.94-1.73a5.56,5.56,0,0,1,1,0c-.63-2.22-2.35-4.61-2.15-7.1-1.13-1.5-2-2.87-3.56-3.54.31.42.41,1.93-.92,1.46-.91-.2-.9-1-1.49-1.66,1-.16.21-2.18,1.37-.93,1.88-1.08-1.5-3,.52-3.71-.74-.13-1.07-2.35-2.41-2.8.83-.46,1,1,1.58.75l-.59-.87.6-.2c-.07-2-2.65-1.57-3.37-2.57l.25,0-.55-.66,1.9.39c-.59-1.12-2.24-1.31-3-2.56l.49-.29-.8-.65a.38.38,0,0,0,.49,0c-1.77-.33-1.65-2.27-3.17-2.63.09-.61,1.91-1.59.38-2l2-.38c.72,1.74-1.2,1,0,2.75,2.1-2.08.77-5.9-.05-8.49-1.82-1.82-.54-5.82-3.64-6.08l1.24,0,.21-3.84c-1.14-3-.86-6.32-2.93-8.38l.88-.83c-3.83-1.83-2.86-8.1-7.16-9.1.69-1.55,1.62.18,2.36.21.17-1.08-2.76-2.41-1.06-3.68.62-.09.8,1.37,1.08.66,1.05-.93-1.32-.91-.14-1.95-1.15.56-2.81-1-3.23-2.22,0,.24,0,.24-.14.36-.9.31-.84-.66-1.05-1.17a.66.66,0,0,1,.37.15c-2.46-6.36-4-13.93-3.35-21l1,1.22c-.76-1-.39-2.75-.19-3.33l.11.14c1.79-2-2-2,.14-3.53l.21.27c-.16-2.23,1.83-3.62.69-5.75.68-1.71,1.68-1.54,2.53-2.72-.06-1-1.23-1.42-1.48-1.47l-.1.47c-1.11.53-.93-1-1.42-1.72-1.76.52-4.5.23-6.29,2.29.61,1.49-2.82,1.51-2.48,3.22,2.37.9-1.67,2.51.49,4-1.65-.77-.79,1.9-2.61.61-1.25.71,1.54,3.28.1,4.6-.36-.18-.74-.11-.95-.39,1,1.67-1,1.25-1,2.54l1.66-.16c.57.46-.59.69-.27,1.11.17-.36.9-1.15,1.61-.81.43.56,1,1,1.05,1.64a1.29,1.29,0,0,1-1.18-.65s0,1.39-.81,1.55c-.57-.45-.62-1.09-1.58-1.46-.35,1.86-.52.18-1.77,1.18,1.93-.4.95,1.52,1.48,2.47-.77.17-.31-.67-.91-.87-3.25,2.18.83,2.78.33,5.26a1,1,0,0,1-.58-.45c.64,1.09-1.07,2.07.13,2.69-.23,1.13-2.18.43-1.94,2.12,1.94-.72-.16,2,2,1.83l-1.1,1.44c1.3,1,3.54-.73,4,1.45-.53,2.11-3.53.25-4.48,1.57l1.22.35L350,833l-.12-.14c.46.54.27,1.67-.35,1.76s-.59-.68-1.09-.71c1.19.84-2.35,4.34,1,4.92-.47.66-.28,1.87-1.32,1.87,1.49.31,0,2.71,1,3.35-.5,0-1.15.85-.67,1.39.4-.89,1-.47,1.88-.06-.9.86.3,2.69-1.33,3.28,1.1.93,2.23.32,3.48.35-.89.87-.29,3.05-2.29,3,.13-.64.28-2-1-1.56-.51,1.27.62.4,1,1.3-.36,0-1.07.85-1.66.77a3.1,3.1,0,0,1,.26,2.15c.64-1.39,1.5.54,2.12-.34l-1.61-.93c-.36-1.42,1-.49,1.38-1.13.86,2.45,2.74,1.59,4.1,3.76a7.4,7.4,0,0,0-.63,1.65c-.25-.77-2-.27-2.24.24,1.75,1-.47,2.55-.59,3.71.24-1,1.49-.77,2-.51,1.52,2-.48,1-1.09,2.18.94,3.44-.84,6.19,1,8.72l1.3-1.71-1.62-.08c.95-1.31,3.47-.6,4.6-.26-.49.27.21,1.91-.81,1.43l1.06,1.5c.61-.41.07-1.41,1-.81-.35.66-.26,2.44-1.43,1.59.17.89,1,1.88,1.82,1.46.46,1.38-2,.35-2.75-.14.19,1.15-1.17,1.34-1.69,1.11l.59,1.52c-.5-.24-1.12-.08-1.63-.31-.3,1.18,1.58,1.48.54,2.7l1.39.06c-.28,3.13-.54,2.89.07,5.6l.81-.71c2.28,1.52-1.09,1.91.43,4.42,1,1.36,1.76,2.21,3.19,1.55.83.7,0,1.18-.43,1.75,1.07.42,3.06,1.38,2.5,2.76a10.19,10.19,0,0,1-1.73-1.65c-1.42.68.45,2.46.14,3.82,1,.56,3.66,2.47,5.46,3.39a3.85,3.85,0,0,1,4.45-.68c-1,.15-.29,2-.6,3.1-1-.09-1.36,2.76-2.45,1.08.24-.71,1.38-1.43.65-2a8.54,8.54,0,0,0-1.67,3.9,1.67,1.67,0,0,1-1.59-1C365.28,905.72,365.48,905.41,365.82,905.22Z"/>
      <path class="lightbulb-cls-4" d="M425.12,803.38c0,.07-.05.13-.07.2l.37-.24A.29.29,0,0,1,425.12,803.38Z"/>
      <path class="lightbulb-cls-4" d="M399.11,943.08c.16-.05.46-.26.47-.45A1,1,0,0,0,399.11,943.08Z"/>
      <path class="lightbulb-cls-4" d="M429.12,917.69c-.14,0-.27-.07-.4-.1A.82.82,0,0,0,429.12,917.69Z"/>
      <path class="lightbulb-cls-4" d="M436.2,801.86l.31.47C436.52,802.16,436.34,802.08,436.2,801.86Z"/>
    </g>
    <path class="lightbulb-cls-1" d="M230.5,930.3H561.8A41.18,41.18,0,0,1,603,971.48v0A67.54,67.54,0,0,1,535.44,1039H256.86a67.54,67.54,0,0,1-67.54-67.54v0A41.18,41.18,0,0,1,230.5,930.3Z" transform="matrix(1, 0.03, -0.03, 1, 29.3, -11.29)"/>
    <g>
      <rect class="lightbulb-cls-5" x="316.6" y="1217.56" width="171.47" height="42.43" rx="21.21"/>
      <path class="lightbulb-cls-3" d="M466.86,1261.49a121.36,121.36,0,0,0-24.46,2.28c-2,.39-4.07.86-6.11,1.3s-4.07,1-6.11,1.47l-12.23,3a134.43,134.43,0,0,1-48.91,3c-8.15-.93-16.3-2.69-24.45-4.24-2-.4-4.08-.81-6.11-1.15l-1.81-.32c-.67-.13-1.34-.23-2-.39a25.73,25.73,0,0,1-3.82-1.21,32.26,32.26,0,0,1-3.57-1.65,32.84,32.84,0,0,1-3.25-2.1,36.46,36.46,0,0,1-2.94-2.43,37,37,0,0,1-2.54-2.78,36.29,36.29,0,0,1-2.19-3,36.7,36.7,0,0,1-1.74-3.28,33,33,0,0,1-1.35-3.46,28.87,28.87,0,0,1,.56-18.34,29.35,29.35,0,0,1,9-12.41l1.59-1.22c.54-.39,1.12-.72,1.7-1.09l.87-.53.9-.46c.61-.3,1.22-.64,1.86-.89a31.41,31.41,0,0,1,8.09-2.19c8.15-1.38,16.3-2.86,24.46-3.86s16.3-1.53,24.45-2.11,16.3-1.15,24.45-1.55,16.31-.53,24.46-.3,16.3.68,24.45,1.49c2,.22,4.08.49,6.11.79l.83.13,1.25.17c.83.13,1.66.22,2.47.42a32.74,32.74,0,0,1,9.15,3.6,33.9,33.9,0,0,1,7.29,6,33.12,33.12,0,0,1,2.74,3.68,27.63,27.63,0,0,1,3.59,8.08,29.77,29.77,0,0,1,.85,4.2,31,31,0,0,1,.17,4.18,27.85,27.85,0,0,1-1.35,7.87,27.17,27.17,0,0,1-3.26,6.82A27.53,27.53,0,0,1,466.86,1261.49Zm0-3a18.58,18.58,0,0,0,5.54-1,16.9,16.9,0,0,0,4.81-2.77,16.15,16.15,0,0,0,3.51-4.12,15.2,15.2,0,0,0,1.83-4.87,13.58,13.58,0,0,0-1.53-9.21,14.14,14.14,0,0,0-1.19-1.78,13.31,13.31,0,0,0-1.46-1.45,12.86,12.86,0,0,0-1.55-1.17,17.4,17.4,0,0,0-1.67-.84,11.89,11.89,0,0,0-1.65-.56,12,12,0,0,0-1.61-.27c-.5-.09-1.05,0-1.51,0s-.93.06-1.39.19a11.23,11.23,0,0,0-1.24.31c-.19.06-.39.16-.58.22l-.28.1-.31,0-.39.06c-2,.3-4.07.58-6.11.79-8.15.82-16.3,1.25-24.45,1.49s-16.31.08-24.46-.29-16.3-1-24.45-1.56-16.3-1-24.45-2.11-16.31-2.47-24.46-3.86a14,14,0,0,0-4-.4,13,13,0,0,0-4.12,1,7,7,0,0,0-1,.46,6.51,6.51,0,0,0-1,.56c-.31.21-.64.39-.95.62l-.88.71a10.32,10.32,0,0,0-.81.81,7.87,7.87,0,0,0-.77.86c-.23.31-.49.6-.71.92l-.61,1a14.33,14.33,0,0,0-1.69,9.18,17.17,17.17,0,0,0,.52,2.34,16.4,16.4,0,0,0,.95,2.2,14.68,14.68,0,0,0,1.27,2,14.93,14.93,0,0,0,1.62,1.75,16,16,0,0,0,1.84,1.47,14.57,14.57,0,0,0,2.07,1.08,15.74,15.74,0,0,0,2.16.74,13,13,0,0,0,2.22.29,14.24,14.24,0,0,0,2.17,0,9.83,9.83,0,0,0,1.06-.19l1.25-.23c2-.34,4.07-.76,6.11-1.15,8.15-1.55,16.3-3.31,24.45-4.24a133.85,133.85,0,0,1,48.91,3l12.23,3c2,.52,4.07,1,6.11,1.47s4.08.91,6.11,1.29A120.65,120.65,0,0,0,466.86,1258.49Z"/>
    </g>
    <g>
      <rect class="lightbulb-cls-5" x="224.67" y="1130.94" width="342.95" height="108.72" rx="54.36" transform="matrix(1, -0.04, 0.04, 1, -49.04, 17.53)"/>
      <path class="lightbulb-cls-3" d="M515.49,1236.23q-25.29.94-50.47,4.4c-8.39,1.13-16.78,2.44-25.17,3.81l-25.15,4.07c-16.78,2.6-33.57,4.72-50.41,5.84s-33.7,1.62-50.59,1.32c-4.22,0-8.45-.21-12.68-.3s-8.45-.3-12.68-.53l-6.35-.32-3.71-.31-1.86-.17a14.45,14.45,0,0,1-1.84-.23l-3.66-.7-1.82-.36c-.59-.15-1.19-.34-1.78-.51l-3.53-1.07a13.06,13.06,0,0,1-1.72-.62l-1.7-.7a63.62,63.62,0,0,1-23.29-16.34l-2.31-2.65c-.78-.86-1.41-1.86-2.11-2.79s-1.41-1.85-2-2.85l-1.79-3-.9-1.49-.76-1.56-1.51-3.11c-.51-1-.84-2.16-1.26-3.23s-.86-2.13-1.17-3.24a65.14,65.14,0,0,1-2.45-27.13l.18-1.7.35-1.68.7-3.36c.21-1.13.62-2.2.92-3.31s.63-2.2,1-3.27l1.3-3.19.66-1.59c.24-.52.52-1,.77-1.53l1.58-3.07a12.27,12.27,0,0,1,.88-1.48l.93-1.46a62.84,62.84,0,0,1,19.55-19.6l3-1.86c1-.61,2.11-1.07,3.17-1.61s2.12-1.11,3.23-1.53l3.36-1.28,1.69-.63c.57-.17,1.15-.32,1.73-.48l3.5-.94.88-.22.89-.15,1.79-.3,3.6-.57c8.4-1,16.79-2.12,25.19-3.1l12.6-1.51c4.21-.44,8.41-.94,12.61-1.35,16.81-1.76,33.64-2.94,50.47-4.21,33.66-2.55,67.32-5.16,101.05-6.07q12.65-.37,25.3-.52l6.33-.07c1.26,0,2.68.07,4,.11l2,.09a15.11,15.11,0,0,1,2,.15l4,.55,2,.31c.66.13,1.31.3,2,.46,1.3.32,2.61.64,3.91,1a14.7,14.7,0,0,1,1.92.6l1.89.69c1.25.46,2.52.9,3.74,1.43l3.6,1.76,1.78.89c.59.31,1.14.68,1.71,1L548,1122l.83.54.78.61,1.56,1.21c1,.83,2.09,1.61,3.07,2.48l2.84,2.7,1.41,1.36c.44.48.85,1,1.28,1.48l2.51,3c.84,1,1.52,2.1,2.27,3.14s1.5,2.09,2.13,3.22l1.85,3.38.91,1.68.76,1.76c.51,1.18,1,2.35,1.48,3.52s.78,2.42,1.17,3.61.77,2.4,1,3.63a63.11,63.11,0,0,1-.13,29.13,61.27,61.27,0,0,1-12.42,24.77A62.7,62.7,0,0,1,515.49,1236.23Zm-.13-3a48.22,48.22,0,0,0,23.1-7.29l1.3-.78,1.22-.91,2.4-1.83a28.68,28.68,0,0,0,2.24-2c.72-.7,1.49-1.34,2.15-2.09l2-2.28,1-1.13.85-1.23,1.67-2.45c.55-.82,1-1.72,1.46-2.57l.71-1.28a9.39,9.39,0,0,0,.65-1.31l1.11-2.71c.18-.45.38-.88.54-1.34l.42-1.39.83-2.76c.24-.92.36-1.88.55-2.81l.25-1.4a8.14,8.14,0,0,0,.2-1.4l.22-2.81.11-1.39,0-1.41A45.7,45.7,0,0,0,525,1142.5a43.77,43.77,0,0,0-9.08-1.22,5.43,5.43,0,0,0-1.14,0l-1.14,0-2.32.08-6.31.45q-12.63.9-25.26,1.59c-33.69,1.9-67.45,2.1-101.2,2.37-16.88.13-33.76.35-50.65,0-4.23,0-8.45-.2-12.68-.3l-12.68-.45c-8.45-.28-16.91-.66-25.37-1a46.17,46.17,0,0,0-21.36,4.2l-1.28.56c-.42.22-.82.46-1.22.7l-2.45,1.41c-.82.46-1.54,1.08-2.32,1.61s-1.58,1-2.28,1.69l-2.13,1.9-1.06.95-1,1.05-1.95,2.1c-.63.72-1.15,1.53-1.74,2.29a44.81,44.81,0,0,0-8.65,21.13,46.15,46.15,0,0,0,2.57,22.76c.32.9.78,1.75,1.17,2.63s.77,1.75,1.27,2.57l1.48,2.45.73,1.23.86,1.15,1.73,2.26c.58.75,1.29,1.4,1.92,2.11s1.24,1.42,2,2l2.14,1.85a43.59,43.59,0,0,0,19.74,9.37,45.48,45.48,0,0,0,10.56.87,8.32,8.32,0,0,0,1.31-.09l1.3-.14,2.62-.26,6.29-.84c4.2-.59,8.4-1.06,12.6-1.59s8.4-1,12.6-1.35c16.82-1.71,33.66-2.65,50.53-2.91s33.79.44,50.72,1.63l25.41,2c8.47.67,16.94,1.27,25.39,1.7Q490.1,1234.42,515.36,1233.23Z"/>
    </g>
    <g>
      <rect class="lightbulb-cls-5" x="341.79" y="952.84" width="108.72" height="362.39" rx="54.36" transform="translate(-766.62 1435.6) rotate(-85.28)"/>
      <path class="lightbulb-cls-3" d="M518,1200.13q-26.42-2.28-53-2.07c-8.88,0-17.77.28-26.66.57l-26.68.82c-17.77.44-35.51.4-53.16-.63s-35.26-2.7-52.79-5.16c-4.39-.56-8.77-1.28-13.15-1.91s-8.75-1.37-13.13-2.15l-13.11-2.25-1.64-.28-1.9-.39-3.79-.81a13.88,13.88,0,0,1-1.86-.51l-1.84-.59c-1.21-.42-2.45-.74-3.63-1.24a65.23,65.23,0,0,1-24.44-17.09,69.3,69.3,0,0,1-4.54-5.77c-.69-1-1.39-2-2.06-3l-1.79-3.18-.9-1.58c-.29-.54-.52-1.1-.78-1.65l-1.49-3.31c-.48-1.1-.81-2.27-1.22-3.41a34.46,34.46,0,0,1-1.11-3.44,64.71,64.71,0,0,1-1.35-28.49l.81-3.5.41-1.75c.14-.59.37-1.14.55-1.71l1.13-3.42a12.65,12.65,0,0,1,.67-1.67l.72-1.65a61.1,61.1,0,0,1,17.34-22.9,59,59,0,0,1,5.87-4.39,33.31,33.31,0,0,1,3.15-1.9c1.08-.58,2.12-1.26,3.24-1.79l3.38-1.54c.57-.25,1.13-.52,1.7-.75l1.77-.6,3.54-1.22c1.2-.34,2.42-.61,3.64-.91a56.41,56.41,0,0,1,7.46-1.27,29.91,29.91,0,0,1,3.79-.26l3.81-.11c8.87,0,17.74,0,26.6.13l13.3.12c4.42.09,8.86.13,13.28.26,17.71.4,35.36,1.38,53,2.26,35.33,1.78,70.67,3.48,105.87,6.88,8.8.82,17.59,1.74,26.38,2.71l13.18,1.5,1.65.19,2.07.32,4.16.7a16.13,16.13,0,0,1,2.06.46l2,.56c1.35.4,2.72.72,4,1.21A65,65,0,0,1,569.78,1097a67.91,67.91,0,0,1,4.92,6.49c.74,1.13,1.48,2.25,2.18,3.4l1.85,3.58.91,1.79c.28.61.51,1.24.77,1.85.5,1.24,1,2.48,1.46,3.72s.76,2.55,1.13,3.81a36.34,36.34,0,0,1,1,3.83,63.29,63.29,0,0,1-1.3,30.46A64.34,64.34,0,0,1,568.05,1181a65.46,65.46,0,0,1-23.19,15.37A63,63,0,0,1,518,1200.13Zm.25-3a49.36,49.36,0,0,0,24.91-4.79,48.58,48.58,0,0,0,18.63-16.43,47.16,47.16,0,0,0,7.48-22.57,46.47,46.47,0,0,0-4.32-21.95A47,47,0,0,0,551.85,1115a7.21,7.21,0,0,0-1-.76l-1-.74-1-.74-.51-.38-.55-.31a37.61,37.61,0,0,0-4.41-2.38c-.75-.35-1.48-.74-2.23-1.06s-1.56-.54-2.32-.84l-1.14-.44c-.39-.11-.79-.2-1.18-.3-.79-.2-1.57-.42-2.34-.64s-1.6-.28-2.38-.44l-1.19-.21a5.89,5.89,0,0,0-1.19-.17l-2.4-.18-1.22-.12-1.66-.08-13.25-.68q-13.25-.72-26.47-1.65c-35.28-2.42-70.42-6.52-105.56-10.57-17.57-2-35.15-4-52.69-6.46-4.38-.59-8.76-1.28-13.14-1.91l-13.14-2.06c-8.75-1.36-17.5-2.82-26.26-4.23a46.89,46.89,0,0,0-22.71,1.9,45.74,45.74,0,0,0-26.11,23.33,45.54,45.54,0,0,0,11.1,54.9c.72.67,1.56,1.2,2.33,1.81l1.17.88.58.44.62.38a41.62,41.62,0,0,0,5.09,2.83c.87.4,1.73.84,2.6,1.21l2.72.94,1.34.47c.46.13.93.22,1.39.33l2.75.65c.91.21,1.86.26,2.78.4l1.39.18a7.87,7.87,0,0,0,1.38.13l2.79.06,1.39,0h1.66l13.31-.07c4.44,0,8.87,0,13.3,0s8.86.1,13.29.27q26.55.68,52.92,3.57c17.58,1.87,35.08,4.74,52.55,8.08l26.18,5.19c8.72,1.74,17.46,3.42,26.2,4.92Q491.78,1195.09,518.21,1197.14Z"/>
    </g>
    <g>
      <rect class="lightbulb-cls-5" x="199.04" y="1017.81" width="392.44" height="108.72" rx="54.36" transform="translate(-44.32 17.4) rotate(-2.39)"/>
      <path class="lightbulb-cls-3" d="M539.33,1122.06q-28.38,1.08-56.65,4.66c-4.71.57-9.42,1.24-14.13,1.88l-14.12,2.08-28.25,4.18c-18.84,2.67-37.69,4.88-56.59,6.1s-37.82,1.74-56.78,1.57-37.9-1.11-56.95-1.88l-4.09-.32-2-.18-2-.36-4-.74c-1.31-.34-2.6-.73-3.9-1.09l-1.93-.56c-.63-.22-1.25-.48-1.87-.72l-3.72-1.47c-1.2-.57-2.38-1.18-3.57-1.77l-1.76-.9c-.57-.34-1.13-.7-1.69-1l-3.33-2.1-3.14-2.38-1.55-1.19-1.44-1.33-2.86-2.66-2.64-2.86c-.43-.49-.89-.94-1.29-1.45l-1.18-1.55c-.76-1-1.58-2-2.3-3.11l-2.06-3.28a28.41,28.41,0,0,1-1.86-3.38c-.57-1.15-1.22-2.27-1.71-3.45a66,66,0,0,1-5.28-22.35,62.44,62.44,0,0,1,6.33-29.9l1.79-3.44c.67-1.11,1.37-2.2,2.06-3.3l1-1.65,1.19-1.54,2.4-3.08,2.66-2.88c.45-.48.88-1,1.35-1.43l1.46-1.32c1-.87,1.94-1.77,3-2.61l3.17-2.36c.54-.39,1-.82,1.61-1.16l1.7-1c1.14-.67,2.26-1.41,3.43-2a66,66,0,0,1,7.32-3.3c1.26-.46,2.51-1,3.8-1.37l3.93-1c.66-.16,1.31-.36,2-.48l2-.32,4-.61c9.43-1.08,18.85-2.21,28.28-3.24l14.15-1.56c4.72-.47,9.43-1,14.15-1.42,18.87-1.85,37.77-3.12,56.66-4.48,37.78-2.72,75.56-5.47,113.41-6.58q14.19-.43,28.39-.65l14.2-.18,7.11-.05h3.55l3.62,0a64.53,64.53,0,0,1,33.84,9.64l3.66,2.39,3.42,2.69c.56.46,1.13.9,1.68,1.37l1.56,1.5c1,1,2.06,2,3,3l2.77,3.28c.45.56.93,1.08,1.34,1.66l1.21,1.76c.79,1.18,1.62,2.32,2.34,3.54l2,3.71a30.59,30.59,0,0,1,1.78,3.8c.52,1.3,1.12,2.56,1.56,3.88a61.16,61.16,0,0,1,2.19,8,63.65,63.65,0,0,1,1.27,16.17l-.42,4-.21,2c-.11.65-.26,1.3-.39,2l-.8,3.87c-.35,1.27-.77,2.52-1.16,3.76l-.58,1.87c-.2.61-.48,1.21-.72,1.81l-1.5,3.58c-.57,1.16-1.21,2.28-1.81,3.41l-.9,1.69c-.31.56-.69,1.08-1,1.62l-2.1,3.18c-.77,1-1.58,2-2.36,3L583,1101l-1.29,1.37-2.59,2.72-2.82,2.46c-.47.4-.93.82-1.41,1.21l-1.5,1.11c-1,.72-2,1.48-3,2.17l-3.16,1.92c-.54.31-1,.66-1.6.93l-1.66.81c-1.11.53-2.18,1.11-3.31,1.59a63.84,63.84,0,0,1-6.93,2.41c-1.18.31-2.34.7-3.53,1l-3.6.64c-.6.1-1.19.25-1.79.31l-1.82.16Zm-.12-3a51,51,0,0,0,13.48-2.62l1.63-.55a15.58,15.58,0,0,0,1.58-.67l3.12-1.41c1-.52,2-1.14,3-1.7l1.47-.87c.49-.29.93-.67,1.39-1l2.74-2c.87-.73,1.68-1.53,2.52-2.28l1.25-1.14c.4-.4.76-.84,1.14-1.26l2.22-2.53,2-2.72,1-1.35.84-1.46c.54-1,1.1-1.92,1.63-2.89l1.34-3c.21-.51.46-1,.65-1.51l.51-1.57c.32-1,.68-2.07,1-3.11l.67-3.19c.1-.53.25-1,.31-1.58l.16-1.6c.1-1.08.23-2.13.3-3.19l0-3.19c0-.52,0-1.05,0-1.57l-.18-1.58-.35-3.11a47.73,47.73,0,0,0-6.48-17c-.51-.85-1.16-1.62-1.71-2.42a20.26,20.26,0,0,0-1.8-2.32l-1.9-2.2c-.66-.7-1.41-1.33-2.1-2l-1-1c-.34-.33-.75-.6-1.11-.9l-2.22-1.77c-.79-.54-1.6-1-2.38-1.54l-1.16-.77-1.24-.66-2.43-1.31-2.55-1c-.43-.18-.84-.37-1.26-.53l-1.3-.41-2.57-.83-2.62-.56c-.44-.09-.87-.21-1.3-.29l-1.33-.14-2.62-.34c-.88,0-1.76,0-2.63-.07l-1.3-.07-1.31.1c-.88.06-1.74.11-2.61.13l-7,.59-7.08.54-14.17,1q-14.16,1-28.35,1.72c-37.81,2-75.68,2.45-113.56,2.88-18.94.21-37.88.52-56.83.26-4.74,0-9.48-.16-14.22-.24l-14.23-.38c-9.48-.24-19-.58-28.46-.87l-3,0h-1.53c-.51,0-1,.11-1.51.16l-3,.35c-1,.16-2,.43-3,.63l-1.51.32a14.69,14.69,0,0,0-1.47.45l-3,1c-1,.37-1.89.85-2.85,1.26l-1.43.64c-.48.21-.91.51-1.37.76l-2.74,1.57c-.87.59-1.7,1.24-2.56,1.85l-1.29.93c-.42.33-.8.69-1.2,1l-2.39,2.11-2.16,2.36-1.08,1.18-1,1.28-1.94,2.57-1.64,2.77c-.27.46-.57.91-.82,1.39l-.68,1.46c-.45,1-.94,1.94-1.36,2.93l-1.06,3c-.17.52-.38,1-.51,1.54l-.37,1.58c-.23,1-.51,2.1-.72,3.16l-.41,3.22c-.06.54-.14,1.07-.19,1.61l0,1.63-.06,3.25A46.82,46.82,0,0,0,206,1092.8a45.28,45.28,0,0,0,2.39,6c.45,1,1.05,1.89,1.56,2.84a21.72,21.72,0,0,0,1.71,2.75l1.88,2.63c.67.84,1.43,1.61,2.13,2.42l1.07,1.21c.36.4.78.74,1.17,1.11l2.35,2.18c.83.67,1.72,1.28,2.56,1.92l1.28,1,1.37.82,2.72,1.64,2.88,1.33c.47.22.94.45,1.43.66l1.49.51,3,1,3,.7c.51.11,1,.25,1.52.34l1.54.19,3.05.38,3.07,0,1.52,0,1.52-.14,3-.26c18.78-2.29,37.67-4.89,56.53-6.58s37.78-2.84,56.71-3.16,37.91.27,56.9,1.37l28.5,1.81,14.25.9c4.74.24,9.49.52,14.24.69Q510.84,1120.37,539.21,1119.07Z"/>
    </g>
    <g>
      <path class="lightbulb-cls-5" d="M533.77,1043.12l-278.46-8.25a67.73,67.73,0,0,1-65.51-69.5h0a41.3,41.3,0,0,1,42.38-40l331.15,9.81a41.3,41.3,0,0,1,39.95,42.37h0A67.75,67.75,0,0,1,533.77,1043.12Z"/>
      <path class="lightbulb-cls-3" d="M533.72,1044.61q-14.85-.49-29.72-.36-7.44,0-14.88.31l-7.44.25-7.45.34c-5,.22-9.93.55-14.89.85l-14.9,1-29.8,2.12c-19.86,1.3-39.71,2.14-59.53,2s-39.62-1-59.4-2.55c-4.95-.35-9.89-.85-14.84-1.27s-9.88-.94-14.82-1.5l-7.41-.8-3.72-.41c-1.41-.17-2.82-.33-4.22-.54a76.2,76.2,0,0,1-16.24-4.44,79.41,79.41,0,0,1-14.65-7.75,80.25,80.25,0,0,1-12.47-10.5,77,77,0,0,1-10-12.65,78.26,78.26,0,0,1-7.13-14.27,76.57,76.57,0,0,1-4.86-23.24c-.06-1.32-.13-2.64-.11-4v-2l.14-2a31.36,31.36,0,0,1,.46-4.1l.37-2,.19-1,.27-1c.4-1.32.68-2.68,1.16-4s1-2.59,1.51-3.86l1.86-3.7,2.19-3.52c.79-1.14,1.65-2.22,2.48-3.33s1.85-2.07,2.77-3.11a48.45,48.45,0,0,1,29.81-14.42c1.4-.1,2.91-.23,4.23-.28l3.72-.1,7.45-.27,14.88-.54c9.92-.39,19.85-.83,29.77-1.17l14.89-.53c5-.13,9.92-.31,14.88-.39,19.84-.47,39.66-.36,59.48-.35,39.65,0,79.3,0,118.9,1.66q14.85.6,29.7,1.44c9.89.57,19.79,1.06,29.68,1.81,2.48.17,4.95.41,7.42.61.26,0,.76.08,1.15.12l1.24.14,2.47.31a18.52,18.52,0,0,1,2.45.45l2.43.55A53.27,53.27,0,0,1,590.94,931a51.35,51.35,0,0,1,20.26,31.12c.33,1.51.49,3.06.71,4.57.05.38.11.76.14,1.14l.05,1.15.09,2.29a36.13,36.13,0,0,1-.15,4.54c0,.75-.09,1.52-.17,2.24l-.31,2.08a75.45,75.45,0,0,1-4.31,16,77.38,77.38,0,0,1-17.71,26.63,76,76,0,0,1-5.91,5.18c-1,.79-2,1.62-3.1,2.36l-1.59,1.14-1.63,1.06a77.49,77.49,0,0,1-13.72,7A75.44,75.44,0,0,1,533.72,1044.61Zm.09-3a60.39,60.39,0,0,0,28-6.14,56.72,56.72,0,0,0,11.95-7.82l1.36-1.15,1.3-1.21c.88-.79,1.71-1.63,2.51-2.5a65.8,65.8,0,0,0,4.51-5.4,58.82,58.82,0,0,0,10.65-25.08,59.43,59.43,0,0,0,.66-13.22l-.11-1.63c-.06-.52-.15-1-.23-1.48a18.41,18.41,0,0,0-.55-2.87l-.37-1.4-.18-.69c-.06-.23-.17-.45-.25-.68-.37-.89-.63-1.79-1-2.65a31.12,31.12,0,0,0-14.76-15.32,28.92,28.92,0,0,0-9.64-2.81l-1.23-.13a5.58,5.58,0,0,0-1.23-.07h-1.84c-.23,0-.34,0-.7,0-2.48,0-5,.14-7.44.16-9.92.17-19.82.07-29.74.05s-19.82-.13-29.72-.32c-39.63-.7-79.21-3-118.8-5.37-19.79-1.16-39.58-2.22-59.36-3.86-4.94-.38-9.88-.85-14.83-1.27l-14.82-1.41c-9.89-.93-19.77-2-29.66-2.94L243.46,933l-7.42-.7-3.7-.32c-1.15-.07-2.12-.09-3.19-.15a34,34,0,0,0-12.44,2.23,34.9,34.9,0,0,0-11,6.77,34.51,34.51,0,0,0-11.27,23.07l-.15,1.65,0,1.74c0,1.15,0,2.31.09,3.46a56.31,56.31,0,0,0,4.82,20.07,59.47,59.47,0,0,0,7,11.82A58.52,58.52,0,0,0,227,1019.57a57.31,57.31,0,0,0,12.47,4.28,58.27,58.27,0,0,0,12.84,1.37c1.07,0,2.14-.07,3.2-.1l3.71-.18,7.45-.36c5-.26,9.92-.41,14.89-.62s9.92-.33,14.88-.39c19.83-.37,39.65-.09,59.44,1s39.56,3,59.31,5.49l29.63,3.88,14.81,1.93c4.94.58,9.88,1.21,14.82,1.72l7.41.79,7.41.68c5,.46,9.89.87,14.84,1.19Q519,1041.24,533.81,1041.62Z"/>
    </g>
    <g>
      <path class="lightbulb-cls-4" d="M499.37,380.07c-.47,1.15-.81,2.23-1.15,3.33a5,5,0,0,0,.39-.95C498.78,381.93,499,381.18,499.37,380.07Z"/>
      <path class="lightbulb-cls-4" d="M502.12,377.61c.06-.07.13-.21.19-.27S502.18,377.44,502.12,377.61Z"/>
      <path class="lightbulb-cls-4" d="M308.75,437.92a9.06,9.06,0,0,0,.37,2.5A5.44,5.44,0,0,0,308.75,437.92Z"/>
      <path class="lightbulb-cls-4" d="M341.13,448.39c-.12.19-.22.34-.32.51A1.18,1.18,0,0,0,341.13,448.39Z"/>
      <path class="lightbulb-cls-4" d="M494.1,415.54c.07-.44.13-.9.2-1.32C494,413.93,493.91,415.2,494.1,415.54Z"/>
      <path class="lightbulb-cls-4" d="M297.9,504.4a4.74,4.74,0,0,0,.06.92A4.63,4.63,0,0,0,297.9,504.4Z"/>
      <path class="lightbulb-cls-4" d="M482.11,457.84a.75.75,0,0,1-.17.3C482,458.25,482.05,458.2,482.11,457.84Z"/>
      <path class="lightbulb-cls-4" d="M338.42,519.76a1.06,1.06,0,0,0,.8-.23C338.73,519.44,338.41,519.43,338.42,519.76Z"/>
      <path class="lightbulb-cls-4" d="M339.17,514.88c-2.69-1.33-2.49-.26-1.73,1.15s2.27,3,1.78,3.5c.61.14,1.49.4,2.36.63.42.12.84.23,1.19.3a1.63,1.63,0,0,0,.73,0c.08,0,.09-.12,0-.23a3.2,3.2,0,0,0-.47-.49,5.1,5.1,0,0,0,.47.45,7.69,7.69,0,0,0,4.44,1.22,15.56,15.56,0,0,0,5.72-1.15,23.43,23.43,0,0,0,4-2.19,5,5,0,0,1,2.79-1.06c0-.21-.43-.25-.67-.52s-.2-.74.65-2c1.35-1.48,2-1.9,2.52-1.91s.9.31,1.55.06a47.17,47.17,0,0,1,2.11-4.92c.42-1,.81-1.92,1.1-2.49s.44-.93.41-.61c.55-2.15-.23-2.22-.91-2.55s-1.28-.92-.75-4.1a25.11,25.11,0,0,1,.39-3.92c.23-1.13.5-2.31.82-3.39a36.65,36.65,0,0,0,1.56-7.51c.51-1.14.7-1.39.77-.82a16.46,16.46,0,0,1-.22,3.19c-.09.72-.19,1.53-.32,2.3s-.26,1.52-.38,2.25c-.23,1.51-.47,2.7-.52,3.48a138.24,138.24,0,0,0,2.4-19.19c.67-2.51,1-1.48,1,1.06,0,1.24-.08,2.84-.21,4.49s-.38,3.23-.63,4.63a48.44,48.44,0,0,0,1.74-12.48c.12-4.47-.2-8.37-.76-10.07.31-2.55.42-4.61.55-6.62s.29-4,.68-6.46c.48,5.31,2.79,5.93,2.62,15.12-.55,7.24-.91,5.44-1.22,3.56s-.67-4-1.26,1.61l1.21,2.26a22.84,22.84,0,0,0-.6,3.32c-.12,1.13-.16,2.35-.22,3.53-.1,2.39-.11,5-.46,7.56-.71,2.31-.33-1.27-.24-3.33-.16,1.1-.32,2.18-.47,3.23-.08.51-.16,1-.25,1.52s-.19.93-.28,1.39c-.18.92-.36,1.81-.54,2.69s-.38,1.62-.57,2.41a76.1,76.1,0,0,0-1.71,9.57,18.19,18.19,0,0,0,1.45-2.78c.22-.58.44-1.19.66-1.82l.33-1,.3-1.09c.38-1.5.77-3,1.06-4.7.16-.84.31-1.68.46-2.51s.26-1.76.39-2.62.24-1.72.36-2.56.21-1.71.31-2.54c.2-1.65.39-3.21.57-4.62s.37-2.7.58-3.75a12.88,12.88,0,0,1,.65-2.55c.08-4.94,0-9.88,0-14.68l-.13-7.11-.1-3.31-.05-1.63,0-.8,0-.4,0-.23c-.08,0-.16.07-.26.2a7.21,7.21,0,0,0-.33.86c-.23.7-.48,1.55-.73,2.16-.51,1.22-1,1.46-1.32-1.93a9.23,9.23,0,0,0,.61-1.18,6.8,6.8,0,0,0,.53-1,15.22,15.22,0,0,0,.87-2.58c.13-.49.25-1,.35-1.57.06-.28.11-.56.16-.85l0-.22a.52.52,0,0,1,0-.16l.06-.11c.15-.28.26-.7.34-.8a1.75,1.75,0,0,1-1.57-1.25c-.32-.65-.58-1.48-1.29-1.54.41.69.25.85,0,.95s-.68.07-.75.11c0-1-.4-1.3-.79-1.48s-.8-.2-.82-.92c.3-2.15.57-1.79.87-1.47s.62.61,1-.76c.35.83.91,2.14,1.49,3.26s1.16,2.06,1.5,2.63c.38.13.37-.05.36-.28s0-.51.45-.25a3.23,3.23,0,0,1-1.18-1c-.33-.41-.59-.85-.8-.72-.3-1.22-.84-3.1-1.27-5.55a38.39,38.39,0,0,1-.65-7.86,74.56,74.56,0,0,1,1.69,7.93,15.92,15.92,0,0,0,.78,2.83,20.79,20.79,0,0,0,1.56,3c-.32-1.14-1.43-3.74-1.18-4.09.71,1.37.78,1.19.73.29a16.61,16.61,0,0,1,0-3.22c-.23-.66-.46-1.28-.7-1.85-.16-1.25-.07-1.83.12-2.05s.47-.09.68-.1l.1,1.37a22,22,0,0,1,.14-2.28,2.18,2.18,0,0,1,.19.81c.05-1,.31-1.6.7-1.74s.85.18,1.17.6c.45.59.75,1.23,1.05,1.17.18-1.86.06-2.41-.18-2.52s-.57.28-.85.15a.36.36,0,0,1-.18-.2,18.47,18.47,0,0,0-.82-2.76,6.93,6.93,0,0,1-.34-4.06,8,8,0,0,0,1.46.08,9.31,9.31,0,0,1,1.77-.19c.54.11,1.06.65,1.48,2.13,0-.74-.13-1.5-.2-2.28.39-.69.68-.21.92.62s.44,2,.68,2.92c.16,2.8-.29,3-.7,3.32s-.83.57-.84,2.24c-.45.86-.58.2-.74-.28s-.35-.68-.73,1.56c-.13,2.09-.33,4-.56,5.83.37-1.09.41-.29.34.56s-.23,1.84-.11,1.79c.14-.67.27-1.38.39-2.14.45-1.45.55-1.42.52-1s-.19,1.26-.23,1.58c.43-1.41.85-2.9,1.24-4.46,0-1-.38-.85-.64-.72s-.43.15-.24-1.82c.46.28.91-.55,1.35-1s.89-.56,1.3,1.38c-.53,1.55-.35-.23-.83.53-.07,1.09.23,1.15.56,1.47s.68.86.61,2.3c-.3-.28-.68-.55-1-.32s-.72.95-1,2.27a8.49,8.49,0,0,1,1.34-1.29c-.05,1.14-.59,1.52-.57,1.89,0,.68.28.17.6-.23s.64-.7.64.49c-.2.59-.4,1.46-.74,1.49.13,1,.27,1.13.51,1.22s.57.11,1.09,1.06c-.29-1.82,1.73-3.73,2.42-.94.05.49.12,1,.21,1.5s.23,1.23.33,1.81c.29,1.51.58,2.91.81,4.25a27,27,0,0,1,.45,3.9,17.29,17.29,0,0,1-.05,1.9c0,.31-.06.63-.11.95l0,.24,0,.33-.07.69,1.66,4.24c-.91-1.22-.77.45-.36,2.89s1.1,5.52,1.28,7.24c-.6,1.16-1.28-2.83-2.05-7-.39-2.07-.81-4.18-1.27-5.68s-1-2.57-1.64-2.42c.44,3.59.36,4.76,0,4.67s-.9-1.41-1.43-2.58c1.54,8.3,2.23,2.56,3.76,5.65-.31.15.2,3.53.53,6.42s.55,5.31-.47,3.45a22.87,22.87,0,0,0,1.9,6.56,15.21,15.21,0,0,1,1.57,4.95,2,2,0,0,0-2,1.56c.28,0,.63,1.75,1,3.7s.7,3.94.82,4.6c-.06-1.54,1.48.33-.19-4.59.31,0,.66.71,1,1.86s.77,2.58,1.15,4,.79,2.67,1.1,3.54.59,1.15.72.69a6.49,6.49,0,0,0,.24,2.85,27.66,27.66,0,0,0,1.35,3.7c1.13,2.56,2.54,4.89,3.39,7a5.93,5.93,0,0,0-.18-3.18,3.88,3.88,0,0,0-.57-1c-.23-.3-.48-.6-.74-.88a7.1,7.1,0,0,1-1.44-2.06,6.25,6.25,0,0,1-.34-3.5c1.38,1.9,3.2,6.16,5.43,9.64s4.75,6.65,7.73,8c1.29,1.19,2.12,1.73,2.45,2s.17.43-.17.51a8.4,8.4,0,0,0-1.1.18c-.28.1-.43.32-.14.83a14.49,14.49,0,0,1-3-1.79,14.72,14.72,0,0,1-1.9-1.88c-1.12-1.27-2.06-2.58-3.58-4.12a19.23,19.23,0,0,0,6.4,6.9,24,24,0,0,0,2.2,1.18,10.65,10.65,0,0,0,2.55.69,9.3,9.3,0,0,0,5-.56c.47-.12.91-.25,1.3-.37l1.05-.37c.31-.12.6-.22.88-.31a6.33,6.33,0,0,1,.74-.24c.48-.13.85-.25,1.26-.32s.73-.13,1.11-.19.7-.14,1.08-.25a5.38,5.38,0,0,0,1.13-.53,7.88,7.88,0,0,0,2.54-3c-.92-.83-.9-1.28-2.25-.13.94-2,2.17-3.27,3.16-5.14.14-1.12-.33-.7-.68-.44s-.61.33-.1-1.46c.58-.71,1.66-2.89,1.84-1.24l-.16.64c1.24-4.24,2-4.81,2.86-5.3a2.8,2.8,0,0,0,1.07-1.55,11.85,11.85,0,0,0,.41-2.07,28.72,28.72,0,0,0,.25-3.56c-.54-.06-.48,2.79-1.25,4.24-.5,0-.59-1.56-.56-3.82s.18-5.1.38-7.38c.48,1.82.7-3.4,1.25-6.24.68-.27.5,1.81.22,4.31-.16,1.22-.36,2.48-.49,3.65a12.78,12.78,0,0,0-.12,2.78c.13-.64.29-1.24.41-1.92l.38-2c.27-1.32.48-2.79.7-4.23l-.41,1.61c0-1.88.09-3.68.07-5.59s0-3.71-.06-5.58c-.1,3.69-.58,4-.92,3.08a14.61,14.61,0,0,1-.64-4.53c.75-6.17,1.32-12.87,2.61-11.35-.65-.81-.83-3.33-.89-6.37,0-.75,0-1.55,0-2.37s0-1.57,0-2.37,0-1.58,0-2.35l0-1.62a9.56,9.56,0,0,1-.48,2.07c-.16.33-.3.16-.42-.24-.26-.7-.49-1.95-.68-2.63l.82-3.36.11-.42a1.37,1.37,0,0,1,.1-.35l.19-.54.38-1a4,4,0,0,0,.3,1.81c.07.12.15.09.24,0a2.38,2.38,0,0,0,.28-.36c.4-.61.88-1.45,1.32-.92a2.41,2.41,0,0,1,.66,1.05,2.86,2.86,0,0,1,.07.28c0,.16,0,.4,0,.6,0,.42,0,.86,0,1.31-.06.9-.16,1.86-.28,2.82l-.17,1.45-.09,1-.09,1.07c.09-.34.18-.68.26-1l.12-.49.06-.24,0-.16c.13-.42.23-.83.32-1.23a14.57,14.57,0,0,0,.3-2.24,14.85,14.85,0,0,0,0-2l-.05-.49a1.53,1.53,0,0,0-.06-.37l-.16-.45-.35-.94a7.91,7.91,0,0,1-.28-.91,2.46,2.46,0,0,1,.21-1.79,1.87,1.87,0,0,1,1.15,1.89c.22-.12-.06-.72-.29-1.59s-.41-2,0-2.5a1.94,1.94,0,0,1-1.08-.3c-.43-.28-.85-.86-1.05-2.25a3.7,3.7,0,0,1,1.64-.83,4.62,4.62,0,0,0-.6-3.09,12.24,12.24,0,0,1-1.31-4.5,3.14,3.14,0,0,0-1.15.31,7,7,0,0,1-.43-3.75,8.23,8.23,0,0,0-.48-4.08,19.56,19.56,0,0,0,.15,4,9,9,0,0,1-.06,3.4c-1.43-1.26-.49-4.43-1-7.45.55-2.22.83-2.89,1.14-3.25s.65-.37,1.4-.69a74.36,74.36,0,0,1,1.85,9,34.59,34.59,0,0,0,2.55,8.48,42.51,42.51,0,0,1,.08-5.49c.16-1.77.6-3.05,1.18-2.28a54.49,54.49,0,0,0,.15-7.59,49.32,49.32,0,0,0-1.08-7.73c.89-2,1.89-1.45,2.83-.07a14.13,14.13,0,0,0-1.33,3,4.74,4.74,0,0,1,2.55-1.87,2.63,2.63,0,0,1,1.83.14c1,.48,1.83,1.67,2.6,4.05.5.72.83-.07,1.08-1.54s.39-3.68.5-5.63c.42,1,.81,2,1.19,3.06v-1.33c.5-1.49.94-.94,1.31.33s.68,3.22.95,4.66c-.41,1.31-.85,0-1.07,1,.18,3.44.9,6.26,1.73,7.16-.23.51-.69.95-1.09.91s-.76-.51-.86-2.14c.05-.54.23-.88.28-1.44a23.75,23.75,0,0,0-1.44-2.33,12.46,12.46,0,0,1,.95,5.95,14.59,14.59,0,0,1-1.13,5.23c.64,1.19.8-.09.93-1.46s.23-2.69,1-.46a37.64,37.64,0,0,0-.09,6.46c.15,1.62.43,2.95.67,4.27a15.74,15.74,0,0,1,.32,3.82,9.06,9.06,0,0,1-.13.91l-.12.43c-.05.12-.07.43-.12.63a10,10,0,0,1-.86,2.59c.82,2.43,1.82,5.08,2.78,8.1l.18.57.09.29.1.41c.14.54.29,1.09.43,1.65.28,1.1.55,2.23.83,3.43.54,2.38,1.05,4.87,1.53,7.55,1.13-.88,1.65,6.65,2.81,4.15a35.41,35.41,0,0,0-.85-7c-.46-2.1-1.06-4.08-1.65-6.12-.3-1-.57-2-.83-3-.12-.5-.23-1-.35-1.48s-.17-.78-.24-1.17a12,12,0,0,1,0-4.7c-1.09-3.24-2-2-2.89-3.35-.13-.73-.26-1.46-.35-2.14-.05-.39-.07-.57-.08-.76s0-.4,0-.58a1.92,1.92,0,0,1,.51-1.55,5.4,5.4,0,0,0,1.14,2.06c.2.16.41.43.61.58s.4.3.59.45c.78.59,1.5,1.42,2.19,5.78.45-.63.31-2.7,0-5-.15-1.1-.3-2.26-.45-3.34s-.24-1.91-.28-2.62c.68.58,1.21-.45,1.35-2.73a21,21,0,0,1,2.15,4.35c.76,1.95,1.48,3.71,2.12,5-.72-.83-.8.9-1.26.2l3.18,8.76c-.41,2.47-1.17,3.65-2,2.4a65.14,65.14,0,0,0,1.56,8.11c.55,2.48.84,4.49.05,5.57.68,3.07.81,2.15.84.46a34,34,0,0,1,.16-4.62l.17.41-1.13-6c1-.92,1.1.77,1.27,2.74s.4,4.28,1.35,3.56c1.76-1.7,1.74.12,1.56,3.34-.09,1.61-.22,3.57-.24,5.38a12.84,12.84,0,0,0,.41,4.15,4.6,4.6,0,0,1-3,0c.44,1.32.9,2.56,1.37,3.71a1.58,1.58,0,0,0-1,0c-.31.1-.64.29-1,.42-.7.26-1.46.28-2.41-1.36.78,3.93,1.72,8.84,2.81,12.95a41.89,41.89,0,0,0,3.13,8.86c.31,3.07.41,5.1-.17,6.06,1.64,1.24,2.68,3.58,3.9,5.87.31.58.62,1.15.94,1.72s.67,1.11,1.05,1.61a11.17,11.17,0,0,0,2.77,2.71l.23.12c1.32.39,1.75.24,1.5,0s-1-.84-1.71-1.52c-1.38-1.38-2.48-3.18-1-2.57a5.9,5.9,0,0,0,1,1.2,6.09,6.09,0,0,0,2.62,1.22,6.61,6.61,0,0,0,1.46.07l.66,0,.58-.13a2.54,2.54,0,0,1-1,.14l-.64,0a4.62,4.62,0,0,1-.7-.15,7.56,7.56,0,0,1-3-1.66,20.77,20.77,0,0,1-4.37-6.17c.81,1.33,1.26,1.43,1.53,1.25s.39-.69.67-.68a31.86,31.86,0,0,1-2.64-5.05c.21-1,.81.31,1.7,2s2.15,3.65,3.18,4.24a2.33,2.33,0,0,0,.31.16c-.22.1-.38.21-.32.48-.73.34-.48.89-1.44,1.43.38.33.84.66,1.4,1.07a9.06,9.06,0,0,0,3.28,1.4,7.34,7.34,0,0,0,4-.38,9.81,9.81,0,0,0,2.89-1.91c.39-.33.69-.67,1-.95a7.24,7.24,0,0,1,.81-.78c.62-.57.46.09,0,1a22.5,22.5,0,0,1-1.73,2.78c.25.12.56-.05.87-.4a7.44,7.44,0,0,0,1-1.35c.6-1,1.1-2,1.47-1.52-.07,1.79-1.38,2.28-2.39,3.75a22.78,22.78,0,0,0,3.6-4.73,50.18,50.18,0,0,0,2.68-5.28c.31,1-.88,4.15-1.89,5.43a10,10,0,0,0,2.31-4.38,35.3,35.3,0,0,0,1-9c.8-1.87,1.71-3.91,2.42-5.33s1.3-1.92,1.48-.15c.2-3.36-.61-2.39-1.1-3.37a28.78,28.78,0,0,0,.41-9.34,41.14,41.14,0,0,1-.47-7.2c-.45.85-.92,1.59-1.36,2.3a9.88,9.88,0,0,0,.49-3.34,3.78,3.78,0,0,0-.51-1.64c-.47-.89-1-1.6-.34-4.41,1.09,2.1,2.44,3,3.79,2.78a8.34,8.34,0,0,1-.27-4.37c.22-1.7.57-3.65.66-5.34-.65.77-.83-1.14-1-2.55s-.46-2.34-1.17-.05a37,37,0,0,1-.13-4.67c0-.66.07-1.29.11-1.89s.1-1,.14-1.46a12.75,12.75,0,0,0-.42-5.66c-.5,2.6-1.07-4.93-2-2.7.14-5.47,1.79-9.14,3-7.59-.19,1.87-.86,4.86.17,4.69l.24-9.91c.77-2.41,1.26-5.54,2.69-5.83-1.42-3.27,1.81-9.12.16-11.65.9,3.39-1,5.84-1.25,7.1l-.15-1.53a6.57,6.57,0,0,1-.14.78c-.7-1.47-1.4-3-2.07-4.45-1.32,4,1.51.87,1,6.63-1.32,2.43-2-.47-2.52-3.35s-.89-5.76-1.85-3.2c-1.1,4.26,1.16,3.69,1.73,7.29l.11-.92c.14,2.7.29,5.4.47,8.1-.8.34-1.3-2.14-1.3-2.14-.55,9.76-1.8,11.22-2.55,21.73.33-.75,2.81-2.72,3,2a7.64,7.64,0,0,1,0,2.07,7.23,7.23,0,0,1-.4,1.59,10.55,10.55,0,0,0-.9,3.2c-.2-2-1.46-3.6-.49-5.8l-1.66.12c-1.67-8-3.47-3.89-3.58-14.65-1.2-.54-1.47-8.38-.71-14.27l-1.28,2.8c-1.69-6.24,1.74-1,.58-9,2.44-3.11,5.65-8.73,7-4.2,1.11-5.39.17-7.39,1-12.33,1.16-1.35,1.58-.87,1.93-.11s.68,1.8,1.62,1.67c.35-3.49.7-8-.92-5.67a44,44,0,0,1,2.67-6.25c.41,0-.44,2.18-.72,3.08.56-1.19,1-3,1.6-4.63a37.83,37.83,0,0,1,1.57-3.94,22.69,22.69,0,0,1-1.8,2.49,9.15,9.15,0,0,1,3.26-4.44,9.4,9.4,0,0,1,1.35-.67l1.27-.33a5.57,5.57,0,0,0,1.44-.24,12.53,12.53,0,0,0-3.42.3,7.2,7.2,0,0,0-1.28.35,7.48,7.48,0,0,0-1.12.45,6.09,6.09,0,0,0-3.38,4.21,3,3,0,0,1-.18-1.42,3.11,3.11,0,0,1,.43-1.18,3.73,3.73,0,0,1,.47-.7,9.27,9.27,0,0,1,.77-.76,14.81,14.81,0,0,0-4.36,4.88,12.53,12.53,0,0,1-2.44,3.44A11,11,0,0,0,501.1,382a11.21,11.21,0,0,0,.55-1.87c.28-1.16.31-2.07.47-2.52a19.9,19.9,0,0,0-2.63,6,20.21,20.21,0,0,0-.77,5.1c-1.05,0-1.58,2.8-1.85,5s-.45,3.95-1.23,1.95c.62.71.12,4.78-.59,6.85-.87-.29-.71-5.77-1.3-8.35,1.12-11.53,1.41.51,2.53-2a71.9,71.9,0,0,1,1.94-8.73c-.29.41-.35-.6-.53-1s-.62-.08-1.4,2.9a14.72,14.72,0,0,1,.74-6.62,19,19,0,0,1,.87-2.18,20.81,20.81,0,0,1,1.34-2.34c.3-.42.62-.83.95-1.23l.49-.59.63-.63c.43-.42.85-.8,1.32-1.18a18.92,18.92,0,0,1,1.65-1.1c.82-.94-.35-.34-1.88.89a26.14,26.14,0,0,0-1.88,1.91c-.47.6-.88,1.16-1.15,1.52.07-.23.19-.56.35-1a10.05,10.05,0,0,1,.61-1.39c.57-1.06,1.13-2.13,1.63-2.92s.36-1.11-.83-.49a15.61,15.61,0,0,0-4.93,5c.47-.73.64-.8.52-.45s-.29.94-.44,1.51c-.28,1.14-.32,1.92,1.51-.47-2.8,4.47-5.59,12.56-5.76,8.85-1,4.18-1.27,10.92-1.4,13.75-1,.68-.05-2.47-.21-4-.41,3.43-.66,6.73-.84,10l1.34-2.66c-1.58,7.06.56,11.69.91,17.28-1.56-.87-1.41-5.48-1.9-9.25-2.24,3.36.8,2.42.11,8.17-.35.76-.75.93-1.22.52l1.14,4.67c-.27,1.32-.57.55-.63,0,1.34,7.9,2.27-.05,2.5,10.41,1.13-6.22-.87-5.37-.43-10.67,1.34-3,1.75,6.18,2.37,7.72-.62,5.07-3.08,5.55-2,12-.59-4.54-1.51-.24-1.28-6.65-.67-3.63-.81,1.86-1.78,2.57.23,1.7,1.76-1,1.32,3.64l-.23-.2.71,3.89.36,1.93c.13.43.26.76.39,1.16-.06.25-.11.51-.15.77a5.16,5.16,0,0,0-.08.7,12.24,12.24,0,0,0,0,1.48c.07,1,.22,2.19.35,3.36.24,2.3.33,4.78-.64,4.76.54.59,1.09,1.15,1.64,1.66,0,3-.33,7.11-.27,9.93a27.52,27.52,0,0,1-.85-7,45.17,45.17,0,0,0-.32,7.48c.11,3.89.2,7.41.29,10.47.75.45,1.13.36,1.45.16a14.9,14.9,0,0,0,1.17-1,17.75,17.75,0,0,1,.22,4.78c-.14.78-.43.88-.77.86s-.71-.16-1,.23-.58,1.3-.77,3.53a48.93,48.93,0,0,1-.87-5.47,21,21,0,0,0-1.09-4.56c.23,5.29-1,7.74-2.75,12.46a17.46,17.46,0,0,1-.28-8.2,67.67,67.67,0,0,1,1.75-7.07c1,1,1.21-1.53,1.29-3.72s.05-4.19.78-3.68a11.18,11.18,0,0,1-1.05-1.24c0-1.92.09-3,.12-4.16a20.21,20.21,0,0,0-.24-4l.21.53c-.46-1.36-.94-2.65-1.41-3.87l-.08.86c-.39-1.18-.89-2.8-1.32-4s-.77-2.12-.78-2.31c.13,1.76,2.49,6.72,3.61,11.37-.2,1.5-1,.8-1.56.12s-1-1.21-.58,1.63c-.31-1.07-.69-1.91-1-2.92a20.22,20.22,0,0,1-.8-3.6c-.08-1.07.09-1,.19-1.09s.09-.35-.36-1.83c-.09.92-.55-1.25-.62.3a70,70,0,0,1,1.22,7.62,48.77,48.77,0,0,1,.18,8.56c-.25,1.65-.86,3-1.72,3.33s-1.68-.17-2.18-1a7.32,7.32,0,0,1-.75-1.83.53.53,0,0,0,.78,0,5.52,5.52,0,0,0,1.29-3.15,17,17,0,0,0,.06-5c-.22,2.8-.93,1.51-1.22.33s-.47-2.31-.54,1.69c-1-1.88-1.78-4.64-.89-9.56.3-.43.38.27.51,1.19s.31,2,.59,1.68a13.59,13.59,0,0,1,0-3.46,6.15,6.15,0,0,0,.43,1.15,2.11,2.11,0,0,0,.18.33,13.77,13.77,0,0,1-.17-1.43c-.23-2.81-.08-4.15-.34-4,0,.51-.09,1.54-.14,1.79-.1,0-.15-.53-.23-.55l.68-5c-.19,1.09-.1-.07.05-.77s.33-1-.12,0l.24-.59a13.22,13.22,0,0,1-1.09,1.9c-.68,1-1.49,1.77-1.78,1.22.73-.37,1.28-1.32,1.95-2.07-.38.28-.29,0,0-.3a3,3,0,0,1,.86-.73,7,7,0,0,1-1.23.64c-.37.12-.71.09-.93.43a1.48,1.48,0,0,1-.93.23.69.69,0,0,1-.32-.16,1.36,1.36,0,0,1-.25-.41,1.86,1.86,0,0,1-.1-.25l0-.13a1.15,1.15,0,0,1-.06-.24c-.11-.59-.21-1.2-.3-1.8-.18-1.2-.32-2.35-.42-3.29.89-1.27,1.62,1.56,2.3,4l.25.87c.05.19.06.11.08.17l.08.06a.56.56,0,0,0,.34.15,2.24,2.24,0,0,0,1.1-.42.28.28,0,0,0,0-.09c0-.2-.07-.39-.1-.56a7.7,7.7,0,0,0-.25-1,2.37,2.37,0,0,0-.57-1.07c-.38-.31-.71.17-.71,1.5a184.61,184.61,0,0,1-1.16-19.3c-1.65-5.18-2.44-8.71-3.23-11.73a34.33,34.33,0,0,0-1.25-4.09A13.46,13.46,0,0,0,473,405.8a23.38,23.38,0,0,0,1.71,4.92,20.23,20.23,0,0,1,1.25,6.8c-.91-2.16-1.79-4.23-2.68-6.11-.23-1.15-.44-2.29-.62-3.43s-.37-2.21-.54-3.31c-.32-2.23-.62-4.35-.91-6.38s-.6-4-.9-5.82-.68-3.42-1.06-4.93c.72,1.68,1.5,3.25,2.21,5.16l-.26,0c1.2,1.36,2.85,10.89,3.56,8.62a18.28,18.28,0,0,1-.84-1.92c-.25-.63-.48-1.29-.68-2-.41-1.37-.73-2.85-1.1-4.3s-.72-3.1-1.21-4.54c-.24-.74-.5-1.48-.79-2.22a14.58,14.58,0,0,0-1-2l.25-.12c-2.38-5-4-9.85-5.68-13.32s-3.41-5.38-5.29-4.51a6.84,6.84,0,0,1,1.38,2.64c.35,1.11.49,2.26.15,2.37a13.32,13.32,0,0,0-2.11-3.69c-.8-1.08-1.48-1.93-1.35-2.53l1,.44a19.58,19.58,0,0,0-3.45-3,6.68,6.68,0,0,0-1.32-.74,3.13,3.13,0,0,0-1.07-.32c-.51.44-.52,1-.74,1.4s-.57.62-2,.27c-1.8-.9-2.83-1.2-3-1.54s.36-.55,1-.78,1.26-.43,1.4-.71-.08-.72-1.56-1.19a17.61,17.61,0,0,0-8.74,1.95c-.59-.16-1.08-.31-1.62-.49a12.68,12.68,0,0,0-5.44,3.33,20.73,20.73,0,0,0-3.77,5.78c-.28.57-.55,1.2-.81,1.86s-.53,1.26-.77,2l-.75,2.16c-.23.79-.46,1.59-.7,2.39s-.46,1.71-.69,2.56c-.11.44-.23.87-.34,1.31s-.22.95-.33,1.42c-.22,1-.46,1.88-.68,2.91s-.43,2.09-.66,3.13a7.29,7.29,0,0,1-.43-3.44,26.14,26.14,0,0,1,.19-2.69c.11-.9.26-1.86.44-2.83s.39-1.87.61-2.74c.12-.43.24-.86.35-1.28l.18-.62c.06-.18.12-.36.19-.54a27,27,0,0,1,1.32-3.29c-.67.16-1.25,1-1.8,2.06a13.64,13.64,0,0,0-.76,1.93c-.24.75-.49,1.44-.7,2.32-.42,1.75-.87,3.47-1.28,5.44l-.34,1.38c-.12.44-.25.89-.36,1.37a25.52,25.52,0,0,1-.8,2.67,26.25,26.25,0,0,0-.49,2.82c-.13,1-.23,1.9-.31,2.81a45.52,45.52,0,0,0-.08,5.15,19.66,19.66,0,0,0,.39,3.53c.19.83.43,1.25.67,1.17-.22,5.36-.53,7-.94,7.47s-.81-.37-1,.21c.74,2.5.74,6.88.61,11.81-.09,2.45-.18,5.06-.27,7.6,0,1.19-.07,2.37-.11,3.51,0,.56,0,1.12,0,1.66v.57l0,.45-1,.18.48,3.68.24,1.83c.1.17.19.35.29.54.13-.54,1,0,1.66.15,0,.22-.09.48-.13.65a1.9,1.9,0,0,0,.77-.93,2.31,2.31,0,0,0,.1-.28c0-.19.06-.46.09-.69.05-.48.09-1,.11-1.46,0-1,0-2,0-3,0-.54-.06-1.09-.08-1.64l-.06-2.45c-.16-6.58-.15-14.5,1.78-19.17,0,2,.3,1.83.54,1.71s.48-.22.56,1.68c-.27,2.84-.45,3.35-.85,3.43.71,2.34,1.2,7.15,1.46,1.16,1,.79,1.27,3.91,1.33,7.76v7.25l0,1.12c0,.74.07,1.46.14,2.15-.78,2.13-1.25,1-1.63-1-.2-1-.38-2.16-.56-3.28a33.65,33.65,0,0,0-.55-3.93c0,.78.06,1.53.13,2.27,0,.38.07.75.1,1.13l.06.56c0,.13,0,.27.05.4a10.23,10.23,0,0,1-.14,3.73l-1.58-.8c.07.94.14,1.68.22,2.26,0,.29.08.53.12.74a.76.76,0,0,0,.14.3.56.56,0,0,0,.6.32c.44-.05,1-.57,1.75,0a2.34,2.34,0,0,1,.62,2.8c-.3.94-.84,1.62-.79,2.23l-.33-1.43a6.64,6.64,0,0,0,.07,3.6,12,12,0,0,1,.43,4,4.8,4.8,0,0,1-1.28-.27,1.81,1.81,0,0,0,.45-1.7,8.62,8.62,0,0,0-.64-2.22c-.59-1.43-1.3-2.46-.86-3-.84,1.51-1.61.26-2.37-.9a8.89,8.89,0,0,0-2.16-2.78c.26.7,0,1.34-.82.72a3.31,3.31,0,0,1,.74,1.41.64.64,0,0,1-.13.54c-.09.11-.16.2-.07.6s.32,1.15.84,2.7c-.16,0-.39-.73-.6-1.34s-.39-1.14-.44-1c-.26.41,0,1.58.28,5.75-.24.47-.67-2.1-1.12-4.31-.3-.47-.47,0-.8.71s-.56,1.73-.87,2.56-.65,1.43-1,1.36-.61-.82-.68-2.31a16.06,16.06,0,0,0,.64-1.53c0-1.12.1-2-.79-.16a9.07,9.07,0,0,0,.53-2.46c0-.29-.25-.29-.48-.4a.82.82,0,0,1-.49-.75,2.13,2.13,0,0,1,.81-1.64.52.52,0,0,0-.17-.63,2.24,2.24,0,0,0-.36-.31l-.22-.14-.05,0-.08-.16-.16-.33a23.72,23.72,0,0,1-2.5-6.28c.63-.1,2.08,1.59,1.88-1.64q-.39-1.87-.75-3.72-.6-3.27-1.18-6.49c-.81-4.46-1.62-8.85-2.47-13.12a226.79,226.79,0,0,0-5.73-23.75,76.57,76.57,0,0,0-3.54-9.39c-.32-.7-.63-1.4-1-2s-.65-1.26-1-1.85l-1-1.68c-.34-.58-.68-1-1-1.56a35.84,35.84,0,0,0-4.24-5.17,26.37,26.37,0,0,0-4.89-3.92c.13-.21.91,0,1.26.14a19.32,19.32,0,0,0-4.58-2.4,14.79,14.79,0,0,0-4.81-.64,12.56,12.56,0,0,0-5.06,1.21,13.33,13.33,0,0,0-3.42,2.37,20.6,20.6,0,0,0-2.47,2.77,45.73,45.73,0,0,0-3.78,6.23c-1.13,2.17-2.18,4.41-3.24,6.66-.14.73-.39,1.7-.61,2.95s-.46,2.49-.59,3.81a20.57,20.57,0,0,0-.15,3.23c.07.82.26,1.24.6,1,.89-3.07,2-1.17,2.54.46-.2,1.74-.39,3.07-.55,4.15a17.94,17.94,0,0,1-.47,2.44c-.31,1.14-.63,1.45-1,1.55-.67.22-1.4-.24-1.81,5-.56.16-.88-.25-1.07-1a16,16,0,0,1-.24-3.19c0-1.23,0-2.57-.07-3.78a6.77,6.77,0,0,0-.62-2.88c-.44,5.66-.6,11.67-.6,17.55a118.64,118.64,0,0,0-1,13.94c-.06,2.32-.13,4.66-.27,6.78a34,34,0,0,1-.64,5.42,2,2,0,0,0-.09-1.13c-.06-.1-.13-.26-.21-.41l-.23-.43c-.3-.62-.52-1.6,0-4.6.05,1,.22.36.28,1.3.41-7.17.29-9.32,0-11.31-.13-1-.26-2-.34-3.57s-.12-3.82,0-7.26c-.21,6.1-.32,13.27-.48,20.08q-.06,2.44-.12,4.83c0,1.11-.08,2.2-.11,3.27,0,.9-.09,1.78-.15,2.62,0,.42-.07.83-.1,1.23,0,.17,0,.44-.06.54l-.05.19c.74-.19.88.27.95.93a2.68,2.68,0,0,0,.51,1.68l-.15.06c.62.25,1,2,1.15,2.62a15.17,15.17,0,0,1-1.82-1,1.1,1.1,0,0,0,.55.82,1,1,0,0,1,.54.88c.38,1.7.12,8-1.64,4a24.42,24.42,0,0,0,.36,3,6.18,6.18,0,0,1,0,2.66c-.37-1.43-.47-2.28-.66-3-.36.88-.58,2.42-1.16,3.73-.3.63-.7,1.24-1.38,1.26s-1.42-.77-1.79-1.93a10.68,10.68,0,0,1-.33-1.21,6.69,6.69,0,0,1-1.4-.17c-.43,0-.85.21-1.43.92a6.41,6.41,0,0,1,.31,2.16,5.74,5.74,0,0,1-.56,3.12c-.32.62-.56.32-.77-.19a9.08,9.08,0,0,0-.68-1.63,11.68,11.68,0,0,0,.27-3.34c0-1,.06-1.49.56-.94.6-2.63.3-3.47,0-4.43a3.47,3.47,0,0,1,.27-3.29c-.3.22-.5-.54-.77-1.36a3.53,3.53,0,0,0-1.24-2.07c.83-.74.87,1.37,1.43.83l-.48-1.1.59-.36a2.23,2.23,0,0,0-.33-1.41,3.07,3.07,0,0,0-.43-.59c-.08-.12-.15-.13-.26-.33l-.34-.7a23,23,0,0,1-2.44-5.52l.27.14-.82-3.11,2.26,3.45a36.46,36.46,0,0,0-2-6.3c-.46-1.49-.91-3-1.37-4.57s-.9-3.45-1.33-5.52l.36-1.17q-.71-2.44-1.41-4.75c.24.78.51.89.54.22-1.13-1.84-2-5.41-2.93-8.84-.45-1.71-.91-3.36-1.37-4.72a8.14,8.14,0,0,0-1.4-2.82c-.27-1.55-.19-3.76-.37-5.67a14.59,14.59,0,0,0-.43-2.68,2.86,2.86,0,0,0-1-1.6l1.36-2.63a27.74,27.74,0,0,1,1.38,4.78,14.67,14.67,0,0,1,.26,2.57c.07,1.46.2,2.69,1.73,7.79A40.93,40.93,0,0,0,330,396c-.17-1.83-.47-3.67-.83-5.66a65.45,65.45,0,0,0-3.24-11.4,42.22,42.22,0,0,0-4.52-8.6,33.34,33.34,0,0,0-4.72-5.5c-.72-.43-1.54-1-2.44-1.59s-2-1.2-3.23-1.86a14.79,14.79,0,0,0-2.77-.88,11.7,11.7,0,0,0-3.3-.16,10.49,10.49,0,0,0-5.25,2,9.49,9.49,0,0,0-3.94,6.4l.1-2.23a34.85,34.85,0,0,0-3.52,4.25A41.38,41.38,0,0,0,289.1,376a87,87,0,0,0-3,10.64A125.82,125.82,0,0,0,284,399.77a172.9,172.9,0,0,0-.85,27.08l-1.19,4c.07.5.15,1,.23,1.56l.11.82.05.41c0,.13,0,.19.05.3.15.73.27,1.5.38,2.32s.19,1.66.27,2.54c0,.45.07.89.1,1.35,0,.24.07.48.11.72.14,1,.24,1.88.32,2.87s.13,2,.19,3.06a68.09,68.09,0,0,0,2.06,14.94c-.59.95-.9-.23-1.15-1.65a29.26,29.26,0,0,0-.78-4c-.25.76.14,3.32.29,5.81s.08,4.77-.85,3.37c-.47-1.74,0-4.57-.53-4.2-.58-.75-.42.45-.3,1.76s.2,2.69-.48,1.58a23.37,23.37,0,0,1,.95,7,22.86,22.86,0,0,1-1.09,8.08c.34-.35.32-.36.53-.09a6,6,0,0,1-1.71,6,5.43,5.43,0,0,1,.28-1.6,4.54,4.54,0,0,1-2.84,2,3.77,3.77,0,0,1-2.93-.62,11.62,11.62,0,0,1-3.48-4.31,39.65,39.65,0,0,1-2.37-5.7,113.63,113.63,0,0,1-3.49-13.58c-1-4.85-1.81-9.93-2.51-14.92q-.54-4.12-1.08-8.19-.58-4.6-1.09-9.16l1.65,4.88c-1.27-3.8-1.87-10.78-2-13l.19.55c.7-7.6-3.16-7.9-2-13.89l.4,1.08c-.82-4.4-1-8-1.39-11.58a39,39,0,0,0-2.68-11.39,44,44,0,0,1-.81-6.69,18.48,18.48,0,0,0-.74-5.44,15.47,15.47,0,0,0-3.33-4.72,11.39,11.39,0,0,0-1.35-1.06,2.76,2.76,0,0,0-.71-.36c.32.39.56.76.81,1.13s.51.76.71,1.13c.21,1.45-.57.42-2.1-1.32-.42-.43-.87-1-1.36-1.39A12.86,12.86,0,0,0,245,366a9.25,9.25,0,0,0-3.14-1.51c.78,1.27.38,2.34.6,3.84a76.44,76.44,0,0,0,2,7.42,7.41,7.41,0,0,1,1.25,5.69,12.35,12.35,0,0,0,.62,6.34c1.63,1.44,1.82,3.82,1.95,6.45s.26,5.53,1.87,8.24c-2.17-2.78.49,7.11-2.22,2.36-.76,2.57,3.61,12.18,2.84,17.08-.47-.69-.82-.45-1.19-1.52,2,6.32-.4,4.61.35,9.42l1.62-.44c.82,1.77-.25,2.51.29,4.13,0-1.34.34-4.23,1.24-2.87A35.61,35.61,0,0,1,255,437c-.63.12-1.17-1.52-1.54-2.62,0,0,.65,5.24-.06,5.73-.82-1.79-1.19-4.2-2.36-5.7.57,6.93-.45.63-1.24,4.17,1.82-1,1.61,5,3,11.3-.32.43-.54-.5-.76-1.7a11.76,11.76,0,0,0-.84-3.17,26.46,26.46,0,0,0-.35,4,30,30,0,0,0,.18,3.74,39,39,0,0,0,1.38,6.58c.6,2.09,1.3,4.11,2,6.44a72.3,72.3,0,0,1,1.85,8.38c-.23.05-.73-1.3-1-2a36,36,0,0,1,1,4.21c.25,1.39.43,2.83.64,4.08a32.28,32.28,0,0,0,.69,3.45,5.21,5.21,0,0,0,1,2.13,13.21,13.21,0,0,1,.39,5.25,8.59,8.59,0,0,0,.16,2.43,14.2,14.2,0,0,0,.46,1.73,16.6,16.6,0,0,0,.89,2.13c0-2.64.82-.53,1.78,1.51s2.11,3.95,2.46,2.28c.32,1,.65,1.9,1,2.82s.71,1.8,1.09,2.63c1.23.49,1.24-1,1.49-2,.12-.49.31-.85.71-.72s1,.74,2.21,2a15.59,15.59,0,0,1,1.93,3,1.52,1.52,0,0,1-.15,1.44,3.1,3.1,0,0,0-.58,1.26c-.05.49.14,1.09,1,1.88.44-.16.87-.29,1.35-.42l.21-.08a11.93,11.93,0,0,0,3.81,1.82c-.22,0-.43,0-.64,0a29.51,29.51,0,0,0,4.63-.39c.74-.11,1.28-.28,1.71-.31s.64,0,.66.15c-.12.34-.74.75-1.45,1.11a7.09,7.09,0,0,0-1.69.91c1.07-.43,2.58-.85,3.94-1.33a31.07,31.07,0,0,0,3.86-1.61,7.59,7.59,0,0,0,4.55-6.86,4.35,4.35,0,0,0,1.05-.89c.38-.37.75-.84,1.1-1.23.7-.71,1.27-1.25,1.43-.14a7.36,7.36,0,0,1,.23-1.53c.07-.26.15-.51.24-.77s.18-.56.28-.85a18,18,0,0,1,.74-1.71l.82-2c.14-.34.29-.65.42-1s.27-.75.4-1.12c.26-.76.53-1.46.73-2.25a20.84,20.84,0,0,0,.74-4.58c.26,1.3,1.8-1.74,2-6.1-1.21,4.22-1.18.32-1.43-3.85a18.15,18.15,0,0,0,.95-3.9c.27-1.75.5-3.82.73-5.79s.45-3.93.73-5.42.6-2.57,1.05-2.82c-.21-4.13-.7-5.58-1.23-6.29s-1.15-.75-1.71-1.79c.62-2,1.05-6.77,1.52-10.37l.09-.69c0-.2.07-.5.1-.59.06-.26.12-.51.17-.74a6.08,6.08,0,0,1,.4-1.17c.3-.62.67-.85,1.14-.46-.09.57-.19,1.31-.27,2.09l0,.29,0,.4c0,.34-.05.68-.07,1,0,.68-.07,1.34-.09,2-.06,2.42.07,4.45.77,3.72.54-3.9.43-4.7.21-5.4a7.52,7.52,0,0,1-.36-1.24l0-.24,0-.17c0-.11-.05-.24-.07-.38a9.75,9.75,0,0,1-.07-1.08c.35.28,1.31-2.38,1.85-1.67,0-.53-.05-1.11-.05-1.72,0-.31,0-.63,0-1l0-.44v-.09a1.7,1.7,0,0,1,.1-.37c.05-.15.11-.09.2-.12a1.9,1.9,0,0,1-1.11-.28c-.32-.19-.62-.52-1-.42.23.22.46.34.69.56a5.84,5.84,0,0,0,.68.58,1.9,1.9,0,0,1,0,.42c0,.27,0,.51,0,.71a4.67,4.67,0,0,1-.16.89c-.12.39-.27.42-.44.34-.33-.15-.73-.73-1,.29,0-.6,0-1.15,0-1.67,0-.25,0-.5,0-.74v-.18l0-.05,0-.11a4.3,4.3,0,0,0-.3-.73,8.42,8.42,0,0,0-.87-1.06,7,7,0,0,1-1.68-3.79c.36-.38.92-.81,1-1,0,1.13,1.77,2.71,2.11,2.83-.69-1.39-.42-1.74.05-1.38a13.07,13.07,0,0,1,1.3,1.42,8.07,8.07,0,0,1-.94-1.63,19.21,19.21,0,0,1-.89-2.25c-.73-4.31.69.57,1.45,1.87,0-.6.19-.78.39-.64a2.81,2.81,0,0,1,.66,1c.44,1,.66,1.73,1-.25a38.09,38.09,0,0,0-.82-6.42c0,2,.1,4,.23,5.95a73,73,0,0,1-1-8.68,39.7,39.7,0,0,1,.48-8.51,3,3,0,0,0,.68,1.41,4.24,4.24,0,0,1,.7,1.29,4.09,4.09,0,0,1,0,2.17,3.38,3.38,0,0,1,1.23-.69c.08-2.58-.84-3-.09-4.51.16,1.22.48,2.67.57,4a6.9,6.9,0,0,1-.35,3.32c.18.54.42.7.66.42a5.07,5.07,0,0,0,.69-2.42,5.74,5.74,0,0,1-.35,3.38c-.28.86-.8,2.45-1.09,3.37.28,1.27-.47,4.8-.7,5.93a1.1,1.1,0,0,1,.29.19c-.28.93-.62,2.56-.86,3.66-.14.83,0,.1.17-.27s.24-.47-.18.94c.29-.89.6-1.74.9-2.56a11.66,11.66,0,0,1-.62,2.52c-.14.38-.2.54-.25.71a9.39,9.39,0,0,0,.85-.91c.41-.23.55-.13.52,0a1.41,1.41,0,0,1-.46.56c-.23.21-.51.33-.66.5a.58.58,0,0,0-.13.33c0-.06,0,.28.08.52l.14.78c.1.54.22,1.13.36,1.76,1.46,5.65,2.48,9.34,3.91,8.34l.09.3c0,.09.08.31.12.46.07.32.14.63.2.92.12.58.21,1.11.28,1.6a17.2,17.2,0,0,1,.18,2.52c0,1.51-.19,2.69-.24,4.22.81,2.22,2,5.59,3,9.17a60,60,0,0,1,2.26,11.44c-1.36-4.13-2.46-7.74-3.5-12.3-.58,1.24.08,5.51,1.05,10.36s2.31,10,3,14c.22.51.53,1.07.87,1.76s.72,1.5,1.14,2.3.9,1.59,1.38,2.46,1,1.57,1.53,2.38a24,24,0,0,0,5.91,6.16c-.37-2.09-.23-3.74.3-4.59s1.4-.87,2.59.09c-.3.48.32,2.22,1.25,4.14s2.23,4,3.14,5.44c-.52.1.46,2,1.18,3.24.37.61.65,1.09.53,1.25s-.67,0-1.76-.75c-1.2-1.7-1.48-4.15-3-5.29a18.91,18.91,0,0,0,2.08,4.77,18.15,18.15,0,0,0,1.85,2.53,18.38,18.38,0,0,0,2.46,2.22c-.17.2-.72.25-1.45.16a5.07,5.07,0,0,1-2.34-.85C339.73,516.18,339.25,515.48,339.17,514.88Z"/>
      <path class="lightbulb-cls-4" d="M494.1,415.54c0,.26-.07.51-.11.77l.42-.92C494.27,415.69,494.17,415.69,494.1,415.54Z"/>
      <path class="lightbulb-cls-4" d="M377.08,424a14.41,14.41,0,0,0-.06-2A15.49,15.49,0,0,0,377.08,424Z"/>
      <path class="lightbulb-cls-4" d="M390.35,479.08a3.92,3.92,0,0,1,.26-.76C390.51,478.3,390.42,478.48,390.35,479.08Z"/>
      <path class="lightbulb-cls-4" d="M505.63,409.76l.17,1.83A9.2,9.2,0,0,0,505.63,409.76Z"/>
    </g>
    <g>
      <path class="lightbulb-cls-4" d="M506.68,385.92v2.44A7.25,7.25,0,0,0,506.68,385.92Z"/>
      <path class="lightbulb-cls-4" d="M508.13,383.76a1.36,1.36,0,0,1,0-.2C508.09,383.59,508.09,383.65,508.13,383.76Z"/>
      <path class="lightbulb-cls-4" d="M252.43,554.8a7.09,7.09,0,0,0-1-2C251.86,554.09,252.18,554.64,252.43,554.8Z"/>
      <path class="lightbulb-cls-4" d="M322.16,685.8a.93.93,0,0,0-.42,0C321.91,686,322.06,686,322.16,685.8Z"/>
      <path class="lightbulb-cls-4" d="M506,414.47c.06-.38.11-.76.18-1.11C505.88,413.11,505.84,414.18,506,414.47Z"/>
      <path class="lightbulb-cls-4" d="M245,517.47a1,1,0,0,0-.44-.21A1.15,1.15,0,0,0,245,517.47Z"/>
      <path class="lightbulb-cls-4" d="M489.84,501.69c0,.34,0,.7,0,1.05A2.65,2.65,0,0,0,489.84,501.69Z"/>
      <path class="lightbulb-cls-4" d="M305.72,723.55a2.22,2.22,0,0,0,.79.72C306.21,723.76,305.92,723.42,305.72,723.55Z"/>
      <path class="lightbulb-cls-4" d="M309.53,722.54c-3.82-6.57-1.5,2.33-3,1.73,1.05,1.75,2.44,5.81,2.52,3.59-.74,4.58,5.75,10.56,5.69,15.23.29.07,0-2.51,1.74,0,2,4,.8,4.12,1.08,6,1.15.94,4.32,6.9,3.75,6.44,1.75,2.45.86-3.82,3.48-.49,2.6,1.87,2.93,5.87,4.72,8.66.65,4.05-2.38-3.23-3.54-4.5q2.66,4.92,5.4,9.81c.68,3.33-2.06-.66-3.29-3.73,1,4.48,4.34,9.27,6.11,9.87,1,2.64,1.91,3.84,2.64,6.44-1.85-2-3.84-.83-6-4.38-2.86-6.18,2.67,1.44.43-3.9l-1.45.15c-.38-2.57-2.15-3.91-3.38-6.27-.32-1.49.59.08,1.19.89-2.15-4.29-3.06-8-6-10.7,1.47,6.42,7.21,14.51,7.07,17.74q3.69,5.4,7.54,10.72c.56-.29-.59-4.75,1.91-1.94-.75,2.07.37,5.82,2.56,10.38.61-2.47,5.32,6.25,5.31,3.34a3.52,3.52,0,0,1-1.26-3.69c2.46,4.16,1.73-.23,3.12,2,2,3.92,1.77,4,1.44,4.06s-.7.14,1.3,4a44.81,44.81,0,0,1-8.59-8.21c-.52.68,2.48,4.18,2.77,6.4-.67-3,2.46.9,1.59-1.35,4.24,5.75,10.13,11.81,15.76,18.6-1.47.24-4.08-2.48-6.33-4.8s-4.21-4.23-4.75-2.23a14,14,0,0,0,3.15,3,8.63,8.63,0,0,1,2.48,2.66c.45,3.35,6,8.54,10.52,13.2-.48-.88-.9-1.75-1.34-2.62a21.4,21.4,0,0,1,3.46,3.26c1.25,1.33,2.54,2.76,3.66,3.82l-.83-.27c.87.55,1.73,1.08,2.65,1.6.35.35.38.49.32.56a30.79,30.79,0,0,1,3.09,1.82c.66.39,1.33.83,2.1,1.28l1.46.82c.5.27,1,.51,1.53.77A24.92,24.92,0,0,0,396.89,845c0-.32-.56-.45-1.42-.48s-2-.08-3.35-.2a23.56,23.56,0,0,1-7.64-1.79c-.23-.19-.85-.57-1.56-1-.37-.23-.73-.47-1.14-.78s-.81-.6-1-.81c-1-.95-1.48-1.69,0-1.24.44.28.91.53,1.53.87a17.58,17.58,0,0,0,1.66.79,24.11,24.11,0,0,0,3.26,1.17,23.4,23.4,0,0,0,6.5.84,28.5,28.5,0,0,0,13.47-4c-.53.24-1.07.44-1.61.63s-1.08.38-1.63.52c1.43-1.07,3.07-2,4.94-3.3a35.66,35.66,0,0,0,4.74-3.71c1.52-1.09,2-1.37,2.13-1.14s-.28.91-.78,1.67c-1,1.51-2.5,3.28-.4,2a8.53,8.53,0,0,1-1.79,2.1c-.39.34-.8.66-1.2,1l-1.43,1c-1,.69-2,1.22-2.67,1.76s-1.22,1-1.31,1.47a29.57,29.57,0,0,0,3.37-.75c.57-.17,1.13-.31,1.72-.53l.89-.33c.28-.11.5-.16.75-.25a34.65,34.65,0,0,1,5.19-4.52,21.5,21.5,0,0,0,4-3.54c-.86.58-1.76,1.16-2.66,1.72-.54-1.39,2.08-2.72,3.12-3.67l-2.81.18a42.39,42.39,0,0,0-3.71,4.41,9.11,9.11,0,0,1-4.17,3.2,19.07,19.07,0,0,0,3.26-3.46,19.76,19.76,0,0,0,1.46-2.44,40.82,40.82,0,0,1,4.47-6.47c.86.18-.81,1.47-.94,2.54,2.35-2,2.94-5.37,6-8.8-1,2.44-3,6.45-.07,4.26l.19-2.92c1.37-1.63,1.38-.58,1.9-1.29,1.86-2.38-1.65-.26,1.16-4,.61-.44,1.7-1.6,1.65-.84,1.38-2.31,1.58-2.93,1.68-3.56a14.34,14.34,0,0,1,.95-3.6c-1,1.94-2.12,2.66-2.65,2.38s-.55-1.54.41-3.59c3.23-5.52,3.9-9.93,7.44-13l.27-3c.56,2.23,2.08-3.43,3.06-5.16.85,0-.09,2.16-1,4.44s-1.74,4.69-.59,5.22c2-3.69,1.91-1.72,2-.21,1.66-4.23-.95-2.27-1.07-4.5.6.25,3.22-6.94,3.43-4,1.58-3.48.33-4.7,1.66-7.18.42.62,1,1.38,1.82,1.43-.36-.5,1.58-3.6,1.88-4.24-.52.5-.75-1.71-1.56,1.52-.81-1.21,2.79-7.25,1.76-7.45,1.45.18,2.77-6.53,4.47-9.57-3.23-.81-1,6.45-4,6.59.57-4.68,5.17-14.53,6.07-22,2.6-5.84,1.21.39,2.78-.45-1.35,5.75-2.75,6.83-3.87,11.83,2.41-5.07,5-13.89,5.24-18.09,1.7-5.8,5.21-5.41,6.57-12.69-1.31.62-1.5.4-2.55,2.47.21-2,1.24-4.06,1.85-6.08-.28-1.44-1.73,2.89-1.45-.09.51-1,1.35-3.34,1.92-2.67l-.05.5c1-7,3.92-4.14,3.62-10.5-.65.32-.36,1.77-1.1,3.09-1.1.86-1.2-3-.77-5.81.57.68.8-2.31,1.56-4.12,1.53-.92-1,4.8-.46,6l1.64-5.12-.49,1,.43-5.94c-.7,4-2,1.48-1.64-.28,1.31-3.84,2.59-7.71,3.79-6.88-1.2-.83.15-5.67.76-9.2-1.46,3.64-1.26.18-1.4-1l2.78-5.31c-1.16,6.07,1.5-1,2.05.68.93,2.07-.71,5.52-1.72,8.62,4.06-5.52.91-9,3.44-14.05.61.15,1.21.8.47,3.13.66-.84,0-5.19,1.65-8.64-.66.85-2.4,2.59-2-1.15l2.67-4.37c1.67-5.44-1.16-2.28-.78-7l-1.76,2.74c-1.22-.79,1.46-6.14,0-6.64-.71,2.82.05,4.67-1.08,7.54-1.7.78.14-3.95-.23-5.84,2.07-6,1.82-4.73,4-9.05,2.28.34,1,8.21,4.14,7.92,1-6.1,2.28-15,4-18.74.52-5.54-1.36-5.43-2.82-4.92a12.61,12.61,0,0,1,1.32-4.69l.17,2.68c.72-6.81.76-10.76,2.26-17.74.42-4-1.25-2.71-2.49-2l.63-4.33-.42.59c-1.24-1.25,0-4.94.62-7.79.62.12.42,1.89.84,1.81a20.72,20.72,0,0,0,1.41-8.45c.63.11,1.67,2.13.65,5.06-.21.29-.41.09-.62.37l-.2,5.24c.41-6,2.67-9.21,4.13-8.77.38-6-2.46,4.48-1.68-2.62,4.71-8.67,2.49-17.64,7.59-22-.09-4.46-.63-9.81.42-16.53-1.26-.21.28-4.56-1.38-4.17-2.71,6.11.36,12.37-2.86,17.08.06,3,1.3,2.19,1.74,3.59-.37,2.56-.94,4.93-1.78,5.11.3-6-2.72-2.13-1.44-9.61-1.22.76-1.93,6.88-2.71,9.52-.43-.9-1.25-.22-2.06,1.44-.65-2.1-.74-6.52-1.21-8.9.44.89,1-.48,1.26.22l-.4-8.08c1.18-2.25,2.21-2.74,2.66-1.35,1.14-4.23.68-11.81,2.56-11.51.64-5.61-1.41,1.58-2,2v-.49l-.85,5.9c-2.28.28,1.66-6.59-.26-7.88-3.79-1.58,2.63-8.06,2.66-12.29l2.07,5.22.05-4.24c.72,2.56,2.61,2.86,3.17,6.7,1-5.71,3.18-13.74,3.21-17.5,1.19-1.29,2.21-1.79,3.07-1-.92-6,2.26-8.84,3-13.82-.3-5.44-2.21,5.09-3.06,1,1-1.49.78-4.46.7-5.94.3,1.67-1.45,7.15-2.51,10.92.47-2.87-1-2.76-1.44-3.64L504,510c-1.69-.57.73-5.93.17-8.29,1.34,1.65,1.51.87,2.85,2.51,0-4.24.84-10.49,2.28-13.89.91-2,.54,1.86.82,3.05,1.2-.82-.07-4.26,1.35-4.89.88.77-.25,2.58-.15,4.07l2.09-12.15c.62.08.44,3.15-.06,5.05,1.21-3.61,1.21-6.39-.38-11,1.14-4.1,2.62-8.82,3.38-7.29-.16-2-.9-.75-1.53-.81,1-5.61-1.18-6.49-.86-9.87L512.55,459c1.81-5.33-1.81-1.48-.36-6.2,1.13.92,2.57.75,4,.07-1.14-.92.26-3.88.46-6-1.34,1.18-.67-4.62-2.22-1.35-.5-4.94,1.36-7,.11-10.72-.58,2.21-.9-4.29-1.94-2.43.3-4.68,2-7.79,3.23-6.41-.23,1.62-1,4.17.06,4.07l.43-8.57c.79-2.07,1.26-4.79,2.7-5-1.43-2.84,1.64-8-.17-10.26,1.08,3-.73,5.18-1,6.28l-.19-1.35a3.58,3.58,0,0,1-.12.69l-2.22-3.84c-1.18,3.49,1.58.72,1.22,5.75-2.55,4.19-2.86-10.05-4.55-5.61-1,3.65,1.28,3.13,1.92,6.24l.1-.8.5,7c-.8.27-1.29-1.87-1.29-1.87-.61,8.38-1.93,9.58-3,18.54.35-.62,2.9-2.18,2.92,1.88.31,2.94-1.13,3.14-1.51,5.53-.15-1.47-1.35-2.88-.28-4.72h-1.67c-1.39-6.91-3.29-3.53-3.11-12.68-1.18-.52-1.28-7.16-.61-12.08l-1.26,2.33c-1.74-5.23,1.79-.85.44-7.5,2.37-2.57,5.2-7.43,6.82-3.65.78-4.64-.32-6.29-.15-10.48,1.9-2.51,1.91,1.36,3.73.95-.07-3.09-.74-7-1.84-4.74l.89-5.8c.39-.15.34,1.94.28,2.76a17.38,17.38,0,0,0-1-7.93,5.57,5.57,0,0,1,.06,2.58c-.44-2.43-1.31-6.77-1.8-7.08.91,3.53-1.14,3.83,0,7.54a2.6,2.6,0,0,1-1.18-2.89c-1.1,3-1,6.07-2.23,7.31a5.44,5.44,0,0,0-.5-4.75,27.11,27.11,0,0,0,.29,8.42c-2,.27,0,8.95-2,5.85.71.51.61,3.86,0,5.6-.87-.21-1.14-4.68-2.09-6.63-.65-8.92,1.5.21,2.22-1.83l.07-6.81c-.31.67-1.36-2.75-1.36,1.67a14.13,14.13,0,0,1-1-9.82c-.59-.8-.51,1.73-.57,2.52-.58-.8-2.69-5.05-3.09.43.13-1.57.93,2.69,1.67-.13.21,2.21-.82,8.17-1.89,5.77.28,2.69.94,7.76,1.07,10-1,.59-.3-1.91-.7-3l.19,7.78,1.13-2.17c-1,5.65,1.2,9.43,1.64,14.1-1.57-.75-1.47-4.57-2.13-7.62-2.12,2.75.92,2,.32,6.7q-.51.93-1.2.42l1.15,3.89c-.28,1.09-.58.44-.64-.05,1.27,6.65,2.33,0,2.37,8.82,1.25-5.21-.77-4.56-.29-9,1.35-2.48,1.73,5.23,2.29,6.58-.73,4.27-3.2,4.55-2.37,10.08-.44-3.88-1.49-.29-1.07-5.7-.58-3.09-.86,1.54-1.85,2.08.17,1.46,1.79-.8,1.2,3.15l-.23-.18,1.15,6.68c-1.45,6,.56,13.9-1.8,17.85l1.8-.77c-.28,3.84-.86,9.26-.85,12-.89-.74-.68-3.31-.71-6.05a56.8,56.8,0,0,0-.06,17.78,52.26,52.26,0,0,0,2.83-6.79c1.81,4.76-2.12,5.1-1.71,11-1.67-.06-1.18-1.94-3-.72.81,2.53,0,6.49.62,9.33-1.8,1.22-2.79-1.51-2.15-7.41,2-4.28.17-9.52,2-13l-1.31,2.11c.08-4.52.7-7.18.37-11.09l.22.19-1.42-2.1-.25,2.06a24.06,24.06,0,0,1-1.67-7.25c-.48,6.37,2.08,7.13,3.18,10.33-.79,5.72-4,7.59-3.06,11.57-.82.22-2.06,3.29-2.45.65,0-3.21,1.27-5.31.19-5.76-.37,3.33-.89,2-1.35,7.07,1.34,1.14,2.24,5.12,2.91,8.91A38,38,0,0,1,493.45,503c.41-3.84-.47-7.84-1.66-7,1.19,2.44-2.27,7.28,0,6.46-.78,4.41-1.85,11.87-3.72,12.08,0-4.29,1.67-8.18,1.8-11.79-.18,1-.78,1.86-1.11,1.23l.94-5.2c-1.44,3.83-1.9,3-2.45,8,.19-.29.58-.89.6-.39-.14,1.26-.47,2.83-.61,4.11l-1.66-.09c.2,3.91-3,10.86-2.9,18l-.24-.67c-1.23,5.46,1.92,6.45,1.31,12.52-.48-1.87-1.3-1.19-2.12-1,.32,3.13-1.3,4.49-2.25,7.41,1.56-3.31,1.33,2.65,2.29.22,1.68.11.61,6.28-.15,9.4-2.45,1.5.56-10-2.43-5.62-.75,3.11.31,4.11,1.09,2-.93,3.89-2.25,9.83-4.08,12.43.72,5-.5,6.72,1,10.1.39-2.54-1.08-3,.33-6l.88,3.75c-.76,4.58-2.8,7.95-3.6,11l0-3.43.22.2c-.43-1.38.76-5.55-.48-5.29.87,3.25-1,5.35-.73,9.46l-.22-.2c-.15,7.14-4.71,11.45-2.64,16.42.21-1.26,1.87-3.54,2.28-2.64-1,1.43-1.66,5.71-2.5,5.37v-1.47c-1.05,3.87-1.69,6.19-1.7,7.66.82,1.31,1.87.37,1.85,3.32-2.14,6.75-1.85-3.32-3.76,1.17l-.28,6.64-1.27,1.2c-3,9.29-1.56,17.33-4,27.44-1.65-.22-.59-7.68-.12-10.19-2.15,2.78-1.25,7.74-3.26,11.69-1.17,3.83-.46,7.1.59,6.71-.61,4.94-1.79,3.18-2.22,3.72,1.37,2-.76,7.87-1.38,11.82l-1-.08-.34,6.33c.51-1.52,1,.1,1.65.26l-.5,1.52c4.26-5.19,1.56-13.77,6.14-19.06-.09,2,1.06-.41,1,1.55-.49,1.53-.7,1.8-1.13,1.87.58,1.13.67,3.79,1.44.51,2.05.68-.11,7.09-.58,11.76-2.25,3.23-1-4.23-1.54-6.34-.3,1.74.25,3.38-.92,5.72l-1.4-1c-.76,6.4.92,2,2.08,3.84,1.54,2.2-1.57,5.55-1.88,7.28l.12-2c-1.95,4.61-.59,6.14-1.92,10.42l-1.79,1.69c3.06-5-.34-7.22,1.29-10.1-3.59,7.48-2.74-2.56-3.42-5.36-.62,3.47-1.64,6.49-3,8.1.68,5.48-3.6,10.07-2.56,15.48-1,2.52-.43-2.59-1.27.14a89.72,89.72,0,0,0-3.69,16c-.89,2.73-1.45,2-2.34,2.6a76.46,76.46,0,0,0-4.21,16.1,67.7,67.7,0,0,1-4.88,16.84l-.07-2.36c-1.26,2.88-2.48,5.26-1.93,7.14-2,1.34-2.81,4.58-3.73,7.93s-2,6.8-4.33,8.46c-3.11,5.69-1.07,6.95-2.87,11.71-.57-.28-1-2.16-2.36,0a112.28,112.28,0,0,1-10.8,20.22A39.78,39.78,0,0,1,398,818l-1,.82a5.22,5.22,0,0,1-.68.43,3.24,3.24,0,0,1-1.64.36,1.4,1.4,0,0,1,.4-.52,8.29,8.29,0,0,1-1-.15l-.5-.11-.21-.05s-.21,0-.4-.14a29.69,29.69,0,0,1-5.37-3.36,39.83,39.83,0,0,1-9.83-10.8c-1.38-1.18-4.9-5.39-4.89-3.39,1.16,2,.19,3-.62,3.41-3-3.29-3.15-4.53-3-5.45s.54-1.61-1.19-4c.85-2.7,3.17,2.4,4.79,1.34-1.9-2.09-3.77-4.26-5.61-6.47-1.86-4.47-5.27-8.11-6.37-12.33.68,1.77,1.7-.22,2.47,2.91-.31-.36-.29,0-.6-.38,3.32,6.36,2.78,2.93,6.37,8.16-3.3-4.48-7.43-10.95-9.34-15.61-.8,1.66-2.43-3.33-3.9-4.18v-.35c-.56.29-2.36-2.32-3-3.11l1.11-1.95c-1.19-1.88-.56,1-1.74-.91-1.81-2.61-6.74-12.78-5.26-14.31-1.71-3.42-3.14-4-4.51-7.72.57.09,1.13.89,1.42.92-3-7.83-7.62-17.14-9.55-25-2.89-5.86-5.18-11-7.85-14.36.76,1.58,2.2,6.51,0,3.91-1.36-1.35-2.06-4-3.35-6.41,1.13.25-1.57-6.77,1-1.93,1.5-2-4.49-10.83-2.47-11.48-1.05-1-3.32-8.35-5.36-10.7.66-.91,2,3.72,2.6,3.49l-1.46-3.21.59-.21c-1.74-6.51-4.59-6.84-6.28-10.5l.29.07-1.21-2.46,2.66,2.46c-1.65-4-3.81-5.62-5.68-10.07l.36-.62-1.47-2.56c.24.43.53.51.57.16-2.41-2.07-3.76-8.21-5.86-10.22-.36-1.91,1.05-4.07-1-6.08l2.05-.16c2.21,6-.62,2.71,2.18,8.89.89-5.52-3.65-18.68-6.55-27.51-3.49-6.79-4.94-19.24-8.68-21.47l1.4.42-2.51-12.44c-3.4-10.2-5.38-21.1-9-28.58l.42-2.43c-2.72-3.66-4.85-10.57-6.91-17.12s-4.07-12.74-6.71-15c-.19-4.9,1.86,1,2.68,1.35-.48-3.52-4.44-8.69-3.36-12.4.62-.14,1.67,4.72,1.55,2.45.59-2.76-1.95-3.33-1.29-6.45-.91,1.52-3.59-4-4.72-8.14a2.5,2.5,0,0,1,0,1.15c-.78.81-1.26-2.38-1.77-4.08a1.1,1.1,0,0,1,.47.56c-6.16-21.48-11.52-46.58-13.39-70l1.45,4.16c-1.13-3.24-1.41-9.2-1.38-11.12l.15.47c1.17-6.41-2.65-6.8-1-11.81l.29.93c-.79-7.48.88-12.06-.62-19.27.41-5.75,1.44-5.16,2.17-9.13-.15-3.28-1.34-4.81-1.59-5l-.07,1.59c-1.09,1.76-1-3.45-1.48-5.81-1.73,1.75-4.54.78-6.2,7.61.74,5-2.68,5-2.09,10.64,2.51,3.08-1.24,8.25,1.3,13.25-1.85-2.61-.31,6.23-2.48,1.87-1.1,2.25,2.45,10.87,1.44,15.08-.43-.62-.79-.42-1.1-1.36,1.6,5.56-.65,4-.12,8.23l1.63-.37c.74,1.55-.35,2.19.12,3.6,0-1.17.5-3.68,1.35-2.5A27.74,27.74,0,0,1,239.8,431c-.62.11-1.12-1.3-1.45-2.26,0,0,.48,4.54-.24,5-.76-1.54-1.05-3.63-2.17-4.94.34,6-.46.55-1.37,3.64,1.82-1.09,1.55,5.06,2.48,8.2-.72.45-.58-2.22-1.28-2.93-2.47,6.66,2,9.11,2.56,17.08-.27-.12-.62-1.05-.8-1.52,1.15,3.62-.19,6.5,1.35,8.71.29,3.59-2.07,1-1,6.48,1.67-2,.81,6.5,2.95,6.24l-.44,4.41c1.88,3.45,3.35-1.67,5,5.47.54,6.68-3.59.07-3.91,4.11l1.48,1.37-.16,3.36-.2-.46c.79,1.84,1.19,5.4.57,5.54-.55-.21-1-2.29-1.52-2.49,1.7,3-.17,13.22,3.74,15.85-.14,2,.74,5.86-.36,5.6,1.77,1.38,1.51,8.56,3,10.86-.55-.21-.75,2.36.08,4.17-.09-2.67.82-1.2,2,.34-.47,2.48,1.93,8.59.52,10,1.76,3.25,2.63,1.68,4,2.15-.44,2.48,1.56,9.53-.65,8.76-.26-2-1-6.32-2-5.2.21,3.81.92,1.45,1.87,4.39-.4-.14-.65,2.33-1.35,1.9a30.67,30.67,0,0,1,1.62,6.79c-.17-4.16,2,2.17,2.12-.39l-2.35-3.42c-1.28-4.56.79-1.23.82-3.09,2.46,7.95,4,5.85,6.89,13.15a44.92,44.92,0,0,0,.37,4.95c-.78-2.49-2.39-1.53-2.33,0,2.6,3.81,1.11,7.79,1.74,11.34-.41-3.11,1.16-1.85,1.89-.88,3,6.91.13,3,.21,6.38,3.34,11,3.16,18.75,7,27.29l.33-4.69-1.92-1c.19-3.63,3.56-.4,5.09,1.17-.37.63,1.56,6,.06,4.07l2.26,5.09c.41-1-.91-4.32.55-2.07,0,1.88,1.4,7.4-.54,4.27.82,2.81,2.44,6.21,3.14,5.32,1.49,4.46-2.06.13-3.29-1.69,1,3.59-.43,3.54-1.19,2.6l1.74,4.9c-.75-.95-1.36-.76-2.12-1.71.47,3.45,2.88,5.24,2.52,8.43l1.66.84c1.88,9.32,1.4,8.46,4,16.88l.46-1.71c3.8,5.76.06,5.14,3.66,13.4,2.21,4.59,3.72,7.52,5,6.38,1.52,2.56.87,3.49.75,4.93,1.59,1.85,4.76,5.9,5.07,9.6-1.29-2.13-2.33-3.83-3.33-5.9-1.25,1.15,2.33,7.48,2.95,11.25,1.6,2.21,6.36,9.49,9.34,13.39.42-2.44,2.45-2.35,5.15,1.13-1.15-.25,1.16,5.66,1.6,8.62-1.4-1,.3,6.91-2.36,1.32-.21-1.85.71-3.1-.64-5.2-.37,1.73,0,5.8.74,9.91-.57-.1-2-1.85-2.74-3.82C309.19,723.57,309.22,722.84,309.53,722.54Z"/>
      <path class="lightbulb-cls-4" d="M506,414.47c0,.22-.07.43-.11.64l.42-.77C506.2,414.6,506.1,414.59,506,414.47Z"/>
      <path class="lightbulb-cls-4" d="M373.85,837.25c.37.22,1.12.52,1.25.37A3.18,3.18,0,0,0,373.85,837.25Z"/>
      <path class="lightbulb-cls-4" d="M448.8,780.44a1.28,1.28,0,0,1-.44,0C448.42,780.54,448.54,780.57,448.8,780.44Z"/>
      <path class="lightbulb-cls-4" d="M517.41,409.49l.23,1.59A6.9,6.9,0,0,0,517.41,409.49Z"/>
    </g>
  </g>
</svg>