<svg id="globalPopUp" xmlns="http://www.w3.org/2000/svg" viewBox="0 0 779 502">
  <defs>
    <style>
      .popup-cls-1{
        fill: #333a4d;
      }

      .popup-cls-2 {
        font-size: 25px;
        fill: #e2d7c4;
        font-family: MyriadPro-Regular, Myriad Pro;
      }

      .popup-cls-3 {
        letter-spacing: -0.01em;
      }

      .popup-cls-4 {
        letter-spacing: -0.01em;
      }

      .popup-cls-5  {
        letter-spacing: 0em;
      }

      .popup-cls-6 {
        letter-spacing: -0.01em;
      }

      .popup-cls-7 {
        letter-spacing: 0.01em;
      }

      .popup-cls-8 {
        letter-spacing: -0.01em;
      }

      .popup-cls-9 {
        letter-spacing: 0em;
      }

      .popup-cls-10 {
        letter-spacing: -0.01em;
      }

      .popup-cls-11 {
        letter-spacing: 0em;
      }

      .popup-cls-12 {
        letter-spacing: 0em;
      }

      .popup-cls-13 {
        letter-spacing: 0em;
      }

      .popup-cls-14 {
        letter-spacing: -0.01em;
      }

      .popup-cls-15 {
        letter-spacing: 0.02em;
      }

      .popup-cls-16 {
        letter-spacing: 0em;
      }

      .popup-cls-17 {
        letter-spacing: -0.01em;
      }

      .popup-cls-18 {
        letter-spacing: 0em;
      }

     .popup-cls-19 {
        letter-spacing: 0em;
      }

     .popup-cls-20 {
        letter-spacing: 0em;
      }

     .popup-cls-21 {
        letter-spacing: -0.01em;
      }
    </style>
  </defs>
  <title>Artboard 22</title>
  <g id="Layer_2" data-name="Layer 2">
    <rect class="popup-cls-1" x="8.03" y="11.12" width="763.56" height="483.86" rx="86.08"/>
    <text class="popup-cls-2" transform="translate(88.6 111.65)"></text>
    <!-- <text/> <text class="popup-cls-2" transform="translate(88.6 111.65)"><tspan class="popup-cls-3">L</tspan><tspan x="11.45" y="0">o</tspan><tspan class="popup-cls-4" x="25.17" y="0">r</tspan><tspan x="33.1" y="0">em ipsum dolor sit ame</tspan><tspan class="popup-cls-5" x="277.34" y="0">t</tspan><tspan x="285.54" y="0">, </tspan><tspan class="popup-cls-6" x="296.01" y="0">c</tspan><tspan x="307.07" y="0">onse</tspan><tspan class="popup-cls-7" x="357.09" y="0">c</tspan><tspan class="popup-cls-6" x="368.61" y="0">t</tspan><tspan x="376.74" y="0">etuer adipiscing eli</tspan><tspan class="popup-cls-5" x="573.76" y="0">t</tspan><tspan x="581.96" y="0">, </tspan><tspan x="0" y="30">sed diam nonum</tspan><tspan class="popup-cls-8" x="176.07" y="30">m</tspan><tspan x="196.6" y="30">y nibh euismod tincidu</tspan><tspan class="popup-cls-9" x="435.74" y="30">n</tspan><tspan x="449.51" y="30">t ut lao</tspan><tspan class="popup-cls-4" x="522.11" y="30">r</tspan><tspan x="530.04" y="30">eet </tspan><tspan x="0" y="60">dolo</tspan><tspan class="popup-cls-4" x="47.45" y="60">r</tspan><tspan x="55.37" y="60">e ma</tspan><tspan class="popup-cls-6" x="106.1" y="60">g</tspan><tspan x="119.92" y="60">na aliquam e</tspan><tspan class="popup-cls-10" x="253.52" y="60">r</tspan><tspan class="popup-cls-11" x="261.57" y="60">a</tspan><tspan x="273.52" y="60">t </tspan><tspan class="popup-cls-4" x="287.09" y="60">v</tspan><tspan x="298.87" y="60">olutp</tspan><tspan class="popup-cls-9" x="354.76" y="60">a</tspan><tspan class="popup-cls-12" x="366.71" y="60">t</tspan><tspan x="374.91" y="60">. </tspan><tspan class="popup-cls-13" x="385.39" y="60">U</tspan><tspan x="401.66" y="60">t wisi enim ad </tspan><tspan x="0" y="90">minim </tspan><tspan class="popup-cls-4" x="72.57" y="90">v</tspan><tspan x="84.35" y="90">eniam, quis nostrud </tspan><tspan class="popup-cls-12" x="295.99" y="90">e</tspan><tspan class="popup-cls-14" x="308.44" y="90">x</tspan><tspan x="319.64" y="90">e</tspan><tspan class="popup-cls-4" x="332.17" y="90">r</tspan><tspan x="340.09" y="90">ci t</tspan><tspan class="popup-cls-9" x="370.71" y="90">a</tspan><tspan x="382.66" y="90">tion ullam</tspan><tspan class="popup-cls-6" x="488.16" y="90">c</tspan><tspan x="499.21" y="90">o</tspan><tspan class="popup-cls-13" x="512.94" y="90">r</tspan><tspan x="521.21" y="90">per </tspan><tspan x="0" y="120">suscipit lobo</tspan><tspan class="popup-cls-15" x="131.84" y="120">r</tspan><tspan x="140.62" y="120">tis nisl ut aliquip </tspan><tspan class="popup-cls-5" x="315.14" y="120">e</tspan><tspan class="popup-cls-16" x="327.59" y="120">x ea </tspan><tspan class="cls-17" x="374.34" y="120">c</tspan><tspan x="385.39" y="120">ommodo </tspan><tspan class="cls-17" x="487.66" y="120">c</tspan><tspan x="498.71" y="120">onsequ</tspan><tspan class="popup-cls-11" x="576.58" y="120">a</tspan><tspan class="popup-cls-12" x="588.53" y="120">t</tspan><tspan x="596.73" y="120">. </tspan><tspan class="popup-cls-18" x="0" y="150">D</tspan><tspan x="16.72" y="150">uis au</tspan><tspan class="popup-cls-17" x="77.37" y="150">t</tspan><tspan x="85.5" y="150">em </tspan><tspan class="popup-cls-4" x="124.17" y="150">v</tspan><tspan x="135.94" y="150">el eum i</tspan><tspan class="popup-cls-19" x="217.97" y="150">r</tspan><tspan x="226.24" y="150">iu</tspan><tspan class="popup-cls-4" x="245.87" y="150">r</tspan><tspan x="253.79" y="150">e dolor in hend</tspan><tspan class="popup-cls-4" x="411.94" y="150">r</tspan><tspan x="419.86" y="150">e</tspan><tspan class="popup-cls-13" x="432.38" y="150">r</tspan><tspan x="440.66" y="150">it in vulput</tspan><tspan class="popup-cls-11" x="553.08" y="150">a</tspan><tspan class="cls-17" x="565.03" y="150">t</tspan><tspan x="573.15" y="150">e </tspan><tspan class="popup-cls-4" x="0" y="180">v</tspan><tspan x="11.77" y="180">elit esse molestie </tspan><tspan class="popup-cls-6" x="194.62" y="180">c</tspan><tspan x="205.67" y="180">onsequ</tspan><tspan class="popup-cls-9" x="283.54" y="180">a</tspan><tspan class="popup-cls-12" x="295.49" y="180">t</tspan><tspan x="303.69" y="180">, </tspan><tspan class="popup-cls-4" x="314.17" y="180">v</tspan><tspan x="325.94" y="180">el illum dolo</tspan><tspan class="popup-cls-4" x="454.68" y="180">r</tspan><tspan x="462.61" y="180">e eu </tspan><tspan class="popup-cls-8" x="512.03" y="180">f</tspan><tspan x="519.01" y="180">eu</tspan><tspan class="cls-17" x="545.31" y="180">g</tspan><tspan x="559.13" y="180">i</tspan><tspan class="popup-cls-11" x="564.98" y="180">a</tspan><tspan x="576.93" y="180">t </tspan><tspan x="0" y="210">nulla facilisis </tspan><tspan class="popup-cls-11" x="135.9" y="210">a</tspan><tspan x="147.85" y="210">t </tspan><tspan class="popup-cls-4" x="161.42" y="210">v</tspan><tspan x="173.2" y="210">e</tspan><tspan class="popup-cls-4" x="185.72" y="210">r</tspan><tspan x="193.64" y="210">o e</tspan><tspan class="popup-cls-4" x="225.19" y="210">r</tspan><tspan x="233.12" y="210">os et a</tspan><tspan class="popup-cls-6" x="300.19" y="210">c</tspan><tspan x="311.24" y="210">cumsan et ius</tspan><tspan class="cls-17" x="453.81" y="210">t</tspan><tspan x="461.94" y="210">o odio </tspan><tspan x="0" y="240">di</tspan><tspan class="cls-17" x="19.95" y="240">g</tspan><tspan x="33.77" y="240">nissim qui blandit p</tspan><tspan class="popup-cls-20" x="238.09" y="240">r</tspan><tspan x="246.14" y="240">aese</tspan><tspan class="popup-cls-9" x="293.14" y="240">n</tspan><tspan x="306.92" y="240">t lupt</tspan><tspan class="popup-cls-11" x="362.66" y="240">a</tspan><tspan x="374.61" y="240">tum zz</tspan><tspan class="popup-cls-13" x="444.21" y="240">r</tspan><tspan x="452.49" y="240">il delenit </tspan><tspan x="0" y="270">augue duis dolo</tspan><tspan class="popup-cls-4" x="167.77" y="270">r</tspan><tspan x="175.69" y="270">e </tspan><tspan class="popup-cls-6" x="193.52" y="270">t</tspan><tspan x="201.64" y="270">e </tspan><tspan class="popup-cls-21" x="219.47" y="270">f</tspan><tspan x="226.44" y="270">eugait nulla facilisi.</tspan><tspan class="popup-cls-3" x="0" y="300">L</tspan><tspan x="11.45" y="300">o</tspan><tspan class="popup-cls-4" x="25.17" y="300">r</tspan><tspan x="33.1" y="300">em ipsum dolor sit ame</tspan><tspan class="popup-cls-5" x="277.34" y="300">t</tspan><tspan x="285.54" y="300">, </tspan><tspan class="popup-cls-6" x="296.01" y="300">c</tspan><tspan x="307.07" y="300">ons e</tspan><tspan class="popup-cls-7" x="362.39" y="300">c</tspan><tspan class="popup-cls-6" x="373.91" y="300">t</tspan><tspan x="382.04" y="300">etuer adipiscing eli</tspan><tspan class="popup-cls-5" x="579.06" y="300">t</tspan><tspan x="587.26" y="300">, </tspan></text> -->
  </g>
</svg>
