<svg id="forward-button" xmlns="http://www.w3.org/2000/svg" width="26.398" height="25.398" viewBox="0 0 26.398 25.398">
  <path id="Path_1" data-name="Path 1" d="M13.2,25.4A12.971,12.971,0,0,1,0,12.7,12.971,12.971,0,0,1,13.2,0,12.971,12.971,0,0,1,26.4,12.7,12.971,12.971,0,0,1,13.2,25.4Zm0-23.66A11.2,11.2,0,0,0,1.809,12.7,11.2,11.2,0,0,0,13.2,23.66,11.2,11.2,0,0,0,24.593,12.7,11.2,11.2,0,0,0,13.2,1.738Z" transform="translate(-0.002)"/>
  <path id="Path_2" data-name="Path 2" d="M60.09,71.583a.983.983,0,0,1-1.32,0,.827.827,0,0,1,0-1.229l3.587-3.34H51.969a.871.871,0,1,1,0-1.738H62.358L58.77,61.935a.828.828,0,0,1,0-1.229.983.983,0,0,1,1.32,0l5.182,4.824a.827.827,0,0,1,0,1.229Z" transform="translate(-45.062 -53.445)"/>
</svg>
